<svg version="1.1" id="Слой_1" xmlns="http://www.w3.org/2000/svg" xmlns:xlink="http://www.w3.org/1999/xlink" x="0px" y="0px"
   viewBox="0 0 53 53.1" enable-background="new 0 0 53 53.1" xml:space="preserve" width="53" height="54">
<path id="Forma_1" fill="#373B51" d="M14.1,17.4c0-0.5,0.1-2.1,1.2-2.5s2.3,0.7,2.5,0.9c0.3,0.3,0.3,0.7,0,1c0,0,0,0,0,0
  c-0.3,0.3-0.8,0.3-1.1,0c-0.2-0.3-0.5-0.4-0.8-0.6c-0.1,0.4-0.2,0.7-0.2,1.1c-0.1,1.5,0.8,3,2.2,3.6c0.2,0.1,0.4,0.3,0.5,0.5l0,0.1
  c0,0,0,0.1,0,0.1c0.6,7.3,6.6,9.7,9.4,9.7s8.8-2.4,9.4-9.7c0,0,0-0.1,0-0.1l0-0.1c0.1-0.2,0.3-0.4,0.5-0.5c1.4-0.6,2.3-2,2.2-3.6
  c0-0.4,0-0.8-0.2-1.2c-0.3,0.1-0.6,0.3-0.8,0.6c-0.3,0.3-0.8,0.3-1.1,0c-0.3-0.3-0.3-0.7-0.1-1c0,0,0,0,0,0c0.2-0.2,1.4-1.3,2.5-0.9
  s1.2,2,1.2,2.5c0.1,2-1,3.9-2.8,4.8c-0.1,6-5,10.8-11,10.7c-5.9-0.1-10.6-4.8-10.7-10.7C15.1,21.4,14,19.5,14.1,17.4z M16.1,12.5
  C16.1,2.2,24.5,0,27.7,0s11.7,2.2,11.7,12.5c0,0.3-0.2,0.6-0.5,0.7l-1.2,0.4l-1.1,1.1c-0.1,0.2-0.4,0.3-0.6,0.2c0,0,0,0-0.1,0
  c-0.2,0-0.4-0.1-0.6-0.3c0-0.1-1.6-2.1-7.7-2.1c-6.2,0-7.7,2.1-7.7,2.1c-0.1,0.2-0.4,0.3-0.6,0.3c-0.2,0-0.5-0.1-0.6-0.2l-1.1-1.1
  l-1.2-0.4C16.3,13.1,16.1,12.8,16.1,12.5L16.1,12.5z M17.6,11.9l0.8,0.2c0.1,0,0.2,0.1,0.3,0.2l0.6,0.7c1-0.8,3.4-2.1,8.3-2.1
  s7.3,1.3,8.3,2.1l0.6-0.7c0.1-0.1,0.2-0.2,0.3-0.2l0.8-0.2C37.6,1.8,27.8,1.5,27.7,1.5S17.9,1.8,17.6,11.9L17.6,11.9z M19.4,10.1
  c-0.1-0.4,0.1-0.8,0.4-0.9c0,0,0,0,0,0c1.1-0.4,2.2-0.7,3.3-0.9c-0.2-0.6-0.3-1.2-0.5-1.8c-0.1-0.2,0-0.4,0.1-0.6
  c0.1-0.2,0.3-0.3,0.5-0.3c3-0.7,6.1-0.7,9.2,0c0.2,0.1,0.4,0.2,0.5,0.3c0.1,0.2,0.1,0.4,0.1,0.6c-0.2,0.6-0.3,1.2-0.5,1.8
  c1.1,0.2,2.2,0.5,3.3,0.9c0.4,0.1,0.6,0.5,0.5,0.9c0,0,0,0,0,0c-0.1,0.3-0.4,0.5-0.7,0.5c-0.1,0-0.2,0-0.3,0c-4.8-1.7-10-1.7-14.8,0
  C19.9,10.7,19.5,10.5,19.4,10.1L19.4,10.1z M24.6,8c2.1-0.3,4.2-0.3,6.2,0c0.1-0.4,0.2-0.8,0.3-1.2c-2.3-0.5-4.6-0.5-6.9,0
  C24.4,7.3,24.5,7.7,24.6,8L24.6,8z M53,23.9v3.8c0,0.4-0.2,0.8-0.6,1l-2.8,1.6v9.3c0,0,0,0,0,0.1c0.8,0.1,1.5,0.4,2.1,0.9
  c0.7,0.9,1.1,2.1,0.9,3.2V49c-0.1,2.3-2,4.1-4.3,4c-2.2-0.1-4-1.8-4-4v-5.2c-0.2-1.2,0.2-2.3,0.9-3.2c0.6-0.5,1.3-0.8,2.1-0.9
  c0,0,0,0,0-0.1v-1.2c-0.9-2.7-2.4-5-4.6-6.9l-2.1,5.8V53H14.8V37.4l-2.2-6c-2.9,2.2-4.9,5.4-5.4,9c0.1,0.1,0.2,0.1,0.2,0.2
  c0.7,0.9,1.1,2.1,0.9,3.2v5.2c-0.1,2.3-2,4.1-4.3,4c-2.2-0.1-4-1.8-4-4v-5.2c-0.2-1.2,0.2-2.3,0.9-3.2c0.4-0.4,0.9-0.6,1.4-0.8v-3.9
  c0-0.4,0.3-0.7,0.8-0.7c0,0,0,0,0,0h0.5V28c0-0.3,0.3-0.6,0.6-0.6c0.3,0,0.5,0.3,0.6,0.6v7.2h0.6c0.4,0,0.8,0.3,0.8,0.7c0,0,0,0,0,0
  v2.6c1-3.4,3.2-6.4,6.1-8.5l-0.2-0.6c-0.1-0.4,0.1-0.8,0.4-0.9c0,0,0,0,0,0c0.4-0.1,0.8,0.1,1,0.4l0.1,0.2c1.1-0.7,2.2-1.2,3.3-1.7
  c0.2-0.1,0.4-0.1,0.6,0c0.2,0.1,0.3,0.2,0.4,0.4c1.3,3.8,5.2,6.3,9.9,6.3s8.5-2.5,9.9-6.3c0.1-0.2,0.2-0.4,0.4-0.4
  c0.2-0.1,0.4-0.1,0.6,0c1.2,0.5,2.4,1.1,3.5,1.8l0.1-0.4c0.2-0.4,0.6-0.6,1-0.4c0.4,0.1,0.6,0.5,0.5,0.9c0,0,0,0,0,0l-0.3,0.8
  c1.6,1.3,3,2.9,4,4.6v-4.5l-2.8-1.6c-0.4-0.2-0.6-0.6-0.6-1v-3.8c0-0.6,0.5-1.1,1.2-1.1c0.6,0,1.1,0.5,1.1,1.1v3.2l2.2,1.2l2.2-1.2
  v-3.2c0-0.6,0.5-1.2,1.2-1.2C52.5,22.8,53,23.3,53,23.9L53,23.9L53,23.9z M3.8,39.1h0.7v-2.5H3.8V39.1z M6.6,50H5
  c-0.4,0-0.8-0.3-0.8-0.7c0,0,0,0,0,0c0-0.4,0.3-0.8,0.8-0.8h1.8v-1.2H5c-0.4,0-0.7-0.3-0.7-0.7s0.3-0.7,0.7-0.7c0,0,0,0,0,0h1.8
  v-1.4H5c-0.4,0-0.7-0.3-0.7-0.7s0.3-0.7,0.7-0.7c0,0,0,0,0,0h1.8c0-0.5-0.1-1-0.4-1.3c-1.4-0.7-3-0.7-4.4,0
  c-0.4,0.6-0.6,1.4-0.5,2.2V49c0,1.4,1.2,2.6,2.6,2.6C5.2,51.5,6.1,50.9,6.6,50L6.6,50z M17.2,39.1c0-0.3-0.2-0.5-0.5-0.5
  s-0.5,0.2-0.5,0.5c0,0.3,0.2,0.5,0.5,0.5c0,0,0,0,0,0C17,39.5,17.2,39.3,17.2,39.1C17.2,39.1,17.2,39.1,17.2,39.1L17.2,39.1z
   M34.7,46.3c0-0.4-0.3-0.8-0.8-0.8H21.6c-0.4,0-0.8,0.3-0.8,0.8c0,0.4,0.3,0.7,0.8,0.7c0,0,0,0,0,0h12.3
  C34.3,47,34.7,46.7,34.7,46.3C34.7,46.3,34.7,46.3,34.7,46.3L34.7,46.3z M27.8,39.5c0.3,0,0.5-0.2,0.5-0.5c0-0.3-0.2-0.5-0.5-0.5
  c-0.3,0-0.5,0.2-0.5,0.5C27.3,39.3,27.5,39.5,27.8,39.5C27.8,39.5,27.8,39.5,27.8,39.5L27.8,39.5z M39.3,39.1c0-0.3-0.2-0.5-0.5-0.5
  s-0.5,0.2-0.5,0.5c0,0.3,0.2,0.5,0.5,0.5c0,0,0,0,0,0C39,39.5,39.3,39.3,39.3,39.1C39.3,39.1,39.3,39.1,39.3,39.1L39.3,39.1z
   M41.5,30.6c-0.9-0.6-1.8-1.2-2.8-1.6c-1.8,4-6,6.6-11,6.6s-9.3-2.6-11-6.6c-0.9,0.4-1.8,0.9-2.7,1.5l2.5,6.8h22.7L41.5,30.6z
   M50.7,41.6c-1.4-0.7-3-0.7-4.4,0c-0.3,0.4-0.5,0.8-0.4,1.3h1.8c0.4,0,0.7,0.3,0.7,0.7s-0.3,0.7-0.7,0.7c0,0,0,0,0,0h-1.8v1.4h1.8
  c0.4,0,0.7,0.3,0.7,0.7s-0.3,0.7-0.7,0.7c0,0,0,0,0,0h-1.8v1.2h1.8c0.4,0,0.8,0.3,0.8,0.8c0,0.4-0.3,0.7-0.8,0.7c0,0,0,0,0,0h-1.6
  c0.4,0.9,1.4,1.5,2.4,1.5c1.4,0,2.6-1.1,2.6-2.6v-5.2C51.2,43,51.1,42.2,50.7,41.6L50.7,41.6z M28.2,18.2v3.7h-1.7
  c-0.4,0-0.8,0.3-0.8,0.8c0,0.4,0.3,0.7,0.8,0.7c0,0,0,0,0,0H29c0.4,0,0.8-0.3,0.8-0.7c0,0,0,0,0,0v-4.4c0-0.4-0.3-0.8-0.8-0.8
  C28.6,17.4,28.2,17.8,28.2,18.2L28.2,18.2L28.2,18.2z"/>
</svg>
