<svg version="1.1" id="Слой_1" xmlns:fi="http://pattern.flaticon.com/"
	 xmlns="http://www.w3.org/2000/svg" xmlns:xlink="http://www.w3.org/1999/xlink" x="0px" y="0px" viewBox="0 0 915.1 775.7"
	 enable-background="new 0 0 915.1 775.7" xml:space="preserve" width="60" height="52">
<g>
	<polygon fill="none" stroke="#373B51" stroke-width="10" stroke-miterlimit="10" points="10,5 251,6 249.5,715 5,714 	"/>

		<polyline fill="none" stroke="#373B51" stroke-width="5" stroke-linecap="round" stroke-linejoin="round" stroke-miterlimit="10" points="
		213,685.3 218,658 228,549 232,451 233,295 233,169 233,85 232,32 33,32 32,53 31,215 29,353 30,509 35,584 45,687 	"/>
	<path fill="#373B51" stroke="#373B51" stroke-width="3" stroke-miterlimit="10" d="M199.2,90.1H67.5c-6.6,0-12-5.4-12-12V64
		c0-6.6,5.4-12,12-12h131.7c6.6,0,12,5.4,12,12v14.1C211.2,84.7,205.8,90.1,199.2,90.1z"/>
	<path fill="#373B51" stroke="#373B51" stroke-width="3" stroke-miterlimit="10" d="M152.7,167.2h-40.9c-1.8,0-3.3-1.5-3.3-3.3v-8.8
		c0-1.8,1.5-3.3,3.3-3.3h40.9c1.8,0,3.3,1.5,3.3,3.3v8.8C156,165.7,154.5,167.2,152.7,167.2z"/>
	<rect x="263.6" y="6.6" fill="none" stroke="#373B51" stroke-width="10" stroke-miterlimit="10" width="646.5" height="708.7"/>

		<path fill="#373B51" stroke="#373B51" stroke-width="4" stroke-linecap="round" stroke-linejoin="round" stroke-miterlimit="10" d="
		M311.9,318.4c38.2,0,34.1,38.5,33.6,42.1c0,0.2,0,0.4-0.1,0.6l-0.7,8.8c-0.1,0.9-0.2,1.7-0.5,2.6l-2.4,7.7l-4,12.1
		c-0.2,0.6-0.3,1.2-0.4,1.9l-1.5,9.1c-0.3,1.6-0.4,3.2-0.3,4.9l0.4,12.6c0,0.5,0.1,1,0.1,1.5l1.7,10.8c0.1,0.8,0.2,1.6,0.1,2.4
		l-0.7,16l-4,58.8L331,543c-0.1,0.9-0.2,1.7-0.4,2.5l-0.9,3.3c-0.8,2.7-2.5,5.1-4.9,6.7l-1.1,0.8c-1.9,1.3-4.2,2-6.6,2.1l-16.8,0.4
		c-2,0-4-0.4-5.8-1.3l-2.6-1.3c-2.6-1.3-4.6-3.5-5.7-6.1l0,0c-0.5-1.3-0.8-2.6-0.9-4l-2.9-48.7l-2.9-60.5c-0.1-1.2,0.1-2.3,0.3-3.5
		l2.1-8.5c0.2-0.7,0.3-1.4,0.3-2.1l0.9-13.8c0-0.3,0-0.6,0-0.9c0-2.5,0.4,1,0-7.5c-0.2-3.8-0.9-7.2-1.5-10.4
		c-0.8-4-1.7-7.7-3.6-11.5l-0.1-0.1c-0.5-1.1-0.9-2.4-1.1-3.6l-1-7.1l-0.9-7.7c0,0-5.5-41.6,34.5-41.6h1.9L311.9,318.4z"/>

		<path fill="#373B51" stroke="#373B51" stroke-width="4" stroke-linecap="round" stroke-linejoin="round" stroke-miterlimit="10" d="
		M805.1,64c-10-11-425.4-9.9-434.2-1.1c0,22.1-1.6,184.1,1.4,255.1s11.3,280.7,33.7,303c17.4,8.6,356,10,365,1
		c16.5-16.5,32-290.3,33.3-312C805.7,288.3,805.1,94,805.1,64z M753.4,521.9c-0.6,4.1-4.1,7.1-8.3,7.1H425.6c-4.1,0-7.6-3.1-8.1-7.2
		c-17.4-140.5-24.6-281.4-21.3-422.7c0.1-3.7,3.2-6.7,6.9-6.7H771c3.4,0,6.2,2.7,6.3,6.1C783.1,238,774.7,379.2,753.4,521.9z"/>

		<line fill="none" stroke="#373B51" stroke-width="3" stroke-linecap="round" stroke-linejoin="round" stroke-miterlimit="10" x1="50.7" y1="211" x2="213.3" y2="211"/>
	<path fill="none" stroke="#373B51" stroke-width="3" stroke-linecap="round" stroke-linejoin="round" stroke-miterlimit="10" d="
		M71.7,430.3l119.3,1c6.1-55.7,8.5-112.1,7.3-169.3h-133C64.1,317.7,66.3,373.8,71.7,430.3z"/>

		<circle fill="#373B51" stroke="#373B51" stroke-width="4" stroke-linecap="round" stroke-linejoin="round" stroke-miterlimit="10" cx="130" cy="632" r="53"/>

		<path fill="#373B51" stroke="#373B51" stroke-width="3" stroke-linecap="round" stroke-linejoin="round" stroke-miterlimit="10" d="
		M102,329.7c18.4-3.1,36.9-3.1,55.3,0c1.1,12.6,0.7,24.3-3.3,33.7c-16.5,3.3-32.3,3.6-47.3,0.7C103.3,353.1,101.8,341.6,102,329.7z"
		/>
	<polygon fill="#373B51" stroke="#373B51" stroke-width="10" stroke-miterlimit="10" points="94.2,719.9 168,719.9 164.7,770.7
		98.2,770.7 	"/>
	<polygon fill="#373B51" stroke="#373B51" stroke-width="10" stroke-miterlimit="10" points="756.2,719.9 830,719.9 826.7,770.7
		760.2,770.7 	"/>
</g>
</svg>
