<svg version="1.1" id="Слой_1" xmlns="http://www.w3.org/2000/svg" xmlns:xlink="http://www.w3.org/1999/xlink" x="0px" y="0px"
	 viewBox="0 0 2426.5 546.9" enable-background="new 0 0 2426.5 546.9" xml:space="preserve">
<g>
	<path d="M575.9,460c44.9,20.8,97.9,31.4,157.4,31.4c55.5,0,100.6-15.7,130.3-45.4c24.4-24.4,37.9-57.8,37.9-93.9
		c0-80.7-67.2-115.4-116.2-140.7C755,195.7,729,182.3,729,164.5c0-5.8,2-10.8,6-14.8c6.3-6.3,17.4-9.8,31.1-9.8
		c31.8,0,64.8,17.5,107.3,56.7l10.4,9.6V70.9l-2.5-1.9c-45.3-34-89.9-49.1-144.7-49.1c-129.6,0-164.2,88.4-164.2,140.6
		c0,85.3,67.3,120.2,116.5,145.7c26.9,13.9,50.1,26,50.1,40.6c0,15.2-14.7,24.6-38.4,24.6c-36.3,0-76.1-14.6-118.5-43.5l-9.7-6.6
		v137L575.9,460z M1290.9,385.2c-34.1-0.6-35.2-6.8-35.2-39.7v-98.3c0-33.7-10.8-61.6-32-82.9c-27.9-27.9-74-43.3-129.6-43.3
		c-63.6,0-116.7,19.2-167.2,60.4l-2.3,1.9v117.1l10-7.6c56.7-43.2,90.7-57.8,134.6-57.8c37.6,0,46.4,11.2,48,33.2
		c-16.2,11-44.3,18.5-74,26.4c-39.5,10.5-80.4,21.3-101.6,42.6c-18.1,18.1-28.1,40.6-28.1,63.4c0,23.4,8.3,44,24,59.7
		c20.3,20.3,52.3,31.1,92.4,31.1c41.8,0,79.4-10.6,112-31.4c21.9,26.8,55.5,34.8,124.5,30.1l4.4-0.3l1.1-4.3l24.9-92.5l2.1-7.7
		L1290.9,385.2z"/>
	<path fill="#FFFFFF" d="M1117.4,339.9c-10.3,5.2-22.2,8.8-33.9,12.4c-33.6,10.3-54,18.4-54,43c0,9.1,3.3,17.4,9.2,23.3
		c5.9,5.9,14.2,9.2,23.3,9.2c19,0,40.8-7.6,57.8-19.9c-1.9-7.9-2.4-16.6-2.4-29.6V339.9z"/>
	<path d="M1658.9,415.1l-24.9-56.4l-3-6.9l-6.2,4.3c-38.4,26.4-71.5,38.2-107.3,38.2c-43.8,0-83-25.7-88.3-56.4h224.9l0.7-5.4
		c7.4-58.5-7.8-112.5-42.7-152c-33.9-38.4-82.4-59.5-136.6-59.5c-105.6,0-185.2,79.1-185.2,183.9c0,49.7,18.5,95.6,52.1,129.2
		c37,37,90.5,57.4,150.8,57.4c68.3,0,125.2-24.1,164.7-69.7l2.6-3L1658.9,415.1z"/>
	<path fill="#FFFFFF" d="M1476.8,209.4c-16,0-29.3,5.1-38.5,14.8c-10.5,11.2-15.4,28.2-15,50.1h106.5
		C1527.8,230.9,1510.5,209.4,1476.8,209.4C1476.8,209.4,1510.5,209.4,1476.8,209.4L1476.8,209.4z"/>
	<path d="M1979,345.7c-37.1,15.6-58.8,21.2-82.8,21.2c-26.7,0-49.2-7.8-63.5-22.1c-10.1-10-15.8-23.7-15.6-37.9
		c0-15.8,5.6-29.7,16.3-40.4c13.5-13.5,34.4-21,58.8-21c27.8,0,54.5,6.3,84,19.8l8.8,4V140.4l-4.2-1.4c-34.9-11.6-75.2-18-113.4-18
		c-136.7,0-199,97-199,187.2c0,49.5,17.4,93.1,50.3,126c36.9,36.9,91.1,57.2,152.6,57.2c38.5,0,66.8-5.6,112.3-22l4.1-1.5V342.1
		L1979,345.7z M2006.2,306.2c0,49.4,18.2,94.8,51.4,127.9c37.5,37.5,92.8,57.3,160.1,57.3c65.7,0,120.2-19.8,157.6-57.2
		c33-33,51.2-78.5,51.2-128.1c0-49.6-18.3-95.2-51.4-128.4c-37.2-37.2-92.1-56.8-158.8-56.8C2071.1,120.9,2006.2,214,2006.2,306.2
		C2006.2,306.2,2006.2,214,2006.2,306.2L2006.2,306.2z"/>
	<path fill="#FFFFFF" d="M2155,306.2c0-17.6,5.8-32.7,16.8-43.7c11.1-11.1,26.5-17,44.5-17s33.4,5.9,44.5,17
		c11,11,16.8,26.1,16.8,43.7c0,36.3-24.6,60.7-61.3,60.7c-18,0-33.4-5.9-44.5-17C2160.8,338.8,2155,323.7,2155,306.2
		C2155,306.2,2155,323.7,2155,306.2L2155,306.2z"/>
	<path d="M85.9,365.9c-14.2-28.7-21.5-60.4-21.5-92.4C64.4,158,158,64.4,273.5,64.4c43.3,0,83.5,13.2,116.9,35.7l67.1-29
		C407.1,25.3,341.5-0.1,273.5,0C122.4,0,0,122.4,0,273.5c0,76.1,31.1,145,81.3,194.6l364.8-157l12.8-105.5L85.9,365.9L85.9,365.9z"
		/>
	<path d="M469.7,201.3c-1.8-5-3.9-9.9-6.1-14.7L91.3,346.2l12.8-105.5l366.3-157c25.4,26.4,45.3,57.6,58.5,91.8
		c12,31.3,18.1,64.5,18.1,97.9c0,151-122.4,273.5-273.5,273.5C209,547,146.6,524.3,97.4,482.7l68.9-29.7
		c32.4,19.4,69.4,29.6,107.2,29.5c115.5,0,209.1-93.6,209.1-209.1C482.5,248.1,478,223.8,469.7,201.3
		C469.7,201.3,478,223.8,469.7,201.3L469.7,201.3z"/>
</g>
</svg>
