<svg version="1.1" id="Слой_1" xmlns="http://www.w3.org/2000/svg" xmlns:xlink="http://www.w3.org/1999/xlink" x="0px" y="0px"
   viewBox="0 0 57.6 57.7" enable-background="new 0 0 57.6 57.7" xml:space="preserve" width="112" height="112">
<path id="Forma_1" fill="#373B51" d="M57.4,11.9c-0.2-0.2-0.6-0.3-0.9-0.1l-11.9,6.9L28.1,9.3c0,0-0.1,0-0.1,0l-4.6-8.9
  c-0.2-0.3-0.6-0.5-0.9-0.3c0,0,0,0,0,0L0.4,12.2c-0.2,0.1-0.3,0.2-0.3,0.4C0,12.8,0,13,0.1,13.2l5.2,9.2c0,0,0.1,0,0.1,0.1l0,0v21.1
  H5.2c0,0.3,0.2,0.5,0.3,0.7l21.8,13.3c0.1,0.1,0.2,0.1,0.4,0.1c0.1,0,0.2,0,0.4-0.1l22.3-13.3c0.2-0.2,0.3-0.5,0.3-0.7H51v-21
  l6.5-9.8C57.7,12.5,57.6,12.1,57.4,11.9z M24.6,32.7l3.2-2.1l1.9,1.2l-1.8,2.8L24.6,32.7z M27.1,29.4l-3.9,2.5L7.4,22.5l19.8-11.3
  V29.4L27.1,29.4z M6.8,23.7l20.4,12.4v19.7L6.8,43.4V23.7z M28.5,36.1l21.1-12.4v19.7L28.5,55.8V36.1z M30.4,30.6l-1.9-1.3V11.1
  l14.6,8.3l-8.9,5.1c-0.1,0.1-0.2,0.1-0.2,0.2L30.4,30.6z M22.5,1.7l4.2,8.1L6.3,21.4l-4.7-8.3L22.5,1.7z M49.5,21.9L49.5,21.9
  L30.4,33.3l4.7-7.6l19.4-11.2L49.5,21.9z"/>
</svg>
