<svg version="1.1" id="Слой_1" xmlns="http://www.w3.org/2000/svg" xmlns:xlink="http://www.w3.org/1999/xlink" x="0px" y="0px"
	 viewBox="0 0 2426.5 605.1" style="enable-background:new 0 0 2426.5 605.1;" xml:space="preserve">
<path class="rational1" d="M2426.5,457.3c0,40.8-16.6,77.7-43.4,104.5c-27.7,27.8-65.3,43.3-104.5,43.3H147.8
	c-39.2,0-76.8-15.5-104.4-43.3h-0.1C15.5,534.1,0,496.5,0,457.3V147.8c0-39.2,15.5-76.8,43.3-104.4l0.1-0.1C71,15.6,108.6,0,147.8,0
	h2130.8c40.8,0,77.7,16.5,104.5,43.3h0.1c27.8,27.7,43.4,65.3,43.3,104.5L2426.5,457.3L2426.5,457.3L2426.5,457.3z M2381.4,457.3
	V147.8c0-27.3-10.8-53.4-30.1-72.7h0.1c-19.3-19.3-45.5-30.1-72.7-30.1H147.8c-27.2,0-53.4,10.7-72.6,30l-0.1,0.1l0.1-0.1l-0.1,0.1
	c-19.3,19.3-30,45.4-30,72.7v309.4c0,28.4,11.5,54.1,30.1,72.7h-0.1c19.3,19.3,45.5,30.1,72.7,30.1h2130.8
	c56.7,0.1,102.7-45.8,102.8-102.4C2381.4,457.5,2381.4,457.4,2381.4,457.3z"/>
<path class="rational2" d="M634,119.1H519.1L416.7,416.4l-47-81.2c0,0,62.1-2.3,64.4-98.9c2.9-120-119.5-120.5-119.5-120.5H107.6v350.4
	h110.3V339.8h27.6l87.3,126.4h160.9l17.9-48.3h123.5l15,48.3h112.6L634,119.1z M220.2,193.9h80.5c22.2,0.7,39.5,21.6,36.8,43.7
	c-2.3,18.5-15.9,31.5-34.5,33.2h-82.8V193.9L220.2,193.9z M539.7,342.1l39.1-105.7l32.8,105.7H539.7z M866.1,204.1l62.1,0v-85.1
	H684.5v85.1l78.2,0v262.1h103.4L866.1,204.1L866.1,204.1z M1479.1,302.3v-0.2c0-119.9-97.2-217-217-217c-43.3,0-85.7,13-121.5,37.3
	l90.3,121c9.6-5.1,20.3-7.8,31.2-7.7c23.9,0,39.7,12.2,47,19.5c12.5,12.4,19.5,29.4,19.5,47v0.2H1275l125.2,167.8l125.2-167.8
	L1479.1,302.3L1479.1,302.3z"/>
<path class="rational3" d="M1292.6,361.1c-9.4,4.9-19.9,7.5-30.5,7.5c-17.6,0-34.6-7-47-19.5c-12.4-12.4-19.4-29.2-19.4-46.8h53.8
	l-125.2-167.8L998.9,302.3h46.1c0.1,119.8,97.2,216.9,217,216.9c44.8,0,86.4-13.6,121-36.9L1292.6,361.1L1292.6,361.1z"/>
<path class="rational4" d="M1003.4,322.8h-46.1l87.8-117.6l0-5.6v-80.5H939.7v347.1h105.7V322.8H1003.4z M2216.2,381.2l-0.1-262.1h-97.7
	v286.2l-108-286.2h-114.9l-101.2,293.7V119.1h-98.8v202.3l-119.5-202.3l-97.5,0.1v162.7h88l-12.6,16.9l0.2,0.1l-75.5,101.2v47.3
	l-0.2,15.4l0.2,3.4h97.4V291.5l114.9,174.7h179.3l17.8-48.3h125.3l15.4,48.3h312.6v-85.1L2216.2,381.2L2216.2,381.2z M1916.1,342.1
	l39.1-105.7l33.8,105.7H1916.1z"/>
</svg>
