<?xml version="1.0" encoding="utf-8"?>
<!-- Generator: Adobe Illustrator 21.1.0, SVG Export Plug-In . SVG Version: 6.00 Build 0)  -->
<svg version="1.1" id="Слой_1" xmlns="http://www.w3.org/2000/svg" xmlns:xlink="http://www.w3.org/1999/xlink" x="0px" y="0px"
   viewBox="0 0 87 87" enable-background="new 0 0 87 87" xml:space="preserve" width="45" height="45">
<path id="Forma_1" fill="#373B51" d="M87,0h-52L22,29.9l0.7,0.5c3,2.4,3.4,6.8,1,9.7c-2.4,3-6.8,3.4-9.7,1c-3-2.4-3.4-6.8-1-9.7
  c1.1-1.3,2.6-2.2,4.4-2.5l0.6-0.1L30.5,0H0v87h87V73.4H60.7l-0.3,0.5c-2,3-6,3.9-9,1.9s-3.9-6-1.9-9c2-3,6-3.9,9-1.9
  c1.2,0.8,2.2,2,2.6,3.4l0.2,0.8H87V22H58.2V36l0.7,0.3c3.5,1.3,5.2,5.2,3.9,8.7c-1.3,3.5-5.2,5.2-8.7,3.9c-3.5-1.3-5.2-5.2-3.9-8.7
  c0.6-1.5,1.7-2.8,3.2-3.6l0.6-0.3V17.8h33L87,0L87,0z M47.5,42.6c0,5,4,9,9,9c5,0,9-4,9-9c0-3.5-2-6.6-5.1-8.1V24.2h24.3v42.6H62.9
  c-1.9-4.4-7.1-6.5-11.6-4.5c-4.4,1.9-6.5,7.1-4.5,11.6c1.9,4.4,7.1,6.5,11.6,4.5c1.4-0.6,2.6-1.6,3.5-2.8h22.9v9.1H2.2V2.2h24.8
  L16.4,26.9c-4.9,1.1-8,6-7,10.9c1.1,4.9,6,8,10.9,7c4.9-1.1,8-6,7-10.9c-0.4-1.7-1.2-3.3-2.5-4.5L36.5,2.2h48.2v13.3h-33V35
  C49.1,36.6,47.5,39.5,47.5,42.6z M14.9,35.6c0,1.9,1.5,3.4,3.4,3.4c1.9,0,3.4-1.5,3.4-3.4c0-1.9-1.5-3.4-3.4-3.4
  C16.4,32.2,14.9,33.7,14.9,35.6z M52.7,42.5c0,1.9,1.5,3.4,3.4,3.4c1.9,0,3.4-1.5,3.4-3.4c0-1.9-1.5-3.4-3.4-3.4
  C54.2,39.1,52.7,40.6,52.7,42.5z M54.8,67c1.9,0,3.4,1.5,3.4,3.4c0,1.9-1.5,3.4-3.4,3.4c-1.9,0-3.4-1.5-3.4-3.4
  C51.4,68.5,52.9,67,54.8,67L54.8,67z"/>
</svg>
