<?xml version="1.0" encoding="utf-8"?>
<!-- Generator: Adobe Illustrator 22.0.1, SVG Export Plug-In . SVG Version: 6.00 Build 0)  -->
<svg version="1.1" id="Слой_1" xmlns="http://www.w3.org/2000/svg" xmlns:xlink="http://www.w3.org/1999/xlink" x="0px" y="0px"
	 viewBox="0 0 2272.6 489.5" enable-background="new 0 0 2272.6 489.5" xml:space="preserve">
<g>
	<path fill="#C8C8C8" d="M1421.9,387.6c-107.6,0-159.3-70-159.3-149.1c0-78.4,53.4-149.1,159.3-149.1
		c105.8,0,159.2,70.7,159.2,149.1C1581.1,317.7,1529.4,387.6,1421.9,387.6L1421.9,387.6z M1421.9,477.1
		c173.5,0,291.4-104.4,291.4-238.6C1713.3,107,1592.1,0,1421.9,0c-172.8,0-291.4,103.7-291.4,238.6
		C1130.5,372.8,1249.9,477.1,1421.9,477.1z M0,60.1C0,27.7,27.1,9.5,63.5,9.5s63.6,18.2,63.6,50.6v226.2
		c0,59.7,50,106.9,130.4,106.9c77,0,129.6-49.9,129.6-106.9V60.1c0-32.4,27.1-50.6,63.5-50.6c36.4,0,63.5,18.2,63.5,50.6v231.4
		c0,108.9-116.9,191.3-256.6,191.3C116.1,482.7,0,401.7,0,291.5L0,60.1L0,60.1z M571.7,60.1c0-32.4,27.1-50.6,63.5-50.6
		c16.1,0,42.3,9.7,53.4,21.4l268.5,274.2h1.7v-245c0-32.4,27.1-50.6,63.5-50.6c36.4,0,63.5,18.2,63.5,50.6v368.1
		c0,32.5-27.1,50.6-63.5,50.6c-16.1,0-41.5-9.8-53.3-21.3l-268.5-271h-1.7v241.7c0,32.5-27.1,50.6-63.5,50.6
		c-36.4,0-63.5-18.2-63.5-50.6V60.1z"/>
	<path fill="#C8C8C8" d="M1943.1,238.7L1805.9,96.1c-8.6-8.4-13.6-18.1-13.6-28.5c0-28.5,27.9-47.3,64.4-47.3
		c21.2,0,43.2,11.1,55,24l105.1,114.1l105-114.1c11.9-12.9,33.9-24,55-24c36.5,0,64.4,18.8,64.4,47.3c0,10.4-5,20.1-13.5,28.5
		l-137.2,142.6l167.6,172.4c6.8,7.1,14.4,19.5,14.4,33.1c0,27.2-27.1,45.3-64.4,45.3c-22.8,0-39.8-7.8-52.5-21.4l-138.9-147.8
		l-138.9,147.8c-12.8,13.6-29.6,21.4-52.5,21.4c-37.3,0-64.4-18.1-64.4-45.3c0-13.6,7.7-26,14.4-33.1L1943.1,238.7L1943.1,238.7z"/>
</g>
</svg>
