<svg version="1.1" id="Слой_1" xmlns="http://www.w3.org/2000/svg" xmlns:xlink="http://www.w3.org/1999/xlink" x="0px" y="0px"
   viewBox="0 0 533 166" enable-background="new 0 0 533 166" xml:space="preserve" width="217" height="158">
<g>
  <g>
    <rect fill="#EE7423" width="146" height="166"/>
    <path fill="#FFFFFF" d="M70.4,100.6h4.7c0.9,0,1.6,0.8,1.6,1.8v5.3c0,1-0.7,1.8-1.6,1.8h-4.7c-0.9,0-1.6-0.8-1.6-1.8v-5.3
      C68.8,101.5,69.5,100.6,70.4,100.6z"/>
    <path fill="#FDFCFC" d="M56.3,83.9c-2.8,0-5-2.2-5-5v-44c0-2.8,2.2-5,5-5s5,2.2,5,5v44C61.3,81.6,59.1,83.9,56.3,83.9z"/>
    <path fill="#FDFCFC" d="M72.8,78.4c-2.8,0-5-2.2-5-5V26c0-2.8,2.2-5,5-5s5,2.2,5,5v47.4C77.8,76.2,75.6,78.4,72.8,78.4z"/>
    <path fill="#FDFCFC" d="M89.1,83.5c-2.8,0-5-2.2-5-5V38c0-2.8,2.2-5,5-5s5,2.2,5,5v40.5C94.1,81.3,91.9,83.5,89.1,83.5z"/>
    <path fill="#FDFCFC" d="M72.8,127.2c-6.9,0-20.3-9.5-20.3-21.1c0-1,0-1.9-0.1-2.8c-0.1-4.8-0.3-9.7,3.4-13.5
      c3.2-3.3,8.4-4.8,17-4.8l0,0c0,0,0,0,0,0c8.2,0,13.5,1.5,16.7,4.8c3.8,3.9,3.7,9,3.7,14.1c0,0.7,0,1.5,0,2.2
      C93.1,118.1,79.6,127.2,72.8,127.2z M72.8,93.1c-7.4,0-10.2,1.3-11.2,2.3c-1.2,1.3-1.2,3.8-1.1,7.7c0,1,0.1,2,0.1,3
      c0,7.2,9.9,13.1,12.3,13.1c2.9,0,12.3-6,12.3-13.1c0-0.8,0-1.6,0-2.4c0.1-4.2,0-6.9-1.4-8.3C82.7,94.4,80,93.1,72.8,93.1
      C72.8,93.1,72.8,93.1,72.8,93.1L72.8,93.1z M72.8,89.1L72.8,89.1L72.8,89.1z"/>
    <path fill="#FDFCFC" d="M71.9,145.8c-23.4,0-37.8-21.4-37.8-36.7V82c0-3,2.5-5.5,5.5-5.5s5.5,2.5,5.5,5.5v27.1
      c0,8.7,9.5,25.7,26.8,25.7c9.7,0,28.6-9.1,28.6-25.7V53.5c0-3,2.5-5.5,5.5-5.5s5.5,2.5,5.5,5.5v55.6
      C111.5,124.5,96.4,145.8,71.9,145.8z"/>
  </g>
  <g>
    <rect x="146" fill="#66717E" width="387" height="166"/>
    <g>
      <path fill="#FDFCFC" d="M236.9,76.5c0,5.2-0.9,10.1-2.6,14.5c-1.8,4.4-4.2,8.2-7.4,11.3s-7,5.6-11.4,7.4
        c-4.5,1.8-9.4,2.6-14.8,2.6h-27.3V40.7h27.3c5.4,0,10.4,0.9,14.8,2.6c4.5,1.8,8.3,4.2,11.4,7.4c3.2,3.2,5.6,6.9,7.4,11.3
        C236,66.4,236.9,71.3,236.9,76.5z M223.3,76.5c0-3.9-0.5-7.4-1.6-10.6c-1-3.1-2.5-5.8-4.5-7.9c-2-2.2-4.3-3.8-7.1-5
        c-2.8-1.2-5.9-1.7-9.4-1.7h-13.9v50.4h13.9c3.5,0,6.6-0.6,9.4-1.7c2.8-1.2,5.2-2.8,7.1-5c2-2.2,3.5-4.8,4.5-7.9
        C222.7,83.9,223.3,80.4,223.3,76.5z"/>
      <path fill="#FDFCFC" d="M262,112.3h-13.4V40.7H262V112.3z"/>
      <path fill="#FDFCFC" d="M328,51.6h-21.6v60.6h-13.3V51.6h-21.6V40.7H328V51.6z"/>
      <path fill="#FDFCFC" d="M350.8,51.3v19.8h25v10.2h-25v20.2h31.8v10.6h-45.1V40.7h45.1v10.6H350.8z"/>
      <path fill="#FDFCFC" d="M441.9,95.4c0.7,0,1.4,0.3,1.9,0.8l5.2,5.7c-2.9,3.6-6.5,6.4-10.7,8.3c-4.2,1.9-9.3,2.9-15.3,2.9
        c-5.3,0-10.1-0.9-14.3-2.7c-4.2-1.8-7.9-4.3-10.9-7.6c-3-3.2-5.3-7.1-6.9-11.6c-1.6-4.5-2.4-9.4-2.4-14.7
        c0-5.4,0.9-10.3,2.6-14.8c1.7-4.5,4.1-8.3,7.3-11.6c3.1-3.2,6.8-5.7,11.2-7.5c4.3-1.8,9.1-2.7,14.4-2.7c5.2,0,9.8,0.9,13.9,2.6
        c4,1.7,7.5,4,10.3,6.7l-4.5,6.2c-0.3,0.4-0.6,0.7-1,1c-0.4,0.3-1,0.4-1.7,0.4c-0.5,0-1-0.1-1.5-0.4c-0.5-0.3-1.1-0.6-1.7-1
        c-0.6-0.4-1.4-0.9-2.2-1.4c-0.8-0.5-1.8-0.9-2.9-1.4c-1.1-0.4-2.4-0.8-3.8-1c-1.4-0.3-3.1-0.4-5-0.4c-3.2,0-6.1,0.6-8.8,1.7
        s-4.9,2.8-6.9,4.9c-1.9,2.2-3.4,4.8-4.5,7.9c-1.1,3.1-1.6,6.7-1.6,10.7c0,4,0.6,7.6,1.7,10.7c1.1,3.1,2.7,5.8,4.6,7.9
        c1.9,2.1,4.2,3.8,6.9,4.9c2.6,1.1,5.5,1.7,8.5,1.7c1.8,0,3.5-0.1,4.9-0.3c1.5-0.2,2.8-0.5,4.1-0.9c1.2-0.4,2.4-1,3.5-1.7
        c1.1-0.7,2.2-1.5,3.3-2.5c0.3-0.3,0.7-0.5,1-0.7C441.2,95.5,441.5,95.4,441.9,95.4z"/>
      <path fill="#FDFCFC" d="M508.3,51.6h-21.6v60.6h-13.3V51.6h-21.6V40.7h56.5V51.6z"/>
    </g>
    <g>
      <path fill="#EE7423" d="M403.5,151.2c0-0.3,0.1-0.7,0.2-1s0.3-0.6,0.5-0.8c0.2-0.2,0.5-0.4,0.8-0.5s0.6-0.2,1-0.2
        c0.4,0,0.7,0.1,1,0.2s0.6,0.3,0.8,0.5c0.2,0.2,0.4,0.5,0.5,0.8c0.1,0.3,0.2,0.6,0.2,1c0,0.3-0.1,0.7-0.2,1
        c-0.1,0.3-0.3,0.6-0.5,0.8c-0.2,0.2-0.5,0.4-0.8,0.5c-0.3,0.1-0.6,0.2-1,0.2c-0.4,0-0.7-0.1-1-0.2c-0.3-0.1-0.6-0.3-0.8-0.5
        c-0.2-0.2-0.4-0.5-0.5-0.8S403.5,151.6,403.5,151.2z"/>
      <path fill="#EE7423" d="M421.3,142.6h7.5v8.9c-1.1,0.8-2.2,1.4-3.5,1.7s-2.5,0.5-3.8,0.5c-1.7,0-3.3-0.3-4.7-0.8
        c-1.4-0.5-2.6-1.3-3.7-2.3s-1.8-2.1-2.3-3.4c-0.6-1.3-0.8-2.8-0.8-4.3c0-1.6,0.3-3,0.8-4.3c0.5-1.3,1.3-2.5,2.2-3.4
        s2.1-1.7,3.5-2.2c1.4-0.5,2.9-0.8,4.6-0.8c0.9,0,1.7,0.1,2.5,0.2c0.8,0.1,1.5,0.3,2.1,0.6c0.7,0.3,1.2,0.6,1.8,0.9
        c0.5,0.3,1,0.7,1.5,1.1l-1.4,2.2c-0.2,0.3-0.5,0.5-0.9,0.6c-0.4,0.1-0.7,0-1.1-0.3c-0.4-0.2-0.8-0.4-1.1-0.6
        c-0.3-0.2-0.7-0.3-1.1-0.4s-0.7-0.2-1.1-0.2c-0.4,0-0.8-0.1-1.3-0.1c-0.9,0-1.7,0.2-2.5,0.5c-0.7,0.3-1.4,0.8-1.9,1.4
        c-0.5,0.6-0.9,1.3-1.2,2.1s-0.4,1.7-0.4,2.8c0,1.1,0.2,2.1,0.5,3s0.7,1.6,1.3,2.2c0.6,0.6,1.2,1.1,2,1.4c0.8,0.3,1.7,0.5,2.6,0.5
        c0.6,0,1.1-0.1,1.6-0.2c0.5-0.1,0.9-0.3,1.4-0.5v-3.2h-2.1c-0.3,0-0.6-0.1-0.7-0.2c-0.2-0.2-0.3-0.4-0.3-0.6V142.6z"/>
      <path fill="#EE7423" d="M449.3,153.5h-4.4c-0.8,0-1.4-0.3-1.8-0.9l-3.5-6.1c-0.2-0.3-0.3-0.5-0.6-0.6c-0.2-0.1-0.5-0.2-0.9-0.2
        H437v7.8h-4.9v-21.1h6.9c1.5,0,2.8,0.2,3.9,0.5s2,0.8,2.6,1.3c0.7,0.6,1.2,1.2,1.5,2s0.5,1.6,0.5,2.5c0,0.7-0.1,1.3-0.3,1.9
        c-0.2,0.6-0.5,1.2-0.8,1.7c-0.4,0.5-0.8,1-1.3,1.4c-0.5,0.4-1.1,0.7-1.8,1c0.3,0.2,0.6,0.4,0.9,0.6c0.3,0.2,0.5,0.5,0.8,0.9
        L449.3,153.5z M438.9,142.3c0.7,0,1.2-0.1,1.7-0.3c0.5-0.2,0.9-0.4,1.2-0.7c0.3-0.3,0.5-0.6,0.7-1.1c0.1-0.4,0.2-0.8,0.2-1.3
        c0-0.9-0.3-1.7-0.9-2.2c-0.6-0.5-1.5-0.8-2.8-0.8h-2v6.3H438.9z"/>
      <path fill="#EE7423" d="M471.5,143c0,1.5-0.3,2.9-0.8,4.3c-0.5,1.3-1.3,2.5-2.2,3.4c-1,1-2.1,1.7-3.5,2.3
        c-1.3,0.6-2.8,0.8-4.5,0.8s-3.1-0.3-4.5-0.8s-2.5-1.3-3.5-2.3c-1-1-1.7-2.1-2.2-3.4c-0.5-1.3-0.8-2.7-0.8-4.3s0.3-2.9,0.8-4.3
        c0.5-1.3,1.3-2.5,2.2-3.4s2.1-1.7,3.5-2.3s2.9-0.8,4.5-0.8s3.1,0.3,4.5,0.8c1.3,0.6,2.5,1.3,3.5,2.3s1.7,2.1,2.2,3.4
        C471.2,140,471.5,141.4,471.5,143z M466.5,143c0-1-0.1-2-0.4-2.8s-0.7-1.5-1.2-2.1c-0.5-0.6-1.1-1-1.9-1.3
        c-0.7-0.3-1.6-0.5-2.5-0.5c-0.9,0-1.8,0.2-2.5,0.5c-0.7,0.3-1.4,0.8-1.9,1.3c-0.5,0.6-0.9,1.3-1.2,2.1s-0.4,1.8-0.4,2.8
        c0,1.1,0.1,2,0.4,2.8c0.3,0.8,0.7,1.5,1.2,2.1c0.5,0.6,1.1,1,1.9,1.3s1.6,0.5,2.5,0.5c0.9,0,1.8-0.2,2.5-0.5
        c0.7-0.3,1.4-0.7,1.9-1.3c0.5-0.6,0.9-1.3,1.2-2.1C466.3,145,466.5,144,466.5,143z"/>
      <path fill="#EE7423" d="M483.2,149.7c0.7,0,1.2-0.1,1.8-0.3c0.5-0.2,1-0.5,1.3-0.9c0.4-0.4,0.6-0.9,0.8-1.5s0.3-1.2,0.3-2v-12.5
        h4.9v12.5c0,1.3-0.2,2.5-0.6,3.6c-0.4,1.1-1,2-1.8,2.8c-0.8,0.8-1.7,1.4-2.9,1.8c-1.1,0.4-2.4,0.7-3.8,0.7
        c-1.4,0-2.7-0.2-3.8-0.7c-1.1-0.4-2.1-1-2.9-1.8c-0.8-0.8-1.4-1.7-1.8-2.8c-0.4-1.1-0.6-2.3-0.6-3.6v-12.5h4.9v12.5
        c0,0.7,0.1,1.4,0.3,2s0.5,1.1,0.8,1.5c0.4,0.4,0.8,0.7,1.3,0.9C481.9,149.5,482.5,149.7,483.2,149.7z"/>
      <path fill="#EE7423" d="M503.5,132.4c1.5,0,2.8,0.2,3.8,0.5c1.1,0.4,1.9,0.8,2.6,1.5c0.7,0.6,1.2,1.3,1.5,2.2
        c0.3,0.8,0.5,1.8,0.5,2.7c0,1.1-0.2,2-0.5,2.9c-0.3,0.9-0.9,1.6-1.6,2.3c-0.7,0.6-1.6,1.1-2.6,1.5s-2.3,0.5-3.8,0.5H501v7.1h-4.9
        v-21.1H503.5z M503.5,142.8c1.3,0,2.2-0.3,2.8-0.9c0.6-0.6,0.8-1.5,0.8-2.6c0-0.5-0.1-0.9-0.2-1.3c-0.1-0.4-0.4-0.7-0.7-1
        s-0.7-0.5-1.1-0.7c-0.4-0.2-1-0.2-1.6-0.2H501v6.7H503.5z"/>
    </g>
  </g>
</g>
</svg>
