<?xml version="1.0" encoding="utf-8"?>
<!-- Generator: Adobe Illustrator 21.1.0, SVG Export Plug-In . SVG Version: 6.00 Build 0)  -->
<svg version="1.1" id="Слой_1" xmlns="http://www.w3.org/2000/svg" xmlns:xlink="http://www.w3.org/1999/xlink" x="0px" y="0px"
   viewBox="0 0 131 17" enable-background="new 0 0 131 17" xml:space="preserve">
<g enable-background="new    ">
  <path fill="#FFFFFF" d="M3.3,9H0.3V6.2h3.1V3.1h2.8v3.1h3.1V9H6.1v3.1H3.3V9z"/>
  <path fill="#FFFFFF" d="M11.3,16l5-10.9l-5.9,0.1V2.5H19v1.8L14.6,16H11.3z"/>
  <path fill="#FFFFFF" d="M30.2,9.9c-0.6,0.9-1.7,1.1-2.8,1.1c-3.3,0-3.8-2.4-3.8-4.4c0-2,0.6-4.4,4.5-4.4c3.8,0,4.8,2,4.8,6
    c0,4.7-0.8,8-5.5,8c-1.6,0-3-0.4-3.5-0.6v-2.7c0.8,0.4,2,0.7,3.2,0.7C29.8,13.6,30.1,12.1,30.2,9.9z M28.1,8.5c1.5,0,2-0.5,2-1.8
    s-0.6-1.9-1.8-1.9c-1.3,0-1.8,0.5-1.8,1.9S27,8.5,28.1,8.5z"/>
  <path fill="#FFFFFF" d="M35.1,16l5-10.9l-5.9,0.1V2.5h8.6v1.8L38.3,16H35.1z"/>
  <path fill="#FFFFFF" d="M43.6,9.8c0-1.7,1.1-2.9,1.9-3.2C44.8,6.2,44,5.3,44,3.8C44,1.4,45.4,0,48.4,0c3,0,4.3,1.4,4.3,3.8
    c0,1.5-0.8,2.4-1.5,2.8c0.8,0.3,1.9,1.5,1.9,3.2c0,2.8-1.8,4.2-4.8,4.2S43.6,12.6,43.6,9.8z M50.4,9.8c0-1.1-0.6-1.9-2.1-1.9
    c-1.4,0-2.1,0.8-2.1,1.9c0,0.8,0.5,1.7,2.1,1.7C50,11.5,50.4,10.6,50.4,9.8z M49.9,4c0-1-0.7-1.6-1.5-1.6S46.9,3,46.9,4
    c0,1,0.6,1.6,1.5,1.6C49.4,5.6,49.9,5,49.9,4z"/>
</g>
<g enable-background="new    ">
  <path fill="#EE7423" d="M58.2,8.1c0-4.5,1.3-5.9,4.6-5.9c3.2,0,4.6,1.4,4.6,5.9c0,4.5-1.3,5.9-4.6,5.9C59.5,14,58.2,12.6,58.2,8.1z
     M61,8.1c0,2.7,0.4,3.3,1.8,3.3s1.8-0.6,1.8-3.3c0-2.6-0.4-3.3-1.8-3.3S61,5.5,61,8.1z"/>
  <path fill="#EE7423" d="M73.3,2.3v11.5h-2.9V5.1l-2,0.1v-2l3.4-0.9H73.3z"/>
  <path fill="#EE7423" d="M75.4,8.1c0-4.5,1.3-5.9,4.6-5.9s4.6,1.4,4.6,5.9c0,4.5-1.3,5.9-4.6,5.9S75.4,12.6,75.4,8.1z M78.2,8.1
    c0,2.7,0.4,3.3,1.8,3.3s1.8-0.6,1.8-3.3c0-2.6-0.4-3.3-1.8-3.3S78.2,5.5,78.2,8.1z"/>
  <path fill="#EE7423" d="M89.8,5.5V2.8c0.8-0.4,2.3-0.6,3.5-0.6c3.1,0,4.2,1.4,4.2,3.7c0,1.5-0.6,2.4-1.5,2.9c1,0.3,1.8,1.3,1.8,3
    c0,2.6-1.2,4.3-4.7,4.3c-1.2,0-2.5-0.2-3.4-0.6V13c1,0.4,2,0.6,3.2,0.6c1.6,0,2-0.7,2-1.7c0-1.1-0.7-1.6-1.9-1.6h-2V7.7h2.1
    c0.8,0,1.4-0.4,1.4-1.5c0-0.9-0.4-1.4-1.7-1.4C91.7,4.9,90.8,5.1,89.8,5.5z"/>
  <path fill="#EE7423" d="M99.4,5.5V2.8c0.8-0.4,2.3-0.6,3.5-0.6c3.1,0,4.2,1.4,4.2,3.7c0,1.5-0.6,2.4-1.5,2.9c1,0.3,1.8,1.3,1.8,3
    c0,2.6-1.2,4.3-4.7,4.3c-1.2,0-2.5-0.2-3.4-0.6V13c1,0.4,2,0.6,3.2,0.6c1.6,0,2-0.7,2-1.7c0-1.1-0.7-1.6-1.9-1.6h-2V7.7h2.1
    c0.8,0,1.4-0.4,1.4-1.5c0-0.9-0.4-1.4-1.7-1.4C101.2,4.9,100.4,5.1,99.4,5.5z"/>
  <path fill="#EE7423" d="M112.5,15.6v-2.6c0.7,0.3,2,0.5,3.1,0.5c1.4,0,2.3-0.4,2.3-1.9c0-1.5-0.9-1.7-2.2-1.7h-2.9V2.5h7.5v2.7
    h-4.8v2.2h1c2,0,4.1,0.6,4.1,4.3c0,3.9-2.5,4.5-5.1,4.5C114.4,16.2,113.3,16,112.5,15.6z"/>
  <path fill="#EE7423" d="M122.2,15.6v-2.6c0.7,0.3,2,0.5,3.1,0.5c1.4,0,2.3-0.4,2.3-1.9c0-1.5-0.9-1.7-2.2-1.7h-2.9V2.5h7.5v2.7
    h-4.8v2.2h1c2,0,4.1,0.6,4.1,4.3c0,3.9-2.5,4.5-5.1,4.5C124.1,16.2,123,16,122.2,15.6z"/>
</g>
</svg>
