<svg xmlns="http://www.w3.org/2000/svg" xmlns:xlink="http://www.w3.org/1999/xlink" xmlns:fi="http://pattern.flaticon.com/"><symbol id="icon-act" viewBox="0 0 42.3 35.1">
<path id="&#x424;&#x438;&#x433;&#x443;&#x440;&#x430;_10" fill="#FDFCFC" d="M35.1,13.3c1.3-1.7,5-6.5,5-6.5c1.4-1.6,1.2-4-0.3-5.4c0,0,0,0-0.1,0
	c-1.6-1.2-3.8-0.9-5,0.6c-0.1,0.1-0.1,0.2-0.2,0.3l-5,6.6c-0.1,0.1-0.1,0.2,0,0.2c1.2,0.9,4.4,3.5,5.3,4.3
	C34.9,13.5,35,13.5,35.1,13.3z M28.9,10.7c0,0-0.1-0.1-0.2,0c0,0,0,0,0,0c-0.5,0.8-3.8,5.6-5.1,7.2c-0.7,1.2-0.9,2.6-0.5,4
	c0,0,0,0.1,0,0.1c-0.2,0.2-0.2,0.3-0.3,0.5c-0.2,0.3-0.2,0.6,0.1,0.8c0,0,0,0,0,0c0.2,0.2,0.6,0.2,0.8,0c0,0,0,0,0,0
	c0.1-0.1,0.2-0.2,0.4-0.4c0,0,0.1-0.1,0.1-0.1c1.4,0,2.7-0.5,3.6-1.5c1.2-1.6,5-6.1,5.6-6.8c0.1,0,0.1-0.1,0-0.2c0,0,0,0,0,0
	C32.3,13.4,30.1,11.6,28.9,10.7z M38.7,13.6c-0.2,0.3-0.7,0.4-1,0.1c0,0,0,0,0,0l0,0c-0.3-0.3-0.4-0.7-0.1-1L41,8.1
	c0.2-0.3,0.7-0.4,1-0.1c0,0,0,0,0,0l0,0c0.3,0.3,0.4,0.7,0.1,1L38.7,13.6z M23.8,13.3c0,0.3-0.2,0.6-0.5,0.6H4.8
	c-0.3,0-0.5-0.3-0.5-0.6v-0.6c0-0.3,0.2-0.6,0.5-0.6h18.4c0.3,0,0.5,0.3,0.5,0.6L23.8,13.3L23.8,13.3L23.8,13.3z M23.8,25.3
	c0,0.3-0.2,0.6-0.5,0.6h-7.2c-0.3,0-0.5-0.3-0.5-0.6v-0.5c0-0.3,0.2-0.6,0.5-0.6h7.2c0.3,0,0.5,0.3,0.5,0.6V25.3z M23.8,8.1
	c0,0.3-0.2,0.6-0.5,0.6H4.8c-0.3,0-0.5-0.3-0.5-0.6V7.5c0-0.3,0.2-0.6,0.5-0.6h18.4c0.3,0,0.5,0.3,0.5,0.6L23.8,8.1L23.8,8.1
	L23.8,8.1z M26.1,25.2v5.9c0,1.1-0.8,1.9-1.9,1.9H3.9C2.8,33,2,32.2,2,31.1V4C2,3,2.8,2.1,3.9,2.1h20.3c1.1,0,1.9,0.9,1.9,1.9v6.2
	c0,0.6,0.3,0.3,0.4,0.1c0.3-0.4,1-1.2,1.2-1.5C28,8.7,28.1,8.3,28.1,8V2c0-1.1-0.8-1.9-1.9-1.9H1.9C0.8,0,0,0.9,0,2c0,0,0,0,0,0
	v31.2c0,1.1,0.8,1.9,1.9,1.9h24.3c1.1,0,1.9-0.9,1.9-1.9v-8.8c0-0.5-0.3-0.4-0.4-0.4c-0.4,0.2-0.8,0.3-1.2,0.5
	C26.4,24.6,26.1,24.6,26.1,25.2L26.1,25.2z"/>
</symbol><symbol id="icon-arrow-down" viewBox="0 0 476.7 476.7">
<path fill="#66717E" d="M238.4,476.7c131.6,0,238.4-106.7,238.4-238.4C476.7,106.7,370,0,238.4,0C106.7,0,0,106.7,0,238.4
	C0,370,106.7,476.7,238.4,476.7z M124,187.5c6.2-6.2,16.3-6.2,22.5,0l91.9,91.9l91.9-91.9c6.2-6.2,16.3-6.2,22.5,0
	c6.2,6.2,6.2,16.3,0,22.5L249.7,313.1c-3.1,3.1-7.2,4.6-11.3,4.6s-8.2-1.5-11.3-4.6L124,210C117.8,203.8,117.8,193.7,124,187.5z"/>
</symbol><symbol id="icon-arrow-up" viewBox="0 0 476.7 476.7">
<path fill="#66717e" d="M238.4,0C106.7,0,0,106.7,0,238.4C0,370,106.7,476.7,238.4,476.7c131.7,0,238.4-106.7,238.4-238.4
	C476.7,106.7,370,0,238.4,0z M352.7,289.2c-6.2,6.2-16.3,6.2-22.5,0l-91.9-91.9l-91.9,91.9c-6.2,6.2-16.3,6.2-22.5,0
	c-6.2-6.2-6.2-16.3,0-22.5l103.1-103.1c3.1-3.1,7.2-4.6,11.3-4.6s8.2,1.5,11.3,4.6l103.1,103.1C358.9,272.9,358.9,283,352.7,289.2z"/>
</symbol><symbol id="icon-automatic-desktop" viewBox="0 0 87 87">
<path id="Forma_1" fill="#373B51" d="M87,0h-52L22,29.9l0.7,0.5c3,2.4,3.4,6.8,1,9.7c-2.4,3-6.8,3.4-9.7,1c-3-2.4-3.4-6.8-1-9.7
  c1.1-1.3,2.6-2.2,4.4-2.5l0.6-0.1L30.5,0H0v87h87V73.4H60.7l-0.3,0.5c-2,3-6,3.9-9,1.9s-3.9-6-1.9-9c2-3,6-3.9,9-1.9
  c1.2,0.8,2.2,2,2.6,3.4l0.2,0.8H87V22H58.2V36l0.7,0.3c3.5,1.3,5.2,5.2,3.9,8.7c-1.3,3.5-5.2,5.2-8.7,3.9c-3.5-1.3-5.2-5.2-3.9-8.7
  c0.6-1.5,1.7-2.8,3.2-3.6l0.6-0.3V17.8h33L87,0L87,0z M47.5,42.6c0,5,4,9,9,9c5,0,9-4,9-9c0-3.5-2-6.6-5.1-8.1V24.2h24.3v42.6H62.9
  c-1.9-4.4-7.1-6.5-11.6-4.5c-4.4,1.9-6.5,7.1-4.5,11.6c1.9,4.4,7.1,6.5,11.6,4.5c1.4-0.6,2.6-1.6,3.5-2.8h22.9v9.1H2.2V2.2h24.8
  L16.4,26.9c-4.9,1.1-8,6-7,10.9c1.1,4.9,6,8,10.9,7c4.9-1.1,8-6,7-10.9c-0.4-1.7-1.2-3.3-2.5-4.5L36.5,2.2h48.2v13.3h-33V35
  C49.1,36.6,47.5,39.5,47.5,42.6z M14.9,35.6c0,1.9,1.5,3.4,3.4,3.4c1.9,0,3.4-1.5,3.4-3.4c0-1.9-1.5-3.4-3.4-3.4
  C16.4,32.2,14.9,33.7,14.9,35.6z M52.7,42.5c0,1.9,1.5,3.4,3.4,3.4c1.9,0,3.4-1.5,3.4-3.4c0-1.9-1.5-3.4-3.4-3.4
  C54.2,39.1,52.7,40.6,52.7,42.5z M54.8,67c1.9,0,3.4,1.5,3.4,3.4c0,1.9-1.5,3.4-3.4,3.4c-1.9,0-3.4-1.5-3.4-3.4
  C51.4,68.5,52.9,67,54.8,67L54.8,67z"/>
</symbol><symbol id="icon-automatic-mobile" viewBox="0 0 87 87">
<path id="Forma_1" fill="#373B51" d="M87,0h-52L22,29.9l0.7,0.5c3,2.4,3.4,6.8,1,9.7c-2.4,3-6.8,3.4-9.7,1c-3-2.4-3.4-6.8-1-9.7
  c1.1-1.3,2.6-2.2,4.4-2.5l0.6-0.1L30.5,0H0v87h87V73.4H60.7l-0.3,0.5c-2,3-6,3.9-9,1.9s-3.9-6-1.9-9c2-3,6-3.9,9-1.9
  c1.2,0.8,2.2,2,2.6,3.4l0.2,0.8H87V22H58.2V36l0.7,0.3c3.5,1.3,5.2,5.2,3.9,8.7c-1.3,3.5-5.2,5.2-8.7,3.9c-3.5-1.3-5.2-5.2-3.9-8.7
  c0.6-1.5,1.7-2.8,3.2-3.6l0.6-0.3V17.8h33L87,0L87,0z M47.5,42.6c0,5,4,9,9,9c5,0,9-4,9-9c0-3.5-2-6.6-5.1-8.1V24.2h24.3v42.6H62.9
  c-1.9-4.4-7.1-6.5-11.6-4.5c-4.4,1.9-6.5,7.1-4.5,11.6c1.9,4.4,7.1,6.5,11.6,4.5c1.4-0.6,2.6-1.6,3.5-2.8h22.9v9.1H2.2V2.2h24.8
  L16.4,26.9c-4.9,1.1-8,6-7,10.9c1.1,4.9,6,8,10.9,7c4.9-1.1,8-6,7-10.9c-0.4-1.7-1.2-3.3-2.5-4.5L36.5,2.2h48.2v13.3h-33V35
  C49.1,36.6,47.5,39.5,47.5,42.6z M14.9,35.6c0,1.9,1.5,3.4,3.4,3.4c1.9,0,3.4-1.5,3.4-3.4c0-1.9-1.5-3.4-3.4-3.4
  C16.4,32.2,14.9,33.7,14.9,35.6z M52.7,42.5c0,1.9,1.5,3.4,3.4,3.4c1.9,0,3.4-1.5,3.4-3.4c0-1.9-1.5-3.4-3.4-3.4
  C54.2,39.1,52.7,40.6,52.7,42.5z M54.8,67c1.9,0,3.4,1.5,3.4,3.4c0,1.9-1.5,3.4-3.4,3.4c-1.9,0-3.4-1.5-3.4-3.4
  C51.4,68.5,52.9,67,54.8,67L54.8,67z"/>
</symbol><symbol id="icon-brema" viewBox="0 0 99.2 37.7">
<path fill-rule="evenodd" clip-rule="evenodd" d="M51.9,34.8c-0.6,0.1-0.9,0.3-1,0.9c0.1,0.6,0.4,0.9,1,0.8
	c1.1-0.3,1.6-0.8,1.4-1.5v-0.6L51.9,34.8 M30.4,34.8c0.1,1.1,0.6,1.6,1.6,1.6c0.8-0.1,1.2-0.4,1.3-0.9h1.6c-0.5,1.5-1.5,2.2-3,2.2
	c-2.1-0.2-3.2-1.2-3.2-3.3c0.1-2.1,1.2-3.2,3.2-3.3c2.2,0.3,3.2,1.5,3.1,3.8H30.4z M18.5,28.8h1.9v8.7h-1.9V28.8z M33.3,33.7
	c-0.2-0.9-0.6-1.3-1.4-1.3c-1,0.2-1.5,0.6-1.5,1.3H33.3z M25,32.4c-1,0.2-1.5,0.9-1.5,2c-0.1,1.1,0.4,1.8,1.4,2
	c0.8-0.1,1.3-0.5,1.5-1.3H28c-0.3,1.7-1.3,2.6-3.1,2.6c-2-0.2-3.1-1.2-3.2-3.3c0.1-2.1,1.1-3.2,3.2-3.4c1.7,0,2.7,0.8,3,2.4h-1.7
	C26.2,32.7,25.7,32.4,25,32.4z M20,19.8c-0.1-1.1-0.7-1.7-1.9-1.7h-3.2v3.4H18C19.3,21.5,20,20.9,20,19.8z M19.5,13.6
	c-0.1-1-0.6-1.5-1.9-1.5h-2.7v3h2.7C18.8,15,19.5,14.5,19.5,13.6z M31.1,12.1h-1.4V17h1.5c2.2,0,3.3-0.8,3.3-2.5
	C34.5,12.9,33.4,12.1,31.1,12.1z M23.1,13.2l-0.3,1.6c-0.2,0.6-0.6,1.1-1.2,1.5l1.2,1c0.7,0.8,1.1,1.8,1.1,2.9
	c-0.1,1.3-0.4,2.3-1.1,3.1c-0.8,1-2.2,1.6-4,1.7h-5.6c-1.6-0.1-2.3-0.8-2.3-2.2V10.8c0.1-1.4,0.8-2.1,2.3-2.1h4.4
	c2.8,0.1,4.5,1.1,5.2,3L23.1,13.2z M65,33.7h2.8c-0.1-0.9-0.6-1.3-1.4-1.3C65.4,32.5,64.9,33,65,33.7z M52.3,32.2
	c-0.7-0.1-1.1,0.2-1.2,0.9h-1.7c0.3-1.5,1.3-2.2,3-2.1c1.6-0.2,2.5,0.4,2.8,1.8v3.3c0,0.6,0.1,1.1,0.2,1.3h-1.8l-0.2-0.6
	c-0.6,0.5-1.3,0.8-2.1,0.8c-1.3,0-2-0.6-2.2-1.9c0.2-1.2,0.9-1.9,2.2-1.9c1.2,0,1.9-0.3,2-0.9C53.3,32.4,53,32.1,52.3,32.2z
	 M58.4,33.5l2.2-2.3h2l-2.4,2.4l2.6,4h-2.1L59,34.7l-0.6,0.6v2.2h-1.8v-8.7h1.8V33.5z M40.3,31.4v6.1h-1.8v-8.7h2.7l2,6h0.1l1.9-6
	h2.7v8.7h-1.8v-6.2h-0.1L44,37.5h-1.5L40.3,31.4L40.3,31.4z M38.4,23.1c-0.1,1.1-0.8,1.8-1.9,1.9c-0.4,0-0.9-0.2-1.3-0.5l-5.4-4.3
	V23c-0.1,1.3-0.8,2-2,2c-1.2-0.1-1.9-0.8-1.9-2V10.8c0.1-1.4,0.8-2.1,2.3-2.1h3.1c4.6,0.2,7,2.1,7.2,5.9c-0.1,2.3-1.3,3.9-3.9,4.9
	l2.9,1.9C38,21.9,38.4,22.5,38.4,23.1z M49.1,8.7c1.3,0.1,1.9,0.6,2,1.7c-0.1,1.1-0.8,1.7-2,1.7h-5.4v3H48c1.1,0.1,1.7,0.5,1.8,1.5
	c-0.1,1-0.6,1.5-1.8,1.5h-4.3v3.3h5.6c1.2,0.1,1.9,0.6,1.9,1.7c-0.1,1.1-0.7,1.7-1.9,1.7h-7.2c-1.5-0.1-2.2-0.8-2.3-2.2V10.8
	c0.1-1.4,0.8-2.1,2.3-2.1H49.1z M66.4,37.7c-2.1-0.2-3.2-1.2-3.2-3.3c0.2-2.1,1.2-3.2,3.2-3.3c2.2,0.3,3.2,1.5,3.1,3.8H65
	c0.1,1.1,0.5,1.6,1.5,1.6c0.8-0.1,1.2-0.4,1.4-0.9h1.5C68.9,37,67.9,37.7,66.4,37.7z M80.1,14.3l-2,4.6h4.1L80.1,14.3z M78,32.2
	c-0.5-0.1-0.9,0.1-1,0.5c0.2,0.5,0.9,0.8,2,1c1.1,0.1,1.8,0.7,2,1.8c-0.3,1.6-1.2,2.3-2.9,2.2c-1.7,0.1-2.6-0.7-3-2.3h1.7
	c0.1,0.7,0.5,1.1,1.3,1.1c0.6,0.1,1-0.2,1.2-0.8c-0.1-0.5-0.7-0.8-2-1c-1.1-0.1-1.8-0.7-2-1.7c0.2-1.5,1.1-2.2,2.8-2
	c1.6-0.1,2.5,0.5,2.8,2h-1.7C79,32.4,78.7,32.1,78,32.2z M72.2,32.4c0.4-0.8,1.1-1.2,2-1.3l0.4,0.1v1.6L74,32.6
	c-1.2,0.2-1.7,0.9-1.7,2.1v2.8h-1.8v-6.3h1.7V32.4z M71.3,22.5l0.1,0.6c-0.2,1.1-0.8,1.7-1.9,1.8c-1,0-1.7-0.5-2-1.6l-1.8-6.9
	l-2.3,7c-0.3,1.1-0.9,1.6-1.8,1.6c-0.8,0-1.4-0.5-1.8-1.6l-2.2-7l-1.8,6.9c-0.3,1.1-0.9,1.6-1.9,1.6c-1.2-0.1-1.8-0.7-1.9-1.8
	l0.1-0.6l3.1-12.5c0.3-1,0.9-1.5,1.8-1.6c0.9,0,1.5,0.5,1.8,1.4l2.8,7.3l2.6-7.1c0.4-1.1,1-1.7,1.9-1.6c1,0,1.6,0.5,1.9,1.6l3.1,12
	L71.3,22.5z M80.1,8.6c0.9,0.1,1.5,0.4,1.9,1.1l5.8,12l0.1,0.4l0.3,1.1c-0.1,1.1-0.8,1.7-1.9,1.8c-0.9,0-1.5-0.4-1.9-1.3l-0.2-0.4
	l-0.6-1.2h-6.8L76,23.7c-0.4,0.9-1.1,1.3-1.9,1.3c-1.2-0.1-1.8-0.7-1.9-1.8c0-0.4,0.1-0.7,0.3-1l0.2-0.4l5.7-12
	C78.6,9.1,79.2,8.7,80.1,8.6z M86.3,10.2c0.3,0.1,0.4,0,0.5-0.3c-0.1-0.3-0.2-0.4-0.4-0.3H86v0.6H86.3z M87.1,10
	c-0.1,0.3-0.2,0.5-0.5,0.5l0.5,0.8h-0.3l-0.5-0.8H86v0.8h-0.3V9.4h0.8C86.9,9.4,87.1,9.6,87.1,10z M99.2,16.8
	c-0.1-4.6-1.7-8.5-4.6-11.6C91.6,2,87.9,0.3,83.3,0H15.9C11.3,0.3,7.5,2,4.6,5.2c-3,3.1-4.5,7-4.6,11.6v0.1
	c0.1,4.6,1.6,8.5,4.6,11.6l1.9,1.7c2.6,2,5.7,3.2,9.4,3.5v-2.5c-1.5-0.1-3-0.4-4.3-0.9c-1.8-0.7-3.5-1.7-4.9-3.2
	c-2.8-2.9-4.1-6.3-4.2-10.2c0.1-3.9,1.4-7.3,4.2-10.1c2.8-2.8,6.1-4.1,10-4.2h65.9c3.8,0.1,7.2,1.4,9.9,4.2
	c2.8,2.8,4.2,6.1,4.2,10.1c-0.1,3.9-1.5,7.3-4.2,10.2c-2.6,2.5-5.7,3.9-9.2,4.1v2.5c4.6-0.3,8.3-2,11.3-5.2
	C97.5,25.3,99.1,21.4,99.2,16.8L99.2,16.8z"/>
<path d="M86.3,12.3c-1.2-0.1-1.8-0.8-2-2c0.1-1.2,0.7-1.8,1.9-2c1.2,0.1,1.9,0.8,2,1.9c0,0,0,0,0,0
	C88.2,11.5,87.5,12.2,86.3,12.3z M86.3,8.6c-1.1,0.1-1.6,0.7-1.7,1.7c0.1,1.1,0.7,1.7,1.7,1.8c1.1-0.1,1.7-0.7,1.8-1.8
	C88,9.3,87.4,8.7,86.3,8.6z"/>
</symbol><symbol id="icon-button-next" viewBox="0 0 16.9 32.1">
<path id="Forma_1_&#x43A;&#x43E;&#x43F;&#x438;&#x44F;_2" d="M1.9,31.8c-0.4,0.4-1.1,0.5-1.5,0c0,0,0,0,0,0c-0.4-0.4-0.4-1.2,0-1.6l13.9-14.1
  L0.3,1.9c-0.4-0.5-0.4-1.2,0-1.6c0.4-0.4,1.1-0.4,1.6,0c0,0,0,0,0,0l14.6,14.9c0.4,0.4,0.4,1.2,0,1.6L1.9,31.8z"/>
</symbol><symbol id="icon-button-prev" viewBox="0 0 16.9 32.1">
<path id="Forma_1_&#x43A;&#x43E;&#x43F;&#x438;&#x44F;" d="M15,0.3c0.4-0.4,1.1-0.4,1.6,0c0,0,0,0,0,0c0.4,0.4,0.4,1.2,0,1.6L2.7,16.1
  l13.9,14.1c0.4,0.4,0.4,1.2,0,1.6c-0.4,0.4-1.1,0.5-1.5,0c0,0,0,0,0,0L0.3,16.9c-0.4-0.4-0.4-1.2,0-1.6L15,0.3z"/>
</symbol><symbol id="icon-cafe" viewBox="0 0 39.2 34.1">
<path id="&#x424;&#x438;&#x433;&#x443;&#x440;&#x430;_9" fill="#FDFCFC" d="M21.6,28.8v-2.1h-2.1c-0.4,0-0.6-0.3-0.6-0.6c0-0.4,0.3-0.6,0.6-0.6H25
	c0.4,0,0.6,0.3,0.6,0.6c0,0.4-0.3,0.6-0.6,0.6h-2.1v2.1h6.9v-2.1h-2.1c-0.4,0-0.6-0.3-0.6-0.6c0-0.4,0.3-0.6,0.6-0.6h5.4
	c0.4,0,0.6,0.3,0.6,0.6c0,0.4-0.3,0.6-0.6,0.6l0,0H31v2.1h4.2v-11H31v0.9c1.2,0.3,2,1.4,2,2.6c0,0.3-0.3,0.6-0.6,0.6c0,0,0,0,0,0H31
	v0.1c0,0.4-0.3,0.6-0.6,0.7c-0.4,0-0.6-0.3-0.7-0.6c0,0,0,0,0-0.1v-0.1h-1.4c-0.4,0-0.6-0.3-0.6-0.6c0,0,0,0,0,0
	c0-1.2,0.8-2.3,2-2.6v-0.9h-6.9v0.9c1.2,0.3,2,1.4,2,2.6c0,0.3-0.3,0.6-0.6,0.6c0,0,0,0,0,0h-1.4v0.1c0,0.4-0.3,0.6-0.6,0.6
	s-0.6-0.3-0.6-0.6l0,0v-0.1h-1.4c-0.3,0-0.6-0.3-0.6-0.6c0,0,0,0,0,0c0-1.2,0.8-2.3,2-2.6v-0.9h-4.2v11H21.6L21.6,28.8z M39.2,13.3
	V7c0-0.4-0.4-0.8-0.8-0.8c0,0,0,0,0,0h-0.5V4.1c0-1.1-0.9-2-2-2c0,0,0,0,0,0h-6.8v0c0-1.1-0.9-2-2-2c0,0,0,0,0,0H12.2
	c-1.1,0-2,0.9-2,2c0,0,0,0,0,0v0H3.4c-1.1,0-2,0.9-2,2c0,0,0,0,0,0v2.1H0.8C0.4,6.2,0,6.5,0,7c0,0,0,0,0,0v6.3c0,1,0.5,2,1.4,2.5v17
	H0.6c-0.4,0-0.6,0.3-0.6,0.6c0,0.4,0.3,0.6,0.6,0.6l0,0h3.9c-0.3-0.2-0.4-0.6-0.4-1V19c0-0.7,0.5-1.2,1.1-1.2h7.1
	c0.7,0,1.1,0.6,1.1,1.2v14.1c0,0.4-0.2,0.7-0.4,1h25.7c0.4,0,0.6-0.3,0.6-0.6c0-0.4-0.3-0.6-0.6-0.6h-0.7v-17
	C38.7,15.3,39.2,14.3,39.2,13.3z M25,4.7C25,4.8,25,4.9,25,5c0,0,0,0,0,0l-2.3,2.4c-0.4,0.4-0.9,0.5-1.4,0.3l-0.6,0.7l3,2.7
	c0,0,0,0,0.1,0.1c0.4,0.4,0.4,1,0,1.3c-0.4,0.4-0.9,0.4-1.3,0c0,0,0,0,0,0c0,0,0,0-0.1-0.1l-2.6-3l-2.6,3c0,0,0,0-0.1,0.1
	c-0.4,0.4-0.9,0.4-1.3,0c0,0,0,0,0,0c-0.4-0.4-0.4-1,0-1.3c0,0,0,0,0.1-0.1l2.1-1.9C18,9,18.1,9,18.2,9.1c0.1,0.1,0.1,0.2,0,0.3
	L16,11.3l0,0c0,0,0,0,0,0c-0.2,0.2-0.2,0.6,0,0.8c0.2,0.2,0.6,0.2,0.8,0c0,0,0,0,0,0l0,0c0,0,0,0,0,0l3.4-3.9l0,0l0.8-0.9
	c0.1-0.1,0.1-0.1,0.2-0.1c0.4,0.2,0.8,0.1,1.1-0.2l2.3-2.3C24.8,4.6,24.9,4.6,25,4.7C24.9,4.7,25,4.7,25,4.7L25,4.7z M24.4,4.1
	c0.1,0.1,0.1,0.2,0,0.3l-1.9,1.9c0,0-0.1,0-0.1,0.1c0,0-0.1,0-0.1-0.1c-0.1-0.1-0.1-0.2,0-0.3l1.9-1.9C24.2,4.1,24.3,4.1,24.4,4.1
	L24.4,4.1z M23.9,3.6c0.1,0.1,0.1,0.2,0,0.3L22,5.8c0,0-0.1,0.1-0.1,0.1c0,0-0.1,0-0.1-0.1c-0.1-0.1-0.1-0.2,0-0.3l1.9-1.9
	C23.7,3.5,23.8,3.5,23.9,3.6L23.9,3.6z M15.3,3.9c0.4-0.4,1-0.5,1.6-0.3c0.7,0.2,1.3,0.6,1.8,1.1c0.6,0.6,0.7,1.4,0.3,2.1l0.7,0.6
	l0.7-0.6c-0.2-0.5-0.1-1,0.3-1.4l2.3-2.4c0.1-0.1,0.2-0.1,0.3,0c0.1,0.1,0.1,0.2,0,0.3L21,5.7c-0.3,0.3-0.4,0.7-0.2,1.1
	c0,0.1,0,0.2,0,0.2l-1.6,1.4c0,0-0.1,0.1-0.1,0.1c-0.1,0-0.1,0-0.1-0.1l-0.7-0.8c-0.7,0.4-1.6,0.2-2.1-0.3c-0.5-0.5-0.9-1.1-1.1-1.8
	C14.8,4.9,14.9,4.3,15.3,3.9L15.3,3.9z M2.6,4.1c0-0.4,0.3-0.7,0.7-0.7c0,0,0,0,0,0h6.4c0,0,0,0,0,0.1v2.8H2.6L2.6,4.1L2.6,4.1z
	 M36.4,30.7c0,0.4-0.3,0.6-0.6,0.6h-19c-0.4,0-0.6-0.3-0.6-0.6V18.4c0-0.4,0.3-0.6,0.6-0.6h19c0.4,0,0.6,0.3,0.6,0.6L36.4,30.7
	L36.4,30.7z M36.6,16.4H2.7L2.6,15c0.1,0,0.3,0,0.4,0c1-1.3,2.9-1.6,4.2-0.6c0.2,0.2,0.4,0.3,0.6,0.6c1-1.3,2.9-1.6,4.2-0.6
	c0.2,0.2,0.4,0.3,0.6,0.6c1-1.3,2.9-1.6,4.2-0.6c0.2,0.2,0.4,0.3,0.6,0.6c1-1.3,2.9-1.6,4.2-0.6c0.2,0.2,0.4,0.3,0.6,0.6
	c1-1.3,2.9-1.6,4.2-0.6c0.2,0.2,0.4,0.3,0.6,0.6c1-1.3,2.9-1.6,4.2-0.6c0.2,0.2,0.4,0.3,0.6,0.6c1-1.3,2.9-1.6,4.2-0.6
	c0.2,0.2,0.4,0.3,0.6,0.6c0.1,0,0.3,0,0.4,0L36.6,16.4L36.6,16.4z M36.6,6.2h-7.2V3.4c0,0,0,0,0-0.1h6.4c0.4,0,0.7,0.3,0.7,0.7
	c0,0,0,0,0,0L36.6,6.2L36.6,6.2z M10.7,19.1H6c-0.5,0.1-0.8,0.6-0.7,1.1V32c-0.1,0.5,0.3,1,0.7,1.1h4.7c0.5-0.1,0.8-0.6,0.7-1.1
	V20.1C11.5,19.6,11.2,19.2,10.7,19.1z M10.9,27.2c0,0.4-0.3,0.6-0.6,0.6s-0.6-0.3-0.6-0.6v-1.4c0-0.4,0.3-0.6,0.6-0.6
	s0.6,0.3,0.6,0.6V27.2z"/>
</symbol><symbol id="icon-cap" viewBox="0 0 256 207">
<path d="M125.5,124c-5.4,0-10.8-1.1-15.8-3.3L7.6,75.7C3,73.7,0.1,69.3,0,64.2c-0.1-5.1,2.7-9.5,7.3-11.7l104.2-49
	c9.6-4.5,20.6-4.7,30.3-0.4l106.6,46.4c4.7,2,7.6,6.5,7.6,11.6s-2.8,9.6-7.5,11.7l-107,47.9C136.4,122.9,130.9,124,125.5,124z
	 M127.1,10c-3.9,0-7.8,0.8-11.4,2.5l-104.2,49c-1.4,0.7-1.5,2-1.5,2.5c0,0.5,0.2,1.8,1.6,2.5l102.1,45c7.6,3.3,16.2,3.3,23.7-0.1
	l107-47.9c1.4-0.6,1.6-2,1.6-2.5c0-0.5-0.2-1.8-1.6-2.5L137.8,12.2C134.4,10.7,130.8,10,127.1,10z"/>
<path d="M128.5,73C118,73,110,68.5,110,62.5S118,52,128.5,52S147,56.6,147,62.5S139,73,128.5,73z M128.5,58
	c-7.8,0-12.5,2.9-12.5,4.5s4.7,4.5,12.5,4.5s12.5-2.9,12.5-4.5S136.3,58,128.5,58z"/>
<path d="M25.5,147c-2.2,0-4-1.8-4-4V78.5c0-1.9,1.4-3.6,3.3-3.9l84.5-14.5c2.2-0.4,4.2,1.1,4.6,3.3c0.4,2.2-1.1,4.2-3.3,4.6
	L29.5,81.9V143C29.5,145.3,27.7,147,25.5,147z"/>
<path d="M26,165c-7.2,0-13-5.8-13-13s5.8-13,13-13s13,5.8,13,13S33.2,165,26,165z M26,147c-2.8,0-5,2.2-5,5s2.2,5,5,5s5-2.2,5-5
	S28.8,147,26,147z"/>
<path d="M37,207H14c-1.1,0-2.2-0.5-3-1.3s-1.1-2-1-3.1l4-36c0.1-1.1,0.7-2.1,1.6-2.8l8-6c1.4-1.1,3.4-1.1,4.8,0l8,6
	c0.9,0.7,1.5,1.7,1.6,2.9l3,36c0.1,1.1-0.3,2.2-1,3C39.2,206.6,38.1,207,37,207z M18.5,199h14.2l-2.5-29.9L26,166l-4.2,3.2L18.5,199
	z"/>
<path d="M128.5,168.7c-32.2,0-68.7-11.8-78.3-38.3c-0.2-0.4-0.2-0.9-0.2-1.4V92c0-2.2,1.8-4,4-4s4,1.8,4,4v36.3
	c6.3,16.2,30.4,32.4,70.5,32.4c0.2,0,0.3,0,0.5,0c28.4-0.1,60.7-10.1,69-32.3V87c0-2.2,1.8-4,4-4s4,1.8,4,4v42
	c0,0.5-0.1,0.9-0.2,1.3c-10,28.1-47.6,38.2-76.8,38.3C128.8,168.7,128.7,168.7,128.5,168.7z"/>
<path d="M126.9,152.5c-30.4,0-55.3-10.4-74.5-31.1c-1.3-1.4-1.2-3.6,0.2-4.9s3.6-1.2,4.9,0.2c20.9,22.6,49.5,32,85,27.9
	c1.9-0.2,3.7,1.2,3.9,3.1c0.2,1.9-1.2,3.7-3.1,3.9C137.7,152.2,132.2,152.5,126.9,152.5z"/>
<path d="M156,149c-1.4,0-2.7-1-2.9-2.4c-0.3-1.6,0.7-3.2,2.4-3.5c2.5-0.5,5.4-1.3,9.2-2.4c1.6-0.5,3.3,0.4,3.8,2
	c0.5,1.6-0.4,3.3-2,3.8c-4,1.2-7.1,2-9.8,2.6C156.4,149,156.2,149,156,149z"/>
<path d="M178,141.5c-1.4,0-2.8-0.9-3.3-2.3c-0.6-1.8,0.3-3.8,2.1-4.5c7.1-2.5,14-8.9,21.3-19.7c1.1-1.6,3.3-2,4.9-0.9s2,3.3,1,4.9
	c-8.1,12-16.2,19.3-24.7,22.3C178.8,141.5,178.4,141.5,178,141.5z"/>
</symbol><symbol id="icon-car" viewBox="0 0 35.8 18">
<path fill="#ffffff" d="M0.4,11.2L0,15.3h4.3C4.5,16.8,5.7,18,7.4,18s3.1-1.1,3.6-2.7h14.3c0.2,1.5,1.5,2.7,3.1,2.7
	c1.6,0,3.1-1.1,3.6-2.7h2.9l0.9-3.2c0.1-0.2,0-0.5-0.1-0.6c-0.1-0.2-0.3-0.3-0.6-0.3h-0.8l0.5-4.6c0.1-0.5-0.3-0.9-0.8-1l-4.2-0.4
	c-0.1,0-0.1,0-0.2-0.1l-1.3-2.7l-0.9-2c-0.1-0.2-0.3-0.3-0.5-0.4c-0.1,0-0.1,0-0.2,0c0,0,0,0,0,0l-5.4,0L3.7,0C3,0,2.4,0.5,2.4,1.2
	l-1,10H0.4z M27.1,15.8c-1.1-1.9,1.2-4,3-2.7c0.1,0.1,0.2,0.1,0.2,0.2c1.1,1.9-1.2,4-3,2.7C27.2,15.9,27.2,15.9,27.1,15.8z
	 M21.7,4.3l0.3-2.7h4.2l1.5,3.3h-5.4C21.9,4.9,21.6,4.6,21.7,4.3L21.7,4.3z M10.2,7.5C9.9,7.6,9.5,7.7,9.2,7.7C8.6,7.7,8,7.4,7.6,7
	C7.2,6.5,7,5.8,7.1,5.1c0-0.2,0.1-0.3,0.3-0.3c0.2-0.1,0.3,0,0.4,0.1l0.9,1c0,0,0.1,0,0.1,0c0,0,0.1,0,0.1,0l1.3-1.1
	c0,0,0.1-0.1,0.1-0.1c0,0,0-0.1,0-0.1l-0.9-1c-0.1-0.1-0.1-0.3,0-0.4c0.1-0.1,0.2-0.2,0.4-0.3c0.7,0,1.3,0.2,1.8,0.7
	c0.6,0.7,0.7,1.7,0.3,2.6l3.3,3.6c0,0.8-0.5,1.3-1.1,1.3c-0.2,0-0.5-0.1-0.6-0.3L10.2,7.5z M6.1,15.8c-1.1-1.9,1.2-4,3-2.7
	c0.1,0.1,0.2,0.1,0.2,0.2c1.1,1.9-1.2,4-3,2.7C6.2,15.9,6.2,15.9,6.1,15.8z"/>
</symbol><symbol id="icon-diagnostic" viewBox="0 0 36.2 36.7">
<path id="&#x424;&#x438;&#x433;&#x443;&#x440;&#x430;_8" fill="#FDFCFC" d="M35,3.3l-2.2-2.2c-1.5-1.4-3.8-1.5-5.4-0.2l-3.8,3.4c0,0-0.1,0.1-0.1,0.1l-3.7,6.3
	l-2.4,0.8C17.2,11.6,17,11.8,17,12c0,0.2,0,0.4,0.2,0.6l6.6,6.6c0.1,0.1,0.3,0.2,0.4,0.2c0,0,0.1,0,0.1,0c0.2,0,0.4-0.2,0.4-0.4
	l0.8-2.4l6.3-3.8c0.1,0,0.1-0.1,0.1-0.1l3.3-3.8C36.5,7.1,36.4,4.8,35,3.3z M33.3,25c-1.8-1.8-4.5-2.5-6.9-1.7L13.2,10.1
	C14,7.6,13.4,5,11.6,3.1C9.7,1.2,6.8,0.6,4.3,1.6C4.1,1.7,4,1.9,3.9,2.1c0,0.2,0,0.4,0.2,0.6L8,6.6L5.4,9.2L1.5,5.3
	C1.3,5.1,1.1,5.1,0.9,5.1c-0.2,0-0.4,0.2-0.4,0.4c-1,2.5-0.4,5.4,1.5,7.3c1.8,1.8,4.5,2.5,6.9,1.7l4.9,4.9l-6.1,6.1l-3.9,2.2
	c-0.1,0.1-0.2,0.2-0.3,0.3l-1.7,3.5c-0.1,0.2-0.1,0.5,0.1,0.7l2.2,2.2c0.1,0.1,0.3,0.2,0.4,0.2c0.1,0,0.2,0,0.3-0.1l3.5-1.8
	c0.1-0.1,0.2-0.1,0.3-0.2l2.2-3.9l6.1-6.1l5.2,5.2c-0.8,2.4-0.1,5.1,1.7,6.9c1.3,1.3,3,2,4.8,2c0.8,0,1.7-0.2,2.5-0.5
	c0.2-0.1,0.3-0.3,0.4-0.5c0-0.2,0-0.4-0.2-0.6l-3.9-4l2.6-2.6l3.9,3.9c0.2,0.2,0.6,0.2,0.9,0c0.1-0.1,0.1-0.1,0.1-0.2
	C35.8,29.8,35.2,26.9,33.3,25z"/>
</symbol><symbol id="icon-dot" viewBox="0 0 7.7 7.7">
<path fill="#EE7423" d="M3.8,0c2.1,0,3.9,1.7,3.9,3.8S6,7.7,3.9,7.7C1.8,7.7,0,6,0,3.9l0,0C-0.1,1.7,1.7,0,3.8,0z"/>
</symbol><symbol id="icon-electrolux" viewBox="0 0 175.7 22.7">
<path fill-rule="evenodd" clip-rule="evenodd" fill="#005597" d="M169,7.8l5.3,0l0.3,0V8c0,0.2,0,0.3-0.2,0.3
	c-1,0.2-2.7,1.2-4.1,2.8l-2.1,2.6l4.6,6.1c0.8,1,1.6,1.5,2.6,1.8c0.1,0,0.1,0,0.2,0.1c0.1,0,0.2,0.2,0.2,0.2v0.3l-9.4,0l0-0.3
	c0-0.1,0.1-0.2,0.3-0.3c0.8-0.2,1.3-1.4,0.5-2.1l-1.7-2.5c-0.9,1.1-2,2.6-2,2.6c-0.9,1-0.6,1.7-0.2,1.9c0.1,0,0.1,0.1,0.2,0.1
	c0.1,0.1,0.2,0.2,0.2,0.3v0.3l-5.4,0l0-0.3c0-0.1,0.1-0.2,0.3-0.3c0.9-0.2,2.1-1.3,3.4-2.8l2.6-3.1l-4-5.4c-0.8-1-1.6-1.5-2.6-1.8
	c-0.2-0.1-0.4-0.2-0.4-0.4c0-0.1,0-0.3,0-0.3l8.8,0l0.3,0V8c0,0.2,0,0.3-0.2,0.3c-0.9,0.2-1.4,1.4-0.6,2.1l1.3,1.8l0,0
	c0.9-1.1,1.6-1.9,1.6-1.9c0.9-1.1,0.6-1.7,0.2-2c0,0,0,0-0.1-0.1c-0.1-0.1-0.2-0.2-0.2-0.3c0-0.1,0-0.3,0-0.3L169,7.8L169,7.8z"/>
<path fill-rule="evenodd" clip-rule="evenodd" fill="#005597" d="M47.1,4.7C46.6,3.5,45.3,3,44,3h-5.4v7.2l4.2,0
	c1.4,0,2.8-0.3,3-1.4c0-0.1,0.1-0.2,0.2-0.2h0.3l0,5.1l-0.3,0c-0.1,0-0.2-0.1-0.2-0.3c-0.3-0.9-1.6-1.4-3-1.4h-4.2v5.8
	c0,1.7,0.6,2.2,2.3,2.2h3c1.4,0,3-0.7,3.6-2.1c0-0.1,0.1-0.2,0.2-0.2H48v4.3H32l0-0.3c0-0.1,0.1-0.3,0.3-0.3c1-0.1,1.8-1.1,1.8-2.7
	V4.1c0-1.6-0.8-2.6-1.8-2.7c-0.2,0-0.3-0.1-0.3-0.3l0-0.3h15.5l0,4h-0.2C47.2,4.8,47.1,4.8,47.1,4.7L47.1,4.7z"/>
<path fill-rule="evenodd" clip-rule="evenodd" fill="#005597" d="M57.7,22.2l0-0.3c0-0.1-0.1-0.3-0.3-0.3c-1-0.1-1.7-1.1-1.7-2.7
	V3.5c0-1.2,0-3.5,0-3.5l-6.2,0.8l0,0.3c0,0.1,0.1,0.3,0.3,0.3c1,0.1,1.8,1.1,1.8,2.7c0,0,0,14.9,0,14.9c0,1.6-0.8,2.6-1.7,2.7
	c-0.2,0-0.3,0.1-0.3,0.3l0,0.3H57.7L57.7,22.2z"/>
<path fill-rule="evenodd" clip-rule="evenodd" fill="#005597" d="M139.9,22.2l0-0.3c0-0.1-0.1-0.3-0.3-0.3c-1-0.1-1.7-1.1-1.7-2.7
	l0-15.4c0-1.2,0-3.5,0-3.5l-6.2,0.8l0,0.3c0,0.1,0.1,0.3,0.3,0.3c1,0.1,1.8,1.1,1.8,2.7c0,0,0,14.9,0,14.9c0,1.6-0.8,2.6-1.7,2.7
	c-0.2,0-0.3,0.1-0.3,0.3l0,0.3H139.9L139.9,22.2z"/>
<path fill-rule="evenodd" clip-rule="evenodd" fill="#005597" d="M108,7.5c0,0,0,2,0,3.2c0.7-1.2,1.9-3.5,4.7-3.5
	c0.5,0,0.9,0.1,1.2,0.2l-1.2,4c-0.1,0-1.2,0-1.8,0c-1.8,0-2.9,1.1-2.9,2.6l0,4.9c0,1.6,0.8,2.6,1.7,2.7c0.2,0,0.3,0.1,0.3,0.3l0,0.3
	H102l0-0.3c0-0.1,0.1-0.3,0.3-0.3c1-0.1,1.8-1.1,1.8-2.7c0-1.2,0-6,0-7.3c0-1.6-0.7-2.5-1.7-2.7c-0.2,0-0.3-0.2-0.3-0.4
	c0-0.2,0-0.2,0-0.2L108,7.5L108,7.5z"/>
<path fill-rule="evenodd" clip-rule="evenodd" fill="#005597" d="M157.3,22.2h-3.8c-1.3,0-1.7-0.8-1.7-1.5c-1.7,1.3-2.9,1.8-5,1.9
	c-2.5,0.1-4.7-1.4-4.7-4.1l0-6.9c0-1.6-0.8-2.6-1.8-2.7c-0.2,0-0.3-0.1-0.3-0.3l0-0.3l6.3-0.8l0,8.9c0,4,3.9,3.6,5.4,2.4l0-7.3
	c0-1.6-0.8-2.6-1.8-2.7c-0.2,0-0.3-0.1-0.3-0.3l0-0.3l6.3-0.8l0,11.4c0,1.2,0.2,2.5,1.2,2.7c0.2,0,0.3,0.1,0.3,0.3
	c0,0.1,0,0.2,0,0.2H157.3L157.3,22.2z"/>
<path fill-rule="evenodd" clip-rule="evenodd" fill="#005597" d="M88.6,12V8.3c0,0-2.2-1-5.7-1c-4.6,0-7.7,2.3-7.8,7.9
	c0,4.4,2.6,7.4,7.6,7.4c3.3,0,5.2-1.6,6-2.3c0.4-0.3,0.4-0.6,0.4-1c0-0.4,0-1,0-1c-1.4,1-3.2,1.7-5,1.7c-3.6,0-4.7-2.6-4.7-5.4
	c0-1.2,0.4-5.2,3.8-5.2c2.2,0,3.4,0.7,4.7,2.8c0.2,0.3,0.4,0.4,0.6,0.4L88.6,12L88.6,12z"/>
<path fill-rule="evenodd" clip-rule="evenodd" fill="#005597" d="M122.5,9.2c-2.7,0-3.5,2.1-3.5,5.5c0,2.7,0,6.1,3.5,6.1
	c3.3-0.1,3.3-2.9,3.3-6C125.8,11.2,124.9,9.3,122.5,9.2L122.5,9.2L122.5,9.2z M122.2,7.2c3.5-0.1,8.3,0.8,8.3,7.4c0,5.2-1.9,8-8.3,8
	c-4.4,0-8-1-8-7.6C114.3,8.3,119.2,7.3,122.2,7.2L122.2,7.2L122.2,7.2z"/>
<path fill-rule="evenodd" clip-rule="evenodd" fill="#005597" d="M73.3,14.4h-10c-0.2,4.6,2.3,5.5,4.7,5.5c2.1,0,3.6-0.7,4.9-1.6
	c0,0,0,0.9,0,1.2c0,0.2-0.1,0.4-0.2,0.5c-0.9,1.2-3.2,2.6-6.4,2.6c-4.3,0-7.4-2.2-7.4-7.4c0-5.6,3.1-8,7.5-8h0c4.5,0,6.8,2.1,7,6.7
	L73.3,14.4L73.3,14.4z M66.3,9c-1.4,0.1-2.7,0.7-3,3.7h5.9C69.3,9.6,67.7,9,66.3,9L66.3,9L66.3,9z"/>
<path fill-rule="evenodd" clip-rule="evenodd" fill="#005597" d="M100.5,8.4V7.8h-4.6l0-4.3l-6.1,6.3h2v8.4c0,1.4,0.4,4.5,4.5,4.5
	c1.8,0,3.1-0.6,4-1.5c0.4-0.3,0.4-0.5,0.4-0.8c0-0.2,0-0.5,0-1c-2.6,1.4-4.8,0.5-4.8-2.3V9.8h3.3C99.8,9.7,100.5,9.4,100.5,8.4
	L100.5,8.4z"/>
<path fill-rule="evenodd" clip-rule="evenodd" fill="#005597" d="M0,0.8v21.4h21.4V0.8H0L0,0.8z M12.6,2.2c0,4.8-4.5,8.7-9.4,8.7
	l-2,0C1.5,5.9,5.6,2,10.7,2C11.3,2,11.9,2,12.6,2.2L12.6,2.2z M12.6,20.9C11.9,21,11.3,21,10.7,21c-5,0-9.2-3.9-9.5-8.9h2
	C8,12.1,12.6,16,12.6,20.9L12.6,20.9z M13.8,2.5c3.7,1.3,6.4,4.8,6.4,9c0,4.2-2.7,7.7-6.4,9C13.8,19.6,13.8,3.4,13.8,2.5L13.8,2.5z"/>
</symbol><symbol id="icon-facebook" viewBox="0 0 455.7 455.7">
<path fill="#FFFFFF" d="M0,0v455.7h242.7v-176h-59.3v-71.9h59.3v-60.4c0-43.9,35.6-79.5,79.5-79.5h62v64.6h-44.4
	c-13.9,0-25.3,11.3-25.3,25.3v50h68.5l-9.5,71.9h-59.1v176h141.2V0H0z"/>
</symbol><symbol id="icon-fagor" viewBox="0 0 2426.5 776.2">
<path d="M1324.9,290.2v88.1l34.6,80.6h126.1l-57.9-117.7c34.6-18.1,50.1-54.2,50.1-89.7c0-59.5-61.3-97.8-149.1-97.8h-3.7v83.1
	c14.9,2.5,23.4,10,23.4,27.4C1348.2,283,1339.8,288.6,1324.9,290.2z"/>
<path d="M1324.9,236.9v-83.1h-139.2v305.1h115.5v-90c8.1-0.3,14.6-0.3,21.8,4l1.9,5.3v-88.1c-3.4,0.3-7.2,0.3-11.2,0.3h-11.8v-54.8
	h9.3C1316.1,235.7,1320.8,236,1324.9,236.9L1324.9,236.9z M1001,371.1v98.4c96.2-0.9,164.7-62.6,164.7-162.5
	c0-100.3-67.9-162.2-164.7-162.8v98.4c33,0.3,51.4,22.4,51.4,64.5C1052.4,349,1034.1,370.8,1001,371.1z M1001,242.5v-98.4
	c-0.6,0-1.2-0.3-1.9-0.3c-97.8,0-166.9,62.6-166.9,163.2c0,100.6,70.1,162.5,166.9,162.5c0.6,0,1.2,0.3,1.9,0v-98.4h-0.9
	c-33,0-51.4-21.8-51.4-64.1c0-42.7,18.4-64.8,51.4-64.8C1000.4,242.2,1000.7,242.5,1001,242.5z M365.2,351.2v67.6h42.3l8.4,40.2
	h107.4L421,153.8h-55.7v124.6l22.4,72.9H365.2L365.2,351.2z M365.2,278.4V153.8h-62.9L201.8,458.9h110.5l10.6-40.2h42.3v-67.6h-23
	l21.8-78.2L365.2,278.4L365.2,278.4z M815.2,423.1V281.5H668.5v65.4h41.1v34.6c-61.6,6.5-92.5-8.4-91.5-75.4
	c0.6-47.6,25.2-70.4,49.8-73.8c14.6-1.9,31.8,6.2,44.5,22.7l95.3-41.1c-17.7-37-72.6-68.2-119.6-68.8
	c-125.8-2.2-183.4,65.1-183.4,166.3c0,94.3,58.2,149.5,174.7,157.2C737,471.7,775,455.8,815.2,423.1z M0,458.9h111.8V352.5h98.4V274
	h-98.4v-44.5h109.3v-75.7H0V458.9L0,458.9z"/>
<path fill="#CC2229" d="M2038.2,0c214.2,0,388.3,174.7,388.3,388.6c0,213-174.1,387.7-388.3,387.7c-186.8,0-343.4-133.6-379.9-309.5
	h266.8l116.5-118.3h-389.5c2.8-25.8,7.5-50.4,14.9-74.1h448.4l116.5-118.6h-504.1C1798.8,61.3,1911.5,0,2038.2,0L2038.2,0z"/>
</symbol><symbol id="icon-gaggia" viewBox="0 0 2426.5 623.2">
<g>
	<path d="M2392.4,41.6v-0.2c6.9-0.8,11.1-5.3,11.1-11.5c0-6.5-4.1-11.5-13-11.5h-20.3v41.1h8.3V42.6h1.5
		c3.6,0,5.1,0.4,6.7,2.1c1.7,1.6,4.2,5.2,5.6,8.1l3.3,6.7h10.2l-4.7-8.3C2397,44,2395.9,42.8,2392.4,41.6z M2378.5,36.1V24.8h7.7
		c5.6,0,8.5,2,8.5,5.6c0,2.9-1.9,5.7-7.6,5.7H2378.5z"/>
	<path d="M2387.9,0c-0.1,0-0.1,0-0.2,0c-21.4,0-38.7,17.3-38.8,38.6c0,0,0,0.1,0,0.1c0,21.4,17.3,38.7,38.7,38.8
		c0,0,0.1,0,0.1,0c21.4,0,38.7-17.2,38.8-38.6c0,0,0-0.1,0-0.1C2426.5,17.4,2409.2,0,2387.9,0z M2387.7,70
		c-17.2,0-31.1-14-31.1-31.2c0,0,0,0,0,0c0-17.1,13.8-31.1,31-31.1c0,0,0.1,0,0.1,0c17.2,0,31.2,13.9,31.2,31.1
		C2418.9,56,2404.9,70,2387.7,70z"/>
</g>
<g>
	<path d="M2279.7,5.2H2156l-144,617.8h132.5c8.2-38.9,17.8-86.8,30-124.4h88.9l40.8,124.5h117.4L2279.7,5.2z
		 M2198.8,376l18-91.9l0,0h0v0l26.7,91.9H2198.8z"/>
	<path d="M738.2,5.2H614.5L470.5,623H603c8.2-38.9,17.8-86.8,30-124.4h88.9l40.8,124.5H878L738.2,5.2z M657.3,376
		l18-89.8h0l26.7,89.8H657.3z"/>
	<polygon points="1829.5,5.3 1953.4,5.3 1953.4,623.1 1829.5,623.1 1829.5,5.3 	"/>
	<path d="M1639.4,5.1h129.3v124.2h-127.2c-104.9,0.1-160.2,114.8-160.2,184.8c0,64.4,51,184.6,151.6,184.8h8.7V331.6
		h127.1v291.6h-137.9c-175,0.2-274-184.5-274-309C1356.8,178.1,1464.5,5,1639.4,5.1L1639.4,5.1z"/>
	<path d="M1171.4,5.1h127.2v124.2h-127.2c-100.6,0.1-160.2,115-160.2,183.7c0,65.8,54,185.7,153.8,185.9h8.6V331.7
		h125v291.6h-135.8c-176.9,0.2-274-184.5-274-309C888.7,172.4,1002.3,5,1171.4,5.1L1171.4,5.1z"/>
	<path d="M282.6,5.1h128.3v124.2H282.6C175,129.5,124.5,249.5,124.5,315.2c0,63,51.3,183.6,151.7,183.7h8.7V331.7
		h126.6v291.4H274C99,623.4,0,439,0,313.1C0,178.4,107.9,5,282.6,5.1L282.6,5.1z"/>
</g>
</symbol><symbol id="icon-gear" viewBox="0 0 612 612">
<g>
	<path d="M188.3,425.8c-3.6-3.6-6.8-7-9.8-10.5c-0.3-0.3-0.5-0.6-0.7-0.9l-0.6-0.8c-2.8-3.3-5.4-6.7-8-10.2
		c-0.1-0.2-0.2-0.4-0.4-0.5c-0.1-0.2-0.2-0.4-0.3-0.5c-8.9-12.7-15.9-26.2-20.8-40.3c-4.9-14-8-29.1-9-44.7c0-0.1,0-0.1,0-0.2
		c0-0.2,0-0.3,0-0.5c-3.6-58,23.8-114.7,71.4-148c3.2-2.2,3.9-6.6,1.7-9.8c-2.2-3.2-6.6-3.9-9.8-1.7
		c-51.6,36.1-81.2,97.5-77.3,160.3c0,0.1,0,0.1,0,0.2c0,0.5,0,1,0.1,1.5c1.2,16.6,4.5,32.6,9.8,47.6c5.3,15,12.7,29.4,22,42.8
		c0.2,0.4,0.4,0.7,0.6,1c0.1,0.2,0.2,0.3,0.4,0.5c0.1,0.1,0.1,0.2,0.2,0.3c2.8,3.9,5.7,7.6,8.7,11.2l0.5,0.6c0.4,0.5,0.8,1,1.1,1.3
		c3.1,3.7,6.5,7.3,10.4,11.1c0.2,0.2,0.3,0.4,0.5,0.5c1.3,1.4,3.2,2.2,5.1,2.2c0.5,0,1,0,1.5-0.2c2.4-0.5,4.3-2.2,5.1-4.5l0,0
		c1-2.7,0.2-5.6-1.8-7.5C188.5,426,188.4,425.9,188.3,425.8z"/>
	<path d="M610.2,234.1c-0.2-0.7-0.5-1.5-0.8-2.3l-0.3-1c-4.4-12.4-11-31.2-19.2-54.5c-0.2-0.6-0.4-1.3-0.7-2c-0.2-0.5-0.4-1-0.6-1.6
		c-4.6-13.2-12.9-15.1-17.4-15.1c-1.9,0-3.9,0.4-5.8,1c-8.6,3-22.6,7.8-40.6,14.1c-17.2-28.3-39.6-52.7-66.5-72.5
		c17.7-36.3,17.9-37,18.2-37.9c0.4-1.2,0.6-2.5,0.7-3.6c0.9-7.9-3.9-14.1-14.2-18.6c-1.2-0.5-10.8-5.2-28.6-13.9l-3.8-1.9
		c-13.1-6.5-23.4-11.5-24.7-12.2c-11.6-6.3-20.4-4.8-25.6,2.9c-0.4,0.6-1.1,1.7-20.4,40.8c-17.8-3.8-36-5.8-54.4-5.8
		c-0.5,0-1,0.1-1.4,0.2c-10.2,0.1-20.4,0.7-30.5,2c-14.7-41.5-15.4-43-15.7-43.6c-2.8-5.4-7.8-8.4-14-8.4c-3.3,0-7,0.8-11.2,2.6
		c-1.2,0.5-13.9,5-29.9,10.7c-22.1,7.8-29.3,10.2-30,10.5c-16.4,4.9-17,14.9-15.9,20.4c0.2,0.9,0.3,1.7,15,43.7
		c-26.4,16.2-49.4,37-68.6,61.8c-40.2-18.7-41-18.9-41.9-19.3c-1.6-0.5-3.3-0.7-4.8-0.7c-7.3,0-13,4.9-17,14.6
		c-0.5,1.1-5,10.8-13.4,28.8C17.1,193,13.3,201,12.9,201.9c-7.9,15.2-1.3,22.5,3.4,25.5c0.7,0.5,1.6,1,40.9,19.5
		c-7.3,30.3-9,61-5.1,91.4C10,353.1,9.2,353.6,8.5,354c-5,2.6-12.4,9.2-6,25c0.3,0.8,3.2,9.1,10.7,30.1c7.1,20.4,10.2,29.3,10.4,30
		c4,13.5,11.4,16.3,16.9,16.3c1.1,0,2.3-0.1,3.4-0.4c0.7-0.1,2-0.4,43.8-15c14.4,23.5,32.4,44.4,53.7,62.2L120.4,545
		c-3.6,7.5-2.6,17.9,11.3,24.7l0.9,0.5c0.7,0.4,1.5,0.7,2.3,1.2c22.4,11,40.3,19.7,52.2,25.6c1,0.5,2.2,1.1,3.1,1.5
		c4.1,2,8.1,3.1,11.7,3.1c6.5,0,11.8-3.4,14.7-9.3c3.4-6.9,8.7-17.6,15.4-31.2l4.1-8.4c33.2,9.5,68.2,12.1,102.6,7.7l14.3,40.5
		c2.5,7,8.3,11.1,15.9,11.1c2.9,0,6.2-0.6,9.6-1.8l3.4-1.2c8.2-2.9,19.1-6.7,32.3-11.4l22.6-8c0.7-0.3,1.5-0.5,2.2-0.8l1.1-0.4
		c12.2-4.3,14.6-11.8,15-15.8c0.3-2.5,0-5-0.9-7.5c-3-8.5-7.9-22.5-14.2-40.5c27.7-16.9,51.7-38.9,71.4-65.4
		c17.5,8.2,31.2,14.5,39.5,18.4c2.4,1.1,4.8,1.7,7.2,1.7c4.1,0,11.8-1.7,17.2-13.3l1.6-3.4c5.5-11.9,14-30,24.5-52.5
		c0.5-1.1,1.2-2.4,1.6-3.4c1.9-4,2.8-7.7,2.8-11.1c0.1-6.8-3.3-12.4-9.5-15.3l-5.3-2.5c-8.4-4-20.3-9.5-34.8-16.4
		c4.1-18.4,6.2-37,6.2-55.6c0-10.6-0.6-21.3-2-31.9c15.9-5.6,28.6-10.1,37.2-13.1l3.2-1.1c6.5-2.3,10.6-7.5,11.1-14.3
		C612.2,242.1,611.6,238.3,610.2,234.1z M597.9,244.4c-0.1,1.3-0.4,1.7-1.7,2.2l-3.3,1.2c-9.6,3.4-24.3,8.6-42.6,15
		c-3.2,1.1-5.1,4.3-4.6,7.7c1.8,11.7,2.6,23.7,2.6,35.6c0,19.3-2.4,38.8-7.1,57.9c-0.8,3.2,0.8,6.6,3.8,8
		c16.8,7.9,30.5,14.4,40,18.8l5.3,2.5c1.3,0.6,1.5,1.1,1.5,2.4c0,1-0.3,2.7-1.6,5.4c-0.4,0.9-1,2.1-1.5,3.2
		c-10.6,22.6-19,40.7-24.5,52.5l-1.6,3.3c-1.7,3.7-3.5,5.3-4.5,5.3c-0.3,0-0.8-0.1-1.3-0.4c-9.1-4.2-24.6-11.5-44.7-20.8
		c-3.1-1.4-6.7-0.5-8.7,2.3c-20.3,28.6-45.7,51.8-75.4,69.1c-2.9,1.7-4.2,5.2-3.1,8.4l0.6,1.8c6.9,19.7,12.3,35,15.5,44.1
		c0.2,0.5,0.3,1,0.2,1.5c-0.1,1-1.9,2.6-5.7,4l-1,0.4c-0.8,0.3-1.7,0.6-2.4,0.8l-22.5,7.9c-13.2,4.7-24.1,8.5-32.3,11.4l-3.4,1.2
		c-2.4,0.8-4,1-4.9,1c-1.9,0-2.3-0.6-2.7-1.7l-16.2-46c-1-2.8-3.7-4.7-6.6-4.7c-0.4,0-0.7,0-1.1,0.1c-36,5.5-73,2.7-107.8-8.1
		c-3.3-1-6.9,0.5-8.4,3.6l-6.7,13.7c-6.7,13.6-11.9,24.3-15.4,31.2c-0.6,1.3-1.2,1.5-2.1,1.5c-0.8,0-2.6-0.2-5.5-1.6
		c-1-0.5-2.3-1.1-3.2-1.6c-11.8-5.8-29.7-14.6-52-25.5c-0.8-0.4-1.6-0.8-2.4-1.2l-0.9-0.4c-6.3-3.1-5.3-5.1-4.9-5.9l23.4-47.7
		c1.4-3,0.6-6.5-1.9-8.6c-23.4-18.7-42.7-41.2-57.6-66.9c-1.7-2.9-5.2-4.2-8.4-3.1c-31.9,11.1-45.4,15.7-47.5,16.4
		c-0.2,0-0.3,0-0.4,0c-0.8,0-2.3-2.1-3.5-6.4c-0.5-1.5-5.6-16.4-10.6-30.6c-3.8-10.7-10.2-28.9-10.8-30.6c-2.3-5.7-1.4-6.9-0.8-7.3
		c2.5-1,18.4-6.7,47.3-16.8c3.2-1.1,5.1-4.3,4.6-7.7c-4.9-32.3-3.1-65,5.4-97.2c0.9-3.3-0.7-6.7-3.8-8.1
		c-34.8-16.4-43.5-20.6-44.4-21c-0.4-0.3-1.8-1.2,1.4-7.3c0.7-1.4,7.9-16.7,13.9-29.3c11.4-24.5,13.3-28.6,13.6-29.4
		c2-4.8,3.6-5.9,4-5.9c0.1,0,0.3,0,0.5,0.1c3.5,1.5,33.9,15.6,45.5,21c3,1.4,6.6,0.5,8.6-2.2c19.8-26.9,44.3-49,72.8-65.6
		c2.9-1.7,4.2-5.2,3.1-8.4C183,76.5,172,44.8,170.8,41.1c-0.1-0.7,0.2-2.2,6.2-4c1.8-0.6,22-7.6,30.6-10.7
		c22.2-7.9,29.5-10.4,30.5-10.9c3.1-1.3,4.9-1.5,5.9-1.5c0.9,0,1.1,0.1,1.4,0.7c0.9,2.3,6.5,17.8,16.9,47.4c1.1,3.2,4.3,5.1,7.7,4.6
		c11.7-1.8,23.6-2.7,35.6-2.7c0.5,0,0.9-0.1,1.4-0.1c18.5,0.1,37.1,2.3,55.2,6.6c3.2,0.8,6.5-0.8,7.9-3.7c15.1-30.6,21.3-43,21.9-44
		c0.5-0.7,0.7-0.7,1.1-0.7c0.8,0,2.6,0.3,6,2.1c1,0.6,5.7,2.9,25.4,12.6l3.8,1.9c27.7,13.5,28.7,14,29.2,14.2
		c4.1,1.8,5.9,3.4,5.8,4.3c0,0.2,0,0.3-0.1,0.5c-1.5,3.4-15.5,32.1-20.1,41.6c-1.5,3.1-0.5,6.8,2.3,8.8
		c29.1,20.4,52.7,46.1,70.3,76.5c1.7,2.9,5.2,4.2,8.4,3.1c20.6-7.2,36.5-12.7,46-16c0.4-0.2,0.8-0.2,1.1-0.2c1.3,0,2.9,2.3,4,5.5
		c0.2,0.6,0.4,1.2,0.6,1.9c0.2,0.5,0.4,1,0.6,1.7c8.3,23.6,14.9,42.4,19.2,54.7l0.3,0.8c0.3,1,0.7,2,0.9,2.7
		C597.9,241.6,598,243.3,597.9,244.4z"/>
	<path d="M320.1,186.8c-4.3-0.5-8.6-0.7-12.8-0.7c-61.3,0-112.4,46-119,107.1c-3.4,31.8,5.8,63,25.9,87.9
		c20.1,24.9,48.7,40.5,80.5,43.9c4.3,0.5,8.6,0.7,12.8,0.7c0,0,0,0,0,0c61.3,0,112.4-46,119-107.1c3.4-31.8-5.8-63-25.9-87.9
		C380.5,205.7,351.9,190.2,320.1,186.8z M412.6,317.1c-5.8,53.9-50.9,94.5-105,94.5c-3.8,0-7.6-0.2-11.4-0.6
		c-28.1-3-53.3-16.7-71.1-38.7c-17.7-22-25.9-49.6-22.9-77.6c5.8-53.9,50.9-94.5,105-94.5c3.8,0,7.6,0.2,11.3,0.6
		c28.1,3,53.3,16.7,71.1,38.7C407.4,261.4,415.6,289,412.6,317.1z"/>
</g>
</symbol><symbol id="icon-instagram" viewBox="0 0 512 512">
<g>
	<path fill="#FFFFFF" d="M492.7,19.3C479.8,6.4,464.3,0,446.3,0H65.7c-18,0-33.4,6.4-46.3,19.3C6.4,32.2,0,47.7,0,65.7v380.7
		c0,18,6.4,33.4,19.3,46.3C32.2,505.6,47.7,512,65.7,512h380.7c18,0,33.4-6.4,46.3-19.3c12.9-12.9,19.3-28.3,19.3-46.3V65.7
		C512,47.7,505.6,32.2,492.7,19.3z M183.8,184.5c20.1-19.4,44.3-29.2,72.5-29.2c28.4,0,52.7,9.7,72.8,29.2
		c20.1,19.4,30.2,42.9,30.2,70.5c0,27.6-10.1,51.1-30.2,70.5c-20.1,19.4-44.4,29.2-72.8,29.2c-28.2,0-52.4-9.7-72.5-29.2
		c-20.1-19.4-30.2-42.9-30.2-70.5C153.7,227.4,163.7,203.9,183.8,184.5z M454,432.7c0,5.8-2,10.6-6,14.5c-4,3.9-8.8,5.8-14.3,5.8
		H77.3c-5.8,0-10.6-1.9-14.5-5.8c-3.9-3.9-5.8-8.7-5.8-14.5v-216h47c-4.4,14-6.7,28.6-6.7,43.7c0,42.7,15.6,79.1,46.7,109.2
		c31.1,30.1,68.6,45.2,112.3,45.2c28.9,0,55.6-6.9,80-20.7c24.4-13.8,43.8-32.5,58-56.2c14.2-23.7,21.3-49.5,21.3-77.5
		c0-15.1-2.2-29.7-6.7-43.7h45L454,432.7L454,432.7L454,432.7z M454,135c0,6.4-2.2,11.9-6.7,16.3c-4.4,4.4-9.9,6.7-16.3,6.7h-58
		c-6.4,0-11.9-2.2-16.3-6.7c-4.4-4.4-6.7-9.9-6.7-16.3V80c0-6.2,2.2-11.6,6.7-16.2c4.4-4.6,9.9-6.8,16.3-6.8h58
		c6.4,0,11.9,2.3,16.3,6.8c4.5,4.6,6.7,9.9,6.7,16.2V135z"/>
</g>
</symbol><symbol id="icon-install-desktop" viewBox="0 0 57.6 57.7">
<path id="Forma_1" fill="#373B51" d="M57.4,11.9c-0.2-0.2-0.6-0.3-0.9-0.1l-11.9,6.9L28.1,9.3c0,0-0.1,0-0.1,0l-4.6-8.9
  c-0.2-0.3-0.6-0.5-0.9-0.3c0,0,0,0,0,0L0.4,12.2c-0.2,0.1-0.3,0.2-0.3,0.4C0,12.8,0,13,0.1,13.2l5.2,9.2c0,0,0.1,0,0.1,0.1l0,0v21.1
  H5.2c0,0.3,0.2,0.5,0.3,0.7l21.8,13.3c0.1,0.1,0.2,0.1,0.4,0.1c0.1,0,0.2,0,0.4-0.1l22.3-13.3c0.2-0.2,0.3-0.5,0.3-0.7H51v-21
  l6.5-9.8C57.7,12.5,57.6,12.1,57.4,11.9z M24.6,32.7l3.2-2.1l1.9,1.2l-1.8,2.8L24.6,32.7z M27.1,29.4l-3.9,2.5L7.4,22.5l19.8-11.3
  V29.4L27.1,29.4z M6.8,23.7l20.4,12.4v19.7L6.8,43.4V23.7z M28.5,36.1l21.1-12.4v19.7L28.5,55.8V36.1z M30.4,30.6l-1.9-1.3V11.1
  l14.6,8.3l-8.9,5.1c-0.1,0.1-0.2,0.1-0.2,0.2L30.4,30.6z M22.5,1.7l4.2,8.1L6.3,21.4l-4.7-8.3L22.5,1.7z M49.5,21.9L49.5,21.9
  L30.4,33.3l4.7-7.6l19.4-11.2L49.5,21.9z"/>
</symbol><symbol id="icon-install-mobile" viewBox="0 0 57.6 57.7">
<path id="Forma_1" fill="#373B51" d="M57.4,11.9c-0.2-0.2-0.6-0.3-0.9-0.1l-11.9,6.9L28.1,9.3c0,0-0.1,0-0.1,0l-4.6-8.9
  c-0.2-0.3-0.6-0.5-0.9-0.3c0,0,0,0,0,0L0.4,12.2c-0.2,0.1-0.3,0.2-0.3,0.4C0,12.8,0,13,0.1,13.2l5.2,9.2c0,0,0.1,0,0.1,0.1l0,0v21.1
  H5.2c0,0.3,0.2,0.5,0.3,0.7l21.8,13.3c0.1,0.1,0.2,0.1,0.4,0.1c0.1,0,0.2,0,0.4-0.1l22.3-13.3c0.2-0.2,0.3-0.5,0.3-0.7H51v-21
  l6.5-9.8C57.7,12.5,57.6,12.1,57.4,11.9z M24.6,32.7l3.2-2.1l1.9,1.2l-1.8,2.8L24.6,32.7z M27.1,29.4l-3.9,2.5L7.4,22.5l19.8-11.3
  V29.4L27.1,29.4z M6.8,23.7l20.4,12.4v19.7L6.8,43.4V23.7z M28.5,36.1l21.1-12.4v19.7L28.5,55.8V36.1z M30.4,30.6l-1.9-1.3V11.1
  l14.6,8.3l-8.9,5.1c-0.1,0.1-0.2,0.1-0.2,0.2L30.4,30.6z M22.5,1.7l4.2,8.1L6.3,21.4l-4.7-8.3L22.5,1.7z M49.5,21.9L49.5,21.9
  L30.4,33.3l4.7-7.6l19.4-11.2L49.5,21.9z"/>
</symbol><symbol id="icon-invoice" viewBox="0 0 50.9 52.4">
<path id="&#x424;&#x438;&#x433;&#x443;&#x440;&#x430;_12" fill="#FDFCFC" d="M17,37.4h15.1v-1.3H17V37.4z M17,40.6h15.1v-1.3H17V40.6z M16.9,43.6H32v-1.3H16.9
	V43.6z M50.3,33.5h-9.5V20.9c0-0.1,0-0.1,0-0.1c0,0,0,0,0-0.1c0-0.1-0.1-0.1-0.1-0.2l-5-5.7c-0.1-0.1-0.1-0.1-0.2-0.1c0,0,0,0-0.1,0
	c-0.1,0-0.1,0-0.2,0c0,0,0,0,0,0h-6.6c0-0.1,0.1-0.2,0.1-0.4c-0.1-0.5-0.3-1-0.6-1.4c-0.2-0.2-0.3-0.5-0.4-0.7
	c0-0.3,0.1-0.6,0.2-0.9c0.2-0.5,0.3-1,0.2-1.5c-0.2-0.5-0.6-0.9-1-1.1c-0.3-0.1-0.5-0.3-0.6-0.6c-0.1-0.3-0.1-0.6-0.1-0.9
	c0.2-1-0.4-1.9-1.3-2.1c-0.1,0-0.2,0-0.3,0C24.2,5.1,24,5,23.7,4.8c-0.2-0.2-0.3-0.5-0.3-0.8c-0.1-1-0.9-1.7-1.9-1.6
	c-0.1,0-0.2,0-0.3,0c-0.6,0.2-1.2-0.2-1.4-0.7c-0.2-0.4-0.6-0.8-1.1-1c-0.5-0.1-1,0-1.5,0.2C17,1,16.7,1,16.4,1
	c-0.3-0.1-0.5-0.2-0.7-0.4c-0.7-0.8-1.8-0.8-2.5-0.2C13,0.5,13,0.5,12.9,0.6C12.7,0.8,12.4,1,12.2,1c-0.3,0-0.6-0.1-0.9-0.2
	c-0.5-0.2-1-0.3-1.5-0.2C9.4,0.9,9,1.3,8.8,1.7C8.5,2.3,7.9,2.6,7.3,2.4C6.4,2.2,5.4,2.8,5.2,3.7c0,0.1,0,0.2,0,0.3
	C5.1,4.3,5,4.6,4.8,4.8C4.6,5,4.3,5.1,4,5.1C3,5.2,2.3,6.1,2.4,7c0,0.1,0,0.2,0,0.3c0,0.3,0,0.6-0.1,0.9C2.2,8.4,1.9,8.6,1.7,8.8
	C1.2,9,0.9,9.4,0.7,9.9c-0.1,0.5,0,1,0.2,1.5C1,11.6,1,11.9,1,12.2c-0.1,0.3-0.2,0.5-0.4,0.7c-0.8,0.6-0.8,1.8-0.2,2.5
	c0.1,0.1,0.1,0.1,0.2,0.2c0.2,0.2,0.3,0.5,0.4,0.7l0.9-0.1c-0.1-0.4-0.3-0.8-0.6-1.1c-0.2-0.2-0.4-0.5-0.4-0.8
	c0.1-0.3,0.2-0.6,0.4-0.8C2,12.8,2.1,11.8,1.7,11c-0.1-0.3-0.2-0.6-0.2-0.9c0.2-0.3,0.4-0.5,0.7-0.6C2.6,9.3,2.9,9,3.1,8.6
	c0.2-0.4,0.2-0.9,0.2-1.3c0-0.3,0-0.6,0.1-0.9C3.7,6.2,4,6.1,4.3,6c0.4-0.1,0.8-0.3,1.2-0.6C5.7,5.1,5.9,4.7,6,4.3
	C6.1,4,6.2,3.7,6.4,3.4C6.7,3.3,7,3.3,7.3,3.3c0.4,0,0.9,0,1.3-0.2C9,2.9,9.3,2.6,9.5,2.2c0.1-0.3,0.4-0.5,0.6-0.7
	c0.3,0,0.6,0,0.9,0.2c0.4,0.2,0.8,0.3,1.3,0.2c0.4-0.1,0.8-0.3,1.1-0.6c0.3-0.5,0.9-0.6,1.4-0.3c0.1,0.1,0.2,0.2,0.3,0.3
	c0.3,0.3,0.7,0.5,1.1,0.6c0.4,0,0.9-0.1,1.3-0.2c0.3-0.1,0.6-0.2,0.9-0.2c0.3,0.2,0.5,0.4,0.6,0.7c0.2,0.4,0.5,0.7,0.9,0.9
	c0.4,0.2,0.8,0.2,1.3,0.2c0.3,0,0.6,0,0.9,0.1c0.2,0.2,0.3,0.5,0.4,0.8c0.1,0.4,0.3,0.8,0.6,1.2c0.3,0.3,0.7,0.5,1.2,0.6
	c0.3,0.1,0.6,0.2,0.8,0.4c0.1,0.3,0.2,0.6,0.1,0.9c0,0.4,0,0.9,0.2,1.3C25.6,9,26,9.3,26.3,9.5c0.3,0.2,0.5,0.4,0.7,0.6
	c0,0.3,0,0.6-0.2,0.9c-0.4,0.8-0.3,1.8,0.4,2.4c0.2,0.2,0.4,0.5,0.4,0.8c0,0.1-0.1,0.2-0.1,0.4h-2.1c0-0.1,0-0.2,0-0.4
	c0-6.2-5-11.2-11.2-11.1c-6.2,0-11.1,5-11.1,11.1c0,0.5,0,0.9,0.1,1.4l0.9-0.1C4,15.1,4,14.7,4,14.3C4,8.6,8.6,4,14.3,4
	c5.7,0,10.3,4.6,10.3,10.3c0,0.1,0,0.2,0,0.4h-8.2c0.6-0.2,1-0.8,1-1.5v-2.2c0-0.9-0.7-1.5-1.6-1.5c-0.8,0-1.5,0.7-1.5,1.5v2.2
	c0,0.8,0.6,1.4,1.3,1.5c-1.4,0.3-2.5,1.6-2.5,3.1v6.7c-1.8-0.2-3.6-0.9-5.1-2.1l-0.5,0.7c1.6,1.3,3.6,2,5.6,2.2V27
	c-0.2-0.2-0.5-0.3-0.8-0.3c-0.4,0-0.9,0-1.3,0.2C10.8,27,10.4,27,10.1,27c-0.3-0.2-0.5-0.4-0.6-0.7c-0.4-0.8-1.3-1.3-2.2-1.1
	c-0.3,0-0.6,0-0.9-0.1c-0.2-0.2-0.3-0.5-0.4-0.8c-0.1-0.4-0.3-0.8-0.6-1.2c-0.3-0.3-0.7-0.5-1.2-0.6c-0.3-0.1-0.6-0.2-0.8-0.4
	l-0.7,0.5C3.1,23,3.5,23.3,4,23.4c0.3,0.1,0.6,0.2,0.8,0.4C5,24,5.1,24.2,5.1,24.5c0.1,0.5,0.3,1,0.7,1.3c0.4,0.2,0.9,0.4,1.5,0.3
	c0.3,0,0.6,0,0.9,0.1c0.2,0.2,0.4,0.4,0.6,0.6c0.2,0.4,0.6,0.8,1.1,1c0.5,0.1,1,0,1.5-0.2c0.3-0.1,0.6-0.2,0.9-0.2
	c0.3,0.1,0.5,0.2,0.7,0.4c0.1,0,0.1,0.1,0.2,0.1v16.8c0,1.7,1.4,3.1,3.2,3.1h21.4c1.3,1.8,2.9,3.2,4.8,4.3c0.1,0.1,0.2,0.1,0.3,0.1
	c0.1,0,0.2,0,0.3-0.1c4.9-2.9,7.9-8.1,7.9-13.7v-4.5C50.9,33.8,50.6,33.5,50.3,33.5L50.3,33.5z M44.7,36.2H46v1.3h-1.3V36.2z
	 M42.2,36.2h1.3v1.3h-1.3V36.2z M39.7,36.2h1.3v1.3h-1.3V36.2z M35.8,16.9l1.4,1.5l1.6,1.8h-3V16.9L35.8,16.9z M15.2,13.2v-2.2
	c0-0.4,0.3-0.7,0.7-0.7c0.4,0,0.7,0.3,0.7,0.7v2.2c0,0.4-0.3,0.7-0.7,0.6C15.5,13.8,15.2,13.5,15.2,13.2L15.2,13.2z M14.7,17.4
	c0.2,0,0.4,0.2,0.4,0.4v2.2h-0.8v-2.3c0-0.1,0-0.1,0-0.2C14.4,17.5,14.6,17.4,14.7,17.4L14.7,17.4z M16.2,46.7c-1,0-1.9-0.8-1.9-1.9
	c0,0,0,0,0,0V28.5c0.5-0.1,0.9-0.3,1.3-0.6c0.2-0.2,0.5-0.3,0.7-0.4c0.3,0,0.6,0.1,0.9,0.2c0.5,0.2,1,0.3,1.5,0.2
	c0.5-0.2,0.9-0.6,1.1-1c0.1-0.3,0.3-0.5,0.6-0.6c0.3-0.1,0.6-0.1,0.9-0.1c0.5,0.1,1,0,1.5-0.3c0.4-0.3,0.6-0.8,0.7-1.3
	c0.1-0.3,0.2-0.6,0.3-0.8c0.2-0.2,0.5-0.3,0.8-0.4c0.5-0.1,1-0.3,1.3-0.7l-0.7-0.5c-0.2,0.2-0.5,0.3-0.8,0.4
	c-0.9,0.1-1.6,0.8-1.7,1.7c-0.1,0.3-0.2,0.6-0.4,0.8c-0.3,0.1-0.6,0.2-0.9,0.1c-0.9-0.2-1.8,0.3-2.2,1.1c-0.2,0.3-0.4,0.5-0.6,0.7
	c-0.3,0-0.6,0-0.9-0.2c-0.4-0.2-0.8-0.3-1.3-0.2c-0.4,0.1-0.8,0.3-1.1,0.6c-0.2,0.2-0.5,0.3-0.8,0.4v-2.2c2.4,0,4.8-0.8,6.7-2.3
	l-0.5-0.7c-1.8,1.4-4,2.1-6.2,2.1V21h0.8v0.9h0.9v-4c0-0.7-0.5-1.3-1.2-1.3c0.4-0.4,0.9-0.6,1.4-0.6h10.5c0,0.1-0.1,0.2-0.1,0.4
	l0.9,0.1c0-0.2,0.1-0.3,0.2-0.5h6.8v5c0,0.3,0.3,0.6,0.6,0.6c0,0,0,0,0,0h4.4v12h-4.4c-0.3,0-0.6,0.3-0.6,0.6c0,0,0,0,0,0v4.5
	c0,0.4,0,0.7,0,1.1c0.1,2,0.7,4,1.5,5.8c0,0.1,0,0.1,0.1,0.2c0.1,0.2,0.2,0.4,0.3,0.6c0.1,0.1,0.1,0.2,0.2,0.3c0,0,0,0.1,0.1,0.1
	L16.2,46.7L16.2,46.7z M38.4,37.4h-1.3v-1.3h1.3V37.4z M42.6,45.4c-0.2,0.2-0.6,0.3-0.9,0c0,0,0,0,0,0l-2.5-2.5l0.9-0.9l2.1,2.1
	l4.6-4.6l0.9,0.9L42.6,45.4z M48.5,37.4h-1.3v-1.3h1.3V37.4z M19.6,17.4h0.9v4.5h0.9v-4.5h0.9v-0.9h-2.7V17.4z M18.3,19.1l-0.9-2.3
	c-0.1-0.2-0.3-0.3-0.6-0.3c-0.2,0.1-0.3,0.2-0.3,0.4v4.9h0.9v-2.6l0.9,2.3c0.1,0.2,0.2,0.3,0.4,0.3c0,0,0.1,0,0.1,0
	c0.2,0,0.4-0.2,0.4-0.4v-4.9h-0.9V19.1z M4,16.5v4c0,0.7,0.6,1.4,1.3,1.4c0.7,0,1.4-0.6,1.4-1.3c0,0,0,0,0-0.1v-4H5.8v4
	c0,0.2-0.2,0.5-0.4,0.5c-0.2,0-0.5-0.2-0.5-0.4c0,0,0,0,0,0v-4H4z M3.6,20.5v-0.9c0-0.2-0.2-0.4-0.4-0.4c0,0,0,0,0,0H2.2v0.9h0.4
	v0.4c0,0.2-0.2,0.4-0.4,0.4c-0.2,0-0.4-0.2-0.4-0.4l0,0v-2.7c0-0.2,0.2-0.4,0.4-0.4c0.2,0,0.4,0.2,0.4,0.4v0.4h0.9v-0.4
	c0-0.7-0.6-1.3-1.3-1.3c-0.7,0-1.3,0.6-1.3,1.3c0,0,0,0,0,0v2.7c0,0.7,0.6,1.3,1.3,1.3C3,21.9,3.6,21.3,3.6,20.5L3.6,20.5L3.6,20.5z
	 M7.1,17.8v4H8V21h0.9v0.9h0.9v-4c0-0.7-0.5-1.4-1.3-1.4c-0.7,0-1.4,0.5-1.4,1.3C7.1,17.8,7.1,17.8,7.1,17.8L7.1,17.8z M8.9,17.8
	v2.2H8v-2.2c0-0.2,0.2-0.4,0.4-0.4C8.7,17.4,8.9,17.6,8.9,17.8L8.9,17.8z M10.3,16.9v2.2l0,0v2.7h0.9v-1.4l1,1.2
	c0.1,0.1,0.2,0.2,0.3,0.2h0.4V21h-0.2l-1.1-1.4c0.9-0.1,1.4-0.9,1.3-1.8c-0.1-0.8-0.8-1.3-1.5-1.3h-0.7
	C10.5,16.5,10.3,16.7,10.3,16.9C10.3,16.9,10.3,16.9,10.3,16.9L10.3,16.9z M11.1,17.4h0.2c0.4,0,0.7,0.3,0.7,0.7
	c0,0.4-0.3,0.7-0.7,0.7h-0.2V17.4z M22.8,16.9v4.5c0,0.2,0.2,0.4,0.4,0.4c0,0,0,0,0,0H25V21h-1.3v-1.3H25v-0.9h-1.3v-1.3H25v-0.9
	h-1.8C23,16.5,22.8,16.7,22.8,16.9C22.8,16.9,22.8,16.9,22.8,16.9L22.8,16.9z M27.7,21.9V21h-1.3v-1.3h1.3v-0.9h-1.3v-1.3h1.3v-0.9
	h-1.8c-0.2,0-0.4,0.2-0.4,0.4c0,0,0,0,0,0v4.5c0,0.2,0.2,0.4,0.4,0.4c0,0,0,0,0,0H27.7L27.7,21.9z M13.8,13.2v-2.2
	c0-0.9-0.7-1.6-1.6-1.6c-0.9,0-1.6,0.7-1.6,1.6v2.2c0,0.9,0.7,1.6,1.6,1.6C13.1,14.7,13.8,14,13.8,13.2L13.8,13.2L13.8,13.2z
	 M11.6,13.2v-2.2c0-0.4,0.3-0.7,0.7-0.7c0.4,0,0.7,0.3,0.7,0.7v2.2c0,0.4-0.3,0.7-0.7,0.6C11.9,13.8,11.6,13.5,11.6,13.2L11.6,13.2z
	 M9.8,9.4H8.9v0.9h0.4v4.5h0.9V9.8C10.3,9.6,10.1,9.4,9.8,9.4C9.8,9.4,9.8,9.4,9.8,9.4L9.8,9.4z M18.8,14.1l0.8,0.4l1.8-3.6
	l-0.8-0.4L18.8,14.1z M18.3,12h0.9v-0.9h-0.9V12z M21.9,13.8v-0.9H21v0.9H21.9z"/>
</symbol><symbol id="icon-jura" viewBox="0 0 419.8 183.2">
<path d="M413.8,112.7v-0.1c1-0.2,1.6-1.1,1.6-2.1c0-1.7-1.4-2.1-2.9-2.1h-3.3v8.7h1.3v-3.8h1.8
	c0.5,0,1.1,0.2,1.3,0.5c0.3,0.4,0.3,1.1,0.4,1.8c0.1,0.5,0.2,1.1,0.3,1.5h1.3c-0.2-0.7-0.3-1.7-0.4-2.5
	C415,113.5,414.9,112.8,413.8,112.7 M412.6,112.1h-2v-2.8h2c1.3,0,1.6,0.7,1.6,1.4C414.2,111.4,413.7,112.1,412.6,112.1"/>
<path d="M353,115.2c-17.2,9-39.3,10.6-39.2-10.8c0,0-0.6-0.6-1.4-0.1c-5.7,3.5-11.2,7.5-17.2,10.1
	c-14.6,6.3-41.2,15.6-36.5-8c1.8-9.6,19.2-37.8,21.6-41.3c-0.2,0.3-4.7,0.9-4.6,0.7c-16.4,20.3-29.7,35-42,44
	c-6.6,4.8-18.3,11.8-29.6,11.8c0,0-9,0.8-9.3-12.8c0,0-0.5-0.1-1.1,0c-10.6,8.8-66.2,31.8-49.8-18.9c0.1-0.3-0.5,0-0.5,0
	c-10.6,7.6-31.6,19.1-47,26c-17.7,22.9-27.7,35-42.3,52.1c-0.6,0.6-2.6,1.9-4.3,2.6c-1.6,0.4-40.9,11.6-45.2,12.3
	c-5.7,1.3-4.8-0.2-3.9-1.6c10.1-16.2,37.9-49.2,70.2-76c12-16.8,18.2-26.1,26.8-41.2c0.5-1,1.4-1.5,2.5-1.6c10.8-2.4,19-4,29.5-6.1
	c-2.5,0.5,2.1-0.9,1.2,1c-9,15.4-10.9,18.3-21.8,35.5c-0.2,0.2,0.7,0.4,1.3,0.2c3.5-1.3,37.2-19.9,46.5-30.7c0-0.1,0.6-0.4,1-0.5
	c12.5-2.6,11.4-1.7,24-4.3c0.2-0.1,1.4,0.2,1,1c-8,13.1-10,17.5-10.6,19.6c-6.4,22,19.4,12,28.4-1.7c3.5-5,5.7-9.5,7.8-13.2
	c0.6-1.2,0.6-2,2.7-2.1c0,0,17.7-3,25.4-4.6c2.5-0.4,2.2,0.4,1.9,1.1c-5.1,8.3-13.8,22.9-17.4,31c-4.4,10.2,0.3,12.3,7.2,7.8
	c7.3-4.7,24.4-21,33.7-32.1c0,0-0.5,0.2-2.9,0.6c-1.3,0.1-2.4-0.3-1.2-2.4c2.3-4.2,5.1-9.3,10.5-19.1c0.2-0.3,0.9-0.9,1.2-0.9
	c0.8-0.2,35.9-9.6,35.9-9.6c3.9-1.1,0.2,3.1,1.6,1.3c-7.5,10.5-11.9,15.9-20.1,25.4c0.2-0.2-0.9,1.3,1.1,1.1c12-2,8.3-2,19.8-3.9
	c1.3-0.3,3,0.2,1.8,2c-8.9,15.1-10.5,19.9-19.3,34.6c-4.9,8,1.1,10,12.1,3.2c6.8-4.1,10.1-9,13.5-12.5c4.4-4.7,8.5-9.2,12.9-12.6
	c5.3-4.1,11-7.6,24.4-10.5v0.1v-0.1c10.9-2.2,27-4,52.3-5c1.8-0.1,1.5,0.7,0.7,2c-3.9,8.1-12.7,24.6-19,39.1
	c-1.6,3.5-3.3,8.8,0.5,9.4c2.7,0.4,5.1-1.3,9.7-4.1c0.1-0.2,0.4-0.3,0.7-0.2c0.1,0,1.2,0.6,1.6,0.8c0.2,0.3,0.1,0.5,0.1,0.6
	c-2.9,4.9-5.2,8.7-9.6,13c-10.6,10.3-25.8,2.7-25.5-8.1c0-0.2-0.8-0.3-1.1,0c-2.8,2.4-6.1,4.6-9.6,6.5l-0.1,0.1
	C353.5,114.8,353.2,114.9,353,115.2 M354.6,93.1c1.4-1,4.1-2.5,6-4.4c1.8-1.7,4.6-5,5.6-6.5c1.4-2.1,3.7-5.8,3.1-8.4
	c-0.5-1.7-3.2-2.2-5.9-2c-3.6,0.2-7,1.2-10.4,2.6c-0.5,0.2-1.2,0.5-1.8,0.7c-2.8,1.3-7,4.3-9.3,6.7c-3,3.4-5.9,8.8-4.8,12
	c0.9,2.8,5.8,4.4,9.3,3.1C349.6,95.9,351.7,94.8,354.6,93.1 M122.9,7.1L122.9,7.1c-2.1,4.1-5.4,9.2-7.7,15.3
	c-4.7,12.6,20.9,9.1,30.2-5c4.1-6.2,5.9-9.4,8.5-14.8c1.8-3.5-1.1-2.5-1.7-2.4l-25.6,4.7C126.6,4.9,123.8,5.4,122.9,7.1"/>
<path d="M412.2,105.2c-4.1,0-7.6,3.2-7.6,7.5c0,4.4,3.5,7.6,7.6,7.6c4.2,0,7.6-3.2,7.6-7.6
	C419.8,108.4,416.4,105.2,412.2,105.2 M412.2,119.2c-3.5,0-6.4-2.9-6.4-6.5c0-3.5,2.9-6.4,6.4-6.4c3.6,0,6.4,2.9,6.4,6.4
	C418.7,116.3,415.9,119.2,412.2,119.2"/>
</symbol><symbol id="icon-lacimbali" viewBox="0 0 2210.1 545.9">
  <path class="st0" d="M853.5,140.1l-82.3,317.6h66.4l82.3-317.6H853.5z M1190.9,140.1l-121.6,250.3h-0.9l7.2-250.3h-96.9
    l-82.3,317.6h61.9l68.7-265.3h0.9l-10.7,265.3h65.1l128.1-265.3h0.9l-68.7,265.3h61.9l82.3-317.6H1190.9L1190.9,140.1z
     M1546.4,363.6c8.1-31.3,6-62.3-29.2-76.9c14.9-6.6,43.9-19.5,55.8-65.1c8.5-32.8,1.2-81.5-76.8-81.5h-154.6l-82.3,317.6h134.6
    c65.2,0,85.3-11.1,108-28.8C1523,412.6,1539.8,388.8,1546.4,363.6z M1481.8,356.5c-8.4,32.3-30.6,46.4-63,46.4h-81.6l21.9-84.8
    h84.6C1467.8,318.1,1489,328.7,1481.8,356.5L1481.8,356.5z M1507.2,229.1c-6.6,25.3-30,35.5-56.1,35.5h-78l18-69.6h76.2
    C1497.5,195,1514,203,1507.2,229.1z M1701.2,140.1l-195.6,317.6h69.9l39.1-65.6H1732l3.4,65.6h72.1l-29.7-317.6H1701.2
    L1701.2,140.1z M1646.6,337.3l73.3-125.5h0.9l6.9,125.5H1646.6z M1962.8,140.1h-66.4l-82.3,317.6h224.4l14.9-57.5h-158
    L1962.8,140.1z M2143.8,140.1l-82.3,317.6h66.4l82.3-317.6H2143.8L2143.8,140.1z M77.6,207.8H39.2L0,392.5h130l7.1-33.4H45.4
    L77.6,207.8z M536.6,460.3c-126.9,0.4-77.7-199.6-71.4-228.4C475,187.6,540.9,72,640,74.9c96.4,0,89.3,121.3,89.3,121.3h64.2
    C822,53.5,707.9,0,643.6,0S458.1,42.8,397.4,199.8c-16.7,43.2-25.5,88.7-26.1,132.1H309l-17.2-124h-44.4L142.5,392.5H183l20.9-37.9
    h67.9l3.7,37.9h41.8l-5-35.7h59.4c6.1,103.7,61.6,189.2,171.9,189.2c164.1,0,217.6-182,217.6-182h-78.5
    C682.9,364,661.5,460.3,536.6,460.3L536.6,460.3z M220.9,322.9l39.1-73.3h0.5l7.3,73.3H220.9z"/>
</symbol><symbol id="icon-like" viewBox="0 0 291.6 291.6">
<circle fill="#F9BA48" cx="164.6" cy="126.9" r="65.6"/>
<path fill="#212639" d="M261.9,19.1c-32.9,0-65.1-6.2-95.6-18.4L164.6,0l-1.7,0.7c-30.5,12.2-62.7,18.4-95.6,18.4H56.8v98.4H33.3
	c-7.8,0-14.1,6.3-14.1,14.1v79.7c0,7.8,6.3,14.1,14.1,14.1h42.2c0,0,0,0,0,0c11.1,17.6,26.4,32.1,44.7,42.1l44.3,24.2l44.3-24.2
	c39.2-21.4,63.5-62.3,63.5-106.9V19.1H261.9z M28.6,211.3v-79.7c0-2.6,2.1-4.7,4.7-4.7h42.2c2.6,0,4.7,2.1,4.7,4.7v79.7
	c0,2.6-2.1,4.7-4.7,4.7H33.3C30.7,216,28.6,213.9,28.6,211.3z M89.6,140.9c15.7-0.8,28.1-13.9,28.1-29.7V87.1
	c0-6.5,5.3-11.7,11.7-11.7s11.7,5.3,11.7,11.7v29.5c0,8.3,6.7,15,15,15h34.4c8.9,0,16.2,7.3,16.2,16.2v51.9c0,9-7.3,16.2-16.2,16.2
	h-69.1c-3.7,0-7.2-1.9-9.2-4.9c-3.8-5.7-10.2-9.1-17-9.1h-5.6L89.6,140.9L89.6,140.9z M263,160.5c0,41.2-22.4,79-58.6,98.7
	L164.6,281l-39.8-21.7c-16.3-8.9-30.1-21.7-40.2-37.2c2.8-2.4,4.7-5.9,5-9.8c9.5,16.3,23.1,29.7,39.7,38.8l35.4,19.3l35.4-19.3
	c33.1-18.1,53.7-52.7,53.7-90.5V89.4h-9.4v71.1c0,34.3-18.7,65.8-48.8,82.2l-30.9,16.8l-30.9-16.8c-13.2-7.2-24.3-17.4-32.6-29.7
	c1.3,0.8,2.5,1.9,3.4,3.2c3.8,5.7,10.2,9.1,17,9.1h69.1c14.1,0,25.6-11.5,25.6-25.6v-51.9c0-14.1-11.5-25.6-25.6-25.6h-34.4
	c-3.1,0-5.7-2.5-5.7-5.7V87.1c0-11.6-9.5-21.1-21.1-21.1s-21.1,9.5-21.1,21.1v24.2c0,10.7-8.3,19.4-18.8,20.2
	c0-4.1-1.9-7.7-4.7-10.2V46.7c27.2-1.7,54-7.2,79.7-16.6c25.7,9.3,52.5,14.9,79.7,16.6v5.2h9.4V37.8l-4.5-0.2
	c-28.4-1.3-56.3-7-83-16.8l-1.6-0.6l-1.6,0.6c-26.7,9.9-54.6,15.5-83,16.8l-4.5,0.2v79.8h-9.4V28.5h1.1c33.5,0,66.2-6.2,97.4-18.4
	c31.1,12.2,63.9,18.4,97.4,18.4h1.1L263,160.5L263,160.5L263,160.5z"/>
<rect x="244.3" y="70.7" fill="#212639" width="9.4" height="9.4"/>
<rect x="38" y="197.2" fill="#212639" width="32.8" height="9.4"/>
</symbol><symbol id="icon-maintenance-desktop" viewBox="0 0 915.1 775.7">
<g>
  <polygon fill="none" stroke="#373B51" stroke-width="10" stroke-miterlimit="10" points="10,5 251,6 249.5,715 5,714   "/>

    <polyline fill="none" stroke="#373B51" stroke-width="5" stroke-linecap="round" stroke-linejoin="round" stroke-miterlimit="10" points="
    213,685.3 218,658 228,549 232,451 233,295 233,169 233,85 232,32 33,32 32,53 31,215 29,353 30,509 35,584 45,687   "/>
  <path fill="#373B51" stroke="#373B51" stroke-width="3" stroke-miterlimit="10" d="M199.2,90.1H67.5c-6.6,0-12-5.4-12-12V64
    c0-6.6,5.4-12,12-12h131.7c6.6,0,12,5.4,12,12v14.1C211.2,84.7,205.8,90.1,199.2,90.1z"/>
  <path fill="#373B51" stroke="#373B51" stroke-width="3" stroke-miterlimit="10" d="M152.7,167.2h-40.9c-1.8,0-3.3-1.5-3.3-3.3v-8.8
    c0-1.8,1.5-3.3,3.3-3.3h40.9c1.8,0,3.3,1.5,3.3,3.3v8.8C156,165.7,154.5,167.2,152.7,167.2z"/>
  <rect x="263.6" y="6.6" fill="none" stroke="#373B51" stroke-width="10" stroke-miterlimit="10" width="646.5" height="708.7"/>

    <path fill="#373B51" stroke="#373B51" stroke-width="4" stroke-linecap="round" stroke-linejoin="round" stroke-miterlimit="10" d="
    M311.9,318.4c38.2,0,34.1,38.5,33.6,42.1c0,0.2,0,0.4-0.1,0.6l-0.7,8.8c-0.1,0.9-0.2,1.7-0.5,2.6l-2.4,7.7l-4,12.1
    c-0.2,0.6-0.3,1.2-0.4,1.9l-1.5,9.1c-0.3,1.6-0.4,3.2-0.3,4.9l0.4,12.6c0,0.5,0.1,1,0.1,1.5l1.7,10.8c0.1,0.8,0.2,1.6,0.1,2.4
    l-0.7,16l-4,58.8L331,543c-0.1,0.9-0.2,1.7-0.4,2.5l-0.9,3.3c-0.8,2.7-2.5,5.1-4.9,6.7l-1.1,0.8c-1.9,1.3-4.2,2-6.6,2.1l-16.8,0.4
    c-2,0-4-0.4-5.8-1.3l-2.6-1.3c-2.6-1.3-4.6-3.5-5.7-6.1l0,0c-0.5-1.3-0.8-2.6-0.9-4l-2.9-48.7l-2.9-60.5c-0.1-1.2,0.1-2.3,0.3-3.5
    l2.1-8.5c0.2-0.7,0.3-1.4,0.3-2.1l0.9-13.8c0-0.3,0-0.6,0-0.9c0-2.5,0.4,1,0-7.5c-0.2-3.8-0.9-7.2-1.5-10.4
    c-0.8-4-1.7-7.7-3.6-11.5l-0.1-0.1c-0.5-1.1-0.9-2.4-1.1-3.6l-1-7.1l-0.9-7.7c0,0-5.5-41.6,34.5-41.6h1.9L311.9,318.4z"/>

    <path fill="#373B51" stroke="#373B51" stroke-width="4" stroke-linecap="round" stroke-linejoin="round" stroke-miterlimit="10" d="
    M805.1,64c-10-11-425.4-9.9-434.2-1.1c0,22.1-1.6,184.1,1.4,255.1s11.3,280.7,33.7,303c17.4,8.6,356,10,365,1
    c16.5-16.5,32-290.3,33.3-312C805.7,288.3,805.1,94,805.1,64z M753.4,521.9c-0.6,4.1-4.1,7.1-8.3,7.1H425.6c-4.1,0-7.6-3.1-8.1-7.2
    c-17.4-140.5-24.6-281.4-21.3-422.7c0.1-3.7,3.2-6.7,6.9-6.7H771c3.4,0,6.2,2.7,6.3,6.1C783.1,238,774.7,379.2,753.4,521.9z"/>

    <line fill="none" stroke="#373B51" stroke-width="3" stroke-linecap="round" stroke-linejoin="round" stroke-miterlimit="10" x1="50.7" y1="211" x2="213.3" y2="211"/>
  <path fill="none" stroke="#373B51" stroke-width="3" stroke-linecap="round" stroke-linejoin="round" stroke-miterlimit="10" d="
    M71.7,430.3l119.3,1c6.1-55.7,8.5-112.1,7.3-169.3h-133C64.1,317.7,66.3,373.8,71.7,430.3z"/>

    <circle fill="#373B51" stroke="#373B51" stroke-width="4" stroke-linecap="round" stroke-linejoin="round" stroke-miterlimit="10" cx="130" cy="632" r="53"/>

    <path fill="#373B51" stroke="#373B51" stroke-width="3" stroke-linecap="round" stroke-linejoin="round" stroke-miterlimit="10" d="
    M102,329.7c18.4-3.1,36.9-3.1,55.3,0c1.1,12.6,0.7,24.3-3.3,33.7c-16.5,3.3-32.3,3.6-47.3,0.7C103.3,353.1,101.8,341.6,102,329.7z"/>
  <polygon fill="#373B51" stroke="#373B51" stroke-width="10" stroke-miterlimit="10" points="94.2,719.9 168,719.9 164.7,770.7
    98.2,770.7   "/>
  <polygon fill="#373B51" stroke="#373B51" stroke-width="10" stroke-miterlimit="10" points="756.2,719.9 830,719.9 826.7,770.7
    760.2,770.7   "/>
</g>
</symbol><symbol id="icon-maintenance-mobile" viewBox="0 0 915.1 775.7">
<g>
  <polygon fill="none" stroke="#373B51" stroke-width="10" stroke-miterlimit="10" points="10,5 251,6 249.5,715 5,714   "/>

    <polyline fill="none" stroke="#373B51" stroke-width="5" stroke-linecap="round" stroke-linejoin="round" stroke-miterlimit="10" points="
    213,685.3 218,658 228,549 232,451 233,295 233,169 233,85 232,32 33,32 32,53 31,215 29,353 30,509 35,584 45,687   "/>
  <path fill="#373B51" stroke="#373B51" stroke-width="3" stroke-miterlimit="10" d="M199.2,90.1H67.5c-6.6,0-12-5.4-12-12V64
    c0-6.6,5.4-12,12-12h131.7c6.6,0,12,5.4,12,12v14.1C211.2,84.7,205.8,90.1,199.2,90.1z"/>
  <path fill="#373B51" stroke="#373B51" stroke-width="3" stroke-miterlimit="10" d="M152.7,167.2h-40.9c-1.8,0-3.3-1.5-3.3-3.3v-8.8
    c0-1.8,1.5-3.3,3.3-3.3h40.9c1.8,0,3.3,1.5,3.3,3.3v8.8C156,165.7,154.5,167.2,152.7,167.2z"/>
  <rect x="263.6" y="6.6" fill="none" stroke="#373B51" stroke-width="10" stroke-miterlimit="10" width="646.5" height="708.7"/>

    <path fill="#373B51" stroke="#373B51" stroke-width="4" stroke-linecap="round" stroke-linejoin="round" stroke-miterlimit="10" d="
    M311.9,318.4c38.2,0,34.1,38.5,33.6,42.1c0,0.2,0,0.4-0.1,0.6l-0.7,8.8c-0.1,0.9-0.2,1.7-0.5,2.6l-2.4,7.7l-4,12.1
    c-0.2,0.6-0.3,1.2-0.4,1.9l-1.5,9.1c-0.3,1.6-0.4,3.2-0.3,4.9l0.4,12.6c0,0.5,0.1,1,0.1,1.5l1.7,10.8c0.1,0.8,0.2,1.6,0.1,2.4
    l-0.7,16l-4,58.8L331,543c-0.1,0.9-0.2,1.7-0.4,2.5l-0.9,3.3c-0.8,2.7-2.5,5.1-4.9,6.7l-1.1,0.8c-1.9,1.3-4.2,2-6.6,2.1l-16.8,0.4
    c-2,0-4-0.4-5.8-1.3l-2.6-1.3c-2.6-1.3-4.6-3.5-5.7-6.1l0,0c-0.5-1.3-0.8-2.6-0.9-4l-2.9-48.7l-2.9-60.5c-0.1-1.2,0.1-2.3,0.3-3.5
    l2.1-8.5c0.2-0.7,0.3-1.4,0.3-2.1l0.9-13.8c0-0.3,0-0.6,0-0.9c0-2.5,0.4,1,0-7.5c-0.2-3.8-0.9-7.2-1.5-10.4
    c-0.8-4-1.7-7.7-3.6-11.5l-0.1-0.1c-0.5-1.1-0.9-2.4-1.1-3.6l-1-7.1l-0.9-7.7c0,0-5.5-41.6,34.5-41.6h1.9L311.9,318.4z"/>

    <path fill="#373B51" stroke="#373B51" stroke-width="4" stroke-linecap="round" stroke-linejoin="round" stroke-miterlimit="10" d="
    M805.1,64c-10-11-425.4-9.9-434.2-1.1c0,22.1-1.6,184.1,1.4,255.1s11.3,280.7,33.7,303c17.4,8.6,356,10,365,1
    c16.5-16.5,32-290.3,33.3-312C805.7,288.3,805.1,94,805.1,64z M753.4,521.9c-0.6,4.1-4.1,7.1-8.3,7.1H425.6c-4.1,0-7.6-3.1-8.1-7.2
    c-17.4-140.5-24.6-281.4-21.3-422.7c0.1-3.7,3.2-6.7,6.9-6.7H771c3.4,0,6.2,2.7,6.3,6.1C783.1,238,774.7,379.2,753.4,521.9z"/>

    <line fill="none" stroke="#373B51" stroke-width="3" stroke-linecap="round" stroke-linejoin="round" stroke-miterlimit="10" x1="50.7" y1="211" x2="213.3" y2="211"/>
  <path fill="none" stroke="#373B51" stroke-width="3" stroke-linecap="round" stroke-linejoin="round" stroke-miterlimit="10" d="
    M71.7,430.3l119.3,1c6.1-55.7,8.5-112.1,7.3-169.3h-133C64.1,317.7,66.3,373.8,71.7,430.3z"/>

    <circle fill="#373B51" stroke="#373B51" stroke-width="4" stroke-linecap="round" stroke-linejoin="round" stroke-miterlimit="10" cx="130" cy="632" r="53"/>

    <path fill="#373B51" stroke="#373B51" stroke-width="3" stroke-linecap="round" stroke-linejoin="round" stroke-miterlimit="10" d="
    M102,329.7c18.4-3.1,36.9-3.1,55.3,0c1.1,12.6,0.7,24.3-3.3,33.7c-16.5,3.3-32.3,3.6-47.3,0.7C103.3,353.1,101.8,341.6,102,329.7z"/>
  <polygon fill="#373B51" stroke="#373B51" stroke-width="10" stroke-miterlimit="10" points="94.2,719.9 168,719.9 164.7,770.7
    98.2,770.7   "/>
  <polygon fill="#373B51" stroke="#373B51" stroke-width="10" stroke-miterlimit="10" points="756.2,719.9 830,719.9 826.7,770.7
    760.2,770.7   "/>
</g>
</symbol><symbol id="icon-map-marker" viewBox="0 0 27 27"><circle fill="#FFF" cx="13.5" cy="13.5" r="13.5"/><circle fill="#81B3D3" cx="13.5" cy="13.5" r="8.361"/></symbol><symbol id="icon-phone" viewBox="0 0 512.001 512.001">
<g>
  <g>
    <path d="M421.216,195.504c-5.092-26.101-17.723-49.836-36.526-68.64c-18.804-18.803-42.54-31.434-68.641-36.527    c-11.21-2.189-22.073,5.128-24.261,16.339c-2.187,11.212,5.128,22.073,16.339,24.26c36.847,7.188,65.3,35.642,72.489,72.489    c1.927,9.874,10.581,16.726,20.278,16.726c1.313,0,2.645-0.125,3.984-0.387C416.088,217.577,423.403,206.715,421.216,195.504z" fill="#FFFFFF"/>
  </g>
</g>
<g>
  <g>
    <path d="M511.422,196.929c-5.629-50.096-28.373-97.304-64.042-132.927C411.712,28.378,364.475,5.694,314.371,0.128    c-11.355-1.261-21.578,6.92-22.839,18.272c-1.261,11.353,6.919,21.578,18.272,22.84c84.961,9.438,150.966,75.36,160.512,160.31    c1.188,10.566,10.139,18.374,20.527,18.374c0.771,0,1.552-0.043,2.336-0.131C504.53,218.516,512.698,208.281,511.422,196.929z" fill="#FFFFFF"/>
  </g>
</g>
<g>
  <g>
    <path d="M432.59,312.566c-0.062-0.008-0.124-0.017-0.186-0.025c-20.013-2.639-39.751-7.557-58.619-14.596    c-23.91-8.99-51.103-3.191-69.27,14.772c-0.028,0.028-0.056,0.055-0.083,0.083l-17.148,17.148    c-42.633-26.924-78.756-63.047-105.679-105.679l17.149-17.149c0.027-0.028,0.054-0.055,0.082-0.083    c17.964-18.166,23.762-45.356,14.79-69.223c-7.057-18.914-11.974-38.653-14.614-58.666c-0.007-0.063-0.017-0.127-0.026-0.19    c-4.591-32.478-32.782-56.734-65.548-56.467H66.053c-1.943,0.002-3.912,0.091-5.853,0.267    C24.143,26.016-2.541,58.001,0.718,94.058c0.01,0.108,0.02,0.215,0.032,0.323c7.684,72.354,32.649,142.88,72.197,203.955    c35.892,56.461,84.701,105.269,141.162,141.164c60.792,39.406,130.99,64.369,203.013,72.196c0.127,0.015,0.254,0.027,0.38,0.038    c1.961,0.176,3.949,0.266,5.921,0.266c0.083,0,0.165,0,0.247,0.001c36.204-0.148,65.538-29.722,65.391-65.841v-67.233    C489.746,345.714,465.515,317.211,432.59,312.566z M447.698,378.695v67.548c0.055,13.396-10.8,24.338-24.19,24.393    c-0.715-0.004-1.425-0.027-2.135-0.086c-65.578-7.161-129.488-29.914-184.837-65.808c-0.053-0.035-0.107-0.069-0.161-0.103    c-51.429-32.68-95.885-77.137-128.565-128.565c-0.032-0.051-0.064-0.101-0.097-0.153C71.683,220.306,48.928,156.086,41.902,90.193    C40.779,76.91,50.63,65.155,63.923,63.954c0.717-0.064,1.443-0.098,2.145-0.098h67.463c0.146-0.001,0.294-0.003,0.443-0.002    c12.021,0,22.322,8.905,24.044,20.819c3.05,23.063,8.721,45.806,16.871,67.649c3.319,8.832,1.189,18.869-5.427,25.591    l-28.517,28.517c-6.583,6.582-7.956,16.753-3.354,24.847c33.837,59.508,83.177,108.847,142.685,142.685    c8.094,4.6,18.264,3.23,24.848-3.355l28.512-28.512c6.72-6.621,16.765-8.752,25.642-5.415    c21.799,8.134,44.547,13.805,67.61,16.855c12.18,1.757,21.122,12.339,20.816,24.647    C447.7,378.353,447.698,378.524,447.698,378.695z" fill="#FFFFFF"/>
  </g>
</g>
<g>
</g>
<g>
</g>
<g>
</g>
<g>
</g>
<g>
</g>
<g>
</g>
<g>
</g>
<g>
</g>
<g>
</g>
<g>
</g>
<g>
</g>
<g>
</g>
<g>
</g>
<g>
</g>
<g>
</g>
</symbol><symbol id="icon-rational" viewBox="0 0 2426.5 605.1">
<path class="rational1" d="M2426.5,457.3c0,40.8-16.6,77.7-43.4,104.5c-27.7,27.8-65.3,43.3-104.5,43.3H147.8
  c-39.2,0-76.8-15.5-104.4-43.3h-0.1C15.5,534.1,0,496.5,0,457.3V147.8c0-39.2,15.5-76.8,43.3-104.4l0.1-0.1C71,15.6,108.6,0,147.8,0
  h2130.8c40.8,0,77.7,16.5,104.5,43.3h0.1c27.8,27.7,43.4,65.3,43.3,104.5L2426.5,457.3L2426.5,457.3L2426.5,457.3z M2381.4,457.3
  V147.8c0-27.3-10.8-53.4-30.1-72.7h0.1c-19.3-19.3-45.5-30.1-72.7-30.1H147.8c-27.2,0-53.4,10.7-72.6,30l-0.1,0.1l0.1-0.1l-0.1,0.1
  c-19.3,19.3-30,45.4-30,72.7v309.4c0,28.4,11.5,54.1,30.1,72.7h-0.1c19.3,19.3,45.5,30.1,72.7,30.1h2130.8
  c56.7,0.1,102.7-45.8,102.8-102.4C2381.4,457.5,2381.4,457.4,2381.4,457.3z"/>
<path class="rational2" d="M634,119.1H519.1L416.7,416.4l-47-81.2c0,0,62.1-2.3,64.4-98.9c2.9-120-119.5-120.5-119.5-120.5H107.6v350.4
  h110.3V339.8h27.6l87.3,126.4h160.9l17.9-48.3h123.5l15,48.3h112.6L634,119.1z M220.2,193.9h80.5c22.2,0.7,39.5,21.6,36.8,43.7
  c-2.3,18.5-15.9,31.5-34.5,33.2h-82.8V193.9L220.2,193.9z M539.7,342.1l39.1-105.7l32.8,105.7H539.7z M866.1,204.1l62.1,0v-85.1
  H684.5v85.1l78.2,0v262.1h103.4L866.1,204.1L866.1,204.1z M1479.1,302.3v-0.2c0-119.9-97.2-217-217-217c-43.3,0-85.7,13-121.5,37.3
  l90.3,121c9.6-5.1,20.3-7.8,31.2-7.7c23.9,0,39.7,12.2,47,19.5c12.5,12.4,19.5,29.4,19.5,47v0.2H1275l125.2,167.8l125.2-167.8
  L1479.1,302.3L1479.1,302.3z"/>
<path class="rational3" d="M1292.6,361.1c-9.4,4.9-19.9,7.5-30.5,7.5c-17.6,0-34.6-7-47-19.5c-12.4-12.4-19.4-29.2-19.4-46.8h53.8
  l-125.2-167.8L998.9,302.3h46.1c0.1,119.8,97.2,216.9,217,216.9c44.8,0,86.4-13.6,121-36.9L1292.6,361.1L1292.6,361.1z"/>
<path class="rational4" d="M1003.4,322.8h-46.1l87.8-117.6l0-5.6v-80.5H939.7v347.1h105.7V322.8H1003.4z M2216.2,381.2l-0.1-262.1h-97.7
  v286.2l-108-286.2h-114.9l-101.2,293.7V119.1h-98.8v202.3l-119.5-202.3l-97.5,0.1v162.7h88l-12.6,16.9l0.2,0.1l-75.5,101.2v47.3
  l-0.2,15.4l0.2,3.4h97.4V291.5l114.9,174.7h179.3l17.8-48.3h125.3l15.4,48.3h312.6v-85.1L2216.2,381.2L2216.2,381.2z M1916.1,342.1
  l39.1-105.7l33.8,105.7H1916.1z"/>
</symbol><symbol id="icon-repair-desktop" viewBox="0 0 103 103">
<path id="Forma_1" fill="#373B51" d="M27.4,33.8c0-1,0.1-4,2.3-4.8c2.2-0.8,4.4,1.4,4.8,1.8c0.5,0.6,0.5,1.4,0,2c0,0,0,0-0.1,0.1
  c-0.6,0.5-1.5,0.5-2.1-0.1c-0.4-0.5-1-0.9-1.6-1.1c-0.3,0.7-0.4,1.4-0.4,2.2c-0.3,3,1.5,5.8,4.3,6.9c0.5,0.1,0.8,0.5,1,1l0.1,0.2
  c0,0.1,0,0.2,0,0.3c1.2,14.2,12.8,18.8,18.2,18.8s17-4.6,18.2-18.8c0-0.1,0-0.2,0-0.3l0.1-0.2c0.1-0.5,0.5-0.8,1-1
  c2.8-1.1,4.5-3.9,4.3-6.9c-0.1-1.8-0.5-2.2-0.5-2.2c-0.6,0.3-1.1,0.7-1.6,1.1c-0.6,0.6-1.5,0.6-2.1,0.1c-0.6-0.5-0.6-1.4-0.1-2
  c0,0,0,0,0.1-0.1c0.4-0.4,2.7-2.6,4.8-1.8c2.2,0.8,2.3,3.8,2.3,4.8c0.3,3.9-1.9,7.6-5.4,9.4C73.5,57.6,61.9,64,53.9,64
  s-19.6-6.4-21.1-20.8C29.3,41.5,27.1,37.8,27.4,33.8z M31.2,24.2C31.2,4.3,47.6,0,53.9,0c6.3,0,22.8,4.3,22.8,24.2
  c0,0.6-0.4,1.2-1,1.4l-2.3,0.7l-2.1,2.2c-0.3,0.3-0.7,0.5-1.1,0.5c0,0-0.1,0-0.1,0c-0.5,0-0.9-0.3-1.1-0.7
  c-0.1-0.1-3.1-4.1-14.9-4.1c-12,0-14.9,4.1-14.9,4.1c-0.3,0.4-0.7,0.6-1.1,0.7c-0.5,0-0.9-0.1-1.2-0.4l-2.1-2.2l-2.3-0.7
  C31.6,25.4,31.2,24.8,31.2,24.2L31.2,24.2z M34.2,23.1l1.6,0.5c0.3,0.1,0.5,0.2,0.7,0.4l1.3,1.3c2-1.6,6.5-4.1,16.2-4.1
  s14.2,2.4,16.2,4.1l1.3-1.3c0.2-0.2,0.4-0.3,0.7-0.4l1.6-0.5C73,3.4,54.1,2.9,53.9,2.9S34.8,3.4,34.2,23.1L34.2,23.1z M37.6,19.6
  c-0.3-0.7,0.1-1.6,0.9-1.8c0,0,0,0,0,0c2.1-0.7,4.3-1.3,6.4-1.7c-0.3-1.2-0.7-2.3-1-3.5c-0.1-0.4,0-0.8,0.2-1.1
  c0.2-0.3,0.5-0.6,0.9-0.7c5.8-1.4,12-1.4,17.8,0c0.4,0.1,0.7,0.3,0.9,0.7c0.2,0.3,0.3,0.7,0.2,1.1c-0.3,1.2-0.7,2.3-1,3.5
  c2.2,0.4,4.3,1,6.4,1.7c0.7,0.2,1.2,1,0.9,1.8c0,0,0,0,0,0c-0.3,0.8-1.1,1.1-1.9,0.9c-9.3-3.2-19.5-3.2-28.8,0
  C38.8,20.8,37.9,20.4,37.6,19.6L37.6,19.6z M47.9,15.6c4-0.5,8.1-0.5,12.1,0c0.2-0.8,0.5-1.5,0.7-2.3c-4.4-0.9-9-0.9-13.4,0
  C47.4,14.1,47.7,14.9,47.9,15.6L47.9,15.6z M103,46.4v7.4c0,0.8-0.4,1.5-1.1,1.9l-5.5,3.1v18.1c0,0,0,0.1,0,0.1
  c1.5,0.1,3,0.7,4.1,1.8c1.8,1.7,1.8,4.2,1.8,6.3v10c-0.1,4.5-3.9,8-8.4,7.8c-4.3-0.1-7.7-3.6-7.8-7.8V85c0-2.1,0-4.6,1.8-6.3
  c1.2-1,2.6-1.6,4.1-1.8c0,0,0-0.1,0-0.1v-2.2c-1.7-5.2-4.7-9.8-8.8-13.3L79,72.6V103H28.9V72.6l-4.3-11.7
  c-5.9,4.7-9.7,10.9-10.6,17.5c0.1,0.1,0.3,0.2,0.4,0.3c1.8,1.7,1.8,4.2,1.8,6.3v10c-0.1,4.5-3.9,8-8.4,7.8C3.6,102.7,0.1,99.3,0,95
  V85c0-2.1,0-4.6,1.8-6.3c0.8-0.7,1.7-1.2,2.7-1.5v-7.6c0-0.8,0.7-1.5,1.5-1.4c0,0,0,0,0,0H7V54.3c0-0.6,0.5-1.1,1.2-1.1
  c0.6,0,1.1,0.5,1.1,1.1v13.9h1.1c0.8,0,1.5,0.6,1.5,1.4c0,0,0,0,0,0v4.9c2-6.7,6.1-12.5,11.8-16.6l-0.4-1.2
  c-0.3-0.7,0.1-1.6,0.9-1.8c0,0,0,0,0,0c0.8-0.3,1.6,0.1,1.9,0.9l0.2,0.4c2.1-1.3,4.2-2.4,6.5-3.3c0.4-0.2,0.8-0.1,1.2,0
  c0.4,0.2,0.7,0.5,0.8,0.8c2.6,7.5,10.1,12.3,19.2,12.3s16.6-4.8,19.2-12.3c0.1-0.4,0.4-0.7,0.8-0.8c0.4-0.2,0.8-0.2,1.2,0
  c2.4,1,4.6,2.2,6.7,3.6l0.3-0.7c0.3-0.8,1.1-1.2,1.9-0.9c0.7,0.2,1.2,1,0.9,1.8c0,0,0,0,0,0l-0.6,1.6c3.1,2.5,5.7,5.6,7.8,9v-8.7
  l-5.5-3.1c-0.7-0.4-1.1-1.1-1.1-1.9v-7.4c0-1.2,1.1-2.2,2.3-2.2c1.2,0,2.1,1,2.2,2.2v6.1l4.4,2.4l4.4-2.4v-6.1
  c0.1-1.2,1.1-2.2,2.3-2.1C102,44.4,102.9,45.3,103,46.4L103,46.4z M7.4,75.8h1.4v-4.8H7.4L7.4,75.8L7.4,75.8z M12.8,97.1h-3
  c-0.8,0-1.5-0.6-1.5-1.4c0-0.8,0.6-1.5,1.4-1.5c0,0,0.1,0,0.1,0h3.5v-2.4H9.8c-0.8,0-1.5-0.6-1.5-1.4s0.6-1.5,1.4-1.5
  c0,0,0.1,0,0.1,0h3.5v-2.6H9.8c-0.8,0-1.5-0.6-1.5-1.4s0.6-1.5,1.4-1.5c0,0,0.1,0,0.1,0h3.5c0-0.9-0.3-1.9-0.9-2.6
  c-0.7-0.7-2.2-1.1-4.3-1.1S4.6,80,3.9,80.8C3,81.6,3,83.3,3,85v10c0,2.8,2.3,5,5.1,5C10.1,100,11.9,98.9,12.8,97.1L12.8,97.1z
   M33.5,75.8c0-0.5-0.4-1-0.9-1c-0.5,0-1,0.4-1,0.9s0.4,1,0.9,1c0,0,0,0,0,0C33,76.7,33.5,76.3,33.5,75.8
  C33.5,75.8,33.5,75.8,33.5,75.8L33.5,75.8z M67.4,89.8c0-0.8-0.7-1.5-1.5-1.4c0,0,0,0,0,0H42c-0.8,0-1.5,0.6-1.5,1.4
  s0.6,1.5,1.4,1.5c0,0,0.1,0,0.1,0h23.9C66.7,91.3,67.4,90.7,67.4,89.8L67.4,89.8z M53.9,76.7c0.5,0,0.9-0.4,0.9-0.9
  c0-0.5-0.4-0.9-0.9-0.9c-0.5,0-0.9,0.4-0.9,0.9C53,76.3,53.4,76.7,53.9,76.7L53.9,76.7z M76.3,75.8c0-0.5-0.4-1-0.9-1
  c-0.5,0-1,0.4-1,0.9s0.4,1,0.9,1c0,0,0,0,0,0C75.9,76.7,76.3,76.3,76.3,75.8L76.3,75.8z M80.6,59.4c-1.7-1.2-3.5-2.3-5.5-3.2
  C71.7,64,63.5,69,53.8,69s-18-5-21.4-12.8c-1.8,0.8-3.6,1.8-5.2,2.9l4.8,13.2h44L80.6,59.4z M98.4,80.8c-0.7-0.7-2.2-1.1-4.3-1.1
  s-3.5,0.4-4.3,1.1c-0.6,0.7-0.9,1.7-0.9,2.6h3.5c0.8,0,1.5,0.6,1.5,1.4s-0.6,1.5-1.4,1.5c0,0-0.1,0-0.1,0H89v2.6h3.5
  c0.8,0,1.5,0.6,1.5,1.4s-0.6,1.5-1.4,1.5c0,0-0.1,0-0.1,0H89v2.4h3.5c0.8,0,1.5,0.6,1.5,1.4c0,0.8-0.6,1.5-1.4,1.5c0,0-0.1,0-0.1,0
  h-3c0.9,1.8,2.7,3,4.7,2.9c2.8,0,5.1-2.2,5.1-5V85C99.3,83.3,99.3,81.6,98.4,80.8L98.4,80.8z M54.8,35.4v7.1h-3.3
  c-0.8,0-1.5,0.6-1.5,1.4c0,0.8,0.6,1.5,1.4,1.5c0,0,0.1,0,0.1,0h4.8c0.8,0,1.5-0.6,1.5-1.4v-8.6c0-0.8-0.7-1.5-1.5-1.5
  C55.5,33.9,54.9,34.6,54.8,35.4L54.8,35.4z"/>
</symbol><symbol id="icon-repair" viewBox="0 0 53 53.1">
<path id="Forma_1" fill="#373B51" d="M14.1,17.4c0-0.5,0.1-2.1,1.2-2.5s2.3,0.7,2.5,0.9c0.3,0.3,0.3,0.7,0,1c0,0,0,0,0,0
  c-0.3,0.3-0.8,0.3-1.1,0c-0.2-0.3-0.5-0.4-0.8-0.6c-0.1,0.4-0.2,0.7-0.2,1.1c-0.1,1.5,0.8,3,2.2,3.6c0.2,0.1,0.4,0.3,0.5,0.5l0,0.1
  c0,0,0,0.1,0,0.1c0.6,7.3,6.6,9.7,9.4,9.7s8.8-2.4,9.4-9.7c0,0,0-0.1,0-0.1l0-0.1c0.1-0.2,0.3-0.4,0.5-0.5c1.4-0.6,2.3-2,2.2-3.6
  c0-0.4,0-0.8-0.2-1.2c-0.3,0.1-0.6,0.3-0.8,0.6c-0.3,0.3-0.8,0.3-1.1,0c-0.3-0.3-0.3-0.7-0.1-1c0,0,0,0,0,0c0.2-0.2,1.4-1.3,2.5-0.9
  s1.2,2,1.2,2.5c0.1,2-1,3.9-2.8,4.8c-0.1,6-5,10.8-11,10.7c-5.9-0.1-10.6-4.8-10.7-10.7C15.1,21.4,14,19.5,14.1,17.4z M16.1,12.5
  C16.1,2.2,24.5,0,27.7,0s11.7,2.2,11.7,12.5c0,0.3-0.2,0.6-0.5,0.7l-1.2,0.4l-1.1,1.1c-0.1,0.2-0.4,0.3-0.6,0.2c0,0,0,0-0.1,0
  c-0.2,0-0.4-0.1-0.6-0.3c0-0.1-1.6-2.1-7.7-2.1c-6.2,0-7.7,2.1-7.7,2.1c-0.1,0.2-0.4,0.3-0.6,0.3c-0.2,0-0.5-0.1-0.6-0.2l-1.1-1.1
  l-1.2-0.4C16.3,13.1,16.1,12.8,16.1,12.5L16.1,12.5z M17.6,11.9l0.8,0.2c0.1,0,0.2,0.1,0.3,0.2l0.6,0.7c1-0.8,3.4-2.1,8.3-2.1
  s7.3,1.3,8.3,2.1l0.6-0.7c0.1-0.1,0.2-0.2,0.3-0.2l0.8-0.2C37.6,1.8,27.8,1.5,27.7,1.5S17.9,1.8,17.6,11.9L17.6,11.9z M19.4,10.1
  c-0.1-0.4,0.1-0.8,0.4-0.9c0,0,0,0,0,0c1.1-0.4,2.2-0.7,3.3-0.9c-0.2-0.6-0.3-1.2-0.5-1.8c-0.1-0.2,0-0.4,0.1-0.6
  c0.1-0.2,0.3-0.3,0.5-0.3c3-0.7,6.1-0.7,9.2,0c0.2,0.1,0.4,0.2,0.5,0.3c0.1,0.2,0.1,0.4,0.1,0.6c-0.2,0.6-0.3,1.2-0.5,1.8
  c1.1,0.2,2.2,0.5,3.3,0.9c0.4,0.1,0.6,0.5,0.5,0.9c0,0,0,0,0,0c-0.1,0.3-0.4,0.5-0.7,0.5c-0.1,0-0.2,0-0.3,0c-4.8-1.7-10-1.7-14.8,0
  C19.9,10.7,19.5,10.5,19.4,10.1L19.4,10.1z M24.6,8c2.1-0.3,4.2-0.3,6.2,0c0.1-0.4,0.2-0.8,0.3-1.2c-2.3-0.5-4.6-0.5-6.9,0
  C24.4,7.3,24.5,7.7,24.6,8L24.6,8z M53,23.9v3.8c0,0.4-0.2,0.8-0.6,1l-2.8,1.6v9.3c0,0,0,0,0,0.1c0.8,0.1,1.5,0.4,2.1,0.9
  c0.7,0.9,1.1,2.1,0.9,3.2V49c-0.1,2.3-2,4.1-4.3,4c-2.2-0.1-4-1.8-4-4v-5.2c-0.2-1.2,0.2-2.3,0.9-3.2c0.6-0.5,1.3-0.8,2.1-0.9
  c0,0,0,0,0-0.1v-1.2c-0.9-2.7-2.4-5-4.6-6.9l-2.1,5.8V53H14.8V37.4l-2.2-6c-2.9,2.2-4.9,5.4-5.4,9c0.1,0.1,0.2,0.1,0.2,0.2
  c0.7,0.9,1.1,2.1,0.9,3.2v5.2c-0.1,2.3-2,4.1-4.3,4c-2.2-0.1-4-1.8-4-4v-5.2c-0.2-1.2,0.2-2.3,0.9-3.2c0.4-0.4,0.9-0.6,1.4-0.8v-3.9
  c0-0.4,0.3-0.7,0.8-0.7c0,0,0,0,0,0h0.5V28c0-0.3,0.3-0.6,0.6-0.6c0.3,0,0.5,0.3,0.6,0.6v7.2h0.6c0.4,0,0.8,0.3,0.8,0.7c0,0,0,0,0,0
  v2.6c1-3.4,3.2-6.4,6.1-8.5l-0.2-0.6c-0.1-0.4,0.1-0.8,0.4-0.9c0,0,0,0,0,0c0.4-0.1,0.8,0.1,1,0.4l0.1,0.2c1.1-0.7,2.2-1.2,3.3-1.7
  c0.2-0.1,0.4-0.1,0.6,0c0.2,0.1,0.3,0.2,0.4,0.4c1.3,3.8,5.2,6.3,9.9,6.3s8.5-2.5,9.9-6.3c0.1-0.2,0.2-0.4,0.4-0.4
  c0.2-0.1,0.4-0.1,0.6,0c1.2,0.5,2.4,1.1,3.5,1.8l0.1-0.4c0.2-0.4,0.6-0.6,1-0.4c0.4,0.1,0.6,0.5,0.5,0.9c0,0,0,0,0,0l-0.3,0.8
  c1.6,1.3,3,2.9,4,4.6v-4.5l-2.8-1.6c-0.4-0.2-0.6-0.6-0.6-1v-3.8c0-0.6,0.5-1.1,1.2-1.1c0.6,0,1.1,0.5,1.1,1.1v3.2l2.2,1.2l2.2-1.2
  v-3.2c0-0.6,0.5-1.2,1.2-1.2C52.5,22.8,53,23.3,53,23.9L53,23.9L53,23.9z M3.8,39.1h0.7v-2.5H3.8V39.1z M6.6,50H5
  c-0.4,0-0.8-0.3-0.8-0.7c0,0,0,0,0,0c0-0.4,0.3-0.8,0.8-0.8h1.8v-1.2H5c-0.4,0-0.7-0.3-0.7-0.7s0.3-0.7,0.7-0.7c0,0,0,0,0,0h1.8
  v-1.4H5c-0.4,0-0.7-0.3-0.7-0.7s0.3-0.7,0.7-0.7c0,0,0,0,0,0h1.8c0-0.5-0.1-1-0.4-1.3c-1.4-0.7-3-0.7-4.4,0
  c-0.4,0.6-0.6,1.4-0.5,2.2V49c0,1.4,1.2,2.6,2.6,2.6C5.2,51.5,6.1,50.9,6.6,50L6.6,50z M17.2,39.1c0-0.3-0.2-0.5-0.5-0.5
  s-0.5,0.2-0.5,0.5c0,0.3,0.2,0.5,0.5,0.5c0,0,0,0,0,0C17,39.5,17.2,39.3,17.2,39.1C17.2,39.1,17.2,39.1,17.2,39.1L17.2,39.1z
   M34.7,46.3c0-0.4-0.3-0.8-0.8-0.8H21.6c-0.4,0-0.8,0.3-0.8,0.8c0,0.4,0.3,0.7,0.8,0.7c0,0,0,0,0,0h12.3
  C34.3,47,34.7,46.7,34.7,46.3C34.7,46.3,34.7,46.3,34.7,46.3L34.7,46.3z M27.8,39.5c0.3,0,0.5-0.2,0.5-0.5c0-0.3-0.2-0.5-0.5-0.5
  c-0.3,0-0.5,0.2-0.5,0.5C27.3,39.3,27.5,39.5,27.8,39.5C27.8,39.5,27.8,39.5,27.8,39.5L27.8,39.5z M39.3,39.1c0-0.3-0.2-0.5-0.5-0.5
  s-0.5,0.2-0.5,0.5c0,0.3,0.2,0.5,0.5,0.5c0,0,0,0,0,0C39,39.5,39.3,39.3,39.3,39.1C39.3,39.1,39.3,39.1,39.3,39.1L39.3,39.1z
   M41.5,30.6c-0.9-0.6-1.8-1.2-2.8-1.6c-1.8,4-6,6.6-11,6.6s-9.3-2.6-11-6.6c-0.9,0.4-1.8,0.9-2.7,1.5l2.5,6.8h22.7L41.5,30.6z
   M50.7,41.6c-1.4-0.7-3-0.7-4.4,0c-0.3,0.4-0.5,0.8-0.4,1.3h1.8c0.4,0,0.7,0.3,0.7,0.7s-0.3,0.7-0.7,0.7c0,0,0,0,0,0h-1.8v1.4h1.8
  c0.4,0,0.7,0.3,0.7,0.7s-0.3,0.7-0.7,0.7c0,0,0,0,0,0h-1.8v1.2h1.8c0.4,0,0.8,0.3,0.8,0.8c0,0.4-0.3,0.7-0.8,0.7c0,0,0,0,0,0h-1.6
  c0.4,0.9,1.4,1.5,2.4,1.5c1.4,0,2.6-1.1,2.6-2.6v-5.2C51.2,43,51.1,42.2,50.7,41.6L50.7,41.6z M28.2,18.2v3.7h-1.7
  c-0.4,0-0.8,0.3-0.8,0.8c0,0.4,0.3,0.7,0.8,0.7c0,0,0,0,0,0H29c0.4,0,0.8-0.3,0.8-0.7c0,0,0,0,0,0v-4.4c0-0.4-0.3-0.8-0.8-0.8
  C28.6,17.4,28.2,17.8,28.2,18.2L28.2,18.2L28.2,18.2z"/>
</symbol><symbol id="icon-robot-coupe" viewBox="0 0 2426.5 486.6">
<path d="M155.5,132c-8.5-2.1-17.1,1.1-25.6,2.1c-19.2,3.2-34.1,16-41.5,39.4l9.6-41.5H43.6L0,335.4h54.3l21.3-99
	c7.4-34.1,34.1-45.8,66-44.7L155.5,132z M549.4,144.8c-12.8-13.8-30.9-20.2-52.2-20.2c-22.3,0-42.6,9.6-62.8,27.7l21.3-97.9h-55.4
	l-59.6,281.1h55.4l5.3-28.7c14.9,24.5,36.2,36.2,63.9,36.2c19.2,0,36.2-5.3,51.1-14.9c19.2-12.8,36.2-33,45.8-61.7
	c8.5-23.4,9.6-45.8,9.6-66c0-7.4-1.1-17-4.3-25.5C564.7,163,558.4,152.6,549.4,144.8L549.4,144.8z M512.1,244.9
	c-4.3,12.8-10.6,23.4-17,33c-5.3,6.4-11.7,11.7-19.2,16c-7.4,4.2-16,5.3-23.4,5.3c-16,0-26.6-5.3-34.1-14.9
	c-5.3-7.4-7.5-16-7.5-26.6c0-7.4,1.1-17,4.3-28.7c4.3-20.2,12.8-35.1,24.5-45.8c10.6-10.6,23.4-16,38.3-16
	c12.8,0,23.4,5.3,29.8,13.9c7.4,8.5,10.6,18.1,10.6,29.8C518.5,221.4,516.4,232.1,512.1,244.9L512.1,244.9z M762.3,141.6
	c-18.1-12.8-39.4-19.2-63.9-19.2c-44.7,0-77.7,18.1-99,53.2c-14.9,23.4-22.4,50.1-22.4,78.8c0,28.8,10.7,52.2,31.9,68.2
	c16,11.7,37.3,18.1,63.9,18.1c33,0,59.6-9.6,80.9-27.7c12.9-12.7,23.1-27.9,29.8-44.7c6.4-17,10.7-35.1,10.7-55.4
	C794.3,179.9,783.6,156.5,762.3,141.6L762.3,141.6z M733.6,249.1c-4.3,11.9-10.4,23-18.1,33c-10.6,12.8-24.5,19.2-40.5,19.2
	c-12.8,0-23.4-4.3-31.9-13.8c-7.5-7.4-10.7-19.2-10.7-33c0-23.4,6.4-45.8,20.2-64.9c10.6-16,25.6-24.5,43.6-24.5
	c13.8,0,25.6,4.3,33,13.8c7.4,8.5,10.6,20.2,10.6,33C740,223.6,737.8,236.4,733.6,249.1L733.6,249.1z M352.4,212.9
	c0-33-10.6-56.4-31.9-71.3c-17-12.8-38.3-19.2-63.9-19.2c-43.6,0-76.7,18.1-99,53.2c-14.1,23.9-21.5,51.1-21.3,78.8
	c0,28.8,10.7,52.2,31.9,68.2c16,11.7,37.3,18.1,63.9,18.1c33,0,59.6-9.6,79.9-27.7c12.8-12.8,23.4-26.6,29.8-44.7
	C349.2,251.3,352.4,233.2,352.4,212.9L352.4,212.9z M291.7,249.1c-4.3,11.7-9.6,23.4-18.1,33c-10.6,12.8-23.4,19.2-39.4,19.2
	c-13.8,0-24.5-4.3-31.9-13.8c-7.5-7.4-10.6-19.2-10.6-33c0-23.4,6.4-45.8,19.2-64.9c11.7-16,26.6-24.5,43.6-24.5
	c14.9,0,25.6,4.3,33,13.8c7.5,8.5,11.7,20.2,11.7,33C299.2,223.6,297.1,236.4,291.7,249.1L291.7,249.1z M895.4,82h-53.2l-11.7,50
	h-25.6l-7.4,43.7h24.5l-22.4,96.9c-3.2,12.8-4.3,22.3-4.3,28.7c0,24.5,13.9,39.4,44.7,39.4c7.5,0,9.6,1.1,28.7-1.1l8.5-44.7
	c-32,9.6-28.8-9.6-23.4-31.9l21.3-87.3h33l7.5-43.7h-33L895.4,82L895.4,82z M1169,0c-58.5,0-141.6,108.6-183.1,242.8
	c-42.6,134.1-27.7,243.8,30.9,243.8c58.6,0,141.6-109.7,183.1-243.8C1242.5,108.6,1228.7,0,1169,0L1169,0z M1162.7,321.5
	c-10.7,21.5-22.4,42.5-35.1,62.8c-22.4,34.1-65,92.6-110.7,94.8c-56.4-3.2-50-103.3-43.7-149.1c1.1,27.7,11.7,47.9,36.2,51.1
	c19.2,2.1,40.5-22.4,73.5-57.5c19.2-19.2,37.3-38.3,56.4-56.4C1169,236.4,1192.5,230,1162.7,321.5z M1130.7,193.8l1.1,2.1v2.1
	l1.1,2.1v3.2l1.1,5.3v5.3l-1.1,6.4v6.4l-1.1,6.4l-2.1,6.4l-2.1,7.4l-4.3,12.8l-6.4,12.8l-3.2,5.3l-4.3,6.4l-3.2,4.3l-4.3,4.3
	l-3.2,4.3l-4.3,4.3l-2.1,1.1l-2.1,2.1l-4.3,2.1l-2.1,1.1l-1.1,1.1h-2.1l-2.1,1.1h-3.2l-2.2,1.1l-1.1-1.1h-3.2l-1.1-1.1h-2.1
	l-1.1-1.1l-1.1-1.1l-3.2-3.2l-1.1-2.1l-1.1-1.1l-2.1-4.2v-2.1l-1.1-2.2l-1.1-2.1v-2.1l-1.1-5.3v-11.7l1.1-5.3l1.1-7.4l2.1-12.8
	l3.2-7.4l4.3-12.8l6.4-12.8l4.3-5.3l3.2-5.3l4.3-4.3l3.2-4.3l6.4-6.4l2.1-1.1l2.1-1.1l3.2-3.2l2.1-1.1h2.1l4.3-2.1h9.6l1.1,1.1h1.1
	l2.1,1.1l2.1,2.1l1.1,1.1l1.1,1.1l1.1,2.1l1.1,1.1l1.1,2.1v2.1L1130.7,193.8L1130.7,193.8z M1214.8,137.3
	c-1.1,9.6-2.1,20.2-4.3,29.8c1.1-30.9-8.5-54.3-35.1-56.4c-19.2-2.1-40.5,21.3-73.5,56.4l-56.4,56.4c-30.9,31.9-54.3,38.3-22.4-57.5
	c12.6-25.2,26.4-49.7,41.5-73.5c19.2-27.7,70.3-94.8,112.9-84.1C1221.2,19.2,1218,105.4,1214.8,137.3L1214.8,137.3z M2408.4,107.5
	c0-3.2-1.1-5.3-3.2-7.5c-2.1-2.1-5.3-3.2-9.6-3.2h-17v36.2h6.4v-14.9h9.6l9.6,14.9h6.4l-10.6-14.9
	C2406.3,117.1,2408.4,112.9,2408.4,107.5L2408.4,107.5z M2385,113.9v-11.7h10.6c2.2,0,4.3,0,5.3,1.1c1.1,1.1,2.2,3.2,2.2,4.3
	c0,4.3-2.2,6.4-7.5,6.4H2385z"/>
<path d="M2422.2,100.1c-2.1-5.3-6.4-9.6-11.7-12.8c-5.3-3.2-10.6-5.3-17-5.3c-5.3,0-10.6,2.1-14.9,4.3c-5.3,2.1-9.6,6.4-12.8,11.7
	c-3.2,5.3-5.3,10.6-5.3,17c0,5.3,1.1,10.6,3.2,14.9c3.2,6.4,7.4,10.6,12.8,13.8c5.3,3.2,10.6,4.3,17,4.3c5.3,0,9.6-1.1,14.9-3.2
	c5.3-3.2,9.6-7.5,12.8-12.8c3.2-5.3,5.3-10.6,5.3-17C2426.5,109.7,2424.3,105.4,2422.2,100.1L2422.2,100.1z M2418,128.8
	c-2.2,4.3-5.3,8.5-9.6,10.6c-5.3,3.2-9.6,4.3-14.9,4.3c-4.4,0-8.8-1.1-12.8-3.2c-5.3-2.1-8.5-5.3-11.7-10.6
	c-2.1-4.3-4.3-9.6-4.3-14.9c0-3.2,1.1-7.4,2.1-10.6l6.4-9.6c5.3-5.3,12.7-8.5,20.2-8.5c4.3,0,8.5,1.1,12.8,3.2
	c4.2,3.2,8.5,6.4,10.6,10.6c3.2,5.3,4.3,9.6,4.3,14.9C2421.2,120.3,2420.1,124.6,2418,128.8L2418,128.8z M2316.8,141.6
	c-16-11.7-36.2-17-60.7-17c-30.9,0-58.5,10.6-79.9,31.9c-12.8,12.8-22.3,26.6-28.8,43.6c-6.4,17.4-9.7,35.8-9.6,54.3
	c0,31.9,9.6,52.2,27.7,67.1c16,12.8,37.3,18.1,63.9,18.1c24.5,0,45.8-2.1,63.9-13.9c18.1-11.7,31.9-31.9,41.5-55.4h-53.2
	c-11.7,20.2-27.7,32-47.9,32c-12.8,0-23.4-4.3-30.9-11.7c-9.5-7.4-12.8-17-12.8-30.9c0-4.3,0-8.5,1.1-13.8h151.2
	c3.2-10.7,4.3-22.4,4.3-34.1C2346.6,179.9,2337,156.5,2316.8,141.6z M2293.4,209.7h-95.8c5.3-17,12.8-25.5,22.3-34.1
	c9.6-8.5,21.3-12.8,35.1-12.8c11.7,0,21.3,3.2,27.7,9.6c8.5,6.4,12.8,16,12.8,29.8C2295.5,205.5,2294.4,205.5,2293.4,209.7
	L2293.4,209.7z M1395.8,165c13.9,0,24.5,5.3,31.9,13.8c4.3,6.4,6.4,11.7,6.4,22.4h54.3c0-23.4-5.3-37.3-16-49
	c-7.4-8.5-18.1-14.9-31.9-20.2c-12.8-5.3-27.7-7.4-44.7-7.4c-19.2,0-36.2,3.2-51.1,10.6c-20.2,9.6-36.2,24.5-47.9,44.7
	c-13.9,21.3-20.2,45.8-20.2,71.3c0,29.8,9.5,53.2,28.8,69.2c17,14.9,40.4,22.3,70.2,22.3c53.2,0,88.4-28.8,105.4-84.1h-56.4
	c-3.1,8.9-7.8,17.2-13.8,24.5c-10.7,11.7-22.4,18.1-37.3,18.1c-12.8,0-22.4-4.3-29.8-13.8c-6.4-8.5-9.6-20.2-9.6-36.2
	c0-20.2,5.3-39.4,14.9-57.5C1360.7,174.6,1375.6,165,1395.8,165L1395.8,165z M1885.6,335.4l42.6-203.4h-53.2l-21.3,98
	c-2.2,9.6-4.3,19.2-7.5,25.6c-3.2,9.6-9.6,18.1-16,25.6c-12.8,12.8-23.5,19.2-38.4,19.2c-9.5,0-16-3.2-21.3-8.5
	c-4.3-4.3-6.4-10.6-6.4-17c0-5.3,1.1-11.7,2.1-17L1793,132h-54.3L1712,257.7c-3.2,16-5.3,28.8-5.3,37.3c0,13.9,6.4,24.5,17,34.1
	c11.7,9.6,25.6,13.9,41.5,13.9c26.6,0,49-11.7,72.4-35.1l-6.4,27.7L1885.6,335.4L1885.6,335.4L1885.6,335.4z M1674.8,141.6
	c-17-12.8-38.3-19.2-62.8-19.2c-44.7,0-77.7,18.1-99,53.2c-14.9,23.4-22.4,50.1-22.4,78.8c0,28.8,10.6,52.2,31.9,68.2
	c16,11.7,37.3,18.1,63.9,18.1c33,0,59.6-9.6,79.8-27.7c13.8-12.8,23.4-26.6,30.9-44.7c6.4-17,10.6-35.1,10.6-55.4
	C1707.8,179.9,1697.1,156.5,1674.8,141.6L1674.8,141.6z M1647.1,249.1c-5.3,11.7-10.6,23.4-18.1,33c-10.6,12.8-24.5,19.2-40.4,19.2
	c-13.8,0-24.5-4.3-31.9-13.8c-7.5-7.4-10.6-19.2-10.6-33c0-23.4,6.4-45.8,20.2-64.9c10.6-16,25.6-24.5,43.6-24.5
	c13.9,0,25.6,4.3,33,13.8c7.5,8.5,10.6,20.2,10.6,33C1653.3,224.6,1651.2,237.1,1647.1,249.1L1647.1,249.1z M2052.8,124.6
	c-26.6,0-47.9,10.6-62.8,33l5.3-25.6H1942l-57.5,272.6h54.3l20.2-93.7c7.4,8.5,14.9,16,22.3,20.2c12.8,7.4,27.7,9.6,44.7,9.6
	c25.6,0,45.8-8.5,61.8-26.6c13.9-13.9,23.4-28.8,30.9-47.9c7.4-19.2,10.6-40.5,10.6-61.8c0-27.7-8.5-49-25.5-62.8
	C2090,129.9,2073,124.6,2052.8,124.6L2052.8,124.6z M2067.7,248.1c-4.1,12.3-10.2,23.8-18.1,34.1c-9.6,12.8-22.3,19.2-36.2,19.2
	c-13.9,0-23.4-4.3-30.9-12.8c-6.4-7.4-9.6-18.1-9.6-29.8c0-11.7,2.1-23.4,5.3-36.2c4.3-12.8,8.5-23.4,14.9-33
	c10.6-17,25.6-25.6,42.6-25.6c13.8,0,23.4,5.3,29.8,14.9c6.4,8.5,8.5,19.2,8.5,31.9C2074.1,222.5,2071.9,235.3,2067.7,248.1
	L2067.7,248.1z"/>
</symbol><symbol id="icon-saeco" viewBox="0 0 2426.5 546.9">
<g>
  <path d="M575.9,460c44.9,20.8,97.9,31.4,157.4,31.4c55.5,0,100.6-15.7,130.3-45.4c24.4-24.4,37.9-57.8,37.9-93.9
    c0-80.7-67.2-115.4-116.2-140.7C755,195.7,729,182.3,729,164.5c0-5.8,2-10.8,6-14.8c6.3-6.3,17.4-9.8,31.1-9.8
    c31.8,0,64.8,17.5,107.3,56.7l10.4,9.6V70.9l-2.5-1.9c-45.3-34-89.9-49.1-144.7-49.1c-129.6,0-164.2,88.4-164.2,140.6
    c0,85.3,67.3,120.2,116.5,145.7c26.9,13.9,50.1,26,50.1,40.6c0,15.2-14.7,24.6-38.4,24.6c-36.3,0-76.1-14.6-118.5-43.5l-9.7-6.6
    v137L575.9,460z M1290.9,385.2c-34.1-0.6-35.2-6.8-35.2-39.7v-98.3c0-33.7-10.8-61.6-32-82.9c-27.9-27.9-74-43.3-129.6-43.3
    c-63.6,0-116.7,19.2-167.2,60.4l-2.3,1.9v117.1l10-7.6c56.7-43.2,90.7-57.8,134.6-57.8c37.6,0,46.4,11.2,48,33.2
    c-16.2,11-44.3,18.5-74,26.4c-39.5,10.5-80.4,21.3-101.6,42.6c-18.1,18.1-28.1,40.6-28.1,63.4c0,23.4,8.3,44,24,59.7
    c20.3,20.3,52.3,31.1,92.4,31.1c41.8,0,79.4-10.6,112-31.4c21.9,26.8,55.5,34.8,124.5,30.1l4.4-0.3l1.1-4.3l24.9-92.5l2.1-7.7
    L1290.9,385.2z"/>
  <path fill="#FFFFFF" d="M1117.4,339.9c-10.3,5.2-22.2,8.8-33.9,12.4c-33.6,10.3-54,18.4-54,43c0,9.1,3.3,17.4,9.2,23.3
    c5.9,5.9,14.2,9.2,23.3,9.2c19,0,40.8-7.6,57.8-19.9c-1.9-7.9-2.4-16.6-2.4-29.6V339.9z"/>
  <path d="M1658.9,415.1l-24.9-56.4l-3-6.9l-6.2,4.3c-38.4,26.4-71.5,38.2-107.3,38.2c-43.8,0-83-25.7-88.3-56.4h224.9l0.7-5.4
    c7.4-58.5-7.8-112.5-42.7-152c-33.9-38.4-82.4-59.5-136.6-59.5c-105.6,0-185.2,79.1-185.2,183.9c0,49.7,18.5,95.6,52.1,129.2
    c37,37,90.5,57.4,150.8,57.4c68.3,0,125.2-24.1,164.7-69.7l2.6-3L1658.9,415.1z"/>
  <path fill="#FFFFFF" d="M1476.8,209.4c-16,0-29.3,5.1-38.5,14.8c-10.5,11.2-15.4,28.2-15,50.1h106.5
    C1527.8,230.9,1510.5,209.4,1476.8,209.4C1476.8,209.4,1510.5,209.4,1476.8,209.4L1476.8,209.4z"/>
  <path d="M1979,345.7c-37.1,15.6-58.8,21.2-82.8,21.2c-26.7,0-49.2-7.8-63.5-22.1c-10.1-10-15.8-23.7-15.6-37.9
    c0-15.8,5.6-29.7,16.3-40.4c13.5-13.5,34.4-21,58.8-21c27.8,0,54.5,6.3,84,19.8l8.8,4V140.4l-4.2-1.4c-34.9-11.6-75.2-18-113.4-18
    c-136.7,0-199,97-199,187.2c0,49.5,17.4,93.1,50.3,126c36.9,36.9,91.1,57.2,152.6,57.2c38.5,0,66.8-5.6,112.3-22l4.1-1.5V342.1
    L1979,345.7z M2006.2,306.2c0,49.4,18.2,94.8,51.4,127.9c37.5,37.5,92.8,57.3,160.1,57.3c65.7,0,120.2-19.8,157.6-57.2
    c33-33,51.2-78.5,51.2-128.1c0-49.6-18.3-95.2-51.4-128.4c-37.2-37.2-92.1-56.8-158.8-56.8C2071.1,120.9,2006.2,214,2006.2,306.2
    C2006.2,306.2,2006.2,214,2006.2,306.2L2006.2,306.2z"/>
  <path fill="#FFFFFF" d="M2155,306.2c0-17.6,5.8-32.7,16.8-43.7c11.1-11.1,26.5-17,44.5-17s33.4,5.9,44.5,17
    c11,11,16.8,26.1,16.8,43.7c0,36.3-24.6,60.7-61.3,60.7c-18,0-33.4-5.9-44.5-17C2160.8,338.8,2155,323.7,2155,306.2
    C2155,306.2,2155,323.7,2155,306.2L2155,306.2z"/>
  <path d="M85.9,365.9c-14.2-28.7-21.5-60.4-21.5-92.4C64.4,158,158,64.4,273.5,64.4c43.3,0,83.5,13.2,116.9,35.7l67.1-29
    C407.1,25.3,341.5-0.1,273.5,0C122.4,0,0,122.4,0,273.5c0,76.1,31.1,145,81.3,194.6l364.8-157l12.8-105.5L85.9,365.9L85.9,365.9z"/>
  <path d="M469.7,201.3c-1.8-5-3.9-9.9-6.1-14.7L91.3,346.2l12.8-105.5l366.3-157c25.4,26.4,45.3,57.6,58.5,91.8
    c12,31.3,18.1,64.5,18.1,97.9c0,151-122.4,273.5-273.5,273.5C209,547,146.6,524.3,97.4,482.7l68.9-29.7
    c32.4,19.4,69.4,29.6,107.2,29.5c115.5,0,209.1-93.6,209.1-209.1C482.5,248.1,478,223.8,469.7,201.3
    C469.7,201.3,478,223.8,469.7,201.3L469.7,201.3z"/>
</g>
</symbol><symbol id="icon-service-button" viewBox="0 0 33.4 7.8">
<path id="&#x42D;&#x43B;&#x43B;&#x438;&#x43F;&#x441;_1_&#x43A;&#x43E;&#x43F;&#x438;&#x44F;_3" d="M3.9,0C6,0,7.7,1.7,7.7,3.9C7.8,6,6,7.7,3.9,7.7S0,6,0,3.9c0,0,0,0,0,0
  C0,1.7,1.7,0,3.9,0C3.9,0,3.9,0,3.9,0z M16.7,0c2.1,0,3.9,1.7,3.9,3.9c0,2.1-1.7,3.9-3.9,3.9S12.9,6,12.9,3.9c0,0,0,0,0,0
  C12.9,1.7,14.6,0,16.7,0C16.7,0,16.7,0,16.7,0z M29.6,0c2.1,0,3.9,1.7,3.9,3.8s-1.7,3.9-3.8,3.9c-2.1,0-3.9-1.7-3.9-3.8c0,0,0,0,0,0
  C25.7,1.7,27.5,0,29.6,0z"/>
</symbol><symbol id="icon-service-center" viewBox="0 0 33.7 30.5">
<path id="&#x424;&#x438;&#x433;&#x443;&#x440;&#x430;_7" fill="#FDFCFC" d="M33.2,12.4L17.8,0.3c-0.6-0.4-1.3-0.4-1.9,0L0.5,12.4c-0.5,0.3-0.6,0.9-0.3,1.4
	c0.2,0.3,0.6,0.5,0.9,0.5h3.1v14.9c0,0.8,0.6,1.4,1.4,1.4h7.2c0.8,0,1.4-0.6,1.4-1.4v-6.7h5.3v6.7c0,0.8,0.6,1.4,1.4,1.4h7.2
	c0.8,0,1.4-0.6,1.4-1.4V14.2h3.1c0.5,0.1,1-0.3,1.1-0.9C33.7,13,33.5,12.6,33.2,12.4z M21.1,17.1c0,0.1-0.1,0.1-0.2,0.1
	c0,0,0,0-0.1,0l-1-1l-0.7,0.7l1,1c0,0,0.1,0.1,0,0.1c0,0.1-0.1,0.1-0.1,0.1c-0.9,0.4-1.9-0.1-2.3-1c-0.1-0.4-0.2-0.8,0-1.2l-1.3-1.3
	l-1.6,1.6l-0.6,1c0,0,0,0-0.1,0.1l-0.9,0.4c0,0,0,0-0.1,0c0,0-0.1,0-0.1-0.1l-0.6-0.6c0,0-0.1-0.1,0-0.2l0.4-0.9c0,0,0,0,0.1-0.1
	l1-0.6l1.6-1.6l-1.3-1.3c-0.9,0.3-1.9-0.2-2.2-1.1c-0.1-0.4-0.1-0.8,0-1.2c0,0,0.1-0.1,0.1-0.1c0.1,0,0.1,0,0.1,0l1,1l0.7-0.7l-1-1
	c0,0-0.1-0.1,0-0.1c0-0.1,0-0.1,0.1-0.1c0.9-0.3,1.9,0.1,2.3,1c0.1,0.4,0.2,0.8,0,1.2l3.4,3.4c0.9-0.3,1.9,0.2,2.2,1.1
	C21.3,16.3,21.3,16.7,21.1,17.1L21.1,17.1z M21.2,11l-0.8,1c0,0,0,0,0,0l-1.6,1l-0.2,0.6c0,0.1-0.1,0.1-0.1,0.1c0,0,0,0,0,0
	c0,0-0.1,0-0.1-0.1L16.6,12c0,0-0.1-0.1,0-0.1c0-0.1,0.1-0.1,0.1-0.1l0.6-0.2l1-1.6c0,0,0,0,0,0l1-0.9c0.4-0.3,1-0.3,1.4,0.1
	l0.6,0.6C21.6,10,21.6,10.6,21.2,11L21.2,11z"/>
</symbol><symbol id="icon-sirman" viewBox="0 0 2337.4 898.8">
<path d="M2297.4,123.1c6.7,0,13.2,1.7,19.7,5.2c6.3,3.4,11.5,8.6,14.9,14.9c3.6,6.4,5.4,13.2,5.4,20.2
	c0,6.9-1.8,13.6-5.3,20c-3.5,6.4-8.4,11.4-14.8,14.9c-6.1,3.5-12.9,5.3-19.9,5.3c-7,0-13.9-1.8-19.9-5.3
	c-6.3-3.4-11.4-8.6-14.8-14.9c-3.5-6.1-5.3-13-5.3-20c0-7,1.8-13.8,5.4-20.2c3.6-6.5,8.6-11.4,15-14.9
	C2284.1,124.8,2290.7,123.1,2297.4,123.1L2297.4,123.1z M2297.4,129.8c-5.6,0-11.1,1.5-16.4,4.4c-5.3,2.9-9.5,7.1-12.5,12.4
	c-2.9,5.1-4.5,10.9-4.5,16.9c0,5.8,1.5,11.3,4.4,16.7c3,5.3,7.1,9.5,12.4,12.5c5.3,3,10.8,4.5,16.6,4.5c5.7,0,11.3-1.5,16.6-4.5
	c5.3-3,9.4-7.1,12.3-12.5s4.4-10.9,4.4-16.7c0-5.9-1.5-11.5-4.5-16.9c-2.9-5.3-7.2-9.6-12.5-12.4
	C2308.8,131.3,2303.2,129.8,2297.4,129.8L2297.4,129.8z M2279.9,185.7v-43.3h14.8c5.1,0,8.7,0.4,11,1.2c2.2,0.8,4.1,2.2,5.4,4.2
	c3.1,4.6,2.5,10.7-1.4,14.6c-2.2,2.4-5.2,3.7-8.9,4c1.4,0.5,2.6,1.3,3.7,2.3c1.7,1.7,3.9,4.6,6.4,8.6l5.2,8.5h-8.5l-3.8-6.8
	c-3-5.4-5.4-8.7-7.2-10.1c-1.3-1-3.1-1.5-5.6-1.5h-4.1v18.4L2279.9,185.7L2279.9,185.7L2279.9,185.7z M2286.8,161.3h8.4
	c4,0,6.8-0.6,8.2-1.8c1.5-1.2,2.3-2.9,2.2-4.8c0-1.2-0.4-2.4-1.1-3.4c-0.7-1-1.7-1.8-2.9-2.3c-1.3-0.5-3.6-0.8-7-0.8h-7.9
	L2286.8,161.3L2286.8,161.3z"/>
<path d="M1856.1,891V474.8c0-43.4,25.5-83.8,70.7-83.8c43.8,0,62.1,33.3,80.3,67.5l140.5,263.7V396.1h100.6v436.1
	c0,38.4-29.8,62.7-65.1,62.7c-30.2,0-62.5-17.1-73.9-47.5l-152.5-278V891L1856.1,891L1856.1,891z M448.6,891V396.1h163.1
	c83.9,0,132.3,39.1,132.3,104.1c0,35.1-17.9,57-37.8,80.3L641,656.8c-8.1,9.5-9.2,26,0.1,34.1l104.4,90.9v113.3L576.7,747.3
	c-38.1-33.3-33.3-100.6,0.5-137.2l48.5-52.4c22.1-23.9,10.3-58.5-18.3-60.8h-67v394.1L448.6,891z M0,890.7V790.2h139.7
	c19.3,0,34.2-0.8,37.6-10.1c2.1-5.6,0.8-15-8.2-27.2l-127-151.9C18.2,572.5,1.4,551.8,1.4,500.2c0-65,48.5-104.1,132.3-104.1h148
	v100.8h-148c-28.5,2.3-43.7,18.5-14.8,50.3l129,142c32.5,35.7,42.7,76.8,41.6,107.6c-2.1,58.9-51.4,96-108.1,95.5L0,890.7L0,890.7z
	 M766.5,891V474.8c0-43.4,25.6-83.8,70.7-83.8c59.4,0,75.1,52.5,98.2,99.8c33.2,67.6,65.5,149.6,88.2,196.9l41.6,98.3l41.6-98.3
	c15.4-32.8,44.9-122.3,76.7-193c24.6-54.7,45.6-103.7,109.8-103.7c45.1,0,70.7,40.4,70.7,83.8V891h-100.6V562.4l-118.1,284.9
	c-11.1,30-41.8,45.9-73.7,47.8c-36.1,2.1-73.8-13.8-86.4-47.8L867.1,562.4V891L766.5,891L766.5,891z M321.5,891V396.1h91.5V891
	L321.5,891L321.5,891z M1552.6,464.1l-141.3,434.7h105.4l107.5-353.7L1728,898.8h104.5l-129.9-416.2c-12.7-40.6-25.9-86.4-77.6-86.4
	c-40.5,1.9-59.7,31-72.2,67.5L1552.6,464.1L1552.6,464.1z"/>
<path d="M355.9,0l43.9,137l142.9-0.4l-115.8,84.3l44.5,136.8l-115.4-84.8l-115.4,84.8l44.5-136.8l-115.8-84.3
	L312,137L355.9,0z"/>
</symbol><symbol id="icon-technician" viewBox="0 0 298.3 349.7">
<path fill="#ffffff" d="M298.3,298.3c-4.1-25.7-12.6-58.7-29.7-70.5c-11.6-8-52.2-29.7-69.6-39l-0.3-0.2c-2-1.1-4.4-0.8-6.2,0.5
	c-9.1,7.1-19,11.9-29.6,14.3c-1.9,0.4-3.4,1.7-4.1,3.5l-9.7,25.7l-9.7-25.7c-0.7-1.8-2.2-3.1-4.1-3.5c-10.5-2.3-20.5-7.2-29.6-14.3
	c-1.8-1.4-4.2-1.6-6.2-0.5l-0.3,0.2c-17.3,9.3-57.9,31-69.6,39c-17,11.7-25.5,44.8-29.7,70.5c-0.2,0.9-0.1,1.9,0.3,2.8
	c0.7,2,18.6,48.3,148.8,48.5c130.2-0.2,148.1-46.6,148.8-48.5C298.3,300.2,298.4,299.3,298.3,298.3z M233.8,279.7h-51.3v-10.8h51.3
	V279.7z"/>
<path fill="#ffffff" d="M149.2,197.2c22.1,0,79.8-30,79.8-98.6c0-9.7-0.2-19.1-1-27.9c-1.3-17.4-4.9-32.9-13.8-44.7c-11.3-16-31-25.7-65-25.9
	c-34.1,0.2-53.7,10-65,25.9c-8.9,11.8-12.5,27.3-13.8,44.7c-0.8,8.9-1,18.2-1,27.9C69.3,167.2,127.1,197.2,149.2,197.2z M200.4,98.6
	c1,1.5,1.7,4.9,1.7,7c0,4.7-0.9,13-7.2,16.1c-3,1.5-7.5,2.3-12.1,2.3c-8.7,0-15.7-2.9-18.6-7.8c-6.2-10.5-4.2-16.6-4.1-16.6
	c0.2-0.4,2.1-4,18.9-4.9c2.9-0.2,5.4-0.3,7.5-0.3C195.8,94.4,198.8,96,200.4,98.6z M149.2,31.8c8.1,0.1,16.3,1.5,25.4,4.3
	c-2.4,6-3.5,8.9-5.9,14.9c-7.2-2-13.4-3.1-19.5-3.2c-6.1,0.1-12.3,1.2-19.5,3.2c-2.4-6-3.5-8.9-5.9-14.9
	C132.9,33.3,141.1,31.9,149.2,31.8z M149.2,69.1c25.8,0.3,39.5,12,47.8,19.3c-3.5-0.3-7.2-0.5-11-0.5c-3.2,0-6.6,0.1-9.9,0.4l-0.6,0
	c-6.8,0.5-10.6,0.8-15.2,2.8c-0.9,0.4-2,0.9-3.1,1.5c-1.6,0.8-3.9,1.7-5.1,2c-0.5,0.1-1.6,0.4-2.9,0.4c-1.3,0-2.4-0.3-2.9-0.4
	c-1.2-0.3-3.5-1.2-5.1-2c-1.1-0.6-2.1-1.1-3.1-1.5c-4.6-2.1-8.3-2.3-15.2-2.8l-0.6,0c-3.4-0.2-6.7-0.4-9.9-0.4
	c-3.8,0-7.5,0.2-11,0.5C109.7,81.1,123.3,69.5,149.2,69.1z M97.9,98.6c1.7-2.6,4.6-4.2,14-4.2c2.1,0,4.6,0.1,7.5,0.3
	c16.8,1,18.7,4.5,18.9,4.9c0,0,2.1,6.1-4.1,16.6c-2.9,4.9-9.8,7.8-18.6,7.8c-4.6,0-9.1-0.9-12.1-2.3c-6.4-3.1-7.3-11.4-7.2-16.1
	C96.2,103.5,96.9,100.1,97.9,98.6z M81.3,83.5c0.7,1.5,3,6,6.5,8.7c-0.6,0.8-1,1.8-1.1,3c0,0.7,0,1.8,0,2.9l0,0.1c0,0.6,0,1.1,0,1.4
	c-0.1,2.5,0.9,3.5,1.6,4.2c0.2,0.2,0.3,0.3,0.4,0.4c0.2,0.4,0.4,0.9,0.5,1.4c2.5,15,3.1,17.6,9.9,21.2c3.2,1.7,9.6,2.8,16,2.8
	c5,0,12.2-0.7,18.2-3.8c8.9-4.7,12.2-20.5,12.3-21.1c0.1-0.5,0.8-1.2,3-1.2h1c2.2,0,2.9,0.7,3,1.2c0.1,0.7,3.4,16.5,12.3,21.1
	c6,3.1,13.2,3.8,18.2,3.8c6.4,0,12.8-1.1,16-2.8c6.8-3.6,7.4-6.2,9.9-21.2c0.1-0.6,0.3-1,0.5-1.4c0.1-0.1,0.2-0.3,0.4-0.4
	c0.7-0.7,1.6-1.8,1.6-4.2c0-0.3,0-0.8,0-1.4l0-0.1c0-1,0-2.2,0-2.9c-0.1-1.3-0.5-2.2-1.1-3c3.6-2.7,5.9-7.2,6.5-8.7
	c0.2,5,0.3,10,0.3,15.1c0,34-15,55.1-27.6,66.8c-15.3,14.2-34.3,20-40.5,20s-25.2-5.9-40.5-20c-12.6-11.7-27.6-32.8-27.6-66.8
	C81.1,93.6,81.2,88.5,81.3,83.5z"/>
</symbol><symbol id="icon-tools" viewBox="0 0 25.5 26">
<path fill="#EF7424" d="M24.7,2.4l-1.5-1.6c-1-1-2.7-1.1-3.8-0.1l-2.7,2.4c0,0-0.1,0.1-0.1,0.1L14,7.6l-1.7,0.6
  C12.1,8.3,12,8.4,12,8.5c0,0.1,0,0.3,0.1,0.4l4.6,4.7c0.1,0.1,0.2,0.1,0.3,0.1c0,0,0.1,0,0.1,0c0.1,0,0.3-0.1,0.3-0.3l0.6-1.7
  L22.5,9c0,0,0.1-0.1,0.1-0.1l2.3-2.7C25.8,5.1,25.8,3.4,24.7,2.4z M24.2,5.6L22,8.3L17.4,11c-0.1,0.1-0.2,0.1-0.2,0.2l-0.4,1.2
  l-1-1.1l0,0l-1.5-1.6l0,0l-1-1.1l1.2-0.4c0.1,0,0.2-0.1,0.2-0.2l2.7-4.5L20,1.3c0.8-0.7,1.9-0.6,2.6,0.1L24.1,3
  C24.8,3.7,24.9,4.9,24.2,5.6z M23.5,17.8c-1.3-1.3-3.2-1.7-4.9-1.2L9.4,7.2c0.6-1.7,0.1-3.6-1.2-4.9C6.9,0.9,4.8,0.5,3.1,1.2
  C2.8,1.2,2.7,1.5,2.8,1.7c0,0.1,0.1,0.1,0.1,0.1l2.8,2.8L3.8,6.6L1.1,3.8C0.9,3.6,0.8,3.6,0.7,3.6c-0.1,0-0.3,0.1-0.3,0.3
  c-0.7,1.8-0.3,3.8,1.1,5.2c1.3,1.3,3.2,1.8,4.9,1.2l3.5,3.5l-4.3,4.4l-2.7,1.6c-0.1,0-0.1,0.1-0.2,0.2l-1.2,2.5
  c-0.1,0.2-0.1,0.4,0.1,0.5l1.5,1.6c0.1,0.1,0.3,0.2,0.5,0.1l2.5-1.2c0.1,0,0.1-0.1,0.2-0.2l1.5-2.8l4.3-4.4l3.6,3.7
  c-0.6,1.7-0.1,3.6,1.2,4.9c0.9,0.9,2.1,1.4,3.4,1.4c0.6,0,1.2-0.1,1.8-0.3c0.1-0.1,0.2-0.2,0.3-0.3c0-0.1,0-0.3-0.1-0.4l-2.8-2.8
  l1.9-1.9l2.8,2.8c0.2,0.2,0.4,0.2,0.6,0c0,0,0.1-0.1,0.1-0.2C25.3,21.2,24.9,19.1,23.5,17.8z M6.9,19.8c0,0-0.1,0.1-0.1,0.1
  l-1.5,2.7l-2.1,1.1l-1.1-1.1l1-2.1l2.7-1.5c0,0,0.1,0,0.1-0.1l4.4-4.4l0.9,0.9L6.9,19.8z M24,22l-2.6-2.6c-0.2-0.2-0.4-0.2-0.6,0
  l-2.5,2.5c-0.2,0.2-0.2,0.4,0,0.6l2.6,2.6c-1.3,0.3-2.6-0.2-3.5-1.1c-1.1-1.1-1.4-2.8-0.9-4.3c0.1-0.2,0-0.4-0.1-0.5L6.7,9.5
  C6.6,9.4,6.5,9.3,6.4,9.4c-0.1,0-0.1,0-0.2,0C4.8,10,3.1,9.6,2,8.5C1.1,7.5,0.7,6.2,1,4.9l2.6,2.6c0.2,0.2,0.4,0.2,0.6,0L6.6,5
  c0.2-0.2,0.2-0.4,0-0.6L4,1.8c1.3-0.3,2.6,0.2,3.5,1.1C8.7,4,9,5.7,8.5,7.1c-0.1,0.2,0,0.3,0.1,0.5l9.7,9.8c0.1,0.1,0.3,0.2,0.5,0.1
  c1.5-0.6,3.1-0.2,4.2,0.9C23.8,19.3,24.2,20.7,24,22z"/>
</symbol><symbol id="icon-unox" viewBox="0 0 419.3 218">
<path d="M209.6,181.1c-55.8,0-108.3-9.3-147.8-26.2C22,137.8,0,115,0,90.5c0-24.4,22-47.3,61.9-64.3
	C101.4,9.3,153.8,0,209.6,0c55.8,0,108.3,9.3,147.8,26.2c39.9,17.1,61.9,39.9,61.9,64.3c0,24.4-22,47.3-61.9,64.3
	C317.9,171.8,265.4,181.1,209.6,181.1z M209.6,3C95.7,3,3,42.3,3,90.5s92.7,87.5,206.6,87.5c113.9,0,206.6-39.3,206.6-87.5
	S323.6,3,209.6,3z"/>
<g>
	<path d="M341,112.4l-21.7-23.8l16.9-18.3c2.3-2.5,3.5-3.9,3.5-5.7c0-1.5-2.7-3.9-5.8-3.9c-2.6,0-5.2,1.6-8.2,4.7
		L312,80.3l-13.5-14.7c-3.1-3.4-5.4-4.8-7.9-4.8c-3.8,0-6.7,1.8-6.7,4.1c0,1.5,1.1,3,3.5,5.6l16.7,18.2l-21.7,23.6
		c-2.2,2.4-3.5,4.1-3.5,5.8c0,1.5,2.6,3.9,6,3.9c2.6,0,5-1.4,8.1-4.8L311.5,97l18.6,20.4c3.1,3.4,5.6,4.7,8.4,4.7
		c3.6,0,6.2-2.3,6.2-3.9c0-1.6-1.1-2.9-3.2-5.2L341,112.4z"/>
	<path d="M242.4,70.8c-10.7,0-18.1,7.5-18.1,20.4c0,12.3,7.4,19.9,18.1,19.9c10.6,0,18.1-7.6,18.1-19.9
		C260.5,78.4,253.2,70.8,242.4,70.8z"/>
	<path d="M360.4,65.3c0-1.6-1.4-1.8-2.6-1.8h-2.5v3.8h1.9C358.8,67.3,360.4,67.2,360.4,65.3z"/>
	<path d="M357.4,59.2c-4.8,0-8.5,3.8-8.5,8.7c0,5,3.7,8.8,8.5,8.8c4.7,0,8.4-3.8,8.4-8.8
		C365.8,63,362.1,59.2,357.4,59.2z M360.5,73.9l-3.3-5.2h-2v5.2h-1.9v-12h4.6c2.9,0,4.2,1.1,4.2,3.4c0,2.2-1.4,3.1-3.2,3.3l3.4,5.3
		H360.5z"/>
	<path d="M208.8,16.7c-96,0-173.9,32.9-173.9,73.6c0,40.6,77.8,73.6,173.9,73.6s173.9-32.9,173.9-73.6
		C382.7,49.6,304.8,16.7,208.8,16.7z M122.6,94.9c0,19.4-13,29.9-33.4,29.9c-20.4,0-33.4-10.4-33.4-29.9V67.4
		c0-7.1,2.9-10.5,8.9-10.5c6,0,8.9,3.5,8.9,10.5v25.8c0,11.5,5.4,17.3,15.7,17.3c10.3,0,15.7-5.8,15.7-17.3V67.4
		c0-7.1,2.8-10.5,8.9-10.5c6,0,8.9,3.5,8.9,10.5V94.9z M199.4,115.6c0,6.2-2.4,9.3-8,9.3c-3.7,0-6.7-1.7-10.1-5.4l-31.8-35.6v30.1
		c0,7.1-2.8,10.6-8.8,10.6c-6,0-8.8-3.5-8.8-10.6V67.4c0-6.5,2.5-9.9,8.1-9.9c3.9,0,6.5,1.7,9.3,4.8l32.5,36.4V68
		c0-7.1,2.8-10.6,8.8-10.6c6,0,8.8,3.5,8.8,10.6V115.6z M242.4,125.2c-21.9,0-36.4-13.7-36.4-34.2c0-20.5,14.8-34.2,36.4-34.2
		c21.6,0,36.5,13.6,36.5,34.2C278.9,111.4,264.3,125.2,242.4,125.2z M338.6,127c-4.3,0-8-1.9-12.1-6.3l-15-16.4l-14.9,16.3
		c-2.9,3.1-6.6,6.4-11.8,6.4c-5.9,0-11-4.1-11-8.8c0-3.7,2.5-6.5,4.8-9.1l18.7-20.2l-13.6-14.8c-2.7-3-4.9-5.5-4.9-8.9
		c0-5.2,5-9.1,11.7-9.1c4,0,7.4,1.9,11.5,6.4L312,73l10.1-10.9c4-4.3,7.9-6.3,11.9-6.3c5.6,0,10.8,4.2,10.8,8.8c0,3.8-2.3,6.4-4.8,9
		l-0.1,0.1l-13.7,14.9l19.2,21.1c2.3,2.6,4.4,5,4.4,8.5C349.7,123,344.6,127,338.6,127z M357.4,78.2c-5.6,0-10.3-4.4-10.3-10.3
		c0-5.8,4.7-10.2,10.3-10.2c5.6,0,10.3,4.4,10.3,10.2C367.7,73.8,363,78.2,357.4,78.2z"/>
</g>
<g>
	<path d="M55.7,194.9c5.8,0,9.2,4.9,9.2,11.6c0,6.8-3.4,11.6-9.2,11.6s-9.2-4.8-9.2-11.6
		C46.4,199.8,49.8,194.9,55.7,194.9z M55.7,215.2c4.4,0,6.3-4.3,6.3-8.7c0-4.5-2.1-8.8-6.3-8.7c-4.2,0-6.3,4.2-6.3,8.7
		C49.3,210.9,51.2,215.2,55.7,215.2z"/>
	<path d="M83.6,217.6h-3.4l-7.2-22.3H76l5.9,19.5H82l6.1-19.5h2.9L83.6,217.6z"/>
	<path d="M100.5,195.3H113v2.8h-9.3v6.5h8.5v2.8h-8.5v7.4h9.3v2.8h-12.5V195.3z"/>
	<path d="M125.5,195.3h4.4l9.9,18h0.1v-18h3.2v22.3h-4.1l-10.1-18.4h-0.1v18.4h-3.2V195.3z"/>
	<path d="M166.2,198.6c-1.6-0.6-2.5-0.9-4.2-0.9c-1.8,0-3.9,0.6-3.9,3c0,4.3,9.6,3.3,9.6,10.7c0,4.8-3.7,6.7-8.2,6.7
		c-1.6,0-3.1-0.4-4.6-0.9l0.3-3c1.1,0.4,3,1.1,4.6,1.1c1.8,0,4.4-1,4.4-3.6c0-5-9.6-3.6-9.6-10.6c0-4,3.1-6.1,7.2-6.1
		c1.5,0,3.2,0.3,4.8,0.8L166.2,198.6z"/>
	<path d="M195.6,195.3h5.9c4.6,0,8.4,1.6,8.4,6.7c0,5-3.9,6.7-7.9,6.7h-3.1v8.9h-3.2V195.3z M198.8,205.8h3.2
		c2,0,4.5-1,4.5-3.9c0-2.8-2.9-3.8-4.9-3.8h-2.7V205.8z"/>
	<path d="M220.6,195.3h3.2v19.5h9.3v2.8h-12.5V195.3z"/>
	<path d="M250.8,195.3h3.4l9.4,22.3h-3.5l-2.3-5.6h-10.9l-2.3,5.6h-3.4L250.8,195.3z M252.3,198.3l-4.4,11.1h8.9
		L252.3,198.3z"/>
	<path d="M273.8,195.3h4.4l9.9,18h0.1v-18h3.2v22.3h-4.1l-10.1-18.4H277v18.4h-3.2V195.3z"/>
	<path d="M304.1,195.3h12.5v2.8h-9.3v6.5h8.5v2.8h-8.5v7.4h9.3v2.8h-12.5V195.3z"/>
	<path d="M333.3,198.1h-6.9v-2.8h17.1v2.8h-6.9v19.5h-3.2V198.1z"/>
</g>
<path d="M356.5,195c3.4,0,6.2,2.7,6.2,6.2c0,3.6-2.8,6.2-6.2,6.2c-3.4,0-6.2-2.7-6.2-6.2
	C350.3,197.7,353.1,195,356.5,195z M356.5,206.5c2.9,0,5.1-2.3,5.1-5.3c0-3-2.2-5.2-5.1-5.2c-2.9,0-5.1,2.3-5.1,5.2
	C351.4,204.2,353.6,206.5,356.5,206.5z M354.1,197.6h2.8c1.7,0,2.5,0.7,2.5,2.1c0,1.3-0.8,1.9-1.9,2l2.1,3.2h-1.2l-2-3.1h-1.2v3.1
	h-1.1V197.6z M355.2,200.8h1.2c1,0,1.9,0,1.9-1.2c0-1-0.8-1.1-1.6-1.1h-1.5V200.8z"/>
</symbol><symbol id="icon-youtube" viewBox="0 0 553.1 553.1">
<g>
	<g>
		<path fill="#FFFFFF" d="M333.1,327c-8.6,0-16.8,4.8-24.5,14.4v-58h-24.1v177.5h24.1v-13c7.9,9.8,16.1,14.8,24.5,14.8
			c9.8,0,16.2-5,19.1-15.1c1.7-5,2.5-13.8,2.5-26.3v-52.6c0-12.7-0.8-21.6-2.5-26.6C349.3,332,342.9,327,333.1,327z M330.9,423.1
			c0,11.8-3.5,17.6-10.4,17.6c-4.1,0-8-1.9-11.9-5.8v-80.7c3.8-3.8,7.8-5.8,11.9-5.8c7,0,10.4,6,10.4,18V423.1z"/>
		<path fill="#FFFFFF" d="M409.4,327c-12.2,0-21.8,4.6-28.8,13.7c-4.8,6.5-7.2,16.8-7.2,31v46.5c0,14.2,2.5,24.5,7.6,31
			c7,9.1,16.7,13.7,29.2,13.7c12.7,0,22.3-4.8,28.8-14.4c2.9-4.3,4.7-9.1,5.4-14.4c0.5-3.3,0.7-8.5,0.7-15.5v-3.2h-24.5
			c0,2.6,0,5.2,0,7.7s-0.1,4.5-0.2,5.9c-0.1,1.4-0.2,2.3-0.2,2.5c-1.4,6.2-5,9.4-10.8,9.4c-8.2,0-12.2-6.1-12.2-18.4V399h47.9v-27.4
			c0-13.9-2.5-24.2-7.6-31C431,331.5,421.7,327,409.4,327z M420.9,379.2h-23.8v-12.3c0-12.2,4-18.4,11.9-18.4
			c7.9,0,11.9,6.1,11.9,18.4L420.9,379.2L420.9,379.2z"/>
		<path fill="#FFFFFF" d="M239.8,429.6c-5.3,7.4-10.3,11.2-15.1,11.2c-3.4,0-5.2-1.8-5.4-5.4c-0.2-0.5-0.4-3.6-0.4-9.4v-97.2h-23.8
			v104.4c0,9.1,0.7,15.6,2.2,19.4c2.2,6.7,7.2,10.1,15.1,10.1c8.9,0,18-5.4,27.4-16.2v14.4H264V328.8h-24.1L239.8,429.6L239.8,429.6
			L239.8,429.6z"/>
		<path fill="#FFFFFF" d="M271.2,193c7.7,0,11.5-6.1,11.5-18.4v-56.2c0-12.5-3.8-18.7-11.5-18.7c-7.7,0-11.5,6.2-11.5,18.7v56.2
			C259.6,186.9,263.5,193,271.2,193z"/>
		<polygon fill="#FFFFFF" points="108,308.6 136.1,308.6 136.1,460.9 162.8,460.9 162.8,308.6 191.6,308.6 191.6,283.4 108,283.4 		
			"/>
		<path fill="#FFFFFF" d="M449.4,0H103.7c-28.6,0-53,10.2-73.3,30.4C10.1,50.7,0,75.1,0,103.7v345.7c0,28.6,10.1,53,30.4,73.3
			c20.3,20.3,44.7,30.4,73.3,30.4h345.7c28.6,0,53-10.2,73.3-30.4c20.3-20.3,30.4-44.7,30.4-73.3V103.7c0-28.6-10.1-53-30.4-73.3
			C502.4,10.2,478,0,449.4,0z M326.6,79.9h24.1v97.9c0,5.8,0.1,8.9,0.4,9.4c0.2,3.9,2.2,5.8,5.8,5.8c4.8,0,9.8-3.7,15.1-11.2V79.9
			h24.1v133.2H372v-14.4c-9.8,10.8-19.1,16.2-27.7,16.2c-7.7,0-12.8-3.2-15.5-9.7c-1.4-4.3-2.2-10.9-2.2-19.8L326.6,79.9L326.6,79.9
			z M235.5,123.1c0-13.9,2.5-24.4,7.6-31.3c6.5-9.1,15.8-13.7,28.1-13.7c11.8,0,21.1,4.6,28.1,13.7c5,7,7.6,17.4,7.6,31.3V170
			c0,14.4-2.5,24.9-7.6,31.3c-7,9.1-16.3,13.7-28.1,13.7c-12.2,0-21.6-4.6-28.1-13.7c-5-6.9-7.6-17.4-7.6-31.3L235.5,123.1
			L235.5,123.1z M170.7,34.2l19.1,70.2l18.4-70.2h27l-32.4,106.6v72.4h-26.6v-72.4c-2.6-13.2-8.2-32.2-16.6-56.9
			c-1.7-5.5-4.4-13.8-8.3-24.9c-3.8-11-6.7-19.3-8.6-24.8L170.7,34.2L170.7,34.2z M467.4,468.8c-2.4,10.3-7.5,19.1-15.3,26.3
			c-7.8,7.2-16.9,11.4-27.2,12.6c-32.9,3.6-82.3,5.4-148.4,5.4c-66,0-115.5-1.8-148.4-5.4c-10.3-1.2-19.4-5.4-27.2-12.6
			c-7.8-7.2-12.9-15.9-15.3-26.3c-4.8-20.2-7.2-51.4-7.2-93.6c0-41.5,2.4-72.7,7.2-93.6c2.4-10.6,7.5-19.4,15.3-26.5
			c7.8-7.1,17-11.2,27.5-12.4c32.6-3.6,82-5.4,148-5.4c66.3,0,115.7,1.8,148.4,5.4c10.3,1.2,19.4,5.3,27.4,12.4
			c7.9,7.1,13.1,15.9,15.5,26.5c4.6,19.9,6.8,51.1,6.8,93.6C474.6,417.5,472.2,448.7,467.4,468.8z"/>
	</g>
</g>
</symbol></svg>