<svg xmlns="http://www.w3.org/2000/svg" xmlns:xlink="http://www.w3.org/1999/xlink" xmlns:fi="http://pattern.flaticon.com/"><symbol id="icon-automatic-desktop" viewBox="0 0 87 87">
<path id="Forma_1" fill="#373B51" d="M87,0h-52L22,29.9l0.7,0.5c3,2.4,3.4,6.8,1,9.7c-2.4,3-6.8,3.4-9.7,1c-3-2.4-3.4-6.8-1-9.7
	c1.1-1.3,2.6-2.2,4.4-2.5l0.6-0.1L30.5,0H0v87h87V73.4H60.7l-0.3,0.5c-2,3-6,3.9-9,1.9s-3.9-6-1.9-9c2-3,6-3.9,9-1.9
	c1.2,0.8,2.2,2,2.6,3.4l0.2,0.8H87V22H58.2V36l0.7,0.3c3.5,1.3,5.2,5.2,3.9,8.7c-1.3,3.5-5.2,5.2-8.7,3.9c-3.5-1.3-5.2-5.2-3.9-8.7
	c0.6-1.5,1.7-2.8,3.2-3.6l0.6-0.3V17.8h33L87,0L87,0z M47.5,42.6c0,5,4,9,9,9c5,0,9-4,9-9c0-3.5-2-6.6-5.1-8.1V24.2h24.3v42.6H62.9
	c-1.9-4.4-7.1-6.5-11.6-4.5c-4.4,1.9-6.5,7.1-4.5,11.6c1.9,4.4,7.1,6.5,11.6,4.5c1.4-0.6,2.6-1.6,3.5-2.8h22.9v9.1H2.2V2.2h24.8
	L16.4,26.9c-4.9,1.1-8,6-7,10.9c1.1,4.9,6,8,10.9,7c4.9-1.1,8-6,7-10.9c-0.4-1.7-1.2-3.3-2.5-4.5L36.5,2.2h48.2v13.3h-33V35
	C49.1,36.6,47.5,39.5,47.5,42.6z M14.9,35.6c0,1.9,1.5,3.4,3.4,3.4c1.9,0,3.4-1.5,3.4-3.4c0-1.9-1.5-3.4-3.4-3.4
	C16.4,32.2,14.9,33.7,14.9,35.6z M52.7,42.5c0,1.9,1.5,3.4,3.4,3.4c1.9,0,3.4-1.5,3.4-3.4c0-1.9-1.5-3.4-3.4-3.4
	C54.2,39.1,52.7,40.6,52.7,42.5z M54.8,67c1.9,0,3.4,1.5,3.4,3.4c0,1.9-1.5,3.4-3.4,3.4c-1.9,0-3.4-1.5-3.4-3.4
	C51.4,68.5,52.9,67,54.8,67L54.8,67z"/>
</symbol><symbol id="icon-automatic-mobile" viewBox="0 0 87 87">
<path id="Forma_1" fill="#373B51" d="M87,0h-52L22,29.9l0.7,0.5c3,2.4,3.4,6.8,1,9.7c-2.4,3-6.8,3.4-9.7,1c-3-2.4-3.4-6.8-1-9.7
	c1.1-1.3,2.6-2.2,4.4-2.5l0.6-0.1L30.5,0H0v87h87V73.4H60.7l-0.3,0.5c-2,3-6,3.9-9,1.9s-3.9-6-1.9-9c2-3,6-3.9,9-1.9
	c1.2,0.8,2.2,2,2.6,3.4l0.2,0.8H87V22H58.2V36l0.7,0.3c3.5,1.3,5.2,5.2,3.9,8.7c-1.3,3.5-5.2,5.2-8.7,3.9c-3.5-1.3-5.2-5.2-3.9-8.7
	c0.6-1.5,1.7-2.8,3.2-3.6l0.6-0.3V17.8h33L87,0L87,0z M47.5,42.6c0,5,4,9,9,9c5,0,9-4,9-9c0-3.5-2-6.6-5.1-8.1V24.2h24.3v42.6H62.9
	c-1.9-4.4-7.1-6.5-11.6-4.5c-4.4,1.9-6.5,7.1-4.5,11.6c1.9,4.4,7.1,6.5,11.6,4.5c1.4-0.6,2.6-1.6,3.5-2.8h22.9v9.1H2.2V2.2h24.8
	L16.4,26.9c-4.9,1.1-8,6-7,10.9c1.1,4.9,6,8,10.9,7c4.9-1.1,8-6,7-10.9c-0.4-1.7-1.2-3.3-2.5-4.5L36.5,2.2h48.2v13.3h-33V35
	C49.1,36.6,47.5,39.5,47.5,42.6z M14.9,35.6c0,1.9,1.5,3.4,3.4,3.4c1.9,0,3.4-1.5,3.4-3.4c0-1.9-1.5-3.4-3.4-3.4
	C16.4,32.2,14.9,33.7,14.9,35.6z M52.7,42.5c0,1.9,1.5,3.4,3.4,3.4c1.9,0,3.4-1.5,3.4-3.4c0-1.9-1.5-3.4-3.4-3.4
	C54.2,39.1,52.7,40.6,52.7,42.5z M54.8,67c1.9,0,3.4,1.5,3.4,3.4c0,1.9-1.5,3.4-3.4,3.4c-1.9,0-3.4-1.5-3.4-3.4
	C51.4,68.5,52.9,67,54.8,67L54.8,67z"/>
</symbol><symbol id="icon-button-next" viewBox="0 0 16.9 32.1">
<path id="Forma_1_&#x43A;&#x43E;&#x43F;&#x438;&#x44F;_2" d="M1.9,31.8c-0.4,0.4-1.1,0.5-1.5,0c0,0,0,0,0,0c-0.4-0.4-0.4-1.2,0-1.6l13.9-14.1
	L0.3,1.9c-0.4-0.5-0.4-1.2,0-1.6c0.4-0.4,1.1-0.4,1.6,0c0,0,0,0,0,0l14.6,14.9c0.4,0.4,0.4,1.2,0,1.6L1.9,31.8z"/>
</symbol><symbol id="icon-button-prev" viewBox="0 0 16.9 32.1">
<path id="Forma_1_&#x43A;&#x43E;&#x43F;&#x438;&#x44F;" d="M15,0.3c0.4-0.4,1.1-0.4,1.6,0c0,0,0,0,0,0c0.4,0.4,0.4,1.2,0,1.6L2.7,16.1
	l13.9,14.1c0.4,0.4,0.4,1.2,0,1.6c-0.4,0.4-1.1,0.5-1.5,0c0,0,0,0,0,0L0.3,16.9c-0.4-0.4-0.4-1.2,0-1.6L15,0.3z"/>
</symbol><symbol id="icon-install-desktop" viewBox="0 0 57.6 57.7">
<path id="Forma_1" fill="#373B51" d="M57.4,11.9c-0.2-0.2-0.6-0.3-0.9-0.1l-11.9,6.9L28.1,9.3c0,0-0.1,0-0.1,0l-4.6-8.9
	c-0.2-0.3-0.6-0.5-0.9-0.3c0,0,0,0,0,0L0.4,12.2c-0.2,0.1-0.3,0.2-0.3,0.4C0,12.8,0,13,0.1,13.2l5.2,9.2c0,0,0.1,0,0.1,0.1l0,0v21.1
	H5.2c0,0.3,0.2,0.5,0.3,0.7l21.8,13.3c0.1,0.1,0.2,0.1,0.4,0.1c0.1,0,0.2,0,0.4-0.1l22.3-13.3c0.2-0.2,0.3-0.5,0.3-0.7H51v-21
	l6.5-9.8C57.7,12.5,57.6,12.1,57.4,11.9z M24.6,32.7l3.2-2.1l1.9,1.2l-1.8,2.8L24.6,32.7z M27.1,29.4l-3.9,2.5L7.4,22.5l19.8-11.3
	V29.4L27.1,29.4z M6.8,23.7l20.4,12.4v19.7L6.8,43.4V23.7z M28.5,36.1l21.1-12.4v19.7L28.5,55.8V36.1z M30.4,30.6l-1.9-1.3V11.1
	l14.6,8.3l-8.9,5.1c-0.1,0.1-0.2,0.1-0.2,0.2L30.4,30.6z M22.5,1.7l4.2,8.1L6.3,21.4l-4.7-8.3L22.5,1.7z M49.5,21.9L49.5,21.9
	L30.4,33.3l4.7-7.6l19.4-11.2L49.5,21.9z"/>
</symbol><symbol id="icon-install-mobile" viewBox="0 0 57.6 57.7">
<path id="Forma_1" fill="#373B51" d="M57.4,11.9c-0.2-0.2-0.6-0.3-0.9-0.1l-11.9,6.9L28.1,9.3c0,0-0.1,0-0.1,0l-4.6-8.9
	c-0.2-0.3-0.6-0.5-0.9-0.3c0,0,0,0,0,0L0.4,12.2c-0.2,0.1-0.3,0.2-0.3,0.4C0,12.8,0,13,0.1,13.2l5.2,9.2c0,0,0.1,0,0.1,0.1l0,0v21.1
	H5.2c0,0.3,0.2,0.5,0.3,0.7l21.8,13.3c0.1,0.1,0.2,0.1,0.4,0.1c0.1,0,0.2,0,0.4-0.1l22.3-13.3c0.2-0.2,0.3-0.5,0.3-0.7H51v-21
	l6.5-9.8C57.7,12.5,57.6,12.1,57.4,11.9z M24.6,32.7l3.2-2.1l1.9,1.2l-1.8,2.8L24.6,32.7z M27.1,29.4l-3.9,2.5L7.4,22.5l19.8-11.3
	V29.4L27.1,29.4z M6.8,23.7l20.4,12.4v19.7L6.8,43.4V23.7z M28.5,36.1l21.1-12.4v19.7L28.5,55.8V36.1z M30.4,30.6l-1.9-1.3V11.1
	l14.6,8.3l-8.9,5.1c-0.1,0.1-0.2,0.1-0.2,0.2L30.4,30.6z M22.5,1.7l4.2,8.1L6.3,21.4l-4.7-8.3L22.5,1.7z M49.5,21.9L49.5,21.9
	L30.4,33.3l4.7-7.6l19.4-11.2L49.5,21.9z"/>
</symbol><symbol id="icon-lacimbali" viewBox="0 0 2210.1 545.9">
  <path class="st0" d="M853.5,140.1l-82.3,317.6h66.4l82.3-317.6H853.5z M1190.9,140.1l-121.6,250.3h-0.9l7.2-250.3h-96.9
    l-82.3,317.6h61.9l68.7-265.3h0.9l-10.7,265.3h65.1l128.1-265.3h0.9l-68.7,265.3h61.9l82.3-317.6H1190.9L1190.9,140.1z
     M1546.4,363.6c8.1-31.3,6-62.3-29.2-76.9c14.9-6.6,43.9-19.5,55.8-65.1c8.5-32.8,1.2-81.5-76.8-81.5h-154.6l-82.3,317.6h134.6
    c65.2,0,85.3-11.1,108-28.8C1523,412.6,1539.8,388.8,1546.4,363.6z M1481.8,356.5c-8.4,32.3-30.6,46.4-63,46.4h-81.6l21.9-84.8
    h84.6C1467.8,318.1,1489,328.7,1481.8,356.5L1481.8,356.5z M1507.2,229.1c-6.6,25.3-30,35.5-56.1,35.5h-78l18-69.6h76.2
    C1497.5,195,1514,203,1507.2,229.1z M1701.2,140.1l-195.6,317.6h69.9l39.1-65.6H1732l3.4,65.6h72.1l-29.7-317.6H1701.2
    L1701.2,140.1z M1646.6,337.3l73.3-125.5h0.9l6.9,125.5H1646.6z M1962.8,140.1h-66.4l-82.3,317.6h224.4l14.9-57.5h-158
    L1962.8,140.1z M2143.8,140.1l-82.3,317.6h66.4l82.3-317.6H2143.8L2143.8,140.1z M77.6,207.8H39.2L0,392.5h130l7.1-33.4H45.4
    L77.6,207.8z M536.6,460.3c-126.9,0.4-77.7-199.6-71.4-228.4C475,187.6,540.9,72,640,74.9c96.4,0,89.3,121.3,89.3,121.3h64.2
    C822,53.5,707.9,0,643.6,0S458.1,42.8,397.4,199.8c-16.7,43.2-25.5,88.7-26.1,132.1H309l-17.2-124h-44.4L142.5,392.5H183l20.9-37.9
    h67.9l3.7,37.9h41.8l-5-35.7h59.4c6.1,103.7,61.6,189.2,171.9,189.2c164.1,0,217.6-182,217.6-182h-78.5
    C682.9,364,661.5,460.3,536.6,460.3L536.6,460.3z M220.9,322.9l39.1-73.3h0.5l7.3,73.3H220.9z"/>
</symbol><symbol id="icon-maintenance-desktop" viewBox="0 0 915.1 775.7">
<g>
	<polygon fill="none" stroke="#373B51" stroke-width="10" stroke-miterlimit="10" points="10,5 251,6 249.5,715 5,714 	"/>

		<polyline fill="none" stroke="#373B51" stroke-width="5" stroke-linecap="round" stroke-linejoin="round" stroke-miterlimit="10" points="
		213,685.3 218,658 228,549 232,451 233,295 233,169 233,85 232,32 33,32 32,53 31,215 29,353 30,509 35,584 45,687 	"/>
	<path fill="#373B51" stroke="#373B51" stroke-width="3" stroke-miterlimit="10" d="M199.2,90.1H67.5c-6.6,0-12-5.4-12-12V64
		c0-6.6,5.4-12,12-12h131.7c6.6,0,12,5.4,12,12v14.1C211.2,84.7,205.8,90.1,199.2,90.1z"/>
	<path fill="#373B51" stroke="#373B51" stroke-width="3" stroke-miterlimit="10" d="M152.7,167.2h-40.9c-1.8,0-3.3-1.5-3.3-3.3v-8.8
		c0-1.8,1.5-3.3,3.3-3.3h40.9c1.8,0,3.3,1.5,3.3,3.3v8.8C156,165.7,154.5,167.2,152.7,167.2z"/>
	<rect x="263.6" y="6.6" fill="none" stroke="#373B51" stroke-width="10" stroke-miterlimit="10" width="646.5" height="708.7"/>

		<path fill="#373B51" stroke="#373B51" stroke-width="4" stroke-linecap="round" stroke-linejoin="round" stroke-miterlimit="10" d="
		M311.9,318.4c38.2,0,34.1,38.5,33.6,42.1c0,0.2,0,0.4-0.1,0.6l-0.7,8.8c-0.1,0.9-0.2,1.7-0.5,2.6l-2.4,7.7l-4,12.1
		c-0.2,0.6-0.3,1.2-0.4,1.9l-1.5,9.1c-0.3,1.6-0.4,3.2-0.3,4.9l0.4,12.6c0,0.5,0.1,1,0.1,1.5l1.7,10.8c0.1,0.8,0.2,1.6,0.1,2.4
		l-0.7,16l-4,58.8L331,543c-0.1,0.9-0.2,1.7-0.4,2.5l-0.9,3.3c-0.8,2.7-2.5,5.1-4.9,6.7l-1.1,0.8c-1.9,1.3-4.2,2-6.6,2.1l-16.8,0.4
		c-2,0-4-0.4-5.8-1.3l-2.6-1.3c-2.6-1.3-4.6-3.5-5.7-6.1l0,0c-0.5-1.3-0.8-2.6-0.9-4l-2.9-48.7l-2.9-60.5c-0.1-1.2,0.1-2.3,0.3-3.5
		l2.1-8.5c0.2-0.7,0.3-1.4,0.3-2.1l0.9-13.8c0-0.3,0-0.6,0-0.9c0-2.5,0.4,1,0-7.5c-0.2-3.8-0.9-7.2-1.5-10.4
		c-0.8-4-1.7-7.7-3.6-11.5l-0.1-0.1c-0.5-1.1-0.9-2.4-1.1-3.6l-1-7.1l-0.9-7.7c0,0-5.5-41.6,34.5-41.6h1.9L311.9,318.4z"/>

		<path fill="#373B51" stroke="#373B51" stroke-width="4" stroke-linecap="round" stroke-linejoin="round" stroke-miterlimit="10" d="
		M805.1,64c-10-11-425.4-9.9-434.2-1.1c0,22.1-1.6,184.1,1.4,255.1s11.3,280.7,33.7,303c17.4,8.6,356,10,365,1
		c16.5-16.5,32-290.3,33.3-312C805.7,288.3,805.1,94,805.1,64z M753.4,521.9c-0.6,4.1-4.1,7.1-8.3,7.1H425.6c-4.1,0-7.6-3.1-8.1-7.2
		c-17.4-140.5-24.6-281.4-21.3-422.7c0.1-3.7,3.2-6.7,6.9-6.7H771c3.4,0,6.2,2.7,6.3,6.1C783.1,238,774.7,379.2,753.4,521.9z"/>

		<line fill="none" stroke="#373B51" stroke-width="3" stroke-linecap="round" stroke-linejoin="round" stroke-miterlimit="10" x1="50.7" y1="211" x2="213.3" y2="211"/>
	<path fill="none" stroke="#373B51" stroke-width="3" stroke-linecap="round" stroke-linejoin="round" stroke-miterlimit="10" d="
		M71.7,430.3l119.3,1c6.1-55.7,8.5-112.1,7.3-169.3h-133C64.1,317.7,66.3,373.8,71.7,430.3z"/>

		<circle fill="#373B51" stroke="#373B51" stroke-width="4" stroke-linecap="round" stroke-linejoin="round" stroke-miterlimit="10" cx="130" cy="632" r="53"/>

		<path fill="#373B51" stroke="#373B51" stroke-width="3" stroke-linecap="round" stroke-linejoin="round" stroke-miterlimit="10" d="
		M102,329.7c18.4-3.1,36.9-3.1,55.3,0c1.1,12.6,0.7,24.3-3.3,33.7c-16.5,3.3-32.3,3.6-47.3,0.7C103.3,353.1,101.8,341.6,102,329.7z"/>
	<polygon fill="#373B51" stroke="#373B51" stroke-width="10" stroke-miterlimit="10" points="94.2,719.9 168,719.9 164.7,770.7
		98.2,770.7 	"/>
	<polygon fill="#373B51" stroke="#373B51" stroke-width="10" stroke-miterlimit="10" points="756.2,719.9 830,719.9 826.7,770.7
		760.2,770.7 	"/>
</g>
</symbol><symbol id="icon-maintenance-mobile" viewBox="0 0 915.1 775.7">
<g>
	<polygon fill="none" stroke="#373B51" stroke-width="10" stroke-miterlimit="10" points="10,5 251,6 249.5,715 5,714 	"/>

		<polyline fill="none" stroke="#373B51" stroke-width="5" stroke-linecap="round" stroke-linejoin="round" stroke-miterlimit="10" points="
		213,685.3 218,658 228,549 232,451 233,295 233,169 233,85 232,32 33,32 32,53 31,215 29,353 30,509 35,584 45,687 	"/>
	<path fill="#373B51" stroke="#373B51" stroke-width="3" stroke-miterlimit="10" d="M199.2,90.1H67.5c-6.6,0-12-5.4-12-12V64
		c0-6.6,5.4-12,12-12h131.7c6.6,0,12,5.4,12,12v14.1C211.2,84.7,205.8,90.1,199.2,90.1z"/>
	<path fill="#373B51" stroke="#373B51" stroke-width="3" stroke-miterlimit="10" d="M152.7,167.2h-40.9c-1.8,0-3.3-1.5-3.3-3.3v-8.8
		c0-1.8,1.5-3.3,3.3-3.3h40.9c1.8,0,3.3,1.5,3.3,3.3v8.8C156,165.7,154.5,167.2,152.7,167.2z"/>
	<rect x="263.6" y="6.6" fill="none" stroke="#373B51" stroke-width="10" stroke-miterlimit="10" width="646.5" height="708.7"/>

		<path fill="#373B51" stroke="#373B51" stroke-width="4" stroke-linecap="round" stroke-linejoin="round" stroke-miterlimit="10" d="
		M311.9,318.4c38.2,0,34.1,38.5,33.6,42.1c0,0.2,0,0.4-0.1,0.6l-0.7,8.8c-0.1,0.9-0.2,1.7-0.5,2.6l-2.4,7.7l-4,12.1
		c-0.2,0.6-0.3,1.2-0.4,1.9l-1.5,9.1c-0.3,1.6-0.4,3.2-0.3,4.9l0.4,12.6c0,0.5,0.1,1,0.1,1.5l1.7,10.8c0.1,0.8,0.2,1.6,0.1,2.4
		l-0.7,16l-4,58.8L331,543c-0.1,0.9-0.2,1.7-0.4,2.5l-0.9,3.3c-0.8,2.7-2.5,5.1-4.9,6.7l-1.1,0.8c-1.9,1.3-4.2,2-6.6,2.1l-16.8,0.4
		c-2,0-4-0.4-5.8-1.3l-2.6-1.3c-2.6-1.3-4.6-3.5-5.7-6.1l0,0c-0.5-1.3-0.8-2.6-0.9-4l-2.9-48.7l-2.9-60.5c-0.1-1.2,0.1-2.3,0.3-3.5
		l2.1-8.5c0.2-0.7,0.3-1.4,0.3-2.1l0.9-13.8c0-0.3,0-0.6,0-0.9c0-2.5,0.4,1,0-7.5c-0.2-3.8-0.9-7.2-1.5-10.4
		c-0.8-4-1.7-7.7-3.6-11.5l-0.1-0.1c-0.5-1.1-0.9-2.4-1.1-3.6l-1-7.1l-0.9-7.7c0,0-5.5-41.6,34.5-41.6h1.9L311.9,318.4z"/>

		<path fill="#373B51" stroke="#373B51" stroke-width="4" stroke-linecap="round" stroke-linejoin="round" stroke-miterlimit="10" d="
		M805.1,64c-10-11-425.4-9.9-434.2-1.1c0,22.1-1.6,184.1,1.4,255.1s11.3,280.7,33.7,303c17.4,8.6,356,10,365,1
		c16.5-16.5,32-290.3,33.3-312C805.7,288.3,805.1,94,805.1,64z M753.4,521.9c-0.6,4.1-4.1,7.1-8.3,7.1H425.6c-4.1,0-7.6-3.1-8.1-7.2
		c-17.4-140.5-24.6-281.4-21.3-422.7c0.1-3.7,3.2-6.7,6.9-6.7H771c3.4,0,6.2,2.7,6.3,6.1C783.1,238,774.7,379.2,753.4,521.9z"/>

		<line fill="none" stroke="#373B51" stroke-width="3" stroke-linecap="round" stroke-linejoin="round" stroke-miterlimit="10" x1="50.7" y1="211" x2="213.3" y2="211"/>
	<path fill="none" stroke="#373B51" stroke-width="3" stroke-linecap="round" stroke-linejoin="round" stroke-miterlimit="10" d="
		M71.7,430.3l119.3,1c6.1-55.7,8.5-112.1,7.3-169.3h-133C64.1,317.7,66.3,373.8,71.7,430.3z"/>

		<circle fill="#373B51" stroke="#373B51" stroke-width="4" stroke-linecap="round" stroke-linejoin="round" stroke-miterlimit="10" cx="130" cy="632" r="53"/>

		<path fill="#373B51" stroke="#373B51" stroke-width="3" stroke-linecap="round" stroke-linejoin="round" stroke-miterlimit="10" d="
		M102,329.7c18.4-3.1,36.9-3.1,55.3,0c1.1,12.6,0.7,24.3-3.3,33.7c-16.5,3.3-32.3,3.6-47.3,0.7C103.3,353.1,101.8,341.6,102,329.7z"/>
	<polygon fill="#373B51" stroke="#373B51" stroke-width="10" stroke-miterlimit="10" points="94.2,719.9 168,719.9 164.7,770.7
		98.2,770.7 	"/>
	<polygon fill="#373B51" stroke="#373B51" stroke-width="10" stroke-miterlimit="10" points="756.2,719.9 830,719.9 826.7,770.7
		760.2,770.7 	"/>
</g>
</symbol><symbol id="icon-phone" viewBox="0 0 512.001 512.001">
<g>
	<g>
		<path d="M421.216,195.504c-5.092-26.101-17.723-49.836-36.526-68.64c-18.804-18.803-42.54-31.434-68.641-36.527    c-11.21-2.189-22.073,5.128-24.261,16.339c-2.187,11.212,5.128,22.073,16.339,24.26c36.847,7.188,65.3,35.642,72.489,72.489    c1.927,9.874,10.581,16.726,20.278,16.726c1.313,0,2.645-0.125,3.984-0.387C416.088,217.577,423.403,206.715,421.216,195.504z" fill="#FFFFFF"/>
	</g>
</g>
<g>
	<g>
		<path d="M511.422,196.929c-5.629-50.096-28.373-97.304-64.042-132.927C411.712,28.378,364.475,5.694,314.371,0.128    c-11.355-1.261-21.578,6.92-22.839,18.272c-1.261,11.353,6.919,21.578,18.272,22.84c84.961,9.438,150.966,75.36,160.512,160.31    c1.188,10.566,10.139,18.374,20.527,18.374c0.771,0,1.552-0.043,2.336-0.131C504.53,218.516,512.698,208.281,511.422,196.929z" fill="#FFFFFF"/>
	</g>
</g>
<g>
	<g>
		<path d="M432.59,312.566c-0.062-0.008-0.124-0.017-0.186-0.025c-20.013-2.639-39.751-7.557-58.619-14.596    c-23.91-8.99-51.103-3.191-69.27,14.772c-0.028,0.028-0.056,0.055-0.083,0.083l-17.148,17.148    c-42.633-26.924-78.756-63.047-105.679-105.679l17.149-17.149c0.027-0.028,0.054-0.055,0.082-0.083    c17.964-18.166,23.762-45.356,14.79-69.223c-7.057-18.914-11.974-38.653-14.614-58.666c-0.007-0.063-0.017-0.127-0.026-0.19    c-4.591-32.478-32.782-56.734-65.548-56.467H66.053c-1.943,0.002-3.912,0.091-5.853,0.267    C24.143,26.016-2.541,58.001,0.718,94.058c0.01,0.108,0.02,0.215,0.032,0.323c7.684,72.354,32.649,142.88,72.197,203.955    c35.892,56.461,84.701,105.269,141.162,141.164c60.792,39.406,130.99,64.369,203.013,72.196c0.127,0.015,0.254,0.027,0.38,0.038    c1.961,0.176,3.949,0.266,5.921,0.266c0.083,0,0.165,0,0.247,0.001c36.204-0.148,65.538-29.722,65.391-65.841v-67.233    C489.746,345.714,465.515,317.211,432.59,312.566z M447.698,378.695v67.548c0.055,13.396-10.8,24.338-24.19,24.393    c-0.715-0.004-1.425-0.027-2.135-0.086c-65.578-7.161-129.488-29.914-184.837-65.808c-0.053-0.035-0.107-0.069-0.161-0.103    c-51.429-32.68-95.885-77.137-128.565-128.565c-0.032-0.051-0.064-0.101-0.097-0.153C71.683,220.306,48.928,156.086,41.902,90.193    C40.779,76.91,50.63,65.155,63.923,63.954c0.717-0.064,1.443-0.098,2.145-0.098h67.463c0.146-0.001,0.294-0.003,0.443-0.002    c12.021,0,22.322,8.905,24.044,20.819c3.05,23.063,8.721,45.806,16.871,67.649c3.319,8.832,1.189,18.869-5.427,25.591    l-28.517,28.517c-6.583,6.582-7.956,16.753-3.354,24.847c33.837,59.508,83.177,108.847,142.685,142.685    c8.094,4.6,18.264,3.23,24.848-3.355l28.512-28.512c6.72-6.621,16.765-8.752,25.642-5.415    c21.799,8.134,44.547,13.805,67.61,16.855c12.18,1.757,21.122,12.339,20.816,24.647    C447.7,378.353,447.698,378.524,447.698,378.695z" fill="#FFFFFF"/>
	</g>
</g>
<g>
</g>
<g>
</g>
<g>
</g>
<g>
</g>
<g>
</g>
<g>
</g>
<g>
</g>
<g>
</g>
<g>
</g>
<g>
</g>
<g>
</g>
<g>
</g>
<g>
</g>
<g>
</g>
<g>
</g>
</symbol><symbol id="icon-rational" viewBox="0 0 2426.5 605.1">
<path class="rational1" d="M2426.5,457.3c0,40.8-16.6,77.7-43.4,104.5c-27.7,27.8-65.3,43.3-104.5,43.3H147.8
	c-39.2,0-76.8-15.5-104.4-43.3h-0.1C15.5,534.1,0,496.5,0,457.3V147.8c0-39.2,15.5-76.8,43.3-104.4l0.1-0.1C71,15.6,108.6,0,147.8,0
	h2130.8c40.8,0,77.7,16.5,104.5,43.3h0.1c27.8,27.7,43.4,65.3,43.3,104.5L2426.5,457.3L2426.5,457.3L2426.5,457.3z M2381.4,457.3
	V147.8c0-27.3-10.8-53.4-30.1-72.7h0.1c-19.3-19.3-45.5-30.1-72.7-30.1H147.8c-27.2,0-53.4,10.7-72.6,30l-0.1,0.1l0.1-0.1l-0.1,0.1
	c-19.3,19.3-30,45.4-30,72.7v309.4c0,28.4,11.5,54.1,30.1,72.7h-0.1c19.3,19.3,45.5,30.1,72.7,30.1h2130.8
	c56.7,0.1,102.7-45.8,102.8-102.4C2381.4,457.5,2381.4,457.4,2381.4,457.3z"/>
<path class="rational2" d="M634,119.1H519.1L416.7,416.4l-47-81.2c0,0,62.1-2.3,64.4-98.9c2.9-120-119.5-120.5-119.5-120.5H107.6v350.4
	h110.3V339.8h27.6l87.3,126.4h160.9l17.9-48.3h123.5l15,48.3h112.6L634,119.1z M220.2,193.9h80.5c22.2,0.7,39.5,21.6,36.8,43.7
	c-2.3,18.5-15.9,31.5-34.5,33.2h-82.8V193.9L220.2,193.9z M539.7,342.1l39.1-105.7l32.8,105.7H539.7z M866.1,204.1l62.1,0v-85.1
	H684.5v85.1l78.2,0v262.1h103.4L866.1,204.1L866.1,204.1z M1479.1,302.3v-0.2c0-119.9-97.2-217-217-217c-43.3,0-85.7,13-121.5,37.3
	l90.3,121c9.6-5.1,20.3-7.8,31.2-7.7c23.9,0,39.7,12.2,47,19.5c12.5,12.4,19.5,29.4,19.5,47v0.2H1275l125.2,167.8l125.2-167.8
	L1479.1,302.3L1479.1,302.3z"/>
<path class="rational3" d="M1292.6,361.1c-9.4,4.9-19.9,7.5-30.5,7.5c-17.6,0-34.6-7-47-19.5c-12.4-12.4-19.4-29.2-19.4-46.8h53.8
	l-125.2-167.8L998.9,302.3h46.1c0.1,119.8,97.2,216.9,217,216.9c44.8,0,86.4-13.6,121-36.9L1292.6,361.1L1292.6,361.1z"/>
<path class="rational4" d="M1003.4,322.8h-46.1l87.8-117.6l0-5.6v-80.5H939.7v347.1h105.7V322.8H1003.4z M2216.2,381.2l-0.1-262.1h-97.7
	v286.2l-108-286.2h-114.9l-101.2,293.7V119.1h-98.8v202.3l-119.5-202.3l-97.5,0.1v162.7h88l-12.6,16.9l0.2,0.1l-75.5,101.2v47.3
	l-0.2,15.4l0.2,3.4h97.4V291.5l114.9,174.7h179.3l17.8-48.3h125.3l15.4,48.3h312.6v-85.1L2216.2,381.2L2216.2,381.2z M1916.1,342.1
	l39.1-105.7l33.8,105.7H1916.1z"/>
</symbol><symbol id="icon-repair-desktop" viewBox="0 0 103 103">
<path id="Forma_1" fill="#373B51" d="M27.4,33.8c0-1,0.1-4,2.3-4.8c2.2-0.8,4.4,1.4,4.8,1.8c0.5,0.6,0.5,1.4,0,2c0,0,0,0-0.1,0.1
	c-0.6,0.5-1.5,0.5-2.1-0.1c-0.4-0.5-1-0.9-1.6-1.1c-0.3,0.7-0.4,1.4-0.4,2.2c-0.3,3,1.5,5.8,4.3,6.9c0.5,0.1,0.8,0.5,1,1l0.1,0.2
	c0,0.1,0,0.2,0,0.3c1.2,14.2,12.8,18.8,18.2,18.8s17-4.6,18.2-18.8c0-0.1,0-0.2,0-0.3l0.1-0.2c0.1-0.5,0.5-0.8,1-1
	c2.8-1.1,4.5-3.9,4.3-6.9c-0.1-1.8-0.5-2.2-0.5-2.2c-0.6,0.3-1.1,0.7-1.6,1.1c-0.6,0.6-1.5,0.6-2.1,0.1c-0.6-0.5-0.6-1.4-0.1-2
	c0,0,0,0,0.1-0.1c0.4-0.4,2.7-2.6,4.8-1.8c2.2,0.8,2.3,3.8,2.3,4.8c0.3,3.9-1.9,7.6-5.4,9.4C73.5,57.6,61.9,64,53.9,64
	s-19.6-6.4-21.1-20.8C29.3,41.5,27.1,37.8,27.4,33.8z M31.2,24.2C31.2,4.3,47.6,0,53.9,0c6.3,0,22.8,4.3,22.8,24.2
	c0,0.6-0.4,1.2-1,1.4l-2.3,0.7l-2.1,2.2c-0.3,0.3-0.7,0.5-1.1,0.5c0,0-0.1,0-0.1,0c-0.5,0-0.9-0.3-1.1-0.7
	c-0.1-0.1-3.1-4.1-14.9-4.1c-12,0-14.9,4.1-14.9,4.1c-0.3,0.4-0.7,0.6-1.1,0.7c-0.5,0-0.9-0.1-1.2-0.4l-2.1-2.2l-2.3-0.7
	C31.6,25.4,31.2,24.8,31.2,24.2L31.2,24.2z M34.2,23.1l1.6,0.5c0.3,0.1,0.5,0.2,0.7,0.4l1.3,1.3c2-1.6,6.5-4.1,16.2-4.1
	s14.2,2.4,16.2,4.1l1.3-1.3c0.2-0.2,0.4-0.3,0.7-0.4l1.6-0.5C73,3.4,54.1,2.9,53.9,2.9S34.8,3.4,34.2,23.1L34.2,23.1z M37.6,19.6
	c-0.3-0.7,0.1-1.6,0.9-1.8c0,0,0,0,0,0c2.1-0.7,4.3-1.3,6.4-1.7c-0.3-1.2-0.7-2.3-1-3.5c-0.1-0.4,0-0.8,0.2-1.1
	c0.2-0.3,0.5-0.6,0.9-0.7c5.8-1.4,12-1.4,17.8,0c0.4,0.1,0.7,0.3,0.9,0.7c0.2,0.3,0.3,0.7,0.2,1.1c-0.3,1.2-0.7,2.3-1,3.5
	c2.2,0.4,4.3,1,6.4,1.7c0.7,0.2,1.2,1,0.9,1.8c0,0,0,0,0,0c-0.3,0.8-1.1,1.1-1.9,0.9c-9.3-3.2-19.5-3.2-28.8,0
	C38.8,20.8,37.9,20.4,37.6,19.6L37.6,19.6z M47.9,15.6c4-0.5,8.1-0.5,12.1,0c0.2-0.8,0.5-1.5,0.7-2.3c-4.4-0.9-9-0.9-13.4,0
	C47.4,14.1,47.7,14.9,47.9,15.6L47.9,15.6z M103,46.4v7.4c0,0.8-0.4,1.5-1.1,1.9l-5.5,3.1v18.1c0,0,0,0.1,0,0.1
	c1.5,0.1,3,0.7,4.1,1.8c1.8,1.7,1.8,4.2,1.8,6.3v10c-0.1,4.5-3.9,8-8.4,7.8c-4.3-0.1-7.7-3.6-7.8-7.8V85c0-2.1,0-4.6,1.8-6.3
	c1.2-1,2.6-1.6,4.1-1.8c0,0,0-0.1,0-0.1v-2.2c-1.7-5.2-4.7-9.8-8.8-13.3L79,72.6V103H28.9V72.6l-4.3-11.7
	c-5.9,4.7-9.7,10.9-10.6,17.5c0.1,0.1,0.3,0.2,0.4,0.3c1.8,1.7,1.8,4.2,1.8,6.3v10c-0.1,4.5-3.9,8-8.4,7.8C3.6,102.7,0.1,99.3,0,95
	V85c0-2.1,0-4.6,1.8-6.3c0.8-0.7,1.7-1.2,2.7-1.5v-7.6c0-0.8,0.7-1.5,1.5-1.4c0,0,0,0,0,0H7V54.3c0-0.6,0.5-1.1,1.2-1.1
	c0.6,0,1.1,0.5,1.1,1.1v13.9h1.1c0.8,0,1.5,0.6,1.5,1.4c0,0,0,0,0,0v4.9c2-6.7,6.1-12.5,11.8-16.6l-0.4-1.2
	c-0.3-0.7,0.1-1.6,0.9-1.8c0,0,0,0,0,0c0.8-0.3,1.6,0.1,1.9,0.9l0.2,0.4c2.1-1.3,4.2-2.4,6.5-3.3c0.4-0.2,0.8-0.1,1.2,0
	c0.4,0.2,0.7,0.5,0.8,0.8c2.6,7.5,10.1,12.3,19.2,12.3s16.6-4.8,19.2-12.3c0.1-0.4,0.4-0.7,0.8-0.8c0.4-0.2,0.8-0.2,1.2,0
	c2.4,1,4.6,2.2,6.7,3.6l0.3-0.7c0.3-0.8,1.1-1.2,1.9-0.9c0.7,0.2,1.2,1,0.9,1.8c0,0,0,0,0,0l-0.6,1.6c3.1,2.5,5.7,5.6,7.8,9v-8.7
	l-5.5-3.1c-0.7-0.4-1.1-1.1-1.1-1.9v-7.4c0-1.2,1.1-2.2,2.3-2.2c1.2,0,2.1,1,2.2,2.2v6.1l4.4,2.4l4.4-2.4v-6.1
	c0.1-1.2,1.1-2.2,2.3-2.1C102,44.4,102.9,45.3,103,46.4L103,46.4z M7.4,75.8h1.4v-4.8H7.4L7.4,75.8L7.4,75.8z M12.8,97.1h-3
	c-0.8,0-1.5-0.6-1.5-1.4c0-0.8,0.6-1.5,1.4-1.5c0,0,0.1,0,0.1,0h3.5v-2.4H9.8c-0.8,0-1.5-0.6-1.5-1.4s0.6-1.5,1.4-1.5
	c0,0,0.1,0,0.1,0h3.5v-2.6H9.8c-0.8,0-1.5-0.6-1.5-1.4s0.6-1.5,1.4-1.5c0,0,0.1,0,0.1,0h3.5c0-0.9-0.3-1.9-0.9-2.6
	c-0.7-0.7-2.2-1.1-4.3-1.1S4.6,80,3.9,80.8C3,81.6,3,83.3,3,85v10c0,2.8,2.3,5,5.1,5C10.1,100,11.9,98.9,12.8,97.1L12.8,97.1z
	 M33.5,75.8c0-0.5-0.4-1-0.9-1c-0.5,0-1,0.4-1,0.9s0.4,1,0.9,1c0,0,0,0,0,0C33,76.7,33.5,76.3,33.5,75.8
	C33.5,75.8,33.5,75.8,33.5,75.8L33.5,75.8z M67.4,89.8c0-0.8-0.7-1.5-1.5-1.4c0,0,0,0,0,0H42c-0.8,0-1.5,0.6-1.5,1.4
	s0.6,1.5,1.4,1.5c0,0,0.1,0,0.1,0h23.9C66.7,91.3,67.4,90.7,67.4,89.8L67.4,89.8z M53.9,76.7c0.5,0,0.9-0.4,0.9-0.9
	c0-0.5-0.4-0.9-0.9-0.9c-0.5,0-0.9,0.4-0.9,0.9C53,76.3,53.4,76.7,53.9,76.7L53.9,76.7z M76.3,75.8c0-0.5-0.4-1-0.9-1
	c-0.5,0-1,0.4-1,0.9s0.4,1,0.9,1c0,0,0,0,0,0C75.9,76.7,76.3,76.3,76.3,75.8L76.3,75.8z M80.6,59.4c-1.7-1.2-3.5-2.3-5.5-3.2
	C71.7,64,63.5,69,53.8,69s-18-5-21.4-12.8c-1.8,0.8-3.6,1.8-5.2,2.9l4.8,13.2h44L80.6,59.4z M98.4,80.8c-0.7-0.7-2.2-1.1-4.3-1.1
	s-3.5,0.4-4.3,1.1c-0.6,0.7-0.9,1.7-0.9,2.6h3.5c0.8,0,1.5,0.6,1.5,1.4s-0.6,1.5-1.4,1.5c0,0-0.1,0-0.1,0H89v2.6h3.5
	c0.8,0,1.5,0.6,1.5,1.4s-0.6,1.5-1.4,1.5c0,0-0.1,0-0.1,0H89v2.4h3.5c0.8,0,1.5,0.6,1.5,1.4c0,0.8-0.6,1.5-1.4,1.5c0,0-0.1,0-0.1,0
	h-3c0.9,1.8,2.7,3,4.7,2.9c2.8,0,5.1-2.2,5.1-5V85C99.3,83.3,99.3,81.6,98.4,80.8L98.4,80.8z M54.8,35.4v7.1h-3.3
	c-0.8,0-1.5,0.6-1.5,1.4c0,0.8,0.6,1.5,1.4,1.5c0,0,0.1,0,0.1,0h4.8c0.8,0,1.5-0.6,1.5-1.4v-8.6c0-0.8-0.7-1.5-1.5-1.5
	C55.5,33.9,54.9,34.6,54.8,35.4L54.8,35.4z"/>
</symbol><symbol id="icon-repair" viewBox="0 0 53 53.1">
<path id="Forma_1" fill="#373B51" d="M14.1,17.4c0-0.5,0.1-2.1,1.2-2.5s2.3,0.7,2.5,0.9c0.3,0.3,0.3,0.7,0,1c0,0,0,0,0,0
	c-0.3,0.3-0.8,0.3-1.1,0c-0.2-0.3-0.5-0.4-0.8-0.6c-0.1,0.4-0.2,0.7-0.2,1.1c-0.1,1.5,0.8,3,2.2,3.6c0.2,0.1,0.4,0.3,0.5,0.5l0,0.1
	c0,0,0,0.1,0,0.1c0.6,7.3,6.6,9.7,9.4,9.7s8.8-2.4,9.4-9.7c0,0,0-0.1,0-0.1l0-0.1c0.1-0.2,0.3-0.4,0.5-0.5c1.4-0.6,2.3-2,2.2-3.6
	c0-0.4,0-0.8-0.2-1.2c-0.3,0.1-0.6,0.3-0.8,0.6c-0.3,0.3-0.8,0.3-1.1,0c-0.3-0.3-0.3-0.7-0.1-1c0,0,0,0,0,0c0.2-0.2,1.4-1.3,2.5-0.9
	s1.2,2,1.2,2.5c0.1,2-1,3.9-2.8,4.8c-0.1,6-5,10.8-11,10.7c-5.9-0.1-10.6-4.8-10.7-10.7C15.1,21.4,14,19.5,14.1,17.4z M16.1,12.5
	C16.1,2.2,24.5,0,27.7,0s11.7,2.2,11.7,12.5c0,0.3-0.2,0.6-0.5,0.7l-1.2,0.4l-1.1,1.1c-0.1,0.2-0.4,0.3-0.6,0.2c0,0,0,0-0.1,0
	c-0.2,0-0.4-0.1-0.6-0.3c0-0.1-1.6-2.1-7.7-2.1c-6.2,0-7.7,2.1-7.7,2.1c-0.1,0.2-0.4,0.3-0.6,0.3c-0.2,0-0.5-0.1-0.6-0.2l-1.1-1.1
	l-1.2-0.4C16.3,13.1,16.1,12.8,16.1,12.5L16.1,12.5z M17.6,11.9l0.8,0.2c0.1,0,0.2,0.1,0.3,0.2l0.6,0.7c1-0.8,3.4-2.1,8.3-2.1
	s7.3,1.3,8.3,2.1l0.6-0.7c0.1-0.1,0.2-0.2,0.3-0.2l0.8-0.2C37.6,1.8,27.8,1.5,27.7,1.5S17.9,1.8,17.6,11.9L17.6,11.9z M19.4,10.1
	c-0.1-0.4,0.1-0.8,0.4-0.9c0,0,0,0,0,0c1.1-0.4,2.2-0.7,3.3-0.9c-0.2-0.6-0.3-1.2-0.5-1.8c-0.1-0.2,0-0.4,0.1-0.6
	c0.1-0.2,0.3-0.3,0.5-0.3c3-0.7,6.1-0.7,9.2,0c0.2,0.1,0.4,0.2,0.5,0.3c0.1,0.2,0.1,0.4,0.1,0.6c-0.2,0.6-0.3,1.2-0.5,1.8
	c1.1,0.2,2.2,0.5,3.3,0.9c0.4,0.1,0.6,0.5,0.5,0.9c0,0,0,0,0,0c-0.1,0.3-0.4,0.5-0.7,0.5c-0.1,0-0.2,0-0.3,0c-4.8-1.7-10-1.7-14.8,0
	C19.9,10.7,19.5,10.5,19.4,10.1L19.4,10.1z M24.6,8c2.1-0.3,4.2-0.3,6.2,0c0.1-0.4,0.2-0.8,0.3-1.2c-2.3-0.5-4.6-0.5-6.9,0
	C24.4,7.3,24.5,7.7,24.6,8L24.6,8z M53,23.9v3.8c0,0.4-0.2,0.8-0.6,1l-2.8,1.6v9.3c0,0,0,0,0,0.1c0.8,0.1,1.5,0.4,2.1,0.9
	c0.7,0.9,1.1,2.1,0.9,3.2V49c-0.1,2.3-2,4.1-4.3,4c-2.2-0.1-4-1.8-4-4v-5.2c-0.2-1.2,0.2-2.3,0.9-3.2c0.6-0.5,1.3-0.8,2.1-0.9
	c0,0,0,0,0-0.1v-1.2c-0.9-2.7-2.4-5-4.6-6.9l-2.1,5.8V53H14.8V37.4l-2.2-6c-2.9,2.2-4.9,5.4-5.4,9c0.1,0.1,0.2,0.1,0.2,0.2
	c0.7,0.9,1.1,2.1,0.9,3.2v5.2c-0.1,2.3-2,4.1-4.3,4c-2.2-0.1-4-1.8-4-4v-5.2c-0.2-1.2,0.2-2.3,0.9-3.2c0.4-0.4,0.9-0.6,1.4-0.8v-3.9
	c0-0.4,0.3-0.7,0.8-0.7c0,0,0,0,0,0h0.5V28c0-0.3,0.3-0.6,0.6-0.6c0.3,0,0.5,0.3,0.6,0.6v7.2h0.6c0.4,0,0.8,0.3,0.8,0.7c0,0,0,0,0,0
	v2.6c1-3.4,3.2-6.4,6.1-8.5l-0.2-0.6c-0.1-0.4,0.1-0.8,0.4-0.9c0,0,0,0,0,0c0.4-0.1,0.8,0.1,1,0.4l0.1,0.2c1.1-0.7,2.2-1.2,3.3-1.7
	c0.2-0.1,0.4-0.1,0.6,0c0.2,0.1,0.3,0.2,0.4,0.4c1.3,3.8,5.2,6.3,9.9,6.3s8.5-2.5,9.9-6.3c0.1-0.2,0.2-0.4,0.4-0.4
	c0.2-0.1,0.4-0.1,0.6,0c1.2,0.5,2.4,1.1,3.5,1.8l0.1-0.4c0.2-0.4,0.6-0.6,1-0.4c0.4,0.1,0.6,0.5,0.5,0.9c0,0,0,0,0,0l-0.3,0.8
	c1.6,1.3,3,2.9,4,4.6v-4.5l-2.8-1.6c-0.4-0.2-0.6-0.6-0.6-1v-3.8c0-0.6,0.5-1.1,1.2-1.1c0.6,0,1.1,0.5,1.1,1.1v3.2l2.2,1.2l2.2-1.2
	v-3.2c0-0.6,0.5-1.2,1.2-1.2C52.5,22.8,53,23.3,53,23.9L53,23.9L53,23.9z M3.8,39.1h0.7v-2.5H3.8V39.1z M6.6,50H5
	c-0.4,0-0.8-0.3-0.8-0.7c0,0,0,0,0,0c0-0.4,0.3-0.8,0.8-0.8h1.8v-1.2H5c-0.4,0-0.7-0.3-0.7-0.7s0.3-0.7,0.7-0.7c0,0,0,0,0,0h1.8
	v-1.4H5c-0.4,0-0.7-0.3-0.7-0.7s0.3-0.7,0.7-0.7c0,0,0,0,0,0h1.8c0-0.5-0.1-1-0.4-1.3c-1.4-0.7-3-0.7-4.4,0
	c-0.4,0.6-0.6,1.4-0.5,2.2V49c0,1.4,1.2,2.6,2.6,2.6C5.2,51.5,6.1,50.9,6.6,50L6.6,50z M17.2,39.1c0-0.3-0.2-0.5-0.5-0.5
	s-0.5,0.2-0.5,0.5c0,0.3,0.2,0.5,0.5,0.5c0,0,0,0,0,0C17,39.5,17.2,39.3,17.2,39.1C17.2,39.1,17.2,39.1,17.2,39.1L17.2,39.1z
	 M34.7,46.3c0-0.4-0.3-0.8-0.8-0.8H21.6c-0.4,0-0.8,0.3-0.8,0.8c0,0.4,0.3,0.7,0.8,0.7c0,0,0,0,0,0h12.3
	C34.3,47,34.7,46.7,34.7,46.3C34.7,46.3,34.7,46.3,34.7,46.3L34.7,46.3z M27.8,39.5c0.3,0,0.5-0.2,0.5-0.5c0-0.3-0.2-0.5-0.5-0.5
	c-0.3,0-0.5,0.2-0.5,0.5C27.3,39.3,27.5,39.5,27.8,39.5C27.8,39.5,27.8,39.5,27.8,39.5L27.8,39.5z M39.3,39.1c0-0.3-0.2-0.5-0.5-0.5
	s-0.5,0.2-0.5,0.5c0,0.3,0.2,0.5,0.5,0.5c0,0,0,0,0,0C39,39.5,39.3,39.3,39.3,39.1C39.3,39.1,39.3,39.1,39.3,39.1L39.3,39.1z
	 M41.5,30.6c-0.9-0.6-1.8-1.2-2.8-1.6c-1.8,4-6,6.6-11,6.6s-9.3-2.6-11-6.6c-0.9,0.4-1.8,0.9-2.7,1.5l2.5,6.8h22.7L41.5,30.6z
	 M50.7,41.6c-1.4-0.7-3-0.7-4.4,0c-0.3,0.4-0.5,0.8-0.4,1.3h1.8c0.4,0,0.7,0.3,0.7,0.7s-0.3,0.7-0.7,0.7c0,0,0,0,0,0h-1.8v1.4h1.8
	c0.4,0,0.7,0.3,0.7,0.7s-0.3,0.7-0.7,0.7c0,0,0,0,0,0h-1.8v1.2h1.8c0.4,0,0.8,0.3,0.8,0.8c0,0.4-0.3,0.7-0.8,0.7c0,0,0,0,0,0h-1.6
	c0.4,0.9,1.4,1.5,2.4,1.5c1.4,0,2.6-1.1,2.6-2.6v-5.2C51.2,43,51.1,42.2,50.7,41.6L50.7,41.6z M28.2,18.2v3.7h-1.7
	c-0.4,0-0.8,0.3-0.8,0.8c0,0.4,0.3,0.7,0.8,0.7c0,0,0,0,0,0H29c0.4,0,0.8-0.3,0.8-0.7c0,0,0,0,0,0v-4.4c0-0.4-0.3-0.8-0.8-0.8
	C28.6,17.4,28.2,17.8,28.2,18.2L28.2,18.2L28.2,18.2z"/>
</symbol><symbol id="icon-saeco" viewBox="0 0 2426.5 546.9">
<g>
	<path d="M575.9,460c44.9,20.8,97.9,31.4,157.4,31.4c55.5,0,100.6-15.7,130.3-45.4c24.4-24.4,37.9-57.8,37.9-93.9
		c0-80.7-67.2-115.4-116.2-140.7C755,195.7,729,182.3,729,164.5c0-5.8,2-10.8,6-14.8c6.3-6.3,17.4-9.8,31.1-9.8
		c31.8,0,64.8,17.5,107.3,56.7l10.4,9.6V70.9l-2.5-1.9c-45.3-34-89.9-49.1-144.7-49.1c-129.6,0-164.2,88.4-164.2,140.6
		c0,85.3,67.3,120.2,116.5,145.7c26.9,13.9,50.1,26,50.1,40.6c0,15.2-14.7,24.6-38.4,24.6c-36.3,0-76.1-14.6-118.5-43.5l-9.7-6.6
		v137L575.9,460z M1290.9,385.2c-34.1-0.6-35.2-6.8-35.2-39.7v-98.3c0-33.7-10.8-61.6-32-82.9c-27.9-27.9-74-43.3-129.6-43.3
		c-63.6,0-116.7,19.2-167.2,60.4l-2.3,1.9v117.1l10-7.6c56.7-43.2,90.7-57.8,134.6-57.8c37.6,0,46.4,11.2,48,33.2
		c-16.2,11-44.3,18.5-74,26.4c-39.5,10.5-80.4,21.3-101.6,42.6c-18.1,18.1-28.1,40.6-28.1,63.4c0,23.4,8.3,44,24,59.7
		c20.3,20.3,52.3,31.1,92.4,31.1c41.8,0,79.4-10.6,112-31.4c21.9,26.8,55.5,34.8,124.5,30.1l4.4-0.3l1.1-4.3l24.9-92.5l2.1-7.7
		L1290.9,385.2z"/>
	<path fill="#FFFFFF" d="M1117.4,339.9c-10.3,5.2-22.2,8.8-33.9,12.4c-33.6,10.3-54,18.4-54,43c0,9.1,3.3,17.4,9.2,23.3
		c5.9,5.9,14.2,9.2,23.3,9.2c19,0,40.8-7.6,57.8-19.9c-1.9-7.9-2.4-16.6-2.4-29.6V339.9z"/>
	<path d="M1658.9,415.1l-24.9-56.4l-3-6.9l-6.2,4.3c-38.4,26.4-71.5,38.2-107.3,38.2c-43.8,0-83-25.7-88.3-56.4h224.9l0.7-5.4
		c7.4-58.5-7.8-112.5-42.7-152c-33.9-38.4-82.4-59.5-136.6-59.5c-105.6,0-185.2,79.1-185.2,183.9c0,49.7,18.5,95.6,52.1,129.2
		c37,37,90.5,57.4,150.8,57.4c68.3,0,125.2-24.1,164.7-69.7l2.6-3L1658.9,415.1z"/>
	<path fill="#FFFFFF" d="M1476.8,209.4c-16,0-29.3,5.1-38.5,14.8c-10.5,11.2-15.4,28.2-15,50.1h106.5
		C1527.8,230.9,1510.5,209.4,1476.8,209.4C1476.8,209.4,1510.5,209.4,1476.8,209.4L1476.8,209.4z"/>
	<path d="M1979,345.7c-37.1,15.6-58.8,21.2-82.8,21.2c-26.7,0-49.2-7.8-63.5-22.1c-10.1-10-15.8-23.7-15.6-37.9
		c0-15.8,5.6-29.7,16.3-40.4c13.5-13.5,34.4-21,58.8-21c27.8,0,54.5,6.3,84,19.8l8.8,4V140.4l-4.2-1.4c-34.9-11.6-75.2-18-113.4-18
		c-136.7,0-199,97-199,187.2c0,49.5,17.4,93.1,50.3,126c36.9,36.9,91.1,57.2,152.6,57.2c38.5,0,66.8-5.6,112.3-22l4.1-1.5V342.1
		L1979,345.7z M2006.2,306.2c0,49.4,18.2,94.8,51.4,127.9c37.5,37.5,92.8,57.3,160.1,57.3c65.7,0,120.2-19.8,157.6-57.2
		c33-33,51.2-78.5,51.2-128.1c0-49.6-18.3-95.2-51.4-128.4c-37.2-37.2-92.1-56.8-158.8-56.8C2071.1,120.9,2006.2,214,2006.2,306.2
		C2006.2,306.2,2006.2,214,2006.2,306.2L2006.2,306.2z"/>
	<path fill="#FFFFFF" d="M2155,306.2c0-17.6,5.8-32.7,16.8-43.7c11.1-11.1,26.5-17,44.5-17s33.4,5.9,44.5,17
		c11,11,16.8,26.1,16.8,43.7c0,36.3-24.6,60.7-61.3,60.7c-18,0-33.4-5.9-44.5-17C2160.8,338.8,2155,323.7,2155,306.2
		C2155,306.2,2155,323.7,2155,306.2L2155,306.2z"/>
	<path d="M85.9,365.9c-14.2-28.7-21.5-60.4-21.5-92.4C64.4,158,158,64.4,273.5,64.4c43.3,0,83.5,13.2,116.9,35.7l67.1-29
		C407.1,25.3,341.5-0.1,273.5,0C122.4,0,0,122.4,0,273.5c0,76.1,31.1,145,81.3,194.6l364.8-157l12.8-105.5L85.9,365.9L85.9,365.9z"/>
	<path d="M469.7,201.3c-1.8-5-3.9-9.9-6.1-14.7L91.3,346.2l12.8-105.5l366.3-157c25.4,26.4,45.3,57.6,58.5,91.8
		c12,31.3,18.1,64.5,18.1,97.9c0,151-122.4,273.5-273.5,273.5C209,547,146.6,524.3,97.4,482.7l68.9-29.7
		c32.4,19.4,69.4,29.6,107.2,29.5c115.5,0,209.1-93.6,209.1-209.1C482.5,248.1,478,223.8,469.7,201.3
		C469.7,201.3,478,223.8,469.7,201.3L469.7,201.3z"/>
</g>
</symbol><symbol id="icon-service-button" viewBox="0 0 33.4 7.8">
<path id="&#x42D;&#x43B;&#x43B;&#x438;&#x43F;&#x441;_1_&#x43A;&#x43E;&#x43F;&#x438;&#x44F;_3" d="M3.9,0C6,0,7.7,1.7,7.7,3.9C7.8,6,6,7.7,3.9,7.7S0,6,0,3.9c0,0,0,0,0,0
	C0,1.7,1.7,0,3.9,0C3.9,0,3.9,0,3.9,0z M16.7,0c2.1,0,3.9,1.7,3.9,3.9c0,2.1-1.7,3.9-3.9,3.9S12.9,6,12.9,3.9c0,0,0,0,0,0
	C12.9,1.7,14.6,0,16.7,0C16.7,0,16.7,0,16.7,0z M29.6,0c2.1,0,3.9,1.7,3.9,3.8s-1.7,3.9-3.8,3.9c-2.1,0-3.9-1.7-3.9-3.8c0,0,0,0,0,0
	C25.7,1.7,27.5,0,29.6,0z"/>
</symbol><symbol id="icon-tools" viewBox="0 0 25.5 26">
<path fill="#EF7424" d="M24.7,2.4l-1.5-1.6c-1-1-2.7-1.1-3.8-0.1l-2.7,2.4c0,0-0.1,0.1-0.1,0.1L14,7.6l-1.7,0.6
	C12.1,8.3,12,8.4,12,8.5c0,0.1,0,0.3,0.1,0.4l4.6,4.7c0.1,0.1,0.2,0.1,0.3,0.1c0,0,0.1,0,0.1,0c0.1,0,0.3-0.1,0.3-0.3l0.6-1.7
	L22.5,9c0,0,0.1-0.1,0.1-0.1l2.3-2.7C25.8,5.1,25.8,3.4,24.7,2.4z M24.2,5.6L22,8.3L17.4,11c-0.1,0.1-0.2,0.1-0.2,0.2l-0.4,1.2
	l-1-1.1l0,0l-1.5-1.6l0,0l-1-1.1l1.2-0.4c0.1,0,0.2-0.1,0.2-0.2l2.7-4.5L20,1.3c0.8-0.7,1.9-0.6,2.6,0.1L24.1,3
	C24.8,3.7,24.9,4.9,24.2,5.6z M23.5,17.8c-1.3-1.3-3.2-1.7-4.9-1.2L9.4,7.2c0.6-1.7,0.1-3.6-1.2-4.9C6.9,0.9,4.8,0.5,3.1,1.2
	C2.8,1.2,2.7,1.5,2.8,1.7c0,0.1,0.1,0.1,0.1,0.1l2.8,2.8L3.8,6.6L1.1,3.8C0.9,3.6,0.8,3.6,0.7,3.6c-0.1,0-0.3,0.1-0.3,0.3
	c-0.7,1.8-0.3,3.8,1.1,5.2c1.3,1.3,3.2,1.8,4.9,1.2l3.5,3.5l-4.3,4.4l-2.7,1.6c-0.1,0-0.1,0.1-0.2,0.2l-1.2,2.5
	c-0.1,0.2-0.1,0.4,0.1,0.5l1.5,1.6c0.1,0.1,0.3,0.2,0.5,0.1l2.5-1.2c0.1,0,0.1-0.1,0.2-0.2l1.5-2.8l4.3-4.4l3.6,3.7
	c-0.6,1.7-0.1,3.6,1.2,4.9c0.9,0.9,2.1,1.4,3.4,1.4c0.6,0,1.2-0.1,1.8-0.3c0.1-0.1,0.2-0.2,0.3-0.3c0-0.1,0-0.3-0.1-0.4l-2.8-2.8
	l1.9-1.9l2.8,2.8c0.2,0.2,0.4,0.2,0.6,0c0,0,0.1-0.1,0.1-0.2C25.3,21.2,24.9,19.1,23.5,17.8z M6.9,19.8c0,0-0.1,0.1-0.1,0.1
	l-1.5,2.7l-2.1,1.1l-1.1-1.1l1-2.1l2.7-1.5c0,0,0.1,0,0.1-0.1l4.4-4.4l0.9,0.9L6.9,19.8z M24,22l-2.6-2.6c-0.2-0.2-0.4-0.2-0.6,0
	l-2.5,2.5c-0.2,0.2-0.2,0.4,0,0.6l2.6,2.6c-1.3,0.3-2.6-0.2-3.5-1.1c-1.1-1.1-1.4-2.8-0.9-4.3c0.1-0.2,0-0.4-0.1-0.5L6.7,9.5
	C6.6,9.4,6.5,9.3,6.4,9.4c-0.1,0-0.1,0-0.2,0C4.8,10,3.1,9.6,2,8.5C1.1,7.5,0.7,6.2,1,4.9l2.6,2.6c0.2,0.2,0.4,0.2,0.6,0L6.6,5
	c0.2-0.2,0.2-0.4,0-0.6L4,1.8c1.3-0.3,2.6,0.2,3.5,1.1C8.7,4,9,5.7,8.5,7.1c-0.1,0.2,0,0.3,0.1,0.5l9.7,9.8c0.1,0.1,0.3,0.2,0.5,0.1
	c1.5-0.6,3.1-0.2,4.2,0.9C23.8,19.3,24.2,20.7,24,22z"/>
</symbol><symbol id="icon-unox" viewBox="0 0 2272.6 489.5">
<g>
	<path fill="#C8C8C8" d="M1421.9,387.6c-107.6,0-159.3-70-159.3-149.1c0-78.4,53.4-149.1,159.3-149.1
		c105.8,0,159.2,70.7,159.2,149.1C1581.1,317.7,1529.4,387.6,1421.9,387.6L1421.9,387.6z M1421.9,477.1
		c173.5,0,291.4-104.4,291.4-238.6C1713.3,107,1592.1,0,1421.9,0c-172.8,0-291.4,103.7-291.4,238.6
		C1130.5,372.8,1249.9,477.1,1421.9,477.1z M0,60.1C0,27.7,27.1,9.5,63.5,9.5s63.6,18.2,63.6,50.6v226.2
		c0,59.7,50,106.9,130.4,106.9c77,0,129.6-49.9,129.6-106.9V60.1c0-32.4,27.1-50.6,63.5-50.6c36.4,0,63.5,18.2,63.5,50.6v231.4
		c0,108.9-116.9,191.3-256.6,191.3C116.1,482.7,0,401.7,0,291.5L0,60.1L0,60.1z M571.7,60.1c0-32.4,27.1-50.6,63.5-50.6
		c16.1,0,42.3,9.7,53.4,21.4l268.5,274.2h1.7v-245c0-32.4,27.1-50.6,63.5-50.6c36.4,0,63.5,18.2,63.5,50.6v368.1
		c0,32.5-27.1,50.6-63.5,50.6c-16.1,0-41.5-9.8-53.3-21.3l-268.5-271h-1.7v241.7c0,32.5-27.1,50.6-63.5,50.6
		c-36.4,0-63.5-18.2-63.5-50.6V60.1z"/>
	<path fill="#C8C8C8" d="M1943.1,238.7L1805.9,96.1c-8.6-8.4-13.6-18.1-13.6-28.5c0-28.5,27.9-47.3,64.4-47.3
		c21.2,0,43.2,11.1,55,24l105.1,114.1l105-114.1c11.9-12.9,33.9-24,55-24c36.5,0,64.4,18.8,64.4,47.3c0,10.4-5,20.1-13.5,28.5
		l-137.2,142.6l167.6,172.4c6.8,7.1,14.4,19.5,14.4,33.1c0,27.2-27.1,45.3-64.4,45.3c-22.8,0-39.8-7.8-52.5-21.4l-138.9-147.8
		l-138.9,147.8c-12.8,13.6-29.6,21.4-52.5,21.4c-37.3,0-64.4-18.1-64.4-45.3c0-13.6,7.7-26,14.4-33.1L1943.1,238.7L1943.1,238.7z"/>
</g>
</symbol></svg>