<svg xmlns="http://www.w3.org/2000/svg"><symbol id="YouTube" viewBox="0 0 553.102 553.102"><path d="M333.087 326.967c-8.641 0-16.805 4.799-24.485 14.4v-57.98h-24.125v177.529h24.125v-12.969c7.919 9.848 16.077 14.768 24.485 14.768 9.842 0 16.2-5.037 19.083-15.123 1.677-5.049 2.521-13.801 2.521-26.291v-52.576c0-12.719-.845-21.604-2.521-26.641-2.883-10.086-9.241-15.117-19.083-15.117zm-2.16 96.138c0 11.775-3.482 17.639-10.446 17.639-4.082 0-8.042-1.916-11.879-5.752v-80.668c3.837-3.826 7.797-5.754 11.879-5.754 6.958 0 10.446 6.004 10.446 18.006v56.529zM409.422 326.967c-12.24 0-21.849 4.572-28.807 13.686-4.804 6.469-7.203 16.811-7.203 30.961v46.463c0 14.162 2.521 24.473 7.564 30.961 6.958 9.131 16.683 13.684 29.168 13.684 12.724 0 22.325-4.797 28.807-14.406 2.883-4.32 4.682-9.113 5.404-14.406.477-3.348.716-8.525.716-15.49v-3.236h-24.486v7.734c0 2.515-.062 4.498-.178 5.949-.122 1.432-.177 2.277-.177 2.516-1.438 6.248-5.043 9.352-10.802 9.352-8.165 0-12.24-6.121-12.24-18.354v-23.41h47.889V371.61c0-13.912-2.521-24.236-7.559-30.963-6.486-9.108-15.85-13.68-28.096-13.68zm11.524 52.211h-23.765v-12.254c0-12.238 3.96-18.354 11.88-18.354 7.925 0 11.885 6.121 11.885 18.354v12.254zM239.818 429.588c-5.281 7.441-10.324 11.156-15.123 11.156-3.366 0-5.165-1.799-5.397-5.404-.245-.465-.361-3.598-.361-9.352v-97.223h-23.764v104.426c0 9.131.722 15.6 2.16 19.438 2.161 6.738 7.203 10.086 15.123 10.086 8.88 0 18.005-5.404 27.369-16.205v14.406h24.125v-132.15h-24.125v100.822h-.007zM271.153 193.013c7.681 0 11.524-6.132 11.524-18.372v-56.182c0-12.479-3.843-18.721-11.524-18.721-7.687 0-11.524 6.242-11.524 18.721v56.182c0 12.239 3.837 18.372 11.524 18.372zM108.03 308.596h28.085v152.32h26.647v-152.32h28.806v-25.209H108.03z"/><path d="M449.398 0H103.71C75.142 0 50.717 10.153 30.429 30.422 10.141 50.723 0 75.142 0 103.709v345.683c0 28.566 10.141 52.998 30.429 73.268 20.282 20.281 44.707 30.441 73.281 30.441h345.688c28.562 0 52.986-10.154 73.274-30.441 20.281-20.27 30.429-44.701 30.429-73.268V103.709c0-28.568-10.147-52.987-30.429-73.287C502.385 10.153 477.96 0 449.398 0zM326.606 79.939h24.125v97.938c0 5.765.122 8.892.361 9.37.238 3.855 2.16 5.765 5.759 5.765 4.798 0 9.841-3.715 15.122-11.169V79.939h24.125v133.232h-24.125v-14.406c-9.847 10.802-19.088 16.206-27.729 16.206-7.687 0-12.846-3.237-15.483-9.719-1.438-4.32-2.16-10.918-2.16-19.804V79.939h.005zm-91.108 43.208c0-13.911 2.521-24.364 7.564-31.322 6.481-9.113 15.845-13.685 28.085-13.685 11.756 0 21.12 4.572 28.084 13.685 5.043 6.964 7.559 17.411 7.559 31.322v46.812c0 14.4-2.521 24.854-7.559 31.322-6.965 9.131-16.328 13.685-28.084 13.685-12.24 0-21.604-4.56-28.085-13.685-5.043-6.946-7.564-17.387-7.564-31.322v-46.812zm-64.811-88.936l19.088 70.215 18.36-70.215h27.008l-32.406 106.592v72.369h-26.646v-72.369c-2.644-13.207-8.164-32.167-16.566-56.897-1.683-5.514-4.45-13.801-8.287-24.853a18409.954 18409.954 0 0 1-8.642-24.841h28.091zm296.716 434.623c-2.405 10.338-7.51 19.09-15.307 26.293-7.803 7.203-16.866 11.406-27.185 12.6-32.89 3.6-82.345 5.404-148.355 5.404-66.023 0-115.472-1.799-148.355-5.404-10.325-1.193-19.388-5.402-27.185-12.6-7.803-7.203-12.907-15.949-15.3-26.293-4.804-20.158-7.203-51.371-7.203-93.623 0-41.523 2.399-72.736 7.203-93.623 2.399-10.551 7.503-19.37 15.3-26.458 7.797-7.087 16.983-11.224 27.546-12.436 32.644-3.599 81.978-5.404 148-5.404 66.255 0 115.705 1.799 148.355 5.404 10.324 1.212 19.449 5.343 27.368 12.436 7.926 7.087 13.085 15.906 15.484 26.458 4.559 19.932 6.842 51.133 6.842 93.623-.01 42.252-2.41 73.465-7.208 93.623z"/></symbol><symbol id="facebook" viewBox="0 0 455.73 455.73"><path d="M0 0v455.73h242.704V279.691h-59.33v-71.864h59.33v-60.353c0-43.893 35.582-79.475 79.475-79.475h62.025v64.622h-44.382c-13.947 0-25.254 11.307-25.254 25.254v49.953h68.521l-9.47 71.864h-59.051V455.73H455.73V0H0z"/></symbol><symbol id="instagram" viewBox="0 0 438.536 438.536"><path d="M421.981 16.562C410.941 5.519 397.711 0 382.298 0H56.248C40.83 0 27.604 5.521 16.561 16.562 5.52 27.6.001 40.828.001 56.243V382.29c0 15.413 5.518 28.644 16.56 39.683 11.043 11.04 24.272 16.563 39.687 16.563h326.046c15.41 0 28.644-5.523 39.684-16.563 11.043-11.039 16.557-24.27 16.557-39.683V56.243c-.001-15.418-5.514-28.639-16.554-39.681zM157.462 158.025c17.224-16.652 37.924-24.982 62.097-24.982 24.36 0 45.153 8.33 62.381 24.982 17.228 16.655 25.837 36.785 25.837 60.386 0 23.598-8.609 43.729-25.837 60.379-17.228 16.659-38.014 24.988-62.381 24.988-24.172 0-44.87-8.336-62.097-24.988-17.228-16.652-25.841-36.781-25.841-60.379 0-23.601 8.613-43.73 25.841-60.386zm231.403 212.564c0 4.945-1.718 9.083-5.141 12.416-3.433 3.33-7.519 4.996-12.282 4.996h-305.2c-4.948 0-9.091-1.666-12.419-4.996-3.333-3.326-4.998-7.471-4.998-12.416V185.575H89.08c-3.805 11.993-5.708 24.462-5.708 37.402 0 36.553 13.322 67.715 39.969 93.511 26.65 25.786 58.721 38.685 96.217 38.685 24.744 0 47.583-5.903 68.527-17.703 20.937-11.807 37.486-27.839 49.676-48.112 12.183-20.272 18.274-42.4 18.274-66.38 0-12.94-1.91-25.406-5.715-37.402h38.547V370.59h-.002zm0-254.963c0 5.52-1.903 10.184-5.716 13.99-3.805 3.809-8.466 5.711-13.989 5.711h-49.676c-5.517 0-10.185-1.903-13.99-5.711-3.806-3.806-5.708-8.47-5.708-13.99V68.522c0-5.33 1.902-9.945 5.708-13.848 3.806-3.901 8.474-5.854 13.99-5.854h49.676c5.523 0 10.185 1.952 13.989 5.854 3.812 3.903 5.716 8.518 5.716 13.848v47.104z" fill="#282f39"/></symbol></svg>