<?xml version="1.0" encoding="utf-8"?>
<!-- Generator: Adobe Illustrator 21.1.0, SVG Export Plug-In . SVG Version: 6.00 Build 0)  -->
<svg version="1.1" id="Gears" xmlns="http://www.w3.org/2000/svg" xmlns:xlink="http://www.w3.org/1999/xlink" x="0px" y="0px"
	 viewBox="0 0 146 106" enable-background="new 0 0 146 106" xml:space="preserve">
<path id="Forma_1" fill="#FDFCFC" d="M37.4,37.3c0.3-0.3,0.6-0.6,0.8-0.9c3.9-5,3-12.2-1.9-16.1c-4.6-3.6-11.1-3.2-15.2,1
	c-0.3,0.3-0.6,0.6-0.8,0.9l0,0c-3.9,5-3,12.2,1.9,16.1C26.8,41.9,33.3,41.4,37.4,37.3z M22.1,36.5c-4-3.9-4-10.3-0.1-14.3
	c3.9-4,10.3-4,14.3-0.1c3.7,3.6,4,9.4,0.8,13.4c-0.2,0.3-0.5,0.6-0.7,0.8C32.5,40.3,26.1,40.4,22.1,36.5L22.1,36.5z M16.5,56.2
	c0.1,0,0.1,0.1,0.2,0.1l0.1,0c1.2,0.4,3,1,5.2,1.8c0.1,0,0.1,0,0.2,0.1s0.1,0,0.2,0.1c0.7,0.4,1.6,0.2,2.2-0.4
	c0.1-0.1,0.2-0.3,0.3-0.5c0.3-0.8,0.8-2.1,1.4-3.9c3.1,0.4,6.3,0.2,9.4-0.7c1.7,3.5,1.7,3.5,1.8,3.6c0.1,0.1,0.1,0.2,0.2,0.3
	c0.6,0.5,1.6,0.6,2.2,0c0.1-0.1,1-0.5,2.7-1.3l0.4-0.2c1.3-0.6,2.3-1.1,2.4-1.1c1.2-0.5,1.6-1.2,1.3-2.1c0-0.1-0.1-0.2-1.8-3.9
	c1.4-1.1,2.6-2.3,3.7-3.7c0,0,0.1-0.1,0.1-0.1c0.6-0.8,1.2-1.6,1.7-2.4c4,1.4,4.1,1.4,4.2,1.4c0.6,0.1,1.1-0.1,1.5-0.5
	c0.2-0.3,0.4-0.6,0.5-1c0-0.1,0.5-1.3,1-2.9c0.7-2.1,1-2.8,1-2.9c0.6-1.5-0.1-2.1-0.6-2.4c-0.1,0-0.1-0.1-4.2-1.5
	c0.4-2.9,0.2-5.9-0.5-8.8c3.8-1.9,3.9-1.9,3.9-2c0.1-0.1,0.2-0.2,0.3-0.3c0.4-0.7,0.4-1.5-0.1-2.1c-0.1-0.1-0.5-1-1.4-2.7
	c-0.9-1.9-1.3-2.6-1.3-2.7c-0.7-1.5-1.6-1.4-2.1-1.3c-0.1,0-0.2,0.1-3.9,1.9c-1.8-2.3-4-4.3-6.5-5.8c1.4-4,1.4-4.1,1.4-4.2
	c0.1-0.5,0-1.5-1.5-1.9c-0.1,0-0.9-0.3-2.9-1c-1.9-0.7-2.8-1-2.9-1c-1.2-0.5-1.9-0.1-2.2,0.3c-0.1,0.1-0.1,0.2-0.2,0.3
	c0,0.1-0.1,0.2-1.5,4.2c-2.6-0.3-5.3-0.2-7.9,0.3l-1.9-4.1c-0.3-0.7-1.2-1.3-2.5-0.6l-0.1,0l-0.2,0.1c-2.2,1-3.9,1.8-5,2.4
	c-0.1,0-0.2,0.1-0.3,0.1c-0.4,0.2-0.7,0.4-0.9,0.7C13,4.4,12.9,5,13.2,5.6c0.3,0.7,0.8,1.7,1.4,3L15,9.4c-2.7,1.9-5,4.4-6.7,7.2
	l-3.9-1.3c-0.6-0.2-1.4,0-1.8,0.5c-0.2,0.2-0.3,0.5-0.4,0.8l-0.1,0.3L1,20l-0.8,2.2c0,0.1,0,0.1-0.1,0.2l0,0.1
	c-0.3,0.7-0.2,1.5,0.3,2.1c0.2,0.2,0.4,0.3,0.6,0.4c0.8,0.3,2.2,0.7,3.9,1.3c-0.4,3.1-0.2,6.2,0.6,9.2l-3.7,1.9
	c-0.2,0.1-0.4,0.3-0.6,0.4c-0.4,0.6-0.4,1.4,0,2.1l0.2,0.3C2,41.2,2.8,42.9,3.9,45c0,0.1,0.1,0.2,0.2,0.3c0.2,0.3,0.4,0.6,0.7,0.9
	c0.5,0.4,1.2,0.5,1.7,0.2l0.5-0.2c0.8-0.4,1.9-1,3.3-1.6c1.1,1.4,2.4,2.6,3.8,3.8c0.8,0.6,1.6,1.2,2.5,1.7c-0.5,1.5-1,2.7-1.2,3.6
	l-0.1,0.3c-0.2,0.6-0.1,1.3,0.4,1.7C15.9,55.9,16.2,56,16.5,56.2L16.5,56.2z M16.5,54.6c-0.1-0.1-0.1-0.2-0.1-0.3l0.1-0.3
	c0.3-0.9,0.8-2.3,1.4-4.1c0.1-0.3,0-0.6-0.3-0.8c-1-0.6-1.9-1.2-2.8-1.9c-1.5-1.2-2.8-2.5-3.9-4c-0.2-0.3-0.5-0.3-0.8-0.2
	c-1.6,0.8-2.9,1.4-3.8,1.9l-0.5,0.2c-0.1,0.1-0.2,0-0.3,0c-0.1-0.1-0.2-0.3-0.3-0.4c0-0.1-0.1-0.2-0.1-0.3c-1.1-2.1-1.9-3.8-2.5-4.9
	l-0.2-0.3c-0.1-0.2-0.2-0.4-0.1-0.6c0,0,0.1-0.1,0.1-0.1c0.9-0.4,2.3-1.2,4.2-2.1C7,36.2,7.1,35.9,7,35.6c-0.9-3.2-1.1-6.5-0.7-9.7
	c0-0.3-0.1-0.6-0.4-0.7l-0.2-0.1c-1.9-0.7-3.3-1.2-4.2-1.5c0,0-0.1,0-0.1-0.1c-0.1-0.2-0.1-0.5,0-0.7l0-0.1c0-0.1,0.1-0.2,0.1-0.2
	l0.7-2.1c0.4-1.3,0.8-2.3,1.1-3.1L3.5,17c0-0.2,0.1-0.3,0.2-0.4c0-0.1,0.2-0.2,0.3-0.1c0,0,0,0,0,0L8.4,18c0.3,0.1,0.6,0,0.7-0.2
	c0,0,0-0.1,0.1-0.1c1.7-3,4.1-5.6,7-7.6c0.3-0.2,0.4-0.5,0.2-0.8L15.8,8c-0.6-1.3-1.1-2.3-1.4-3c-0.1-0.1,0-0.2,0-0.2
	c0.1-0.1,0.3-0.2,0.4-0.3c0.1,0,0.2-0.1,0.3-0.1c1.1-0.5,2.9-1.4,5-2.4l0.2-0.1l0.1,0c0.6-0.3,0.7-0.1,0.7,0l2.2,4.6
	c0.1,0.3,0.4,0.4,0.8,0.4c2.8-0.6,5.6-0.7,8.4-0.3c0.3,0,0.6-0.1,0.7-0.4c1.1-3,1.5-4.3,1.6-4.5c0,0,0,0,0,0c0.2-0.1,0.5,0,0.7,0.1
	c0.1,0.1,1.6,0.6,2.9,1c1,0.4,2.8,1,2.9,1c0.6,0.2,0.6,0.3,0.6,0.4c-0.1,0.2-0.6,1.8-1.6,4.5c-0.1,0.3,0,0.6,0.3,0.8
	c2.7,1.6,5.1,3.7,6.9,6.2c0.2,0.3,0.5,0.3,0.8,0.2c3.3-1.6,4.1-2,4.2-2.1c0,0,0.2-0.1,0.5,0.5c0.1,0.1,0.8,1.6,1.4,2.8
	c1.2,2.3,1.3,2.7,1.4,2.8c0.1,0.2,0.2,0.4,0.2,0.6c0,0,0,0,0,0c-0.3,0.2-3.2,1.6-4.3,2.1c-0.3,0.1-0.4,0.5-0.3,0.8
	c0.8,3,1,6.2,0.6,9.3c0,0.3,0.1,0.6,0.4,0.7c1.2,0.4,4.2,1.5,4.5,1.6c0.1,0,0.1,0.1-0.1,0.7c-0.1,0.2-0.7,2.1-1,2.9
	c-0.7,2.1-1,2.8-1,2.9c0,0.2-0.1,0.4-0.2,0.5c0,0.1-0.1,0.1-0.1,0.1c-0.2-0.1-1.7-0.6-4.6-1.5c-0.3-0.1-0.6,0-0.8,0.3
	c-0.6,1-1.2,1.9-1.9,2.8c0,0-0.1,0.1-0.1,0.1c-1.1,1.4-2.4,2.6-3.8,3.7c-0.2,0.2-0.3,0.5-0.2,0.8c1.4,2.9,1.9,4.1,2,4.2
	c0,0,0,0.1,0,0.1c-0.1,0.1-0.3,0.3-0.5,0.3c-0.1,0-0.6,0.3-2.5,1.1L42,54.2c-2.7,1.3-2.8,1.3-2.8,1.3c-0.2,0.2-0.4,0.2-0.7,0.2
	c0,0,0,0,0,0c-0.2-0.3-1.5-3.1-1.9-4c-0.1-0.3-0.5-0.4-0.8-0.4c-3.2,1-6.6,1.2-9.9,0.7c-0.3,0-0.6,0.1-0.7,0.4
	c-0.7,2-1.2,3.5-1.5,4.4c0,0,0,0.1,0,0.1c-0.2,0.1-0.5,0.1-0.7,0c-0.1,0-0.1,0-0.2-0.1s-0.1,0-0.2-0.1c-2.3-0.8-4.1-1.4-5.2-1.8
	l-0.1,0c-0.1,0-0.2-0.1-0.3-0.1C16.8,54.8,16.6,54.7,16.5,54.6z M27.4,13.3c0.5-0.1,0.9-0.1,1.4-0.1c0,0,0.1,0,0.1,0h0.1
	c0.4,0,0.8,0,1.2,0l0.1,0c0,0,0,0,0.1,0c2.9,0.2,5.7,1.1,8.1,2.8l0,0c0,0,0,0,0,0c4.6,3.2,7.1,8.5,6.8,14.1c0,0.4,0.3,0.7,0.6,0.7
	s0.7-0.3,0.7-0.6c0.4-6-2.4-11.8-7.4-15.3l0,0c0,0-0.1-0.1-0.1-0.1c-2.6-1.8-5.6-2.8-8.7-3c0,0-0.1,0-0.1,0h-0.1h0
	c-0.5,0-0.9,0-1.4,0h-0.1c-0.1,0-0.1,0-0.2,0c-0.5,0-0.9,0.1-1.4,0.1h-0.1c-0.2,0-0.4,0.1-0.5,0.2c0,0-0.1,0.1-0.1,0.1
	c-0.1,0.2-0.1,0.5,0,0.7l0,0C26.8,13.2,27,13.3,27.4,13.3L27.4,13.3z"/>
<path id="Forma_1_копия_3" fill="#FDFCFC" d="M84.3,66.5c2.7,9.1,12.4,14.3,21.5,11.6c4.2-1.3,7.8-4.1,10-7.9
	c2.3-3.9,2.8-8.5,1.6-12.8c-0.2-0.6-0.4-1.2-0.6-1.7l0,0c-3.7-8.8-13.8-12.9-22.6-9.3c-3.5,1.5-6.4,4-8.3,7.3
	C83.6,57.6,83.1,62.2,84.3,66.5z M96.8,47.6c7.4-2.1,15.2,1.7,18.1,8.8c0.2,0.5,0.4,1,0.5,1.5c1.1,3.8,0.6,7.9-1.4,11.3
	c-4.1,7.3-13.3,9.9-20.6,5.8c-3.5-2-6.1-5.2-7.2-9.1c-1.1-3.8-0.6-7.9,1.4-11.3C89.6,51.2,92.9,48.7,96.8,47.6L96.8,47.6z
	 M75.3,26.1c-0.1,0.1-0.2,0.1-0.3,0.2l-0.1,0.1c-1.4,1.2-3.6,3.1-6.3,5.4c-0.1,0.1-0.2,0.1-0.2,0.2c-0.1,0-0.1,0.1-0.2,0.2
	c-1.5,1.3-1.3,2.5-1.1,3.1c0.1,0.3,0.3,0.5,0.4,0.7c0.8,1,2.2,2.5,4,4.6c-2.9,3.7-4.9,8-6.1,12.5c-5.8-0.4-5.9-0.4-6-0.4
	c-0.2,0-0.3,0-0.5,0.1c-1.1,0.3-1.7,1.2-1.7,2.8c0,0.2-0.1,1.7-0.3,4.5l0,0.6c-0.2,2-0.3,3.7-0.3,3.9c-0.2,1.8,0.4,2.9,1.7,3.2
	c0.1,0,0.3,0.1,6.5,0.5c0.4,2.5,1.1,5,2.1,7.4c0,0.1,0.1,0.1,0.1,0.2c0.5,1.3,1.2,2.6,1.9,3.9c-4.8,4.1-4.9,4.3-5,4.3
	c-0.6,0.6-0.7,1.5-0.4,2.3c0.2,0.5,0.5,1,0.9,1.3c0.1,0.1,1.4,1.6,3,3.4c2.2,2.5,2.9,3.3,3,3.4c1.5,1.9,2.9,1.4,3.6,1
	c0.1-0.1,0.2-0.1,5-4.2c3.6,2.6,7.6,4.6,11.9,5.7c-0.4,6.2-0.4,6.3-0.4,6.5c0,0.2,0.1,0.5,0.2,0.7c0.4,1,1.3,1.4,2.8,1.5
	c0.2,0,1.7,0.1,4.5,0.2c3.1,0.2,4.4,0.3,4.5,0.3c2.4,0.2,3.1-1,3.2-1.8c0-0.1,0.1-0.3,0.4-6.4c4.4-0.6,8.6-2,12.4-4.1
	c4.2,4.7,4.3,4.8,4.4,4.9c0.6,0.5,1.9,1.1,3.6-0.5c0.1-0.1,1-0.9,3.4-3c2.3-2,3.4-2.9,3.4-2.9c1.6-1.2,1.6-2.3,1.3-3.1
	c-0.1-0.2-0.1-0.3-0.2-0.4c-0.1-0.1-0.2-0.2-4.3-4.9c2.4-3.1,4.2-6.6,5.5-10.3l6.8,0.5c1.2,0.1,2.5-0.6,2.7-2.8l0-0.1
	c0-0.1,0-0.2,0-0.4c0.3-3.5,0.5-6.3,0.7-8.2c0-0.2,0-0.3,0-0.5c0.1-0.6,0-1.1-0.2-1.7c-0.3-0.8-1.1-1.4-2-1.4
	c-1.1-0.1-2.8-0.2-5-0.4l-1.3-0.1c-0.5-4.9-2-9.6-4.4-13.8l4.6-4c0.8-0.6,1.1-1.7,0.6-2.7c-0.2-0.4-0.4-0.8-0.8-1.2l-0.3-0.4
	c-0.8-0.9-1.9-2.1-3.2-3.6l-2.3-2.5c-0.1-0.1-0.1-0.2-0.2-0.2l-0.1-0.1c-0.6-0.9-1.8-1.4-2.9-1.1c-0.4,0.1-0.7,0.3-1,0.5
	c-1,0.8-2.6,2.2-4.6,4c-3.7-2.8-8-4.8-12.5-5.9c0.2-2.7,0.3-4.8,0.4-6.1c0-0.4,0-0.7-0.2-1c-0.5-1-1.5-1.6-2.7-1.6l-0.5,0
	c-1.9-0.1-4.7-0.3-8.3-0.5c-0.2,0-0.4,0-0.5,0c-0.6,0-1.1,0-1.6,0.2c-0.9,0.3-1.5,1.1-1.5,2l-0.1,0.8c-0.1,1.3-0.2,3.2-0.3,5.4
	c-2.6,0.4-5.2,1.1-7.7,2.1c-1.4,0.6-2.8,1.2-4.1,1.9c-1.6-1.8-2.8-3.2-3.7-4.2L79.2,26c-0.6-0.7-1.6-1-2.5-0.7
	C76.2,25.4,75.7,25.7,75.3,26.1z M77.3,27.2c0.1-0.1,0.3,0,0.4,0.1l0.3,0.4c1,1.1,2.4,2.7,4.2,4.8c0.3,0.4,0.8,0.4,1.3,0.2
	c1.5-0.8,3-1.6,4.6-2.2c2.6-1,5.3-1.7,8.1-2.1c0.5-0.1,0.8-0.4,0.9-0.9c0.2-2.6,0.3-4.7,0.4-6.2l0.1-0.8c0-0.2,0.1-0.3,0.2-0.3
	C98,20,98.3,20,98.6,20c0.1,0,0.3,0,0.5,0c3.6,0.2,6.4,0.4,8.3,0.5l0.5,0c0.3,0,0.7,0.1,0.9,0.3c0,0.1,0,0.1,0,0.2
	c-0.1,1.4-0.2,3.8-0.4,6.9c0,0.5,0.3,0.9,0.8,1c4.8,1.1,9.3,3.3,13.2,6.3c0.4,0.3,0.9,0.3,1.3,0l0.2-0.2c2.3-1.9,4-3.4,5.1-4.3
	c0.1,0,0.1-0.1,0.2-0.1c0.3,0,0.6,0.2,0.8,0.5l0.1,0.1c0.1,0.1,0.2,0.2,0.2,0.3l2.2,2.5c1.3,1.5,2.4,2.7,3.2,3.6l0.3,0.4
	c0.2,0.2,0.3,0.4,0.4,0.6c0.1,0.1,0.1,0.3-0.1,0.4c0,0,0,0,0,0l-5.3,4.5c-0.3,0.3-0.4,0.7-0.3,1.1c0,0,0,0.1,0.1,0.1
	c2.6,4.4,4.2,9.4,4.6,14.5c0,0.5,0.4,0.9,0.9,0.9l2.2,0.2c2.2,0.2,3.9,0.3,5,0.4c0.1,0,0.3,0.1,0.3,0.2c0.1,0.3,0.1,0.5,0.1,0.8
	c0,0.1,0,0.4,0,0.5c-0.2,1.9-0.4,4.6-0.7,8.1c0,0.1,0,0.3,0,0.4l0,0.1c-0.1,1-0.4,1-0.5,0.9l-7.6-0.6c-0.5,0-0.9,0.3-1,0.7
	c-1.2,4-3.2,7.8-5.9,11c-0.3,0.4-0.3,0.9,0,1.3c3.2,3.6,4.5,5.1,4.7,5.4c0,0,0,0,0,0.1c-0.1,0.3-0.3,0.6-0.7,0.8
	c-0.2,0.1-1.9,1.6-3.5,3c-1.2,1.1-3.3,2.8-3.5,3c-0.6,0.6-0.8,0.5-0.9,0.5c-0.3-0.3-1.9-2.1-4.7-5.3c-0.3-0.4-0.8-0.4-1.3-0.2
	c-4.1,2.3-8.6,3.8-13.2,4.4c-0.5,0.1-0.8,0.4-0.9,0.9c-0.3,5.4-0.4,6.8-0.5,6.9c0,0.1-0.1,0.3-1,0.2c-0.2,0-2.6-0.2-4.6-0.3
	c-3.9-0.2-4.5-0.2-4.6-0.3c-0.3,0.1-0.7,0-1-0.2c0,0,0,0,0-0.1c0-0.5,0.3-5.2,0.4-7c0-0.5-0.3-0.9-0.7-1c-4.6-1.2-8.8-3.2-12.6-6.1
	c-0.4-0.3-0.9-0.3-1.3,0c-1.4,1.2-5,4.3-5.5,4.6c-0.1,0-0.3,0.1-0.9-0.6c-0.2-0.2-2.2-2.5-3-3.5c-2.2-2.5-2.9-3.3-3.1-3.4
	c-0.2-0.2-0.4-0.4-0.5-0.7c-0.1-0.1,0-0.2,0-0.2c0.3-0.2,2-1.8,5.4-4.7c0.4-0.3,0.5-0.8,0.2-1.2c-0.9-1.4-1.6-3-2.2-4.5
	c0-0.1-0.1-0.1-0.1-0.2c-1-2.4-1.6-5-2-7.6c-0.1-0.5-0.5-0.8-0.9-0.8c-4.9-0.4-6.8-0.5-7-0.6c-0.1,0-0.1,0-0.2-0.1
	c-0.1-0.3-0.1-0.6,0-0.9c0-0.2,0.1-0.9,0.3-4l0-0.6c0.3-4.3,0.3-4.5,0.3-4.6c-0.1-0.4,0-0.7,0.3-1c0,0,0,0,0.1,0
	c0.5,0,5.1,0.4,6.6,0.5c0.5,0,0.9-0.3,1.1-0.8c1.2-4.8,3.4-9.3,6.5-13.2c0.3-0.4,0.3-0.9,0-1.3c-2-2.3-3.6-4.1-4.6-5.2
	c0,0-0.1-0.1-0.1-0.1c0-0.3,0.2-0.6,0.5-0.8c0.1-0.1,0.1-0.1,0.2-0.2c0.1-0.1,0.1-0.1,0.2-0.2c2.7-2.3,4.9-4.2,6.3-5.4l0.1-0.1
	c0.1-0.1,0.2-0.2,0.3-0.3C76.8,27.4,77,27.3,77.3,27.2L77.3,27.2z M123.1,71.3c-0.3,0.7-0.6,1.3-0.9,1.8c0,0-0.1,0.1-0.1,0.1
	l-0.1,0.1c-0.3,0.5-0.6,1.1-0.9,1.6c0,0,0,0,0,0.1s0,0-0.1,0.1c-1.2,1.8-2.6,3.4-4.3,4.8c-1.7,1.4-3.5,2.6-5.5,3.5l0,0
	c0,0,0,0-0.1,0c-7.6,3.5-16.4,2.9-23.5-1.6c-0.5-0.3-1.1-0.2-1.4,0.3c-0.3,0.4-0.2,1.1,0.3,1.4c0,0,0,0,0,0
	c7.6,4.9,17.2,5.5,25.4,1.8l0,0c0.1,0,0.1-0.1,0.2-0.1c2.1-1,4.1-2.3,5.8-3.8c1.7-1.5,3.3-3.2,4.5-5.1c0,0,0.1-0.1,0.1-0.1
	c0,0,0,0,0-0.1l0,0c0.4-0.6,0.7-1.1,1-1.7l0.1-0.1c0-0.1,0.1-0.2,0.1-0.2c0.3-0.6,0.6-1.2,0.9-1.9c0,0,0-0.1,0-0.1
	c0.1-0.3,0.1-0.7-0.1-1c-0.2-0.3-0.5-0.5-0.9-0.4h0C123.6,70.6,123.3,70.9,123.1,71.3C123.1,71.3,123.1,71.3,123.1,71.3z"/>
</svg>
