<svg version="1.1" id="Gears" xmlns="http://www.w3.org/2000/svg" xmlns:xlink="http://www.w3.org/1999/xlink" x="0px" y="0px"
   viewBox="0 0 217 158" enable-background="new 0 0 217 158" xml:space="preserve" width="339" height="247">
<path id="Forma_1" fill="#FDFCFC" d="M55.5,55.6c0.4-0.4,0.8-0.9,1.2-1.4c5.8-7.4,4.6-18.1-2.7-23.9c-6.8-5.4-16.6-4.8-22.7,1.4
  c-0.4,0.4-0.8,0.9-1.2,1.4l0,0c-5.8,7.4-4.6,18.1,2.7,23.9C39.6,62.4,49.4,61.8,55.5,55.6z M32.9,54.4c-5.5-5.4-6-14-1.2-20
  c0.3-0.4,0.7-0.8,1.1-1.2c5.8-5.9,15.3-6,21.2-0.2c5.5,5.4,6,14.1,1.2,20.1c-0.3,0.4-0.7,0.8-1.1,1.2C48.3,60.1,38.8,60.2,32.9,54.4
  z M24.6,83.7c0.1,0,0.2,0.1,0.3,0.1l0.1,0.1c1.8,0.6,4.4,1.5,7.8,2.7c0.1,0,0.2,0.1,0.3,0.1c0.1,0,0.1,0,0.2,0.1
  c1.9,0.6,2.8-0.1,3.2-0.6c0.2-0.2,0.3-0.5,0.4-0.7c0.4-1.2,1.1-3.2,2-5.8c4.7,0.6,9.4,0.2,14-1c2.5,5.2,2.5,5.3,2.6,5.4
  c0.1,0.1,0.2,0.3,0.3,0.4c0.8,0.8,1.9,0.8,3.3,0.1c0.2-0.1,1.5-0.7,4.1-2l0.5-0.3c1.9-0.9,3.4-1.6,3.5-1.7c1.7-0.7,2.3-1.8,2-3.1
  c0-0.1-0.1-0.3-2.7-5.9c2-1.6,3.8-3.5,5.5-5.5c0-0.1,0.1-0.1,0.1-0.2c0.9-1.1,1.7-2.3,2.5-3.6c5.9,2,6.1,2.1,6.2,2.1
  c0.8,0.2,1.7-0.1,2.2-0.8c0.3-0.4,0.6-0.9,0.7-1.5c0.1-0.2,0.7-2,1.5-4.3c1.1-3.1,1.5-4.2,1.5-4.3c0.9-2.3-0.1-3.2-0.9-3.6
  c-0.1-0.1-0.2-0.1-6.2-2.2c0.5-4.4,0.3-8.8-0.8-13.1c5.6-2.8,5.7-2.9,5.9-3c0.2-0.1,0.4-0.3,0.5-0.5c0.6-0.8,0.6-1.9-0.1-3.2
  c-0.1-0.1-0.8-1.5-2-4c-1.4-2.8-1.9-3.9-2-4.1c-1-2.2-2.4-2.1-3.1-1.9c-0.1,0-0.3,0.1-5.8,2.8c-2.7-3.5-6-6.4-9.7-8.6
  c2.1-6,2.1-6.1,2.1-6.2c0.2-0.8,0.1-2.2-2.3-2.9c-0.1,0-1.3-0.4-4.3-1.5c-2.9-1-4.2-1.5-4.3-1.5c-1.9-0.7-2.8-0.2-3.3,0.4
  c-0.1,0.1-0.2,0.3-0.3,0.4c0,0.1-0.1,0.3-2.2,6.2c-3.9-0.5-7.8-0.3-11.7,0.5l-2.9-6.1c-0.5-1.1-1.8-1.9-3.7-0.9l-0.1,0.1
  c-0.1,0-0.2,0.1-0.3,0.2c-3.2,1.5-5.8,2.7-7.5,3.5c-0.1,0.1-0.3,0.2-0.5,0.2c-0.5,0.2-1,0.6-1.4,1c-0.6,0.7-0.7,1.7-0.3,2.5
  c0.5,1,1.2,2.5,2.1,4.5l0.6,1.2c-4,2.9-7.4,6.5-9.9,10.7l-5.8-2c-1-0.4-2,0-2.6,0.8c-0.3,0.4-0.5,0.8-0.6,1.2l-0.2,0.5
  c-0.4,1.2-0.9,2.7-1.6,4.6L0.4,33c0,0.1-0.1,0.2-0.1,0.3l-0.1,0.2c-0.5,1-0.3,2.2,0.4,3.1c0.3,0.3,0.6,0.4,0.9,0.6
  c1.2,0.4,3.2,1.1,5.8,2c-0.6,4.6-0.3,9.2,0.9,13.7C5.8,54,3.9,55,2.8,55.6c-0.3,0.2-0.6,0.4-0.8,0.7c-0.7,0.9-0.7,2.1,0,3.1l0.2,0.5
  c0.8,1.7,2.1,4.2,3.7,7.4c0.1,0.2,0.2,0.3,0.2,0.5c0.2,0.5,0.6,0.9,1,1.3c0.7,0.6,1.7,0.7,2.5,0.3l0.7-0.4c1.2-0.6,2.9-1.4,4.9-2.4
  c1.7,2.1,3.6,3.9,5.6,5.6c1.2,0.9,2.4,1.8,3.7,2.6c-0.8,2.3-1.4,4.1-1.8,5.3l-0.2,0.5c-0.3,0.9-0.1,1.9,0.6,2.5
  C23.6,83.3,24.1,83.5,24.6,83.7z M24.5,81.4c-0.1-0.1-0.2-0.2-0.1-0.4l0.2-0.5c0.5-1.4,1.2-3.5,2.1-6.1c0.2-0.5,0-1-0.4-1.2
  c-1.5-0.8-2.9-1.8-4.2-2.9c-2.2-1.7-4.1-3.7-5.8-5.9c-0.3-0.4-0.8-0.5-1.2-0.3c-2.4,1.2-4.3,2.1-5.6,2.8l-0.7,0.4
  c-0.1,0.1-0.3,0.1-0.4,0c-0.2-0.2-0.4-0.4-0.5-0.7c-0.1-0.1-0.1-0.3-0.2-0.5c-1.6-3.2-2.8-5.7-3.7-7.4l-0.2-0.5
  c-0.2-0.3-0.3-0.6-0.2-1c0,0,0.1-0.1,0.2-0.1c1.3-0.6,3.5-1.7,6.3-3.1c0.4-0.2,0.6-0.7,0.5-1.2c-1.4-4.7-1.7-9.7-1-14.5
  c0.1-0.5-0.2-0.9-0.7-1.1l-0.3-0.1c-2.8-1-5-1.7-6.3-2.2c-0.1,0-0.1-0.1-0.2-0.1c-0.1-0.3-0.1-0.7,0.1-1L2.2,34
  c0-0.1,0.1-0.2,0.1-0.3l1.1-3.2C4.1,28.6,4.6,27,5,25.8l0.2-0.5c0.1-0.2,0.2-0.4,0.3-0.6c0.1-0.2,0.3-0.2,0.4-0.1c0,0,0,0,0,0
  l6.5,2.3c0.4,0.1,0.8,0,1.1-0.3c0,0,0.1-0.1,0.1-0.1c2.6-4.5,6.2-8.4,10.5-11.3c0.4-0.3,0.5-0.8,0.3-1.2l-0.9-2
  c-0.9-1.9-1.6-3.5-2.1-4.5c-0.1-0.1-0.1-0.3,0-0.4c0.2-0.2,0.4-0.4,0.7-0.5c0.1-0.1,0.3-0.2,0.5-0.2c1.7-0.8,4.3-2,7.5-3.5
  c0.1-0.1,0.2-0.1,0.4-0.2l0.1-0.1c0.9-0.4,1-0.1,1.1,0l3.2,6.8c0.2,0.4,0.7,0.6,1.1,0.5c4.1-0.9,8.4-1.1,12.5-0.5
  c0.5,0.1,0.9-0.2,1.1-0.7c1.6-4.5,2.3-6.4,2.4-6.7c0,0,0,0,0-0.1c0.3-0.1,0.7,0,1,0.2c0.2,0.1,2.3,0.8,4.3,1.5
  c1.5,0.5,4.1,1.4,4.4,1.5c0.8,0.2,0.9,0.5,0.9,0.6c-0.1,0.4-0.9,2.6-2.3,6.7c-0.2,0.5,0,0.9,0.4,1.2c4,2.3,7.5,5.5,10.3,9.2
  c0.3,0.4,0.8,0.5,1.2,0.3c4.9-2.4,6.1-3,6.3-3.1c0.1,0,0.3-0.1,0.7,0.8c0.1,0.2,1.2,2.4,2,4.1c1.7,3.4,2,4,2.1,4.1
  c0.2,0.3,0.3,0.6,0.3,1c0,0,0,0-0.1,0.1c-0.5,0.3-4.7,2.4-6.4,3.2c-0.4,0.2-0.6,0.7-0.5,1.2c1.2,4.5,1.5,9.3,0.8,13.9
  c-0.1,0.5,0.2,0.9,0.7,1.1c1.7,0.6,6.2,2.2,6.7,2.4c0.1,0.1,0.2,0.2-0.1,1c-0.1,0.3-1.1,3.1-1.5,4.3c-1.1,3.2-1.4,4.2-1.5,4.4
  c-0.1,0.3-0.2,0.6-0.4,0.8c0,0.1-0.1,0.1-0.2,0.1c-0.3-0.1-2.6-0.9-6.8-2.3c-0.5-0.2-1,0-1.2,0.4c-0.8,1.5-1.8,2.9-2.9,4.2
  c0,0.1-0.1,0.1-0.1,0.2c-1.7,2.1-3.5,3.9-5.6,5.5c-0.4,0.3-0.5,0.8-0.3,1.2c2.1,4.4,2.9,6.2,3,6.3c0,0.1,0,0.1,0,0.2
  c-0.2,0.2-0.5,0.4-0.8,0.5c-0.2,0.1-0.8,0.4-3.7,1.7l-0.5,0.3c-4,1.9-4.1,2-4.2,2c-0.3,0.2-0.6,0.3-1,0.3c0,0,0,0,0-0.1
  c-0.2-0.5-2.2-4.6-2.8-5.9c-0.2-0.4-0.7-0.7-1.2-0.5c-4.8,1.4-9.8,1.8-14.7,1.1c-0.5-0.1-0.9,0.2-1.1,0.7c-1,2.9-1.8,5.2-2.3,6.5
  c0,0.1,0,0.1-0.1,0.1c-0.3,0.1-0.7,0.1-1,0c-0.1,0-0.2-0.1-0.3-0.1c-0.1,0-0.1-0.1-0.2-0.1c-3.4-1.2-6-2.1-7.8-2.7l-0.1,0
  c-0.1,0-0.3-0.1-0.4-0.1C25,81.7,24.7,81.6,24.5,81.4z M40.6,19.8c0.7-0.1,1.4-0.1,2-0.2c0.1,0,0.1,0,0.2,0H43c0.6,0,1.2,0,1.8,0
  l0.1,0c0,0,0.1,0,0.1,0c4.3,0.2,8.5,1.7,12.1,4.2l0,0c0,0,0,0,0.1,0c6.8,4.8,10.6,12.7,10.1,21c0,0.6,0.5,1,1,1c0.5,0,0.9-0.4,1-0.9
  c0.5-9-3.6-17.6-11-22.8l0,0c-0.1,0-0.1-0.1-0.2-0.1c-3.8-2.6-8.3-4.2-12.9-4.5c-0.1,0-0.1,0-0.2,0H45h0c-0.7,0-1.3,0-2,0h-0.1
  c-0.1,0-0.2,0-0.2,0c-0.7,0-1.4,0.1-2.2,0.2l-0.1,0c-0.3,0-0.5,0.2-0.7,0.4c0,0.1-0.1,0.1-0.1,0.2c-0.2,0.3-0.1,0.7,0,1v0
  C39.8,19.7,40.2,19.9,40.6,19.8L40.6,19.8z"/>
<path id="Forma_1_копия_3" fill="#FDFCFC" d="M125.3,99.2c4,13.6,18.3,21.3,31.9,17.3c6.3-1.9,11.6-6.1,14.9-11.8
  c3.3-5.8,4.2-12.7,2.4-19.1c-0.2-0.9-0.5-1.7-0.9-2.6l0,0C168.1,70,153.1,63.8,140,69.2c-5.2,2.2-9.5,6-12.4,10.9
  C124.3,85.9,123.5,92.7,125.3,99.2z M143.8,71c11.9-3.4,24.2,3.4,27.7,15.2c0,0.1,0,0.1,0,0.2c1.6,5.7,0.9,11.8-2.1,16.9
  c-6.1,10.8-19.8,14.7-30.7,8.6c-5.2-2.9-9-7.8-10.6-13.5c-1.6-5.7-0.9-11.8,2.1-16.9C133.2,76.3,138.1,72.6,143.8,71L143.8,71z
   M111.9,38.9c-0.1,0.1-0.3,0.2-0.4,0.3l-0.2,0.1c-2.1,1.8-5.3,4.6-9.3,8c-0.1,0.1-0.2,0.2-0.3,0.3c-0.1,0.1-0.2,0.1-0.3,0.2
  c-2.2,1.9-2,3.7-1.6,4.6c0.2,0.4,0.4,0.7,0.7,1c1.3,1.4,3.3,3.8,6,6.8c-4.2,5.5-7.3,11.9-9.1,18.6c-8.6-0.6-8.7-0.6-8.9-0.6
  c-0.3,0-0.5,0.1-0.8,0.1c-1.6,0.4-2.5,1.9-2.6,4.2c0,0.3-0.2,2.5-0.5,6.6l-0.1,0.9c-0.3,3.1-0.4,5.5-0.5,5.8
  c-0.3,2.8,0.6,4.4,2.6,4.8c0.2,0,0.4,0.1,9.7,0.8c0.6,3.8,1.7,7.5,3.1,11.1c0,0.1,0.1,0.2,0.1,0.3c0.8,2,1.7,3.9,2.8,5.8
  c-7.1,6.1-7.3,6.3-7.4,6.4c-0.8,0.9-1.1,2.2-0.6,3.4c0.3,0.7,0.8,1.4,1.4,2c0.2,0.2,2.1,2.3,4.5,5c3.3,3.7,4.3,4.9,4.4,5
  c2.3,2.8,4.3,2.2,5.3,1.5c0.2-0.1,0.3-0.2,7.5-6.3c5.3,3.9,11.3,6.8,17.6,8.6c-0.5,9.3-0.5,9.5-0.5,9.7c0,0.3,0.1,0.7,0.2,1
  c0.6,1.4,2,2.1,4.2,2.2c0.3,0,2.5,0.1,6.8,0.4c4.7,0.3,6.6,0.4,6.8,0.4c3.6,0.4,4.6-1.5,4.8-2.6c0-0.2,0.1-0.4,0.7-9.5
  c6.5-0.9,12.8-3,18.5-6.1c6.2,7,6.4,7.2,6.5,7.3c0.9,0.8,2.8,1.7,5.4-0.8c0.1-0.1,1.5-1.3,5.1-4.4c3.5-3,5-4.3,5.1-4.4
  c2.4-1.8,2.3-3.5,1.9-4.6c-0.1-0.2-0.2-0.4-0.3-0.6c-0.1-0.1-0.2-0.4-6.4-7.4c3.5-4.6,6.3-9.8,8.1-15.3l10.1,0.8
  c1.8,0.1,3.7-0.9,4-4.1l0-0.2c0-0.2,0-0.4,0-0.5c0.4-5.2,0.7-9.4,1-12.2c0-0.2,0-0.5,0.1-0.7c0.1-0.8,0-1.7-0.3-2.5
  c-0.5-1.2-1.7-2.1-3-2.2c-1.6-0.1-4.2-0.3-7.4-0.6l-2-0.2c-0.7-7.2-3-14.3-6.5-20.6l6.9-5.9c1.2-1,1.6-2.6,0.9-4
  c-0.3-0.6-0.6-1.2-1.1-1.7l-0.5-0.6c-1.2-1.4-2.8-3.2-4.8-5.4l-3.3-3.8c-0.1-0.1-0.2-0.2-0.3-0.4l-0.2-0.2c-1.8-2-3.5-1.9-4.3-1.7
  c-0.5,0.1-1,0.4-1.4,0.8c-1.5,1.2-3.8,3.3-6.9,5.9c-5.6-4.1-11.9-7.1-18.5-8.8c0.2-4.1,0.4-7.2,0.5-9.1c0-0.5,0-1.1-0.2-1.5
  c-0.3-0.8-1.3-2.2-4-2.3l-0.8-0.1c-2.8-0.2-7-0.4-12.3-0.7c-0.3,0-0.6,0-0.8,0c-0.8-0.1-1.6,0-2.4,0.3c-1.3,0.4-2.2,1.7-2.3,3.1
  l-0.1,1.2c-0.1,2-0.3,4.7-0.5,8.1c-3.9,0.6-7.8,1.7-11.5,3.1c-2.1,0.8-4.2,1.8-6.2,2.9c-2.3-2.7-4.2-4.8-5.5-6.2l-0.5-0.5
  c-0.9-1.1-2.4-1.5-3.7-1C113.2,37.9,112.5,38.4,111.9,38.9L111.9,38.9z M114.9,40.5c0.2-0.1,0.4,0,0.6,0.2l0.5,0.6
  c1.4,1.6,3.6,4.1,6.3,7.1c0.5,0.5,1.3,0.7,1.9,0.3c2.2-1.3,4.5-2.4,6.8-3.3c3.9-1.5,7.9-2.6,12-3.1c0.7-0.1,1.2-0.7,1.3-1.4
  c0.2-3.9,0.4-7.1,0.6-9.3l0.1-1.2c0-0.2,0.1-0.4,0.4-0.5c0.4-0.1,0.8-0.2,1.2-0.1c0.2,0,0.5,0,0.8,0c5.3,0.3,9.6,0.5,12.3,0.7
  l0.8,0.1c0.5-0.1,1,0.1,1.4,0.5c0,0.1,0,0.2,0,0.3c-0.1,2.1-0.3,5.7-0.6,10.3c0,0.7,0.4,1.4,1.1,1.5c7.1,1.7,13.8,4.9,19.6,9.3
  c0.6,0.4,1.4,0.4,1.9,0l0.3-0.3c3.4-2.9,6-5.1,7.5-6.4c0.1-0.1,0.2-0.1,0.3-0.2c0.5,0.1,1,0.4,1.2,0.8l0.2,0.2
  c0.1,0.1,0.3,0.3,0.4,0.4l3.3,3.8c2,2.2,3.6,4,4.8,5.4l0.5,0.6c0.2,0.3,0.4,0.6,0.6,0.9c0.1,0.2,0.1,0.5-0.1,0.6c0,0,0,0,0,0
  l-7.8,6.7c-0.5,0.4-0.6,1.1-0.4,1.7c0,0.1,0.1,0.1,0.1,0.2c3.9,6.6,6.3,14,6.8,21.7c0.1,0.7,0.6,1.3,1.4,1.4l3.2,0.2
  c3.2,0.2,5.7,0.4,7.4,0.6c0.2,0,0.4,0.1,0.5,0.3c0.1,0.4,0.2,0.8,0.1,1.2c0,0.2,0,0.5-0.1,0.8c-0.2,2.8-0.6,6.9-1,12.1
  c0,0.2,0,0.4,0,0.6l0,0.2c-0.1,1.5-0.6,1.4-0.8,1.4l-11.3-0.8c-0.7-0.1-1.3,0.4-1.5,1c-1.8,6-4.8,11.6-8.7,16.4
  c-0.4,0.6-0.4,1.3,0,1.9c4.7,5.4,6.7,7.6,7,8c0,0,0,0.1,0,0.1c-0.2,0.5-0.5,0.9-1,1.2c-0.3,0.2-2.8,2.4-5.2,4.4
  c-1.8,1.6-4.9,4.2-5.2,4.5c-1,0.9-1.3,0.8-1.4,0.7c-0.4-0.4-2.8-3.1-7-7.9c-0.5-0.5-1.3-0.7-1.9-0.3c-6,3.5-12.7,5.7-19.7,6.5
  c-0.7,0.1-1.3,0.7-1.3,1.4c-0.5,8.1-0.7,10.1-0.7,10.3c0,0.1-0.1,0.4-1.6,0.3c-0.3,0-3.9-0.2-6.9-0.4c-5.8-0.3-6.7-0.4-6.9-0.4
  c-0.5,0.1-1,0-1.5-0.3c0,0,0-0.1,0-0.1c0-0.8,0.4-7.8,0.6-10.5c0-0.7-0.4-1.3-1.1-1.5c-6.8-1.7-13.2-4.8-18.7-9.1
  c-0.6-0.4-1.4-0.4-1.9,0c-2.1,1.8-7.5,6.4-8.1,6.9c-0.1,0.1-0.4,0.1-1.3-0.9c-0.3-0.3-3.2-3.7-4.5-5.1c-3.3-3.7-4.4-4.9-4.6-5.1
  c-0.3-0.3-0.6-0.6-0.8-1c-0.1-0.1-0.1-0.2,0-0.3c0.4-0.4,3-2.6,8.1-7c0.5-0.5,0.7-1.2,0.3-1.9c-1.3-2.2-2.4-4.4-3.3-6.7
  c0-0.1-0.1-0.2-0.1-0.3c-1.4-3.6-2.4-7.4-3-11.3c-0.1-0.7-0.7-1.2-1.4-1.3c-7.2-0.6-10.2-0.8-10.4-0.8c-0.1,0-0.2-0.1-0.2-0.2
  c-0.1-0.4-0.1-0.9,0-1.3c0-0.2,0.1-1.3,0.5-5.9l0.1-0.9c0.5-6.5,0.5-6.7,0.5-6.8c0-0.9,0.2-1.4,0.4-1.5c0,0,0.1,0,0.1,0
  c0.8,0,7.6,0.5,9.8,0.7c0.7,0.1,1.4-0.4,1.6-1.1c1.7-7.2,5-13.9,9.6-19.7c0.4-0.6,0.4-1.3,0-1.9c-3-3.5-5.4-6.1-6.8-7.7
  c-0.1-0.1-0.1-0.1-0.1-0.2c0-0.5,0.3-1,0.8-1.2c0.1-0.1,0.2-0.2,0.3-0.3c0.1-0.1,0.2-0.2,0.3-0.3c4-3.5,7.2-6.2,9.3-8l0.1-0.1
  c0.2-0.1,0.3-0.3,0.5-0.4C114.2,40.9,114.5,40.6,114.9,40.5L114.9,40.5z M183,106.3c-0.4,1-0.8,1.9-1.3,2.7c0,0.1-0.1,0.1-0.1,0.2
  l-0.1,0.2c-0.4,0.8-0.9,1.6-1.4,2.3c0,0-0.1,0.1-0.1,0.1s-0.1,0.1-0.1,0.1c-1.8,2.7-3.9,5.1-6.3,7.2c-2.5,2.1-5.2,3.9-8.1,5.2l0,0
  c0,0-0.1,0-0.1,0c-11.3,5.2-24.4,4.3-34.9-2.4c-0.7-0.4-1.6-0.3-2.1,0.4c-0.4,0.7-0.3,1.6,0.4,2c0,0,0,0,0,0
  c11.3,7.3,25.6,8.3,37.8,2.6l0,0c0.1,0,0.2-0.1,0.3-0.1c3.1-1.5,6-3.4,8.7-5.6c2.6-2.2,4.9-4.8,6.8-7.6c0.1-0.1,0.1-0.1,0.2-0.2
  c0,0,0-0.1,0.1-0.1c0,0,0,0,0-0.1c0.6-0.9,1.1-1.7,1.5-2.6l0.1-0.1c0.1-0.1,0.1-0.2,0.2-0.3c0.5-0.9,0.9-1.8,1.4-2.9
  c0,0,0-0.1,0.1-0.1c0.2-0.4,0.2-0.8,0-1.2c0-0.1-0.1-0.2-0.1-0.3c-0.3-0.4-0.8-0.7-1.3-0.7h0C183.7,105.3,183.2,105.7,183,106.3
  C183,106.2,183,106.3,183,106.3L183,106.3z"/>
</svg>
