<?xml version="1.0" encoding="utf-8"?>
<!-- Generator: Adobe Illustrator 22.0.1, SVG Export Plug-In . SVG Version: 6.00 Build 0)  -->
<svg version="1.1" id="Слой_1" xmlns="http://www.w3.org/2000/svg" xmlns:xlink="http://www.w3.org/1999/xlink" x="0px" y="0px"
	 viewBox="0 0 50.9 52.4" enable-background="new 0 0 50.9 52.4" xml:space="preserve">
<path id="Фигура_12" fill="#FDFCFC" d="M17,37.4h15.1v-1.3H17V37.4z M17,40.6h15.1v-1.3H17V40.6z M16.9,43.6H32v-1.3H16.9
	V43.6z M50.3,33.5h-9.5V20.9c0-0.1,0-0.1,0-0.1c0,0,0,0,0-0.1c0-0.1-0.1-0.1-0.1-0.2l-5-5.7c-0.1-0.1-0.1-0.1-0.2-0.1c0,0,0,0-0.1,0
	c-0.1,0-0.1,0-0.2,0c0,0,0,0,0,0h-6.6c0-0.1,0.1-0.2,0.1-0.4c-0.1-0.5-0.3-1-0.6-1.4c-0.2-0.2-0.3-0.5-0.4-0.7
	c0-0.3,0.1-0.6,0.2-0.9c0.2-0.5,0.3-1,0.2-1.5c-0.2-0.5-0.6-0.9-1-1.1c-0.3-0.1-0.5-0.3-0.6-0.6c-0.1-0.3-0.1-0.6-0.1-0.9
	c0.2-1-0.4-1.9-1.3-2.1c-0.1,0-0.2,0-0.3,0C24.2,5.1,24,5,23.7,4.8c-0.2-0.2-0.3-0.5-0.3-0.8c-0.1-1-0.9-1.7-1.9-1.6
	c-0.1,0-0.2,0-0.3,0c-0.6,0.2-1.2-0.2-1.4-0.7c-0.2-0.4-0.6-0.8-1.1-1c-0.5-0.1-1,0-1.5,0.2C17,1,16.7,1,16.4,1
	c-0.3-0.1-0.5-0.2-0.7-0.4c-0.7-0.8-1.8-0.8-2.5-0.2C13,0.5,13,0.5,12.9,0.6C12.7,0.8,12.4,1,12.2,1c-0.3,0-0.6-0.1-0.9-0.2
	c-0.5-0.2-1-0.3-1.5-0.2C9.4,0.9,9,1.3,8.8,1.7C8.5,2.3,7.9,2.6,7.3,2.4C6.4,2.2,5.4,2.8,5.2,3.7c0,0.1,0,0.2,0,0.3
	C5.1,4.3,5,4.6,4.8,4.8C4.6,5,4.3,5.1,4,5.1C3,5.2,2.3,6.1,2.4,7c0,0.1,0,0.2,0,0.3c0,0.3,0,0.6-0.1,0.9C2.2,8.4,1.9,8.6,1.7,8.8
	C1.2,9,0.9,9.4,0.7,9.9c-0.1,0.5,0,1,0.2,1.5C1,11.6,1,11.9,1,12.2c-0.1,0.3-0.2,0.5-0.4,0.7c-0.8,0.6-0.8,1.8-0.2,2.5
	c0.1,0.1,0.1,0.1,0.2,0.2c0.2,0.2,0.3,0.5,0.4,0.7l0.9-0.1c-0.1-0.4-0.3-0.8-0.6-1.1c-0.2-0.2-0.4-0.5-0.4-0.8
	c0.1-0.3,0.2-0.6,0.4-0.8C2,12.8,2.1,11.8,1.7,11c-0.1-0.3-0.2-0.6-0.2-0.9c0.2-0.3,0.4-0.5,0.7-0.6C2.6,9.3,2.9,9,3.1,8.6
	c0.2-0.4,0.2-0.9,0.2-1.3c0-0.3,0-0.6,0.1-0.9C3.7,6.2,4,6.1,4.3,6c0.4-0.1,0.8-0.3,1.2-0.6C5.7,5.1,5.9,4.7,6,4.3
	C6.1,4,6.2,3.7,6.4,3.4C6.7,3.3,7,3.3,7.3,3.3c0.4,0,0.9,0,1.3-0.2C9,2.9,9.3,2.6,9.5,2.2c0.1-0.3,0.4-0.5,0.6-0.7
	c0.3,0,0.6,0,0.9,0.2c0.4,0.2,0.8,0.3,1.3,0.2c0.4-0.1,0.8-0.3,1.1-0.6c0.3-0.5,0.9-0.6,1.4-0.3c0.1,0.1,0.2,0.2,0.3,0.3
	c0.3,0.3,0.7,0.5,1.1,0.6c0.4,0,0.9-0.1,1.3-0.2c0.3-0.1,0.6-0.2,0.9-0.2c0.3,0.2,0.5,0.4,0.6,0.7c0.2,0.4,0.5,0.7,0.9,0.9
	c0.4,0.2,0.8,0.2,1.3,0.2c0.3,0,0.6,0,0.9,0.1c0.2,0.2,0.3,0.5,0.4,0.8c0.1,0.4,0.3,0.8,0.6,1.2c0.3,0.3,0.7,0.5,1.2,0.6
	c0.3,0.1,0.6,0.2,0.8,0.4c0.1,0.3,0.2,0.6,0.1,0.9c0,0.4,0,0.9,0.2,1.3C25.6,9,26,9.3,26.3,9.5c0.3,0.2,0.5,0.4,0.7,0.6
	c0,0.3,0,0.6-0.2,0.9c-0.4,0.8-0.3,1.8,0.4,2.4c0.2,0.2,0.4,0.5,0.4,0.8c0,0.1-0.1,0.2-0.1,0.4h-2.1c0-0.1,0-0.2,0-0.4
	c0-6.2-5-11.2-11.2-11.1c-6.2,0-11.1,5-11.1,11.1c0,0.5,0,0.9,0.1,1.4l0.9-0.1C4,15.1,4,14.7,4,14.3C4,8.6,8.6,4,14.3,4
	c5.7,0,10.3,4.6,10.3,10.3c0,0.1,0,0.2,0,0.4h-8.2c0.6-0.2,1-0.8,1-1.5v-2.2c0-0.9-0.7-1.5-1.6-1.5c-0.8,0-1.5,0.7-1.5,1.5v2.2
	c0,0.8,0.6,1.4,1.3,1.5c-1.4,0.3-2.5,1.6-2.5,3.1v6.7c-1.8-0.2-3.6-0.9-5.1-2.1l-0.5,0.7c1.6,1.3,3.6,2,5.6,2.2V27
	c-0.2-0.2-0.5-0.3-0.8-0.3c-0.4,0-0.9,0-1.3,0.2C10.8,27,10.4,27,10.1,27c-0.3-0.2-0.5-0.4-0.6-0.7c-0.4-0.8-1.3-1.3-2.2-1.1
	c-0.3,0-0.6,0-0.9-0.1c-0.2-0.2-0.3-0.5-0.4-0.8c-0.1-0.4-0.3-0.8-0.6-1.2c-0.3-0.3-0.7-0.5-1.2-0.6c-0.3-0.1-0.6-0.2-0.8-0.4
	l-0.7,0.5C3.1,23,3.5,23.3,4,23.4c0.3,0.1,0.6,0.2,0.8,0.4C5,24,5.1,24.2,5.1,24.5c0.1,0.5,0.3,1,0.7,1.3c0.4,0.2,0.9,0.4,1.5,0.3
	c0.3,0,0.6,0,0.9,0.1c0.2,0.2,0.4,0.4,0.6,0.6c0.2,0.4,0.6,0.8,1.1,1c0.5,0.1,1,0,1.5-0.2c0.3-0.1,0.6-0.2,0.9-0.2
	c0.3,0.1,0.5,0.2,0.7,0.4c0.1,0,0.1,0.1,0.2,0.1v16.8c0,1.7,1.4,3.1,3.2,3.1h21.4c1.3,1.8,2.9,3.2,4.8,4.3c0.1,0.1,0.2,0.1,0.3,0.1
	c0.1,0,0.2,0,0.3-0.1c4.9-2.9,7.9-8.1,7.9-13.7v-4.5C50.9,33.8,50.6,33.5,50.3,33.5L50.3,33.5z M44.7,36.2H46v1.3h-1.3V36.2z
	 M42.2,36.2h1.3v1.3h-1.3V36.2z M39.7,36.2h1.3v1.3h-1.3V36.2z M35.8,16.9l1.4,1.5l1.6,1.8h-3V16.9L35.8,16.9z M15.2,13.2v-2.2
	c0-0.4,0.3-0.7,0.7-0.7c0.4,0,0.7,0.3,0.7,0.7v2.2c0,0.4-0.3,0.7-0.7,0.6C15.5,13.8,15.2,13.5,15.2,13.2L15.2,13.2z M14.7,17.4
	c0.2,0,0.4,0.2,0.4,0.4v2.2h-0.8v-2.3c0-0.1,0-0.1,0-0.2C14.4,17.5,14.6,17.4,14.7,17.4L14.7,17.4z M16.2,46.7c-1,0-1.9-0.8-1.9-1.9
	c0,0,0,0,0,0V28.5c0.5-0.1,0.9-0.3,1.3-0.6c0.2-0.2,0.5-0.3,0.7-0.4c0.3,0,0.6,0.1,0.9,0.2c0.5,0.2,1,0.3,1.5,0.2
	c0.5-0.2,0.9-0.6,1.1-1c0.1-0.3,0.3-0.5,0.6-0.6c0.3-0.1,0.6-0.1,0.9-0.1c0.5,0.1,1,0,1.5-0.3c0.4-0.3,0.6-0.8,0.7-1.3
	c0.1-0.3,0.2-0.6,0.3-0.8c0.2-0.2,0.5-0.3,0.8-0.4c0.5-0.1,1-0.3,1.3-0.7l-0.7-0.5c-0.2,0.2-0.5,0.3-0.8,0.4
	c-0.9,0.1-1.6,0.8-1.7,1.7c-0.1,0.3-0.2,0.6-0.4,0.8c-0.3,0.1-0.6,0.2-0.9,0.1c-0.9-0.2-1.8,0.3-2.2,1.1c-0.2,0.3-0.4,0.5-0.6,0.7
	c-0.3,0-0.6,0-0.9-0.2c-0.4-0.2-0.8-0.3-1.3-0.2c-0.4,0.1-0.8,0.3-1.1,0.6c-0.2,0.2-0.5,0.3-0.8,0.4v-2.2c2.4,0,4.8-0.8,6.7-2.3
	l-0.5-0.7c-1.8,1.4-4,2.1-6.2,2.1V21h0.8v0.9h0.9v-4c0-0.7-0.5-1.3-1.2-1.3c0.4-0.4,0.9-0.6,1.4-0.6h10.5c0,0.1-0.1,0.2-0.1,0.4
	l0.9,0.1c0-0.2,0.1-0.3,0.2-0.5h6.8v5c0,0.3,0.3,0.6,0.6,0.6c0,0,0,0,0,0h4.4v12h-4.4c-0.3,0-0.6,0.3-0.6,0.6c0,0,0,0,0,0v4.5
	c0,0.4,0,0.7,0,1.1c0.1,2,0.7,4,1.5,5.8c0,0.1,0,0.1,0.1,0.2c0.1,0.2,0.2,0.4,0.3,0.6c0.1,0.1,0.1,0.2,0.2,0.3c0,0,0,0.1,0.1,0.1
	L16.2,46.7L16.2,46.7z M38.4,37.4h-1.3v-1.3h1.3V37.4z M42.6,45.4c-0.2,0.2-0.6,0.3-0.9,0c0,0,0,0,0,0l-2.5-2.5l0.9-0.9l2.1,2.1
	l4.6-4.6l0.9,0.9L42.6,45.4z M48.5,37.4h-1.3v-1.3h1.3V37.4z M19.6,17.4h0.9v4.5h0.9v-4.5h0.9v-0.9h-2.7V17.4z M18.3,19.1l-0.9-2.3
	c-0.1-0.2-0.3-0.3-0.6-0.3c-0.2,0.1-0.3,0.2-0.3,0.4v4.9h0.9v-2.6l0.9,2.3c0.1,0.2,0.2,0.3,0.4,0.3c0,0,0.1,0,0.1,0
	c0.2,0,0.4-0.2,0.4-0.4v-4.9h-0.9V19.1z M4,16.5v4c0,0.7,0.6,1.4,1.3,1.4c0.7,0,1.4-0.6,1.4-1.3c0,0,0,0,0-0.1v-4H5.8v4
	c0,0.2-0.2,0.5-0.4,0.5c-0.2,0-0.5-0.2-0.5-0.4c0,0,0,0,0,0v-4H4z M3.6,20.5v-0.9c0-0.2-0.2-0.4-0.4-0.4c0,0,0,0,0,0H2.2v0.9h0.4
	v0.4c0,0.2-0.2,0.4-0.4,0.4c-0.2,0-0.4-0.2-0.4-0.4l0,0v-2.7c0-0.2,0.2-0.4,0.4-0.4c0.2,0,0.4,0.2,0.4,0.4v0.4h0.9v-0.4
	c0-0.7-0.6-1.3-1.3-1.3c-0.7,0-1.3,0.6-1.3,1.3c0,0,0,0,0,0v2.7c0,0.7,0.6,1.3,1.3,1.3C3,21.9,3.6,21.3,3.6,20.5L3.6,20.5L3.6,20.5z
	 M7.1,17.8v4H8V21h0.9v0.9h0.9v-4c0-0.7-0.5-1.4-1.3-1.4c-0.7,0-1.4,0.5-1.4,1.3C7.1,17.8,7.1,17.8,7.1,17.8L7.1,17.8z M8.9,17.8
	v2.2H8v-2.2c0-0.2,0.2-0.4,0.4-0.4C8.7,17.4,8.9,17.6,8.9,17.8L8.9,17.8z M10.3,16.9v2.2l0,0v2.7h0.9v-1.4l1,1.2
	c0.1,0.1,0.2,0.2,0.3,0.2h0.4V21h-0.2l-1.1-1.4c0.9-0.1,1.4-0.9,1.3-1.8c-0.1-0.8-0.8-1.3-1.5-1.3h-0.7
	C10.5,16.5,10.3,16.7,10.3,16.9C10.3,16.9,10.3,16.9,10.3,16.9L10.3,16.9z M11.1,17.4h0.2c0.4,0,0.7,0.3,0.7,0.7
	c0,0.4-0.3,0.7-0.7,0.7h-0.2V17.4z M22.8,16.9v4.5c0,0.2,0.2,0.4,0.4,0.4c0,0,0,0,0,0H25V21h-1.3v-1.3H25v-0.9h-1.3v-1.3H25v-0.9
	h-1.8C23,16.5,22.8,16.7,22.8,16.9C22.8,16.9,22.8,16.9,22.8,16.9L22.8,16.9z M27.7,21.9V21h-1.3v-1.3h1.3v-0.9h-1.3v-1.3h1.3v-0.9
	h-1.8c-0.2,0-0.4,0.2-0.4,0.4c0,0,0,0,0,0v4.5c0,0.2,0.2,0.4,0.4,0.4c0,0,0,0,0,0H27.7L27.7,21.9z M13.8,13.2v-2.2
	c0-0.9-0.7-1.6-1.6-1.6c-0.9,0-1.6,0.7-1.6,1.6v2.2c0,0.9,0.7,1.6,1.6,1.6C13.1,14.7,13.8,14,13.8,13.2L13.8,13.2L13.8,13.2z
	 M11.6,13.2v-2.2c0-0.4,0.3-0.7,0.7-0.7c0.4,0,0.7,0.3,0.7,0.7v2.2c0,0.4-0.3,0.7-0.7,0.6C11.9,13.8,11.6,13.5,11.6,13.2L11.6,13.2z
	 M9.8,9.4H8.9v0.9h0.4v4.5h0.9V9.8C10.3,9.6,10.1,9.4,9.8,9.4C9.8,9.4,9.8,9.4,9.8,9.4L9.8,9.4z M18.8,14.1l0.8,0.4l1.8-3.6
	l-0.8-0.4L18.8,14.1z M18.3,12h0.9v-0.9h-0.9V12z M21.9,13.8v-0.9H21v0.9H21.9z"/>
</svg>
