<svg version="1.1" id="Слой_1" xmlns="http://www.w3.org/2000/svg" xmlns:xlink="http://www.w3.org/1999/xlink" x="0px" y="0px"
	 viewBox="0 0 2426.5 776.2" enable-background="new 0 0 2426.5 776.2" xml:space="preserve">
<path d="M1324.9,290.2v88.1l34.6,80.6h126.1l-57.9-117.7c34.6-18.1,50.1-54.2,50.1-89.7c0-59.5-61.3-97.8-149.1-97.8h-3.7v83.1
	c14.9,2.5,23.4,10,23.4,27.4C1348.2,283,1339.8,288.6,1324.9,290.2z"/>
<path d="M1324.9,236.9v-83.1h-139.2v305.1h115.5v-90c8.1-0.3,14.6-0.3,21.8,4l1.9,5.3v-88.1c-3.4,0.3-7.2,0.3-11.2,0.3h-11.8v-54.8
	h9.3C1316.1,235.7,1320.8,236,1324.9,236.9L1324.9,236.9z M1001,371.1v98.4c96.2-0.9,164.7-62.6,164.7-162.5
	c0-100.3-67.9-162.2-164.7-162.8v98.4c33,0.3,51.4,22.4,51.4,64.5C1052.4,349,1034.1,370.8,1001,371.1z M1001,242.5v-98.4
	c-0.6,0-1.2-0.3-1.9-0.3c-97.8,0-166.9,62.6-166.9,163.2c0,100.6,70.1,162.5,166.9,162.5c0.6,0,1.2,0.3,1.9,0v-98.4h-0.9
	c-33,0-51.4-21.8-51.4-64.1c0-42.7,18.4-64.8,51.4-64.8C1000.4,242.2,1000.7,242.5,1001,242.5z M365.2,351.2v67.6h42.3l8.4,40.2
	h107.4L421,153.8h-55.7v124.6l22.4,72.9H365.2L365.2,351.2z M365.2,278.4V153.8h-62.9L201.8,458.9h110.5l10.6-40.2h42.3v-67.6h-23
	l21.8-78.2L365.2,278.4L365.2,278.4z M815.2,423.1V281.5H668.5v65.4h41.1v34.6c-61.6,6.5-92.5-8.4-91.5-75.4
	c0.6-47.6,25.2-70.4,49.8-73.8c14.6-1.9,31.8,6.2,44.5,22.7l95.3-41.1c-17.7-37-72.6-68.2-119.6-68.8
	c-125.8-2.2-183.4,65.1-183.4,166.3c0,94.3,58.2,149.5,174.7,157.2C737,471.7,775,455.8,815.2,423.1z M0,458.9h111.8V352.5h98.4V274
	h-98.4v-44.5h109.3v-75.7H0V458.9L0,458.9z"/>
<path fill="#CC2229" d="M2038.2,0c214.2,0,388.3,174.7,388.3,388.6c0,213-174.1,387.7-388.3,387.7c-186.8,0-343.4-133.6-379.9-309.5
	h266.8l116.5-118.3h-389.5c2.8-25.8,7.5-50.4,14.9-74.1h448.4l116.5-118.6h-504.1C1798.8,61.3,1911.5,0,2038.2,0L2038.2,0z"/>
</svg>
