<?xml version="1.0" encoding="utf-8"?>
<!-- Generator: Adobe Illustrator 22.0.1, SVG Export Plug-In . SVG Version: 6.00 Build 0)  -->
<svg version="1.1" id="Слой_1" xmlns="http://www.w3.org/2000/svg" xmlns:xlink="http://www.w3.org/1999/xlink" x="0px" y="0px"
	 viewBox="0 0 42.3 35.1" enable-background="new 0 0 42.3 35.1" xml:space="preserve">
<path id="Фигура_10" fill="#FDFCFC" d="M35.1,13.3c1.3-1.7,5-6.5,5-6.5c1.4-1.6,1.2-4-0.3-5.4c0,0,0,0-0.1,0
	c-1.6-1.2-3.8-0.9-5,0.6c-0.1,0.1-0.1,0.2-0.2,0.3l-5,6.6c-0.1,0.1-0.1,0.2,0,0.2c1.2,0.9,4.4,3.5,5.3,4.3
	C34.9,13.5,35,13.5,35.1,13.3z M28.9,10.7c0,0-0.1-0.1-0.2,0c0,0,0,0,0,0c-0.5,0.8-3.8,5.6-5.1,7.2c-0.7,1.2-0.9,2.6-0.5,4
	c0,0,0,0.1,0,0.1c-0.2,0.2-0.2,0.3-0.3,0.5c-0.2,0.3-0.2,0.6,0.1,0.8c0,0,0,0,0,0c0.2,0.2,0.6,0.2,0.8,0c0,0,0,0,0,0
	c0.1-0.1,0.2-0.2,0.4-0.4c0,0,0.1-0.1,0.1-0.1c1.4,0,2.7-0.5,3.6-1.5c1.2-1.6,5-6.1,5.6-6.8c0.1,0,0.1-0.1,0-0.2c0,0,0,0,0,0
	C32.3,13.4,30.1,11.6,28.9,10.7z M38.7,13.6c-0.2,0.3-0.7,0.4-1,0.1c0,0,0,0,0,0l0,0c-0.3-0.3-0.4-0.7-0.1-1L41,8.1
	c0.2-0.3,0.7-0.4,1-0.1c0,0,0,0,0,0l0,0c0.3,0.3,0.4,0.7,0.1,1L38.7,13.6z M23.8,13.3c0,0.3-0.2,0.6-0.5,0.6H4.8
	c-0.3,0-0.5-0.3-0.5-0.6v-0.6c0-0.3,0.2-0.6,0.5-0.6h18.4c0.3,0,0.5,0.3,0.5,0.6L23.8,13.3L23.8,13.3L23.8,13.3z M23.8,25.3
	c0,0.3-0.2,0.6-0.5,0.6h-7.2c-0.3,0-0.5-0.3-0.5-0.6v-0.5c0-0.3,0.2-0.6,0.5-0.6h7.2c0.3,0,0.5,0.3,0.5,0.6V25.3z M23.8,8.1
	c0,0.3-0.2,0.6-0.5,0.6H4.8c-0.3,0-0.5-0.3-0.5-0.6V7.5c0-0.3,0.2-0.6,0.5-0.6h18.4c0.3,0,0.5,0.3,0.5,0.6L23.8,8.1L23.8,8.1
	L23.8,8.1z M26.1,25.2v5.9c0,1.1-0.8,1.9-1.9,1.9H3.9C2.8,33,2,32.2,2,31.1V4C2,3,2.8,2.1,3.9,2.1h20.3c1.1,0,1.9,0.9,1.9,1.9v6.2
	c0,0.6,0.3,0.3,0.4,0.1c0.3-0.4,1-1.2,1.2-1.5C28,8.7,28.1,8.3,28.1,8V2c0-1.1-0.8-1.9-1.9-1.9H1.9C0.8,0,0,0.9,0,2c0,0,0,0,0,0
	v31.2c0,1.1,0.8,1.9,1.9,1.9h24.3c1.1,0,1.9-0.9,1.9-1.9v-8.8c0-0.5-0.3-0.4-0.4-0.4c-0.4,0.2-0.8,0.3-1.2,0.5
	C26.4,24.6,26.1,24.6,26.1,25.2L26.1,25.2z"/>
</svg>
