<svg version="1.1" id="Слой_1" xmlns="http://www.w3.org/2000/svg" xmlns:xlink="http://www.w3.org/1999/xlink" x="0px" y="0px"
	 viewBox="0 0 103 103" enable-background="new 0 0 103 103" xml:space="preserve" width="103" height="103">
<path id="Forma_1" fill="#373B51" d="M27.4,33.8c0-1,0.1-4,2.3-4.8c2.2-0.8,4.4,1.4,4.8,1.8c0.5,0.6,0.5,1.4,0,2c0,0,0,0-0.1,0.1
	c-0.6,0.5-1.5,0.5-2.1-0.1c-0.4-0.5-1-0.9-1.6-1.1c-0.3,0.7-0.4,1.4-0.4,2.2c-0.3,3,1.5,5.8,4.3,6.9c0.5,0.1,0.8,0.5,1,1l0.1,0.2
	c0,0.1,0,0.2,0,0.3c1.2,14.2,12.8,18.8,18.2,18.8s17-4.6,18.2-18.8c0-0.1,0-0.2,0-0.3l0.1-0.2c0.1-0.5,0.5-0.8,1-1
	c2.8-1.1,4.5-3.9,4.3-6.9c-0.1-1.8-0.5-2.2-0.5-2.2c-0.6,0.3-1.1,0.7-1.6,1.1c-0.6,0.6-1.5,0.6-2.1,0.1c-0.6-0.5-0.6-1.4-0.1-2
	c0,0,0,0,0.1-0.1c0.4-0.4,2.7-2.6,4.8-1.8c2.2,0.8,2.3,3.8,2.3,4.8c0.3,3.9-1.9,7.6-5.4,9.4C73.5,57.6,61.9,64,53.9,64
	s-19.6-6.4-21.1-20.8C29.3,41.5,27.1,37.8,27.4,33.8z M31.2,24.2C31.2,4.3,47.6,0,53.9,0c6.3,0,22.8,4.3,22.8,24.2
	c0,0.6-0.4,1.2-1,1.4l-2.3,0.7l-2.1,2.2c-0.3,0.3-0.7,0.5-1.1,0.5c0,0-0.1,0-0.1,0c-0.5,0-0.9-0.3-1.1-0.7
	c-0.1-0.1-3.1-4.1-14.9-4.1c-12,0-14.9,4.1-14.9,4.1c-0.3,0.4-0.7,0.6-1.1,0.7c-0.5,0-0.9-0.1-1.2-0.4l-2.1-2.2l-2.3-0.7
	C31.6,25.4,31.2,24.8,31.2,24.2L31.2,24.2z M34.2,23.1l1.6,0.5c0.3,0.1,0.5,0.2,0.7,0.4l1.3,1.3c2-1.6,6.5-4.1,16.2-4.1
	s14.2,2.4,16.2,4.1l1.3-1.3c0.2-0.2,0.4-0.3,0.7-0.4l1.6-0.5C73,3.4,54.1,2.9,53.9,2.9S34.8,3.4,34.2,23.1L34.2,23.1z M37.6,19.6
	c-0.3-0.7,0.1-1.6,0.9-1.8c0,0,0,0,0,0c2.1-0.7,4.3-1.3,6.4-1.7c-0.3-1.2-0.7-2.3-1-3.5c-0.1-0.4,0-0.8,0.2-1.1
	c0.2-0.3,0.5-0.6,0.9-0.7c5.8-1.4,12-1.4,17.8,0c0.4,0.1,0.7,0.3,0.9,0.7c0.2,0.3,0.3,0.7,0.2,1.1c-0.3,1.2-0.7,2.3-1,3.5
	c2.2,0.4,4.3,1,6.4,1.7c0.7,0.2,1.2,1,0.9,1.8c0,0,0,0,0,0c-0.3,0.8-1.1,1.1-1.9,0.9c-9.3-3.2-19.5-3.2-28.8,0
	C38.8,20.8,37.9,20.4,37.6,19.6L37.6,19.6z M47.9,15.6c4-0.5,8.1-0.5,12.1,0c0.2-0.8,0.5-1.5,0.7-2.3c-4.4-0.9-9-0.9-13.4,0
	C47.4,14.1,47.7,14.9,47.9,15.6L47.9,15.6z M103,46.4v7.4c0,0.8-0.4,1.5-1.1,1.9l-5.5,3.1v18.1c0,0,0,0.1,0,0.1
	c1.5,0.1,3,0.7,4.1,1.8c1.8,1.7,1.8,4.2,1.8,6.3v10c-0.1,4.5-3.9,8-8.4,7.8c-4.3-0.1-7.7-3.6-7.8-7.8V85c0-2.1,0-4.6,1.8-6.3
	c1.2-1,2.6-1.6,4.1-1.8c0,0,0-0.1,0-0.1v-2.2c-1.7-5.2-4.7-9.8-8.8-13.3L79,72.6V103H28.9V72.6l-4.3-11.7
	c-5.9,4.7-9.7,10.9-10.6,17.5c0.1,0.1,0.3,0.2,0.4,0.3c1.8,1.7,1.8,4.2,1.8,6.3v10c-0.1,4.5-3.9,8-8.4,7.8C3.6,102.7,0.1,99.3,0,95
	V85c0-2.1,0-4.6,1.8-6.3c0.8-0.7,1.7-1.2,2.7-1.5v-7.6c0-0.8,0.7-1.5,1.5-1.4c0,0,0,0,0,0H7V54.3c0-0.6,0.5-1.1,1.2-1.1
	c0.6,0,1.1,0.5,1.1,1.1v13.9h1.1c0.8,0,1.5,0.6,1.5,1.4c0,0,0,0,0,0v4.9c2-6.7,6.1-12.5,11.8-16.6l-0.4-1.2
	c-0.3-0.7,0.1-1.6,0.9-1.8c0,0,0,0,0,0c0.8-0.3,1.6,0.1,1.9,0.9l0.2,0.4c2.1-1.3,4.2-2.4,6.5-3.3c0.4-0.2,0.8-0.1,1.2,0
	c0.4,0.2,0.7,0.5,0.8,0.8c2.6,7.5,10.1,12.3,19.2,12.3s16.6-4.8,19.2-12.3c0.1-0.4,0.4-0.7,0.8-0.8c0.4-0.2,0.8-0.2,1.2,0
	c2.4,1,4.6,2.2,6.7,3.6l0.3-0.7c0.3-0.8,1.1-1.2,1.9-0.9c0.7,0.2,1.2,1,0.9,1.8c0,0,0,0,0,0l-0.6,1.6c3.1,2.5,5.7,5.6,7.8,9v-8.7
	l-5.5-3.1c-0.7-0.4-1.1-1.1-1.1-1.9v-7.4c0-1.2,1.1-2.2,2.3-2.2c1.2,0,2.1,1,2.2,2.2v6.1l4.4,2.4l4.4-2.4v-6.1
	c0.1-1.2,1.1-2.2,2.3-2.1C102,44.4,102.9,45.3,103,46.4L103,46.4z M7.4,75.8h1.4v-4.8H7.4L7.4,75.8L7.4,75.8z M12.8,97.1h-3
	c-0.8,0-1.5-0.6-1.5-1.4c0-0.8,0.6-1.5,1.4-1.5c0,0,0.1,0,0.1,0h3.5v-2.4H9.8c-0.8,0-1.5-0.6-1.5-1.4s0.6-1.5,1.4-1.5
	c0,0,0.1,0,0.1,0h3.5v-2.6H9.8c-0.8,0-1.5-0.6-1.5-1.4s0.6-1.5,1.4-1.5c0,0,0.1,0,0.1,0h3.5c0-0.9-0.3-1.9-0.9-2.6
	c-0.7-0.7-2.2-1.1-4.3-1.1S4.6,80,3.9,80.8C3,81.6,3,83.3,3,85v10c0,2.8,2.3,5,5.1,5C10.1,100,11.9,98.9,12.8,97.1L12.8,97.1z
	 M33.5,75.8c0-0.5-0.4-1-0.9-1c-0.5,0-1,0.4-1,0.9s0.4,1,0.9,1c0,0,0,0,0,0C33,76.7,33.5,76.3,33.5,75.8
	C33.5,75.8,33.5,75.8,33.5,75.8L33.5,75.8z M67.4,89.8c0-0.8-0.7-1.5-1.5-1.4c0,0,0,0,0,0H42c-0.8,0-1.5,0.6-1.5,1.4
	s0.6,1.5,1.4,1.5c0,0,0.1,0,0.1,0h23.9C66.7,91.3,67.4,90.7,67.4,89.8L67.4,89.8z M53.9,76.7c0.5,0,0.9-0.4,0.9-0.9
	c0-0.5-0.4-0.9-0.9-0.9c-0.5,0-0.9,0.4-0.9,0.9C53,76.3,53.4,76.7,53.9,76.7L53.9,76.7z M76.3,75.8c0-0.5-0.4-1-0.9-1
	c-0.5,0-1,0.4-1,0.9s0.4,1,0.9,1c0,0,0,0,0,0C75.9,76.7,76.3,76.3,76.3,75.8L76.3,75.8z M80.6,59.4c-1.7-1.2-3.5-2.3-5.5-3.2
	C71.7,64,63.5,69,53.8,69s-18-5-21.4-12.8c-1.8,0.8-3.6,1.8-5.2,2.9l4.8,13.2h44L80.6,59.4z M98.4,80.8c-0.7-0.7-2.2-1.1-4.3-1.1
	s-3.5,0.4-4.3,1.1c-0.6,0.7-0.9,1.7-0.9,2.6h3.5c0.8,0,1.5,0.6,1.5,1.4s-0.6,1.5-1.4,1.5c0,0-0.1,0-0.1,0H89v2.6h3.5
	c0.8,0,1.5,0.6,1.5,1.4s-0.6,1.5-1.4,1.5c0,0-0.1,0-0.1,0H89v2.4h3.5c0.8,0,1.5,0.6,1.5,1.4c0,0.8-0.6,1.5-1.4,1.5c0,0-0.1,0-0.1,0
	h-3c0.9,1.8,2.7,3,4.7,2.9c2.8,0,5.1-2.2,5.1-5V85C99.3,83.3,99.3,81.6,98.4,80.8L98.4,80.8z M54.8,35.4v7.1h-3.3
	c-0.8,0-1.5,0.6-1.5,1.4c0,0.8,0.6,1.5,1.4,1.5c0,0,0.1,0,0.1,0h4.8c0.8,0,1.5-0.6,1.5-1.4v-8.6c0-0.8-0.7-1.5-1.5-1.5
	C55.5,33.9,54.9,34.6,54.8,35.4L54.8,35.4z"/>
</svg>
