<?xml version="1.0" encoding="utf-8"?>
<!-- Generator: Adobe Illustrator 22.0.1, SVG Export Plug-In . SVG Version: 6.00 Build 0)  -->
<svg version="1.1" id="Ebene_1" xmlns="http://www.w3.org/2000/svg" xmlns:xlink="http://www.w3.org/1999/xlink" x="0px" y="0px"
	 viewBox="0 0 419.8 183.2" enable-background="new 0 0 419.8 183.2" xml:space="preserve">
<path d="M413.8,112.7v-0.1c1-0.2,1.6-1.1,1.6-2.1c0-1.7-1.4-2.1-2.9-2.1h-3.3v8.7h1.3v-3.8h1.8
	c0.5,0,1.1,0.2,1.3,0.5c0.3,0.4,0.3,1.1,0.4,1.8c0.1,0.5,0.2,1.1,0.3,1.5h1.3c-0.2-0.7-0.3-1.7-0.4-2.5
	C415,113.5,414.9,112.8,413.8,112.7 M412.6,112.1h-2v-2.8h2c1.3,0,1.6,0.7,1.6,1.4C414.2,111.4,413.7,112.1,412.6,112.1"/>
<path d="M353,115.2c-17.2,9-39.3,10.6-39.2-10.8c0,0-0.6-0.6-1.4-0.1c-5.7,3.5-11.2,7.5-17.2,10.1
	c-14.6,6.3-41.2,15.6-36.5-8c1.8-9.6,19.2-37.8,21.6-41.3c-0.2,0.3-4.7,0.9-4.6,0.7c-16.4,20.3-29.7,35-42,44
	c-6.6,4.8-18.3,11.8-29.6,11.8c0,0-9,0.8-9.3-12.8c0,0-0.5-0.1-1.1,0c-10.6,8.8-66.2,31.8-49.8-18.9c0.1-0.3-0.5,0-0.5,0
	c-10.6,7.6-31.6,19.1-47,26c-17.7,22.9-27.7,35-42.3,52.1c-0.6,0.6-2.6,1.9-4.3,2.6c-1.6,0.4-40.9,11.6-45.2,12.3
	c-5.7,1.3-4.8-0.2-3.9-1.6c10.1-16.2,37.9-49.2,70.2-76c12-16.8,18.2-26.1,26.8-41.2c0.5-1,1.4-1.5,2.5-1.6c10.8-2.4,19-4,29.5-6.1
	c-2.5,0.5,2.1-0.9,1.2,1c-9,15.4-10.9,18.3-21.8,35.5c-0.2,0.2,0.7,0.4,1.3,0.2c3.5-1.3,37.2-19.9,46.5-30.7c0-0.1,0.6-0.4,1-0.5
	c12.5-2.6,11.4-1.7,24-4.3c0.2-0.1,1.4,0.2,1,1c-8,13.1-10,17.5-10.6,19.6c-6.4,22,19.4,12,28.4-1.7c3.5-5,5.7-9.5,7.8-13.2
	c0.6-1.2,0.6-2,2.7-2.1c0,0,17.7-3,25.4-4.6c2.5-0.4,2.2,0.4,1.9,1.1c-5.1,8.3-13.8,22.9-17.4,31c-4.4,10.2,0.3,12.3,7.2,7.8
	c7.3-4.7,24.4-21,33.7-32.1c0,0-0.5,0.2-2.9,0.6c-1.3,0.1-2.4-0.3-1.2-2.4c2.3-4.2,5.1-9.3,10.5-19.1c0.2-0.3,0.9-0.9,1.2-0.9
	c0.8-0.2,35.9-9.6,35.9-9.6c3.9-1.1,0.2,3.1,1.6,1.3c-7.5,10.5-11.9,15.9-20.1,25.4c0.2-0.2-0.9,1.3,1.1,1.1c12-2,8.3-2,19.8-3.9
	c1.3-0.3,3,0.2,1.8,2c-8.9,15.1-10.5,19.9-19.3,34.6c-4.9,8,1.1,10,12.1,3.2c6.8-4.1,10.1-9,13.5-12.5c4.4-4.7,8.5-9.2,12.9-12.6
	c5.3-4.1,11-7.6,24.4-10.5v0.1v-0.1c10.9-2.2,27-4,52.3-5c1.8-0.1,1.5,0.7,0.7,2c-3.9,8.1-12.7,24.6-19,39.1
	c-1.6,3.5-3.3,8.8,0.5,9.4c2.7,0.4,5.1-1.3,9.7-4.1c0.1-0.2,0.4-0.3,0.7-0.2c0.1,0,1.2,0.6,1.6,0.8c0.2,0.3,0.1,0.5,0.1,0.6
	c-2.9,4.9-5.2,8.7-9.6,13c-10.6,10.3-25.8,2.7-25.5-8.1c0-0.2-0.8-0.3-1.1,0c-2.8,2.4-6.1,4.6-9.6,6.5l-0.1,0.1
	C353.5,114.8,353.2,114.9,353,115.2 M354.6,93.1c1.4-1,4.1-2.5,6-4.4c1.8-1.7,4.6-5,5.6-6.5c1.4-2.1,3.7-5.8,3.1-8.4
	c-0.5-1.7-3.2-2.2-5.9-2c-3.6,0.2-7,1.2-10.4,2.6c-0.5,0.2-1.2,0.5-1.8,0.7c-2.8,1.3-7,4.3-9.3,6.7c-3,3.4-5.9,8.8-4.8,12
	c0.9,2.8,5.8,4.4,9.3,3.1C349.6,95.9,351.7,94.8,354.6,93.1 M122.9,7.1L122.9,7.1c-2.1,4.1-5.4,9.2-7.7,15.3
	c-4.7,12.6,20.9,9.1,30.2-5c4.1-6.2,5.9-9.4,8.5-14.8c1.8-3.5-1.1-2.5-1.7-2.4l-25.6,4.7C126.6,4.9,123.8,5.4,122.9,7.1"/>
<path d="M412.2,105.2c-4.1,0-7.6,3.2-7.6,7.5c0,4.4,3.5,7.6,7.6,7.6c4.2,0,7.6-3.2,7.6-7.6
	C419.8,108.4,416.4,105.2,412.2,105.2 M412.2,119.2c-3.5,0-6.4-2.9-6.4-6.5c0-3.5,2.9-6.4,6.4-6.4c3.6,0,6.4,2.9,6.4,6.4
	C418.7,116.3,415.9,119.2,412.2,119.2"/>
</svg>
