<svg version="1.1" id="Слой_1" xmlns="http://www.w3.org/2000/svg" xmlns:xlink="http://www.w3.org/1999/xlink" x="0px" y="0px"
	 viewBox="0 0 35.8 18" enable-background="new 0 0 35.8 18" xml:space="preserve">
<path fill="#ffffff" d="M0.4,11.2L0,15.3h4.3C4.5,16.8,5.7,18,7.4,18s3.1-1.1,3.6-2.7h14.3c0.2,1.5,1.5,2.7,3.1,2.7
	c1.6,0,3.1-1.1,3.6-2.7h2.9l0.9-3.2c0.1-0.2,0-0.5-0.1-0.6c-0.1-0.2-0.3-0.3-0.6-0.3h-0.8l0.5-4.6c0.1-0.5-0.3-0.9-0.8-1l-4.2-0.4
	c-0.1,0-0.1,0-0.2-0.1l-1.3-2.7l-0.9-2c-0.1-0.2-0.3-0.3-0.5-0.4c-0.1,0-0.1,0-0.2,0c0,0,0,0,0,0l-5.4,0L3.7,0C3,0,2.4,0.5,2.4,1.2
	l-1,10H0.4z M27.1,15.8c-1.1-1.9,1.2-4,3-2.7c0.1,0.1,0.2,0.1,0.2,0.2c1.1,1.9-1.2,4-3,2.7C27.2,15.9,27.2,15.9,27.1,15.8z
	 M21.7,4.3l0.3-2.7h4.2l1.5,3.3h-5.4C21.9,4.9,21.6,4.6,21.7,4.3L21.7,4.3z M10.2,7.5C9.9,7.6,9.5,7.7,9.2,7.7C8.6,7.7,8,7.4,7.6,7
	C7.2,6.5,7,5.8,7.1,5.1c0-0.2,0.1-0.3,0.3-0.3c0.2-0.1,0.3,0,0.4,0.1l0.9,1c0,0,0.1,0,0.1,0c0,0,0.1,0,0.1,0l1.3-1.1
	c0,0,0.1-0.1,0.1-0.1c0,0,0-0.1,0-0.1l-0.9-1c-0.1-0.1-0.1-0.3,0-0.4c0.1-0.1,0.2-0.2,0.4-0.3c0.7,0,1.3,0.2,1.8,0.7
	c0.6,0.7,0.7,1.7,0.3,2.6l3.3,3.6c0,0.8-0.5,1.3-1.1,1.3c-0.2,0-0.5-0.1-0.6-0.3L10.2,7.5z M6.1,15.8c-1.1-1.9,1.2-4,3-2.7
	c0.1,0.1,0.2,0.1,0.2,0.2c1.1,1.9-1.2,4-3,2.7C6.2,15.9,6.2,15.9,6.1,15.8z"/>
</svg>
