<svg version="1.1" id="Capa_1" xmlns="http://www.w3.org/2000/svg" xmlns:xlink="http://www.w3.org/1999/xlink" x="0px" y="0px"
	 viewBox="0 0 298.3 349.7" enable-background="new 0 0 298.3 349.7" xml:space="preserve" fill="#ffffff">
<path fill="#ffffff" d="M298.3,298.3c-4.1-25.7-12.6-58.7-29.7-70.5c-11.6-8-52.2-29.7-69.6-39l-0.3-0.2c-2-1.1-4.4-0.8-6.2,0.5
	c-9.1,7.1-19,11.9-29.6,14.3c-1.9,0.4-3.4,1.7-4.1,3.5l-9.7,25.7l-9.7-25.7c-0.7-1.8-2.2-3.1-4.1-3.5c-10.5-2.3-20.5-7.2-29.6-14.3
	c-1.8-1.4-4.2-1.6-6.2-0.5l-0.3,0.2c-17.3,9.3-57.9,31-69.6,39c-17,11.7-25.5,44.8-29.7,70.5c-0.2,0.9-0.1,1.9,0.3,2.8
	c0.7,2,18.6,48.3,148.8,48.5c130.2-0.2,148.1-46.6,148.8-48.5C298.3,300.2,298.4,299.3,298.3,298.3z M233.8,279.7h-51.3v-10.8h51.3
	V279.7z"/>
<path fill="#ffffff" d="M149.2,197.2c22.1,0,79.8-30,79.8-98.6c0-9.7-0.2-19.1-1-27.9c-1.3-17.4-4.9-32.9-13.8-44.7c-11.3-16-31-25.7-65-25.9
	c-34.1,0.2-53.7,10-65,25.9c-8.9,11.8-12.5,27.3-13.8,44.7c-0.8,8.9-1,18.2-1,27.9C69.3,167.2,127.1,197.2,149.2,197.2z M200.4,98.6
	c1,1.5,1.7,4.9,1.7,7c0,4.7-0.9,13-7.2,16.1c-3,1.5-7.5,2.3-12.1,2.3c-8.7,0-15.7-2.9-18.6-7.8c-6.2-10.5-4.2-16.6-4.1-16.6
	c0.2-0.4,2.1-4,18.9-4.9c2.9-0.2,5.4-0.3,7.5-0.3C195.8,94.4,198.8,96,200.4,98.6z M149.2,31.8c8.1,0.1,16.3,1.5,25.4,4.3
	c-2.4,6-3.5,8.9-5.9,14.9c-7.2-2-13.4-3.1-19.5-3.2c-6.1,0.1-12.3,1.2-19.5,3.2c-2.4-6-3.5-8.9-5.9-14.9
	C132.9,33.3,141.1,31.9,149.2,31.8z M149.2,69.1c25.8,0.3,39.5,12,47.8,19.3c-3.5-0.3-7.2-0.5-11-0.5c-3.2,0-6.6,0.1-9.9,0.4l-0.6,0
	c-6.8,0.5-10.6,0.8-15.2,2.8c-0.9,0.4-2,0.9-3.1,1.5c-1.6,0.8-3.9,1.7-5.1,2c-0.5,0.1-1.6,0.4-2.9,0.4c-1.3,0-2.4-0.3-2.9-0.4
	c-1.2-0.3-3.5-1.2-5.1-2c-1.1-0.6-2.1-1.1-3.1-1.5c-4.6-2.1-8.3-2.3-15.2-2.8l-0.6,0c-3.4-0.2-6.7-0.4-9.9-0.4
	c-3.8,0-7.5,0.2-11,0.5C109.7,81.1,123.3,69.5,149.2,69.1z M97.9,98.6c1.7-2.6,4.6-4.2,14-4.2c2.1,0,4.6,0.1,7.5,0.3
	c16.8,1,18.7,4.5,18.9,4.9c0,0,2.1,6.1-4.1,16.6c-2.9,4.9-9.8,7.8-18.6,7.8c-4.6,0-9.1-0.9-12.1-2.3c-6.4-3.1-7.3-11.4-7.2-16.1
	C96.2,103.5,96.9,100.1,97.9,98.6z M81.3,83.5c0.7,1.5,3,6,6.5,8.7c-0.6,0.8-1,1.8-1.1,3c0,0.7,0,1.8,0,2.9l0,0.1c0,0.6,0,1.1,0,1.4
	c-0.1,2.5,0.9,3.5,1.6,4.2c0.2,0.2,0.3,0.3,0.4,0.4c0.2,0.4,0.4,0.9,0.5,1.4c2.5,15,3.1,17.6,9.9,21.2c3.2,1.7,9.6,2.8,16,2.8
	c5,0,12.2-0.7,18.2-3.8c8.9-4.7,12.2-20.5,12.3-21.1c0.1-0.5,0.8-1.2,3-1.2h1c2.2,0,2.9,0.7,3,1.2c0.1,0.7,3.4,16.5,12.3,21.1
	c6,3.1,13.2,3.8,18.2,3.8c6.4,0,12.8-1.1,16-2.8c6.8-3.6,7.4-6.2,9.9-21.2c0.1-0.6,0.3-1,0.5-1.4c0.1-0.1,0.2-0.3,0.4-0.4
	c0.7-0.7,1.6-1.8,1.6-4.2c0-0.3,0-0.8,0-1.4l0-0.1c0-1,0-2.2,0-2.9c-0.1-1.3-0.5-2.2-1.1-3c3.6-2.7,5.9-7.2,6.5-8.7
	c0.2,5,0.3,10,0.3,15.1c0,34-15,55.1-27.6,66.8c-15.3,14.2-34.3,20-40.5,20s-25.2-5.9-40.5-20c-12.6-11.7-27.6-32.8-27.6-66.8
	C81.1,93.6,81.2,88.5,81.3,83.5z"/>
</svg>
