<?xml version="1.0" encoding="utf-8"?>
<!-- Generator: Adobe Illustrator 22.0.1, SVG Export Plug-In . SVG Version: 6.00 Build 0)  -->
<svg version="1.1" id="Capa_1" xmlns="http://www.w3.org/2000/svg" xmlns:xlink="http://www.w3.org/1999/xlink" x="0px" y="0px"
	 viewBox="0 0 476.7 476.7" enable-background="new 0 0 476.7 476.7" xml:space="preserve">
<path fill="#66717e" d="M238.4,0C106.7,0,0,106.7,0,238.4C0,370,106.7,476.7,238.4,476.7c131.7,0,238.4-106.7,238.4-238.4
	C476.7,106.7,370,0,238.4,0z M352.7,289.2c-6.2,6.2-16.3,6.2-22.5,0l-91.9-91.9l-91.9,91.9c-6.2,6.2-16.3,6.2-22.5,0
	c-6.2-6.2-6.2-16.3,0-22.5l103.1-103.1c3.1-3.1,7.2-4.6,11.3-4.6s8.2,1.5,11.3,4.6l103.1,103.1C358.9,272.9,358.9,283,352.7,289.2z"
	/>
</svg>
