<svg version="1.1" id="Слой_1" xmlns="http://www.w3.org/2000/svg" xmlns:xlink="http://www.w3.org/1999/xlink" x="0px" y="0px"
   viewBox="0 0 33.4 7.8" enable-background="new 0 0 33.4 7.8" xml:space="preserve">
<path id="Эллипс_1_копия_3" d="M3.9,0C6,0,7.7,1.7,7.7,3.9C7.8,6,6,7.7,3.9,7.7S0,6,0,3.9c0,0,0,0,0,0
  C0,1.7,1.7,0,3.9,0C3.9,0,3.9,0,3.9,0z M16.7,0c2.1,0,3.9,1.7,3.9,3.9c0,2.1-1.7,3.9-3.9,3.9S12.9,6,12.9,3.9c0,0,0,0,0,0
  C12.9,1.7,14.6,0,16.7,0C16.7,0,16.7,0,16.7,0z M29.6,0c2.1,0,3.9,1.7,3.9,3.8s-1.7,3.9-3.8,3.9c-2.1,0-3.9-1.7-3.9-3.8c0,0,0,0,0,0
  C25.7,1.7,27.5,0,29.6,0z"/>
</svg>
