<?xml version="1.0" encoding="utf-8"?>
<!-- Generator: Adobe Illustrator 22.0.1, SVG Export Plug-In . SVG Version: 6.00 Build 0)  -->
<svg version="1.1" id="Capa_1" xmlns="http://www.w3.org/2000/svg" xmlns:xlink="http://www.w3.org/1999/xlink" x="0px" y="0px"
	 viewBox="0 0 476.7 476.7" enable-background="new 0 0 476.7 476.7" xml:space="preserve">
<path fill="#66717E" d="M238.4,476.7c131.6,0,238.4-106.7,238.4-238.4C476.7,106.7,370,0,238.4,0C106.7,0,0,106.7,0,238.4
	C0,370,106.7,476.7,238.4,476.7z M124,187.5c6.2-6.2,16.3-6.2,22.5,0l91.9,91.9l91.9-91.9c6.2-6.2,16.3-6.2,22.5,0
	c6.2,6.2,6.2,16.3,0,22.5L249.7,313.1c-3.1,3.1-7.2,4.6-11.3,4.6s-8.2-1.5-11.3-4.6L124,210C117.8,203.8,117.8,193.7,124,187.5z"/>
</svg>
