<svg version="1.1" id="Layer_1" xmlns="http://www.w3.org/2000/svg" xmlns:xlink="http://www.w3.org/1999/xlink" x="0px" y="0px"
	 viewBox="0 0 99.2 37.7" enable-background="new 0 0 99.2 37.7" xml:space="preserve">
<path fill-rule="evenodd" clip-rule="evenodd" d="M51.9,34.8c-0.6,0.1-0.9,0.3-1,0.9c0.1,0.6,0.4,0.9,1,0.8
	c1.1-0.3,1.6-0.8,1.4-1.5v-0.6L51.9,34.8 M30.4,34.8c0.1,1.1,0.6,1.6,1.6,1.6c0.8-0.1,1.2-0.4,1.3-0.9h1.6c-0.5,1.5-1.5,2.2-3,2.2
	c-2.1-0.2-3.2-1.2-3.2-3.3c0.1-2.1,1.2-3.2,3.2-3.3c2.2,0.3,3.2,1.5,3.1,3.8H30.4z M18.5,28.8h1.9v8.7h-1.9V28.8z M33.3,33.7
	c-0.2-0.9-0.6-1.3-1.4-1.3c-1,0.2-1.5,0.6-1.5,1.3H33.3z M25,32.4c-1,0.2-1.5,0.9-1.5,2c-0.1,1.1,0.4,1.8,1.4,2
	c0.8-0.1,1.3-0.5,1.5-1.3H28c-0.3,1.7-1.3,2.6-3.1,2.6c-2-0.2-3.1-1.2-3.2-3.3c0.1-2.1,1.1-3.2,3.2-3.4c1.7,0,2.7,0.8,3,2.4h-1.7
	C26.2,32.7,25.7,32.4,25,32.4z M20,19.8c-0.1-1.1-0.7-1.7-1.9-1.7h-3.2v3.4H18C19.3,21.5,20,20.9,20,19.8z M19.5,13.6
	c-0.1-1-0.6-1.5-1.9-1.5h-2.7v3h2.7C18.8,15,19.5,14.5,19.5,13.6z M31.1,12.1h-1.4V17h1.5c2.2,0,3.3-0.8,3.3-2.5
	C34.5,12.9,33.4,12.1,31.1,12.1z M23.1,13.2l-0.3,1.6c-0.2,0.6-0.6,1.1-1.2,1.5l1.2,1c0.7,0.8,1.1,1.8,1.1,2.9
	c-0.1,1.3-0.4,2.3-1.1,3.1c-0.8,1-2.2,1.6-4,1.7h-5.6c-1.6-0.1-2.3-0.8-2.3-2.2V10.8c0.1-1.4,0.8-2.1,2.3-2.1h4.4
	c2.8,0.1,4.5,1.1,5.2,3L23.1,13.2z M65,33.7h2.8c-0.1-0.9-0.6-1.3-1.4-1.3C65.4,32.5,64.9,33,65,33.7z M52.3,32.2
	c-0.7-0.1-1.1,0.2-1.2,0.9h-1.7c0.3-1.5,1.3-2.2,3-2.1c1.6-0.2,2.5,0.4,2.8,1.8v3.3c0,0.6,0.1,1.1,0.2,1.3h-1.8l-0.2-0.6
	c-0.6,0.5-1.3,0.8-2.1,0.8c-1.3,0-2-0.6-2.2-1.9c0.2-1.2,0.9-1.9,2.2-1.9c1.2,0,1.9-0.3,2-0.9C53.3,32.4,53,32.1,52.3,32.2z
	 M58.4,33.5l2.2-2.3h2l-2.4,2.4l2.6,4h-2.1L59,34.7l-0.6,0.6v2.2h-1.8v-8.7h1.8V33.5z M40.3,31.4v6.1h-1.8v-8.7h2.7l2,6h0.1l1.9-6
	h2.7v8.7h-1.8v-6.2h-0.1L44,37.5h-1.5L40.3,31.4L40.3,31.4z M38.4,23.1c-0.1,1.1-0.8,1.8-1.9,1.9c-0.4,0-0.9-0.2-1.3-0.5l-5.4-4.3
	V23c-0.1,1.3-0.8,2-2,2c-1.2-0.1-1.9-0.8-1.9-2V10.8c0.1-1.4,0.8-2.1,2.3-2.1h3.1c4.6,0.2,7,2.1,7.2,5.9c-0.1,2.3-1.3,3.9-3.9,4.9
	l2.9,1.9C38,21.9,38.4,22.5,38.4,23.1z M49.1,8.7c1.3,0.1,1.9,0.6,2,1.7c-0.1,1.1-0.8,1.7-2,1.7h-5.4v3H48c1.1,0.1,1.7,0.5,1.8,1.5
	c-0.1,1-0.6,1.5-1.8,1.5h-4.3v3.3h5.6c1.2,0.1,1.9,0.6,1.9,1.7c-0.1,1.1-0.7,1.7-1.9,1.7h-7.2c-1.5-0.1-2.2-0.8-2.3-2.2V10.8
	c0.1-1.4,0.8-2.1,2.3-2.1H49.1z M66.4,37.7c-2.1-0.2-3.2-1.2-3.2-3.3c0.2-2.1,1.2-3.2,3.2-3.3c2.2,0.3,3.2,1.5,3.1,3.8H65
	c0.1,1.1,0.5,1.6,1.5,1.6c0.8-0.1,1.2-0.4,1.4-0.9h1.5C68.9,37,67.9,37.7,66.4,37.7z M80.1,14.3l-2,4.6h4.1L80.1,14.3z M78,32.2
	c-0.5-0.1-0.9,0.1-1,0.5c0.2,0.5,0.9,0.8,2,1c1.1,0.1,1.8,0.7,2,1.8c-0.3,1.6-1.2,2.3-2.9,2.2c-1.7,0.1-2.6-0.7-3-2.3h1.7
	c0.1,0.7,0.5,1.1,1.3,1.1c0.6,0.1,1-0.2,1.2-0.8c-0.1-0.5-0.7-0.8-2-1c-1.1-0.1-1.8-0.7-2-1.7c0.2-1.5,1.1-2.2,2.8-2
	c1.6-0.1,2.5,0.5,2.8,2h-1.7C79,32.4,78.7,32.1,78,32.2z M72.2,32.4c0.4-0.8,1.1-1.2,2-1.3l0.4,0.1v1.6L74,32.6
	c-1.2,0.2-1.7,0.9-1.7,2.1v2.8h-1.8v-6.3h1.7V32.4z M71.3,22.5l0.1,0.6c-0.2,1.1-0.8,1.7-1.9,1.8c-1,0-1.7-0.5-2-1.6l-1.8-6.9
	l-2.3,7c-0.3,1.1-0.9,1.6-1.8,1.6c-0.8,0-1.4-0.5-1.8-1.6l-2.2-7l-1.8,6.9c-0.3,1.1-0.9,1.6-1.9,1.6c-1.2-0.1-1.8-0.7-1.9-1.8
	l0.1-0.6l3.1-12.5c0.3-1,0.9-1.5,1.8-1.6c0.9,0,1.5,0.5,1.8,1.4l2.8,7.3l2.6-7.1c0.4-1.1,1-1.7,1.9-1.6c1,0,1.6,0.5,1.9,1.6l3.1,12
	L71.3,22.5z M80.1,8.6c0.9,0.1,1.5,0.4,1.9,1.1l5.8,12l0.1,0.4l0.3,1.1c-0.1,1.1-0.8,1.7-1.9,1.8c-0.9,0-1.5-0.4-1.9-1.3l-0.2-0.4
	l-0.6-1.2h-6.8L76,23.7c-0.4,0.9-1.1,1.3-1.9,1.3c-1.2-0.1-1.8-0.7-1.9-1.8c0-0.4,0.1-0.7,0.3-1l0.2-0.4l5.7-12
	C78.6,9.1,79.2,8.7,80.1,8.6z M86.3,10.2c0.3,0.1,0.4,0,0.5-0.3c-0.1-0.3-0.2-0.4-0.4-0.3H86v0.6H86.3z M87.1,10
	c-0.1,0.3-0.2,0.5-0.5,0.5l0.5,0.8h-0.3l-0.5-0.8H86v0.8h-0.3V9.4h0.8C86.9,9.4,87.1,9.6,87.1,10z M99.2,16.8
	c-0.1-4.6-1.7-8.5-4.6-11.6C91.6,2,87.9,0.3,83.3,0H15.9C11.3,0.3,7.5,2,4.6,5.2c-3,3.1-4.5,7-4.6,11.6v0.1
	c0.1,4.6,1.6,8.5,4.6,11.6l1.9,1.7c2.6,2,5.7,3.2,9.4,3.5v-2.5c-1.5-0.1-3-0.4-4.3-0.9c-1.8-0.7-3.5-1.7-4.9-3.2
	c-2.8-2.9-4.1-6.3-4.2-10.2c0.1-3.9,1.4-7.3,4.2-10.1c2.8-2.8,6.1-4.1,10-4.2h65.9c3.8,0.1,7.2,1.4,9.9,4.2
	c2.8,2.8,4.2,6.1,4.2,10.1c-0.1,3.9-1.5,7.3-4.2,10.2c-2.6,2.5-5.7,3.9-9.2,4.1v2.5c4.6-0.3,8.3-2,11.3-5.2
	C97.5,25.3,99.1,21.4,99.2,16.8L99.2,16.8z"/>
<path d="M86.3,12.3c-1.2-0.1-1.8-0.8-2-2c0.1-1.2,0.7-1.8,1.9-2c1.2,0.1,1.9,0.8,2,1.9c0,0,0,0,0,0
	C88.2,11.5,87.5,12.2,86.3,12.3z M86.3,8.6c-1.1,0.1-1.6,0.7-1.7,1.7c0.1,1.1,0.7,1.7,1.7,1.8c1.1-0.1,1.7-0.7,1.8-1.8
	C88,9.3,87.4,8.7,86.3,8.6z"/>
</svg>
