<?xml version="1.0" encoding="utf-8"?>
<!-- Generator: Adobe Illustrator 22.0.1, SVG Export Plug-In . SVG Version: 6.00 Build 0)  -->
<svg version="1.1" id="Слой_1" xmlns="http://www.w3.org/2000/svg" xmlns:xlink="http://www.w3.org/1999/xlink" x="0px" y="0px"
	 viewBox="0 0 33.7 30.5" enable-background="new 0 0 33.7 30.5" xml:space="preserve">
<path id="Фигура_7" fill="#FDFCFC" d="M33.2,12.4L17.8,0.3c-0.6-0.4-1.3-0.4-1.9,0L0.5,12.4c-0.5,0.3-0.6,0.9-0.3,1.4
	c0.2,0.3,0.6,0.5,0.9,0.5h3.1v14.9c0,0.8,0.6,1.4,1.4,1.4h7.2c0.8,0,1.4-0.6,1.4-1.4v-6.7h5.3v6.7c0,0.8,0.6,1.4,1.4,1.4h7.2
	c0.8,0,1.4-0.6,1.4-1.4V14.2h3.1c0.5,0.1,1-0.3,1.1-0.9C33.7,13,33.5,12.6,33.2,12.4z M21.1,17.1c0,0.1-0.1,0.1-0.2,0.1
	c0,0,0,0-0.1,0l-1-1l-0.7,0.7l1,1c0,0,0.1,0.1,0,0.1c0,0.1-0.1,0.1-0.1,0.1c-0.9,0.4-1.9-0.1-2.3-1c-0.1-0.4-0.2-0.8,0-1.2l-1.3-1.3
	l-1.6,1.6l-0.6,1c0,0,0,0-0.1,0.1l-0.9,0.4c0,0,0,0-0.1,0c0,0-0.1,0-0.1-0.1l-0.6-0.6c0,0-0.1-0.1,0-0.2l0.4-0.9c0,0,0,0,0.1-0.1
	l1-0.6l1.6-1.6l-1.3-1.3c-0.9,0.3-1.9-0.2-2.2-1.1c-0.1-0.4-0.1-0.8,0-1.2c0,0,0.1-0.1,0.1-0.1c0.1,0,0.1,0,0.1,0l1,1l0.7-0.7l-1-1
	c0,0-0.1-0.1,0-0.1c0-0.1,0-0.1,0.1-0.1c0.9-0.3,1.9,0.1,2.3,1c0.1,0.4,0.2,0.8,0,1.2l3.4,3.4c0.9-0.3,1.9,0.2,2.2,1.1
	C21.3,16.3,21.3,16.7,21.1,17.1L21.1,17.1z M21.2,11l-0.8,1c0,0,0,0,0,0l-1.6,1l-0.2,0.6c0,0.1-0.1,0.1-0.1,0.1c0,0,0,0,0,0
	c0,0-0.1,0-0.1-0.1L16.6,12c0,0-0.1-0.1,0-0.1c0-0.1,0.1-0.1,0.1-0.1l0.6-0.2l1-1.6c0,0,0,0,0,0l1-0.9c0.4-0.3,1-0.3,1.4,0.1
	l0.6,0.6C21.6,10,21.6,10.6,21.2,11L21.2,11z"/>
</svg>
