<?xml version="1.0" encoding="utf-8"?>
<!-- Generator: Adobe Illustrator 22.0.1, SVG Export Plug-In . SVG Version: 6.00 Build 0)  -->
<svg version="1.1" id="Слой_1" xmlns="http://www.w3.org/2000/svg" xmlns:xlink="http://www.w3.org/1999/xlink" x="0px" y="0px"
	 viewBox="0 0 175.7 22.7" enable-background="new 0 0 175.7 22.7" xml:space="preserve">
<path fill-rule="evenodd" clip-rule="evenodd" fill="#005597" d="M169,7.8l5.3,0l0.3,0V8c0,0.2,0,0.3-0.2,0.3
	c-1,0.2-2.7,1.2-4.1,2.8l-2.1,2.6l4.6,6.1c0.8,1,1.6,1.5,2.6,1.8c0.1,0,0.1,0,0.2,0.1c0.1,0,0.2,0.2,0.2,0.2v0.3l-9.4,0l0-0.3
	c0-0.1,0.1-0.2,0.3-0.3c0.8-0.2,1.3-1.4,0.5-2.1l-1.7-2.5c-0.9,1.1-2,2.6-2,2.6c-0.9,1-0.6,1.7-0.2,1.9c0.1,0,0.1,0.1,0.2,0.1
	c0.1,0.1,0.2,0.2,0.2,0.3v0.3l-5.4,0l0-0.3c0-0.1,0.1-0.2,0.3-0.3c0.9-0.2,2.1-1.3,3.4-2.8l2.6-3.1l-4-5.4c-0.8-1-1.6-1.5-2.6-1.8
	c-0.2-0.1-0.4-0.2-0.4-0.4c0-0.1,0-0.3,0-0.3l8.8,0l0.3,0V8c0,0.2,0,0.3-0.2,0.3c-0.9,0.2-1.4,1.4-0.6,2.1l1.3,1.8l0,0
	c0.9-1.1,1.6-1.9,1.6-1.9c0.9-1.1,0.6-1.7,0.2-2c0,0,0,0-0.1-0.1c-0.1-0.1-0.2-0.2-0.2-0.3c0-0.1,0-0.3,0-0.3L169,7.8L169,7.8z"/>
<path fill-rule="evenodd" clip-rule="evenodd" fill="#005597" d="M47.1,4.7C46.6,3.5,45.3,3,44,3h-5.4v7.2l4.2,0
	c1.4,0,2.8-0.3,3-1.4c0-0.1,0.1-0.2,0.2-0.2h0.3l0,5.1l-0.3,0c-0.1,0-0.2-0.1-0.2-0.3c-0.3-0.9-1.6-1.4-3-1.4h-4.2v5.8
	c0,1.7,0.6,2.2,2.3,2.2h3c1.4,0,3-0.7,3.6-2.1c0-0.1,0.1-0.2,0.2-0.2H48v4.3H32l0-0.3c0-0.1,0.1-0.3,0.3-0.3c1-0.1,1.8-1.1,1.8-2.7
	V4.1c0-1.6-0.8-2.6-1.8-2.7c-0.2,0-0.3-0.1-0.3-0.3l0-0.3h15.5l0,4h-0.2C47.2,4.8,47.1,4.8,47.1,4.7L47.1,4.7z"/>
<path fill-rule="evenodd" clip-rule="evenodd" fill="#005597" d="M57.7,22.2l0-0.3c0-0.1-0.1-0.3-0.3-0.3c-1-0.1-1.7-1.1-1.7-2.7
	V3.5c0-1.2,0-3.5,0-3.5l-6.2,0.8l0,0.3c0,0.1,0.1,0.3,0.3,0.3c1,0.1,1.8,1.1,1.8,2.7c0,0,0,14.9,0,14.9c0,1.6-0.8,2.6-1.7,2.7
	c-0.2,0-0.3,0.1-0.3,0.3l0,0.3H57.7L57.7,22.2z"/>
<path fill-rule="evenodd" clip-rule="evenodd" fill="#005597" d="M139.9,22.2l0-0.3c0-0.1-0.1-0.3-0.3-0.3c-1-0.1-1.7-1.1-1.7-2.7
	l0-15.4c0-1.2,0-3.5,0-3.5l-6.2,0.8l0,0.3c0,0.1,0.1,0.3,0.3,0.3c1,0.1,1.8,1.1,1.8,2.7c0,0,0,14.9,0,14.9c0,1.6-0.8,2.6-1.7,2.7
	c-0.2,0-0.3,0.1-0.3,0.3l0,0.3H139.9L139.9,22.2z"/>
<path fill-rule="evenodd" clip-rule="evenodd" fill="#005597" d="M108,7.5c0,0,0,2,0,3.2c0.7-1.2,1.9-3.5,4.7-3.5
	c0.5,0,0.9,0.1,1.2,0.2l-1.2,4c-0.1,0-1.2,0-1.8,0c-1.8,0-2.9,1.1-2.9,2.6l0,4.9c0,1.6,0.8,2.6,1.7,2.7c0.2,0,0.3,0.1,0.3,0.3l0,0.3
	H102l0-0.3c0-0.1,0.1-0.3,0.3-0.3c1-0.1,1.8-1.1,1.8-2.7c0-1.2,0-6,0-7.3c0-1.6-0.7-2.5-1.7-2.7c-0.2,0-0.3-0.2-0.3-0.4
	c0-0.2,0-0.2,0-0.2L108,7.5L108,7.5z"/>
<path fill-rule="evenodd" clip-rule="evenodd" fill="#005597" d="M157.3,22.2h-3.8c-1.3,0-1.7-0.8-1.7-1.5c-1.7,1.3-2.9,1.8-5,1.9
	c-2.5,0.1-4.7-1.4-4.7-4.1l0-6.9c0-1.6-0.8-2.6-1.8-2.7c-0.2,0-0.3-0.1-0.3-0.3l0-0.3l6.3-0.8l0,8.9c0,4,3.9,3.6,5.4,2.4l0-7.3
	c0-1.6-0.8-2.6-1.8-2.7c-0.2,0-0.3-0.1-0.3-0.3l0-0.3l6.3-0.8l0,11.4c0,1.2,0.2,2.5,1.2,2.7c0.2,0,0.3,0.1,0.3,0.3
	c0,0.1,0,0.2,0,0.2H157.3L157.3,22.2z"/>
<path fill-rule="evenodd" clip-rule="evenodd" fill="#005597" d="M88.6,12V8.3c0,0-2.2-1-5.7-1c-4.6,0-7.7,2.3-7.8,7.9
	c0,4.4,2.6,7.4,7.6,7.4c3.3,0,5.2-1.6,6-2.3c0.4-0.3,0.4-0.6,0.4-1c0-0.4,0-1,0-1c-1.4,1-3.2,1.7-5,1.7c-3.6,0-4.7-2.6-4.7-5.4
	c0-1.2,0.4-5.2,3.8-5.2c2.2,0,3.4,0.7,4.7,2.8c0.2,0.3,0.4,0.4,0.6,0.4L88.6,12L88.6,12z"/>
<path fill-rule="evenodd" clip-rule="evenodd" fill="#005597" d="M122.5,9.2c-2.7,0-3.5,2.1-3.5,5.5c0,2.7,0,6.1,3.5,6.1
	c3.3-0.1,3.3-2.9,3.3-6C125.8,11.2,124.9,9.3,122.5,9.2L122.5,9.2L122.5,9.2z M122.2,7.2c3.5-0.1,8.3,0.8,8.3,7.4c0,5.2-1.9,8-8.3,8
	c-4.4,0-8-1-8-7.6C114.3,8.3,119.2,7.3,122.2,7.2L122.2,7.2L122.2,7.2z"/>
<path fill-rule="evenodd" clip-rule="evenodd" fill="#005597" d="M73.3,14.4h-10c-0.2,4.6,2.3,5.5,4.7,5.5c2.1,0,3.6-0.7,4.9-1.6
	c0,0,0,0.9,0,1.2c0,0.2-0.1,0.4-0.2,0.5c-0.9,1.2-3.2,2.6-6.4,2.6c-4.3,0-7.4-2.2-7.4-7.4c0-5.6,3.1-8,7.5-8h0c4.5,0,6.8,2.1,7,6.7
	L73.3,14.4L73.3,14.4z M66.3,9c-1.4,0.1-2.7,0.7-3,3.7h5.9C69.3,9.6,67.7,9,66.3,9L66.3,9L66.3,9z"/>
<path fill-rule="evenodd" clip-rule="evenodd" fill="#005597" d="M100.5,8.4V7.8h-4.6l0-4.3l-6.1,6.3h2v8.4c0,1.4,0.4,4.5,4.5,4.5
	c1.8,0,3.1-0.6,4-1.5c0.4-0.3,0.4-0.5,0.4-0.8c0-0.2,0-0.5,0-1c-2.6,1.4-4.8,0.5-4.8-2.3V9.8h3.3C99.8,9.7,100.5,9.4,100.5,8.4
	L100.5,8.4z"/>
<path fill-rule="evenodd" clip-rule="evenodd" fill="#005597" d="M0,0.8v21.4h21.4V0.8H0L0,0.8z M12.6,2.2c0,4.8-4.5,8.7-9.4,8.7
	l-2,0C1.5,5.9,5.6,2,10.7,2C11.3,2,11.9,2,12.6,2.2L12.6,2.2z M12.6,20.9C11.9,21,11.3,21,10.7,21c-5,0-9.2-3.9-9.5-8.9h2
	C8,12.1,12.6,16,12.6,20.9L12.6,20.9z M13.8,2.5c3.7,1.3,6.4,4.8,6.4,9c0,4.2-2.7,7.7-6.4,9C13.8,19.6,13.8,3.4,13.8,2.5L13.8,2.5z"
	/>
</svg>
