<?xml version="1.0" encoding="utf-8"?>
<!-- Generator: Adobe Illustrator 22.0.1, SVG Export Plug-In . SVG Version: 6.00 Build 0)  -->
<svg version="1.1" id="Capa_1" xmlns="http://www.w3.org/2000/svg" xmlns:xlink="http://www.w3.org/1999/xlink" x="0px" y="0px"
	 viewBox="0 0 612 612" enable-background="new 0 0 612 612" xml:space="preserve">
<g>
	<path d="M188.3,425.8c-3.6-3.6-6.8-7-9.8-10.5c-0.3-0.3-0.5-0.6-0.7-0.9l-0.6-0.8c-2.8-3.3-5.4-6.7-8-10.2
		c-0.1-0.2-0.2-0.4-0.4-0.5c-0.1-0.2-0.2-0.4-0.3-0.5c-8.9-12.7-15.9-26.2-20.8-40.3c-4.9-14-8-29.1-9-44.7c0-0.1,0-0.1,0-0.2
		c0-0.2,0-0.3,0-0.5c-3.6-58,23.8-114.7,71.4-148c3.2-2.2,3.9-6.6,1.7-9.8c-2.2-3.2-6.6-3.9-9.8-1.7
		c-51.6,36.1-81.2,97.5-77.3,160.3c0,0.1,0,0.1,0,0.2c0,0.5,0,1,0.1,1.5c1.2,16.6,4.5,32.6,9.8,47.6c5.3,15,12.7,29.4,22,42.8
		c0.2,0.4,0.4,0.7,0.6,1c0.1,0.2,0.2,0.3,0.4,0.5c0.1,0.1,0.1,0.2,0.2,0.3c2.8,3.9,5.7,7.6,8.7,11.2l0.5,0.6c0.4,0.5,0.8,1,1.1,1.3
		c3.1,3.7,6.5,7.3,10.4,11.1c0.2,0.2,0.3,0.4,0.5,0.5c1.3,1.4,3.2,2.2,5.1,2.2c0.5,0,1,0,1.5-0.2c2.4-0.5,4.3-2.2,5.1-4.5l0,0
		c1-2.7,0.2-5.6-1.8-7.5C188.5,426,188.4,425.9,188.3,425.8z"/>
	<path d="M610.2,234.1c-0.2-0.7-0.5-1.5-0.8-2.3l-0.3-1c-4.4-12.4-11-31.2-19.2-54.5c-0.2-0.6-0.4-1.3-0.7-2c-0.2-0.5-0.4-1-0.6-1.6
		c-4.6-13.2-12.9-15.1-17.4-15.1c-1.9,0-3.9,0.4-5.8,1c-8.6,3-22.6,7.8-40.6,14.1c-17.2-28.3-39.6-52.7-66.5-72.5
		c17.7-36.3,17.9-37,18.2-37.9c0.4-1.2,0.6-2.5,0.7-3.6c0.9-7.9-3.9-14.1-14.2-18.6c-1.2-0.5-10.8-5.2-28.6-13.9l-3.8-1.9
		c-13.1-6.5-23.4-11.5-24.7-12.2c-11.6-6.3-20.4-4.8-25.6,2.9c-0.4,0.6-1.1,1.7-20.4,40.8c-17.8-3.8-36-5.8-54.4-5.8
		c-0.5,0-1,0.1-1.4,0.2c-10.2,0.1-20.4,0.7-30.5,2c-14.7-41.5-15.4-43-15.7-43.6c-2.8-5.4-7.8-8.4-14-8.4c-3.3,0-7,0.8-11.2,2.6
		c-1.2,0.5-13.9,5-29.9,10.7c-22.1,7.8-29.3,10.2-30,10.5c-16.4,4.9-17,14.9-15.9,20.4c0.2,0.9,0.3,1.7,15,43.7
		c-26.4,16.2-49.4,37-68.6,61.8c-40.2-18.7-41-18.9-41.9-19.3c-1.6-0.5-3.3-0.7-4.8-0.7c-7.3,0-13,4.9-17,14.6
		c-0.5,1.1-5,10.8-13.4,28.8C17.1,193,13.3,201,12.9,201.9c-7.9,15.2-1.3,22.5,3.4,25.5c0.7,0.5,1.6,1,40.9,19.5
		c-7.3,30.3-9,61-5.1,91.4C10,353.1,9.2,353.6,8.5,354c-5,2.6-12.4,9.2-6,25c0.3,0.8,3.2,9.1,10.7,30.1c7.1,20.4,10.2,29.3,10.4,30
		c4,13.5,11.4,16.3,16.9,16.3c1.1,0,2.3-0.1,3.4-0.4c0.7-0.1,2-0.4,43.8-15c14.4,23.5,32.4,44.4,53.7,62.2L120.4,545
		c-3.6,7.5-2.6,17.9,11.3,24.7l0.9,0.5c0.7,0.4,1.5,0.7,2.3,1.2c22.4,11,40.3,19.7,52.2,25.6c1,0.5,2.2,1.1,3.1,1.5
		c4.1,2,8.1,3.1,11.7,3.1c6.5,0,11.8-3.4,14.7-9.3c3.4-6.9,8.7-17.6,15.4-31.2l4.1-8.4c33.2,9.5,68.2,12.1,102.6,7.7l14.3,40.5
		c2.5,7,8.3,11.1,15.9,11.1c2.9,0,6.2-0.6,9.6-1.8l3.4-1.2c8.2-2.9,19.1-6.7,32.3-11.4l22.6-8c0.7-0.3,1.5-0.5,2.2-0.8l1.1-0.4
		c12.2-4.3,14.6-11.8,15-15.8c0.3-2.5,0-5-0.9-7.5c-3-8.5-7.9-22.5-14.2-40.5c27.7-16.9,51.7-38.9,71.4-65.4
		c17.5,8.2,31.2,14.5,39.5,18.4c2.4,1.1,4.8,1.7,7.2,1.7c4.1,0,11.8-1.7,17.2-13.3l1.6-3.4c5.5-11.9,14-30,24.5-52.5
		c0.5-1.1,1.2-2.4,1.6-3.4c1.9-4,2.8-7.7,2.8-11.1c0.1-6.8-3.3-12.4-9.5-15.3l-5.3-2.5c-8.4-4-20.3-9.5-34.8-16.4
		c4.1-18.4,6.2-37,6.2-55.6c0-10.6-0.6-21.3-2-31.9c15.9-5.6,28.6-10.1,37.2-13.1l3.2-1.1c6.5-2.3,10.6-7.5,11.1-14.3
		C612.2,242.1,611.6,238.3,610.2,234.1z M597.9,244.4c-0.1,1.3-0.4,1.7-1.7,2.2l-3.3,1.2c-9.6,3.4-24.3,8.6-42.6,15
		c-3.2,1.1-5.1,4.3-4.6,7.7c1.8,11.7,2.6,23.7,2.6,35.6c0,19.3-2.4,38.8-7.1,57.9c-0.8,3.2,0.8,6.6,3.8,8
		c16.8,7.9,30.5,14.4,40,18.8l5.3,2.5c1.3,0.6,1.5,1.1,1.5,2.4c0,1-0.3,2.7-1.6,5.4c-0.4,0.9-1,2.1-1.5,3.2
		c-10.6,22.6-19,40.7-24.5,52.5l-1.6,3.3c-1.7,3.7-3.5,5.3-4.5,5.3c-0.3,0-0.8-0.1-1.3-0.4c-9.1-4.2-24.6-11.5-44.7-20.8
		c-3.1-1.4-6.7-0.5-8.7,2.3c-20.3,28.6-45.7,51.8-75.4,69.1c-2.9,1.7-4.2,5.2-3.1,8.4l0.6,1.8c6.9,19.7,12.3,35,15.5,44.1
		c0.2,0.5,0.3,1,0.2,1.5c-0.1,1-1.9,2.6-5.7,4l-1,0.4c-0.8,0.3-1.7,0.6-2.4,0.8l-22.5,7.9c-13.2,4.7-24.1,8.5-32.3,11.4l-3.4,1.2
		c-2.4,0.8-4,1-4.9,1c-1.9,0-2.3-0.6-2.7-1.7l-16.2-46c-1-2.8-3.7-4.7-6.6-4.7c-0.4,0-0.7,0-1.1,0.1c-36,5.5-73,2.7-107.8-8.1
		c-3.3-1-6.9,0.5-8.4,3.6l-6.7,13.7c-6.7,13.6-11.9,24.3-15.4,31.2c-0.6,1.3-1.2,1.5-2.1,1.5c-0.8,0-2.6-0.2-5.5-1.6
		c-1-0.5-2.3-1.1-3.2-1.6c-11.8-5.8-29.7-14.6-52-25.5c-0.8-0.4-1.6-0.8-2.4-1.2l-0.9-0.4c-6.3-3.1-5.3-5.1-4.9-5.9l23.4-47.7
		c1.4-3,0.6-6.5-1.9-8.6c-23.4-18.7-42.7-41.2-57.6-66.9c-1.7-2.9-5.2-4.2-8.4-3.1c-31.9,11.1-45.4,15.7-47.5,16.4
		c-0.2,0-0.3,0-0.4,0c-0.8,0-2.3-2.1-3.5-6.4c-0.5-1.5-5.6-16.4-10.6-30.6c-3.8-10.7-10.2-28.9-10.8-30.6c-2.3-5.7-1.4-6.9-0.8-7.3
		c2.5-1,18.4-6.7,47.3-16.8c3.2-1.1,5.1-4.3,4.6-7.7c-4.9-32.3-3.1-65,5.4-97.2c0.9-3.3-0.7-6.7-3.8-8.1
		c-34.8-16.4-43.5-20.6-44.4-21c-0.4-0.3-1.8-1.2,1.4-7.3c0.7-1.4,7.9-16.7,13.9-29.3c11.4-24.5,13.3-28.6,13.6-29.4
		c2-4.8,3.6-5.9,4-5.9c0.1,0,0.3,0,0.5,0.1c3.5,1.5,33.9,15.6,45.5,21c3,1.4,6.6,0.5,8.6-2.2c19.8-26.9,44.3-49,72.8-65.6
		c2.9-1.7,4.2-5.2,3.1-8.4C183,76.5,172,44.8,170.8,41.1c-0.1-0.7,0.2-2.2,6.2-4c1.8-0.6,22-7.6,30.6-10.7
		c22.2-7.9,29.5-10.4,30.5-10.9c3.1-1.3,4.9-1.5,5.9-1.5c0.9,0,1.1,0.1,1.4,0.7c0.9,2.3,6.5,17.8,16.9,47.4c1.1,3.2,4.3,5.1,7.7,4.6
		c11.7-1.8,23.6-2.7,35.6-2.7c0.5,0,0.9-0.1,1.4-0.1c18.5,0.1,37.1,2.3,55.2,6.6c3.2,0.8,6.5-0.8,7.9-3.7c15.1-30.6,21.3-43,21.9-44
		c0.5-0.7,0.7-0.7,1.1-0.7c0.8,0,2.6,0.3,6,2.1c1,0.6,5.7,2.9,25.4,12.6l3.8,1.9c27.7,13.5,28.7,14,29.2,14.2
		c4.1,1.8,5.9,3.4,5.8,4.3c0,0.2,0,0.3-0.1,0.5c-1.5,3.4-15.5,32.1-20.1,41.6c-1.5,3.1-0.5,6.8,2.3,8.8
		c29.1,20.4,52.7,46.1,70.3,76.5c1.7,2.9,5.2,4.2,8.4,3.1c20.6-7.2,36.5-12.7,46-16c0.4-0.2,0.8-0.2,1.1-0.2c1.3,0,2.9,2.3,4,5.5
		c0.2,0.6,0.4,1.2,0.6,1.9c0.2,0.5,0.4,1,0.6,1.7c8.3,23.6,14.9,42.4,19.2,54.7l0.3,0.8c0.3,1,0.7,2,0.9,2.7
		C597.9,241.6,598,243.3,597.9,244.4z"/>
	<path d="M320.1,186.8c-4.3-0.5-8.6-0.7-12.8-0.7c-61.3,0-112.4,46-119,107.1c-3.4,31.8,5.8,63,25.9,87.9
		c20.1,24.9,48.7,40.5,80.5,43.9c4.3,0.5,8.6,0.7,12.8,0.7c0,0,0,0,0,0c61.3,0,112.4-46,119-107.1c3.4-31.8-5.8-63-25.9-87.9
		C380.5,205.7,351.9,190.2,320.1,186.8z M412.6,317.1c-5.8,53.9-50.9,94.5-105,94.5c-3.8,0-7.6-0.2-11.4-0.6
		c-28.1-3-53.3-16.7-71.1-38.7c-17.7-22-25.9-49.6-22.9-77.6c5.8-53.9,50.9-94.5,105-94.5c3.8,0,7.6,0.2,11.3,0.6
		c28.1,3,53.3,16.7,71.1,38.7C407.4,261.4,415.6,289,412.6,317.1z"/>
</g>
</svg>
