<?xml version="1.0" encoding="utf-8"?>
<!-- Generator: Adobe Illustrator 22.0.1, SVG Export Plug-In . SVG Version: 6.00 Build 0)  -->
<svg version="1.1" id="Слой_1" xmlns="http://www.w3.org/2000/svg" xmlns:xlink="http://www.w3.org/1999/xlink" x="0px" y="0px"
	 viewBox="0 0 39.2 34.1" enable-background="new 0 0 39.2 34.1" xml:space="preserve">
<path id="Фигура_9" fill="#FDFCFC" d="M21.6,28.8v-2.1h-2.1c-0.4,0-0.6-0.3-0.6-0.6c0-0.4,0.3-0.6,0.6-0.6H25
	c0.4,0,0.6,0.3,0.6,0.6c0,0.4-0.3,0.6-0.6,0.6h-2.1v2.1h6.9v-2.1h-2.1c-0.4,0-0.6-0.3-0.6-0.6c0-0.4,0.3-0.6,0.6-0.6h5.4
	c0.4,0,0.6,0.3,0.6,0.6c0,0.4-0.3,0.6-0.6,0.6l0,0H31v2.1h4.2v-11H31v0.9c1.2,0.3,2,1.4,2,2.6c0,0.3-0.3,0.6-0.6,0.6c0,0,0,0,0,0H31
	v0.1c0,0.4-0.3,0.6-0.6,0.7c-0.4,0-0.6-0.3-0.7-0.6c0,0,0,0,0-0.1v-0.1h-1.4c-0.4,0-0.6-0.3-0.6-0.6c0,0,0,0,0,0
	c0-1.2,0.8-2.3,2-2.6v-0.9h-6.9v0.9c1.2,0.3,2,1.4,2,2.6c0,0.3-0.3,0.6-0.6,0.6c0,0,0,0,0,0h-1.4v0.1c0,0.4-0.3,0.6-0.6,0.6
	s-0.6-0.3-0.6-0.6l0,0v-0.1h-1.4c-0.3,0-0.6-0.3-0.6-0.6c0,0,0,0,0,0c0-1.2,0.8-2.3,2-2.6v-0.9h-4.2v11H21.6L21.6,28.8z M39.2,13.3
	V7c0-0.4-0.4-0.8-0.8-0.8c0,0,0,0,0,0h-0.5V4.1c0-1.1-0.9-2-2-2c0,0,0,0,0,0h-6.8v0c0-1.1-0.9-2-2-2c0,0,0,0,0,0H12.2
	c-1.1,0-2,0.9-2,2c0,0,0,0,0,0v0H3.4c-1.1,0-2,0.9-2,2c0,0,0,0,0,0v2.1H0.8C0.4,6.2,0,6.5,0,7c0,0,0,0,0,0v6.3c0,1,0.5,2,1.4,2.5v17
	H0.6c-0.4,0-0.6,0.3-0.6,0.6c0,0.4,0.3,0.6,0.6,0.6l0,0h3.9c-0.3-0.2-0.4-0.6-0.4-1V19c0-0.7,0.5-1.2,1.1-1.2h7.1
	c0.7,0,1.1,0.6,1.1,1.2v14.1c0,0.4-0.2,0.7-0.4,1h25.7c0.4,0,0.6-0.3,0.6-0.6c0-0.4-0.3-0.6-0.6-0.6h-0.7v-17
	C38.7,15.3,39.2,14.3,39.2,13.3z M25,4.7C25,4.8,25,4.9,25,5c0,0,0,0,0,0l-2.3,2.4c-0.4,0.4-0.9,0.5-1.4,0.3l-0.6,0.7l3,2.7
	c0,0,0,0,0.1,0.1c0.4,0.4,0.4,1,0,1.3c-0.4,0.4-0.9,0.4-1.3,0c0,0,0,0,0,0c0,0,0,0-0.1-0.1l-2.6-3l-2.6,3c0,0,0,0-0.1,0.1
	c-0.4,0.4-0.9,0.4-1.3,0c0,0,0,0,0,0c-0.4-0.4-0.4-1,0-1.3c0,0,0,0,0.1-0.1l2.1-1.9C18,9,18.1,9,18.2,9.1c0.1,0.1,0.1,0.2,0,0.3
	L16,11.3l0,0c0,0,0,0,0,0c-0.2,0.2-0.2,0.6,0,0.8c0.2,0.2,0.6,0.2,0.8,0c0,0,0,0,0,0l0,0c0,0,0,0,0,0l3.4-3.9l0,0l0.8-0.9
	c0.1-0.1,0.1-0.1,0.2-0.1c0.4,0.2,0.8,0.1,1.1-0.2l2.3-2.3C24.8,4.6,24.9,4.6,25,4.7C24.9,4.7,25,4.7,25,4.7L25,4.7z M24.4,4.1
	c0.1,0.1,0.1,0.2,0,0.3l-1.9,1.9c0,0-0.1,0-0.1,0.1c0,0-0.1,0-0.1-0.1c-0.1-0.1-0.1-0.2,0-0.3l1.9-1.9C24.2,4.1,24.3,4.1,24.4,4.1
	L24.4,4.1z M23.9,3.6c0.1,0.1,0.1,0.2,0,0.3L22,5.8c0,0-0.1,0.1-0.1,0.1c0,0-0.1,0-0.1-0.1c-0.1-0.1-0.1-0.2,0-0.3l1.9-1.9
	C23.7,3.5,23.8,3.5,23.9,3.6L23.9,3.6z M15.3,3.9c0.4-0.4,1-0.5,1.6-0.3c0.7,0.2,1.3,0.6,1.8,1.1c0.6,0.6,0.7,1.4,0.3,2.1l0.7,0.6
	l0.7-0.6c-0.2-0.5-0.1-1,0.3-1.4l2.3-2.4c0.1-0.1,0.2-0.1,0.3,0c0.1,0.1,0.1,0.2,0,0.3L21,5.7c-0.3,0.3-0.4,0.7-0.2,1.1
	c0,0.1,0,0.2,0,0.2l-1.6,1.4c0,0-0.1,0.1-0.1,0.1c-0.1,0-0.1,0-0.1-0.1l-0.7-0.8c-0.7,0.4-1.6,0.2-2.1-0.3c-0.5-0.5-0.9-1.1-1.1-1.8
	C14.8,4.9,14.9,4.3,15.3,3.9L15.3,3.9z M2.6,4.1c0-0.4,0.3-0.7,0.7-0.7c0,0,0,0,0,0h6.4c0,0,0,0,0,0.1v2.8H2.6L2.6,4.1L2.6,4.1z
	 M36.4,30.7c0,0.4-0.3,0.6-0.6,0.6h-19c-0.4,0-0.6-0.3-0.6-0.6V18.4c0-0.4,0.3-0.6,0.6-0.6h19c0.4,0,0.6,0.3,0.6,0.6L36.4,30.7
	L36.4,30.7z M36.6,16.4H2.7L2.6,15c0.1,0,0.3,0,0.4,0c1-1.3,2.9-1.6,4.2-0.6c0.2,0.2,0.4,0.3,0.6,0.6c1-1.3,2.9-1.6,4.2-0.6
	c0.2,0.2,0.4,0.3,0.6,0.6c1-1.3,2.9-1.6,4.2-0.6c0.2,0.2,0.4,0.3,0.6,0.6c1-1.3,2.9-1.6,4.2-0.6c0.2,0.2,0.4,0.3,0.6,0.6
	c1-1.3,2.9-1.6,4.2-0.6c0.2,0.2,0.4,0.3,0.6,0.6c1-1.3,2.9-1.6,4.2-0.6c0.2,0.2,0.4,0.3,0.6,0.6c1-1.3,2.9-1.6,4.2-0.6
	c0.2,0.2,0.4,0.3,0.6,0.6c0.1,0,0.3,0,0.4,0L36.6,16.4L36.6,16.4z M36.6,6.2h-7.2V3.4c0,0,0,0,0-0.1h6.4c0.4,0,0.7,0.3,0.7,0.7
	c0,0,0,0,0,0L36.6,6.2L36.6,6.2z M10.7,19.1H6c-0.5,0.1-0.8,0.6-0.7,1.1V32c-0.1,0.5,0.3,1,0.7,1.1h4.7c0.5-0.1,0.8-0.6,0.7-1.1
	V20.1C11.5,19.6,11.2,19.2,10.7,19.1z M10.9,27.2c0,0.4-0.3,0.6-0.6,0.6s-0.6-0.3-0.6-0.6v-1.4c0-0.4,0.3-0.6,0.6-0.6
	s0.6,0.3,0.6,0.6V27.2z"/>
</svg>
