<?xml version="1.0" encoding="utf-8"?>
<!-- Generator: Adobe Illustrator 21.1.0, SVG Export Plug-In . SVG Version: 6.00 Build 0)  -->
<svg version="1.1" id="Слой_1" xmlns="http://www.w3.org/2000/svg" xmlns:xlink="http://www.w3.org/1999/xlink" x="0px" y="0px"
	 viewBox="0 0 25.5 26" enable-background="new 0 0 25.5 26" xml:space="preserve">
<path fill="#EF7424" d="M24.7,2.4l-1.5-1.6c-1-1-2.7-1.1-3.8-0.1l-2.7,2.4c0,0-0.1,0.1-0.1,0.1L14,7.6l-1.7,0.6
	C12.1,8.3,12,8.4,12,8.5c0,0.1,0,0.3,0.1,0.4l4.6,4.7c0.1,0.1,0.2,0.1,0.3,0.1c0,0,0.1,0,0.1,0c0.1,0,0.3-0.1,0.3-0.3l0.6-1.7
	L22.5,9c0,0,0.1-0.1,0.1-0.1l2.3-2.7C25.8,5.1,25.8,3.4,24.7,2.4z M24.2,5.6L22,8.3L17.4,11c-0.1,0.1-0.2,0.1-0.2,0.2l-0.4,1.2
	l-1-1.1l0,0l-1.5-1.6l0,0l-1-1.1l1.2-0.4c0.1,0,0.2-0.1,0.2-0.2l2.7-4.5L20,1.3c0.8-0.7,1.9-0.6,2.6,0.1L24.1,3
	C24.8,3.7,24.9,4.9,24.2,5.6z M23.5,17.8c-1.3-1.3-3.2-1.7-4.9-1.2L9.4,7.2c0.6-1.7,0.1-3.6-1.2-4.9C6.9,0.9,4.8,0.5,3.1,1.2
	C2.8,1.2,2.7,1.5,2.8,1.7c0,0.1,0.1,0.1,0.1,0.1l2.8,2.8L3.8,6.6L1.1,3.8C0.9,3.6,0.8,3.6,0.7,3.6c-0.1,0-0.3,0.1-0.3,0.3
	c-0.7,1.8-0.3,3.8,1.1,5.2c1.3,1.3,3.2,1.8,4.9,1.2l3.5,3.5l-4.3,4.4l-2.7,1.6c-0.1,0-0.1,0.1-0.2,0.2l-1.2,2.5
	c-0.1,0.2-0.1,0.4,0.1,0.5l1.5,1.6c0.1,0.1,0.3,0.2,0.5,0.1l2.5-1.2c0.1,0,0.1-0.1,0.2-0.2l1.5-2.8l4.3-4.4l3.6,3.7
	c-0.6,1.7-0.1,3.6,1.2,4.9c0.9,0.9,2.1,1.4,3.4,1.4c0.6,0,1.2-0.1,1.8-0.3c0.1-0.1,0.2-0.2,0.3-0.3c0-0.1,0-0.3-0.1-0.4l-2.8-2.8
	l1.9-1.9l2.8,2.8c0.2,0.2,0.4,0.2,0.6,0c0,0,0.1-0.1,0.1-0.2C25.3,21.2,24.9,19.1,23.5,17.8z M6.9,19.8c0,0-0.1,0.1-0.1,0.1
	l-1.5,2.7l-2.1,1.1l-1.1-1.1l1-2.1l2.7-1.5c0,0,0.1,0,0.1-0.1l4.4-4.4l0.9,0.9L6.9,19.8z M24,22l-2.6-2.6c-0.2-0.2-0.4-0.2-0.6,0
	l-2.5,2.5c-0.2,0.2-0.2,0.4,0,0.6l2.6,2.6c-1.3,0.3-2.6-0.2-3.5-1.1c-1.1-1.1-1.4-2.8-0.9-4.3c0.1-0.2,0-0.4-0.1-0.5L6.7,9.5
	C6.6,9.4,6.5,9.3,6.4,9.4c-0.1,0-0.1,0-0.2,0C4.8,10,3.1,9.6,2,8.5C1.1,7.5,0.7,6.2,1,4.9l2.6,2.6c0.2,0.2,0.4,0.2,0.6,0L6.6,5
	c0.2-0.2,0.2-0.4,0-0.6L4,1.8c1.3-0.3,2.6,0.2,3.5,1.1C8.7,4,9,5.7,8.5,7.1c-0.1,0.2,0,0.3,0.1,0.5l9.7,9.8c0.1,0.1,0.3,0.2,0.5,0.1
	c1.5-0.6,3.1-0.2,4.2,0.9C23.8,19.3,24.2,20.7,24,22z"/>
</svg>
