<?xml version="1.0" encoding="utf-8"?>
<!-- Generator: Adobe Illustrator 22.0.1, SVG Export Plug-In . SVG Version: 6.00 Build 0)  -->
<svg version="1.1" id="Слой_1" xmlns="http://www.w3.org/2000/svg" xmlns:xlink="http://www.w3.org/1999/xlink" x="0px" y="0px"
	 viewBox="0 0 36.2 36.7" enable-background="new 0 0 36.2 36.7" xml:space="preserve">
<path id="Фигура_8" fill="#FDFCFC" d="M35,3.3l-2.2-2.2c-1.5-1.4-3.8-1.5-5.4-0.2l-3.8,3.4c0,0-0.1,0.1-0.1,0.1l-3.7,6.3
	l-2.4,0.8C17.2,11.6,17,11.8,17,12c0,0.2,0,0.4,0.2,0.6l6.6,6.6c0.1,0.1,0.3,0.2,0.4,0.2c0,0,0.1,0,0.1,0c0.2,0,0.4-0.2,0.4-0.4
	l0.8-2.4l6.3-3.8c0.1,0,0.1-0.1,0.1-0.1l3.3-3.8C36.5,7.1,36.4,4.8,35,3.3z M33.3,25c-1.8-1.8-4.5-2.5-6.9-1.7L13.2,10.1
	C14,7.6,13.4,5,11.6,3.1C9.7,1.2,6.8,0.6,4.3,1.6C4.1,1.7,4,1.9,3.9,2.1c0,0.2,0,0.4,0.2,0.6L8,6.6L5.4,9.2L1.5,5.3
	C1.3,5.1,1.1,5.1,0.9,5.1c-0.2,0-0.4,0.2-0.4,0.4c-1,2.5-0.4,5.4,1.5,7.3c1.8,1.8,4.5,2.5,6.9,1.7l4.9,4.9l-6.1,6.1l-3.9,2.2
	c-0.1,0.1-0.2,0.2-0.3,0.3l-1.7,3.5c-0.1,0.2-0.1,0.5,0.1,0.7l2.2,2.2c0.1,0.1,0.3,0.2,0.4,0.2c0.1,0,0.2,0,0.3-0.1l3.5-1.8
	c0.1-0.1,0.2-0.1,0.3-0.2l2.2-3.9l6.1-6.1l5.2,5.2c-0.8,2.4-0.1,5.1,1.7,6.9c1.3,1.3,3,2,4.8,2c0.8,0,1.7-0.2,2.5-0.5
	c0.2-0.1,0.3-0.3,0.4-0.5c0-0.2,0-0.4-0.2-0.6l-3.9-4l2.6-2.6l3.9,3.9c0.2,0.2,0.6,0.2,0.9,0c0.1-0.1,0.1-0.1,0.1-0.2
	C35.8,29.8,35.2,26.9,33.3,25z"/>
</svg>
