<?xml version="1.0" encoding="utf-8"?>
<!-- Generator: Adobe Illustrator 22.0.1, SVG Export Plug-In . SVG Version: 6.00 Build 0)  -->
<svg version="1.1" id="Слой_1" xmlns="http://www.w3.org/2000/svg" xmlns:xlink="http://www.w3.org/1999/xlink" x="0px" y="0px"
	 viewBox="0 0 256 207" enable-background="new 0 0 256 207" xml:space="preserve">
<path d="M125.5,124c-5.4,0-10.8-1.1-15.8-3.3L7.6,75.7C3,73.7,0.1,69.3,0,64.2c-0.1-5.1,2.7-9.5,7.3-11.7l104.2-49
	c9.6-4.5,20.6-4.7,30.3-0.4l106.6,46.4c4.7,2,7.6,6.5,7.6,11.6s-2.8,9.6-7.5,11.7l-107,47.9C136.4,122.9,130.9,124,125.5,124z
	 M127.1,10c-3.9,0-7.8,0.8-11.4,2.5l-104.2,49c-1.4,0.7-1.5,2-1.5,2.5c0,0.5,0.2,1.8,1.6,2.5l102.1,45c7.6,3.3,16.2,3.3,23.7-0.1
	l107-47.9c1.4-0.6,1.6-2,1.6-2.5c0-0.5-0.2-1.8-1.6-2.5L137.8,12.2C134.4,10.7,130.8,10,127.1,10z"/>
<path d="M128.5,73C118,73,110,68.5,110,62.5S118,52,128.5,52S147,56.6,147,62.5S139,73,128.5,73z M128.5,58
	c-7.8,0-12.5,2.9-12.5,4.5s4.7,4.5,12.5,4.5s12.5-2.9,12.5-4.5S136.3,58,128.5,58z"/>
<path d="M25.5,147c-2.2,0-4-1.8-4-4V78.5c0-1.9,1.4-3.6,3.3-3.9l84.5-14.5c2.2-0.4,4.2,1.1,4.6,3.3c0.4,2.2-1.1,4.2-3.3,4.6
	L29.5,81.9V143C29.5,145.3,27.7,147,25.5,147z"/>
<path d="M26,165c-7.2,0-13-5.8-13-13s5.8-13,13-13s13,5.8,13,13S33.2,165,26,165z M26,147c-2.8,0-5,2.2-5,5s2.2,5,5,5s5-2.2,5-5
	S28.8,147,26,147z"/>
<path d="M37,207H14c-1.1,0-2.2-0.5-3-1.3s-1.1-2-1-3.1l4-36c0.1-1.1,0.7-2.1,1.6-2.8l8-6c1.4-1.1,3.4-1.1,4.8,0l8,6
	c0.9,0.7,1.5,1.7,1.6,2.9l3,36c0.1,1.1-0.3,2.2-1,3C39.2,206.6,38.1,207,37,207z M18.5,199h14.2l-2.5-29.9L26,166l-4.2,3.2L18.5,199
	z"/>
<path d="M128.5,168.7c-32.2,0-68.7-11.8-78.3-38.3c-0.2-0.4-0.2-0.9-0.2-1.4V92c0-2.2,1.8-4,4-4s4,1.8,4,4v36.3
	c6.3,16.2,30.4,32.4,70.5,32.4c0.2,0,0.3,0,0.5,0c28.4-0.1,60.7-10.1,69-32.3V87c0-2.2,1.8-4,4-4s4,1.8,4,4v42
	c0,0.5-0.1,0.9-0.2,1.3c-10,28.1-47.6,38.2-76.8,38.3C128.8,168.7,128.7,168.7,128.5,168.7z"/>
<path d="M126.9,152.5c-30.4,0-55.3-10.4-74.5-31.1c-1.3-1.4-1.2-3.6,0.2-4.9s3.6-1.2,4.9,0.2c20.9,22.6,49.5,32,85,27.9
	c1.9-0.2,3.7,1.2,3.9,3.1c0.2,1.9-1.2,3.7-3.1,3.9C137.7,152.2,132.2,152.5,126.9,152.5z"/>
<path d="M156,149c-1.4,0-2.7-1-2.9-2.4c-0.3-1.6,0.7-3.2,2.4-3.5c2.5-0.5,5.4-1.3,9.2-2.4c1.6-0.5,3.3,0.4,3.8,2
	c0.5,1.6-0.4,3.3-2,3.8c-4,1.2-7.1,2-9.8,2.6C156.4,149,156.2,149,156,149z"/>
<path d="M178,141.5c-1.4,0-2.8-0.9-3.3-2.3c-0.6-1.8,0.3-3.8,2.1-4.5c7.1-2.5,14-8.9,21.3-19.7c1.1-1.6,3.3-2,4.9-0.9s2,3.3,1,4.9
	c-8.1,12-16.2,19.3-24.7,22.3C178.8,141.5,178.4,141.5,178,141.5z"/>
</svg>
