<?xml version="1.0" encoding="utf-8"?>
<!-- Generator: Adobe Illustrator 22.0.1, SVG Export Plug-In . SVG Version: 6.00 Build 0)  -->
<svg version="1.1" id="Слой_1" xmlns="http://www.w3.org/2000/svg" xmlns:xlink="http://www.w3.org/1999/xlink" x="0px" y="0px"
	 viewBox="0 0 2337.4 898.8" enable-background="new 0 0 2337.4 898.8" xml:space="preserve">
<path d="M2297.4,123.1c6.7,0,13.2,1.7,19.7,5.2c6.3,3.4,11.5,8.6,14.9,14.9c3.6,6.4,5.4,13.2,5.4,20.2
	c0,6.9-1.8,13.6-5.3,20c-3.5,6.4-8.4,11.4-14.8,14.9c-6.1,3.5-12.9,5.3-19.9,5.3c-7,0-13.9-1.8-19.9-5.3
	c-6.3-3.4-11.4-8.6-14.8-14.9c-3.5-6.1-5.3-13-5.3-20c0-7,1.8-13.8,5.4-20.2c3.6-6.5,8.6-11.4,15-14.9
	C2284.1,124.8,2290.7,123.1,2297.4,123.1L2297.4,123.1z M2297.4,129.8c-5.6,0-11.1,1.5-16.4,4.4c-5.3,2.9-9.5,7.1-12.5,12.4
	c-2.9,5.1-4.5,10.9-4.5,16.9c0,5.8,1.5,11.3,4.4,16.7c3,5.3,7.1,9.5,12.4,12.5c5.3,3,10.8,4.5,16.6,4.5c5.7,0,11.3-1.5,16.6-4.5
	c5.3-3,9.4-7.1,12.3-12.5s4.4-10.9,4.4-16.7c0-5.9-1.5-11.5-4.5-16.9c-2.9-5.3-7.2-9.6-12.5-12.4
	C2308.8,131.3,2303.2,129.8,2297.4,129.8L2297.4,129.8z M2279.9,185.7v-43.3h14.8c5.1,0,8.7,0.4,11,1.2c2.2,0.8,4.1,2.2,5.4,4.2
	c3.1,4.6,2.5,10.7-1.4,14.6c-2.2,2.4-5.2,3.7-8.9,4c1.4,0.5,2.6,1.3,3.7,2.3c1.7,1.7,3.9,4.6,6.4,8.6l5.2,8.5h-8.5l-3.8-6.8
	c-3-5.4-5.4-8.7-7.2-10.1c-1.3-1-3.1-1.5-5.6-1.5h-4.1v18.4L2279.9,185.7L2279.9,185.7L2279.9,185.7z M2286.8,161.3h8.4
	c4,0,6.8-0.6,8.2-1.8c1.5-1.2,2.3-2.9,2.2-4.8c0-1.2-0.4-2.4-1.1-3.4c-0.7-1-1.7-1.8-2.9-2.3c-1.3-0.5-3.6-0.8-7-0.8h-7.9
	L2286.8,161.3L2286.8,161.3z"/>
<path d="M1856.1,891V474.8c0-43.4,25.5-83.8,70.7-83.8c43.8,0,62.1,33.3,80.3,67.5l140.5,263.7V396.1h100.6v436.1
	c0,38.4-29.8,62.7-65.1,62.7c-30.2,0-62.5-17.1-73.9-47.5l-152.5-278V891L1856.1,891L1856.1,891z M448.6,891V396.1h163.1
	c83.9,0,132.3,39.1,132.3,104.1c0,35.1-17.9,57-37.8,80.3L641,656.8c-8.1,9.5-9.2,26,0.1,34.1l104.4,90.9v113.3L576.7,747.3
	c-38.1-33.3-33.3-100.6,0.5-137.2l48.5-52.4c22.1-23.9,10.3-58.5-18.3-60.8h-67v394.1L448.6,891z M0,890.7V790.2h139.7
	c19.3,0,34.2-0.8,37.6-10.1c2.1-5.6,0.8-15-8.2-27.2l-127-151.9C18.2,572.5,1.4,551.8,1.4,500.2c0-65,48.5-104.1,132.3-104.1h148
	v100.8h-148c-28.5,2.3-43.7,18.5-14.8,50.3l129,142c32.5,35.7,42.7,76.8,41.6,107.6c-2.1,58.9-51.4,96-108.1,95.5L0,890.7L0,890.7z
	 M766.5,891V474.8c0-43.4,25.6-83.8,70.7-83.8c59.4,0,75.1,52.5,98.2,99.8c33.2,67.6,65.5,149.6,88.2,196.9l41.6,98.3l41.6-98.3
	c15.4-32.8,44.9-122.3,76.7-193c24.6-54.7,45.6-103.7,109.8-103.7c45.1,0,70.7,40.4,70.7,83.8V891h-100.6V562.4l-118.1,284.9
	c-11.1,30-41.8,45.9-73.7,47.8c-36.1,2.1-73.8-13.8-86.4-47.8L867.1,562.4V891L766.5,891L766.5,891z M321.5,891V396.1h91.5V891
	L321.5,891L321.5,891z M1552.6,464.1l-141.3,434.7h105.4l107.5-353.7L1728,898.8h104.5l-129.9-416.2c-12.7-40.6-25.9-86.4-77.6-86.4
	c-40.5,1.9-59.7,31-72.2,67.5L1552.6,464.1L1552.6,464.1z"/>
<path d="M355.9,0l43.9,137l142.9-0.4l-115.8,84.3l44.5,136.8l-115.4-84.8l-115.4,84.8l44.5-136.8l-115.8-84.3
	L312,137L355.9,0z"/>
</svg>
