<svg version="1.1" id="Слой_1" xmlns="http://www.w3.org/2000/svg" xmlns:xlink="http://www.w3.org/1999/xlink" x="0px" y="0px"
viewBox="0 0 2210.1 545.9" style="enable-background:new 0 0 2210.1 545.9;" xml:space="preserve">
  <path class="st0" d="M853.5,140.1l-82.3,317.6h66.4l82.3-317.6H853.5z M1190.9,140.1l-121.6,250.3h-0.9l7.2-250.3h-96.9
    l-82.3,317.6h61.9l68.7-265.3h0.9l-10.7,265.3h65.1l128.1-265.3h0.9l-68.7,265.3h61.9l82.3-317.6H1190.9L1190.9,140.1z
     M1546.4,363.6c8.1-31.3,6-62.3-29.2-76.9c14.9-6.6,43.9-19.5,55.8-65.1c8.5-32.8,1.2-81.5-76.8-81.5h-154.6l-82.3,317.6h134.6
    c65.2,0,85.3-11.1,108-28.8C1523,412.6,1539.8,388.8,1546.4,363.6z M1481.8,356.5c-8.4,32.3-30.6,46.4-63,46.4h-81.6l21.9-84.8
    h84.6C1467.8,318.1,1489,328.7,1481.8,356.5L1481.8,356.5z M1507.2,229.1c-6.6,25.3-30,35.5-56.1,35.5h-78l18-69.6h76.2
    C1497.5,195,1514,203,1507.2,229.1z M1701.2,140.1l-195.6,317.6h69.9l39.1-65.6H1732l3.4,65.6h72.1l-29.7-317.6H1701.2
    L1701.2,140.1z M1646.6,337.3l73.3-125.5h0.9l6.9,125.5H1646.6z M1962.8,140.1h-66.4l-82.3,317.6h224.4l14.9-57.5h-158
    L1962.8,140.1z M2143.8,140.1l-82.3,317.6h66.4l82.3-317.6H2143.8L2143.8,140.1z M77.6,207.8H39.2L0,392.5h130l7.1-33.4H45.4
    L77.6,207.8z M536.6,460.3c-126.9,0.4-77.7-199.6-71.4-228.4C475,187.6,540.9,72,640,74.9c96.4,0,89.3,121.3,89.3,121.3h64.2
    C822,53.5,707.9,0,643.6,0S458.1,42.8,397.4,199.8c-16.7,43.2-25.5,88.7-26.1,132.1H309l-17.2-124h-44.4L142.5,392.5H183l20.9-37.9
    h67.9l3.7,37.9h41.8l-5-35.7h59.4c6.1,103.7,61.6,189.2,171.9,189.2c164.1,0,217.6-182,217.6-182h-78.5
    C682.9,364,661.5,460.3,536.6,460.3L536.6,460.3z M220.9,322.9l39.1-73.3h0.5l7.3,73.3H220.9z"/>
</svg>
