<?xml version="1.0" encoding="utf-8"?>
<!-- Generator: Adobe Illustrator 22.0.1, SVG Export Plug-In . SVG Version: 6.00 Build 0)  -->
<svg version="1.1" id="Layer_1" xmlns="http://www.w3.org/2000/svg" xmlns:xlink="http://www.w3.org/1999/xlink" x="0px" y="0px"
	 viewBox="0 0 291.6 291.6" enable-background="new 0 0 291.6 291.6" xml:space="preserve">
<circle fill="#F9BA48" cx="164.6" cy="126.9" r="65.6"/>
<path fill="#212639" d="M261.9,19.1c-32.9,0-65.1-6.2-95.6-18.4L164.6,0l-1.7,0.7c-30.5,12.2-62.7,18.4-95.6,18.4H56.8v98.4H33.3
	c-7.8,0-14.1,6.3-14.1,14.1v79.7c0,7.8,6.3,14.1,14.1,14.1h42.2c0,0,0,0,0,0c11.1,17.6,26.4,32.1,44.7,42.1l44.3,24.2l44.3-24.2
	c39.2-21.4,63.5-62.3,63.5-106.9V19.1H261.9z M28.6,211.3v-79.7c0-2.6,2.1-4.7,4.7-4.7h42.2c2.6,0,4.7,2.1,4.7,4.7v79.7
	c0,2.6-2.1,4.7-4.7,4.7H33.3C30.7,216,28.6,213.9,28.6,211.3z M89.6,140.9c15.7-0.8,28.1-13.9,28.1-29.7V87.1
	c0-6.5,5.3-11.7,11.7-11.7s11.7,5.3,11.7,11.7v29.5c0,8.3,6.7,15,15,15h34.4c8.9,0,16.2,7.3,16.2,16.2v51.9c0,9-7.3,16.2-16.2,16.2
	h-69.1c-3.7,0-7.2-1.9-9.2-4.9c-3.8-5.7-10.2-9.1-17-9.1h-5.6L89.6,140.9L89.6,140.9z M263,160.5c0,41.2-22.4,79-58.6,98.7
	L164.6,281l-39.8-21.7c-16.3-8.9-30.1-21.7-40.2-37.2c2.8-2.4,4.7-5.9,5-9.8c9.5,16.3,23.1,29.7,39.7,38.8l35.4,19.3l35.4-19.3
	c33.1-18.1,53.7-52.7,53.7-90.5V89.4h-9.4v71.1c0,34.3-18.7,65.8-48.8,82.2l-30.9,16.8l-30.9-16.8c-13.2-7.2-24.3-17.4-32.6-29.7
	c1.3,0.8,2.5,1.9,3.4,3.2c3.8,5.7,10.2,9.1,17,9.1h69.1c14.1,0,25.6-11.5,25.6-25.6v-51.9c0-14.1-11.5-25.6-25.6-25.6h-34.4
	c-3.1,0-5.7-2.5-5.7-5.7V87.1c0-11.6-9.5-21.1-21.1-21.1s-21.1,9.5-21.1,21.1v24.2c0,10.7-8.3,19.4-18.8,20.2
	c0-4.1-1.9-7.7-4.7-10.2V46.7c27.2-1.7,54-7.2,79.7-16.6c25.7,9.3,52.5,14.9,79.7,16.6v5.2h9.4V37.8l-4.5-0.2
	c-28.4-1.3-56.3-7-83-16.8l-1.6-0.6l-1.6,0.6c-26.7,9.9-54.6,15.5-83,16.8l-4.5,0.2v79.8h-9.4V28.5h1.1c33.5,0,66.2-6.2,97.4-18.4
	c31.1,12.2,63.9,18.4,97.4,18.4h1.1L263,160.5L263,160.5L263,160.5z"/>
<rect x="244.3" y="70.7" fill="#212639" width="9.4" height="9.4"/>
<rect x="38" y="197.2" fill="#212639" width="32.8" height="9.4"/>
</svg>
