<?xml version="1.0" encoding="utf-8"?>
<!-- Generator: Adobe Illustrator 22.0.1, SVG Export Plug-In . SVG Version: 6.00 Build 0)  -->
<svg version="1.1" id="Layout1" xmlns="http://www.w3.org/2000/svg" xmlns:xlink="http://www.w3.org/1999/xlink" x="0px" y="0px"
	 viewBox="0 0 2426.5 486.6" enable-background="new 0 0 2426.5 486.6" xml:space="preserve">
<path d="M155.5,132c-8.5-2.1-17.1,1.1-25.6,2.1c-19.2,3.2-34.1,16-41.5,39.4l9.6-41.5H43.6L0,335.4h54.3l21.3-99
	c7.4-34.1,34.1-45.8,66-44.7L155.5,132z M549.4,144.8c-12.8-13.8-30.9-20.2-52.2-20.2c-22.3,0-42.6,9.6-62.8,27.7l21.3-97.9h-55.4
	l-59.6,281.1h55.4l5.3-28.7c14.9,24.5,36.2,36.2,63.9,36.2c19.2,0,36.2-5.3,51.1-14.9c19.2-12.8,36.2-33,45.8-61.7
	c8.5-23.4,9.6-45.8,9.6-66c0-7.4-1.1-17-4.3-25.5C564.7,163,558.4,152.6,549.4,144.8L549.4,144.8z M512.1,244.9
	c-4.3,12.8-10.6,23.4-17,33c-5.3,6.4-11.7,11.7-19.2,16c-7.4,4.2-16,5.3-23.4,5.3c-16,0-26.6-5.3-34.1-14.9
	c-5.3-7.4-7.5-16-7.5-26.6c0-7.4,1.1-17,4.3-28.7c4.3-20.2,12.8-35.1,24.5-45.8c10.6-10.6,23.4-16,38.3-16
	c12.8,0,23.4,5.3,29.8,13.9c7.4,8.5,10.6,18.1,10.6,29.8C518.5,221.4,516.4,232.1,512.1,244.9L512.1,244.9z M762.3,141.6
	c-18.1-12.8-39.4-19.2-63.9-19.2c-44.7,0-77.7,18.1-99,53.2c-14.9,23.4-22.4,50.1-22.4,78.8c0,28.8,10.7,52.2,31.9,68.2
	c16,11.7,37.3,18.1,63.9,18.1c33,0,59.6-9.6,80.9-27.7c12.9-12.7,23.1-27.9,29.8-44.7c6.4-17,10.7-35.1,10.7-55.4
	C794.3,179.9,783.6,156.5,762.3,141.6L762.3,141.6z M733.6,249.1c-4.3,11.9-10.4,23-18.1,33c-10.6,12.8-24.5,19.2-40.5,19.2
	c-12.8,0-23.4-4.3-31.9-13.8c-7.5-7.4-10.7-19.2-10.7-33c0-23.4,6.4-45.8,20.2-64.9c10.6-16,25.6-24.5,43.6-24.5
	c13.8,0,25.6,4.3,33,13.8c7.4,8.5,10.6,20.2,10.6,33C740,223.6,737.8,236.4,733.6,249.1L733.6,249.1z M352.4,212.9
	c0-33-10.6-56.4-31.9-71.3c-17-12.8-38.3-19.2-63.9-19.2c-43.6,0-76.7,18.1-99,53.2c-14.1,23.9-21.5,51.1-21.3,78.8
	c0,28.8,10.7,52.2,31.9,68.2c16,11.7,37.3,18.1,63.9,18.1c33,0,59.6-9.6,79.9-27.7c12.8-12.8,23.4-26.6,29.8-44.7
	C349.2,251.3,352.4,233.2,352.4,212.9L352.4,212.9z M291.7,249.1c-4.3,11.7-9.6,23.4-18.1,33c-10.6,12.8-23.4,19.2-39.4,19.2
	c-13.8,0-24.5-4.3-31.9-13.8c-7.5-7.4-10.6-19.2-10.6-33c0-23.4,6.4-45.8,19.2-64.9c11.7-16,26.6-24.5,43.6-24.5
	c14.9,0,25.6,4.3,33,13.8c7.5,8.5,11.7,20.2,11.7,33C299.2,223.6,297.1,236.4,291.7,249.1L291.7,249.1z M895.4,82h-53.2l-11.7,50
	h-25.6l-7.4,43.7h24.5l-22.4,96.9c-3.2,12.8-4.3,22.3-4.3,28.7c0,24.5,13.9,39.4,44.7,39.4c7.5,0,9.6,1.1,28.7-1.1l8.5-44.7
	c-32,9.6-28.8-9.6-23.4-31.9l21.3-87.3h33l7.5-43.7h-33L895.4,82L895.4,82z M1169,0c-58.5,0-141.6,108.6-183.1,242.8
	c-42.6,134.1-27.7,243.8,30.9,243.8c58.6,0,141.6-109.7,183.1-243.8C1242.5,108.6,1228.7,0,1169,0L1169,0z M1162.7,321.5
	c-10.7,21.5-22.4,42.5-35.1,62.8c-22.4,34.1-65,92.6-110.7,94.8c-56.4-3.2-50-103.3-43.7-149.1c1.1,27.7,11.7,47.9,36.2,51.1
	c19.2,2.1,40.5-22.4,73.5-57.5c19.2-19.2,37.3-38.3,56.4-56.4C1169,236.4,1192.5,230,1162.7,321.5z M1130.7,193.8l1.1,2.1v2.1
	l1.1,2.1v3.2l1.1,5.3v5.3l-1.1,6.4v6.4l-1.1,6.4l-2.1,6.4l-2.1,7.4l-4.3,12.8l-6.4,12.8l-3.2,5.3l-4.3,6.4l-3.2,4.3l-4.3,4.3
	l-3.2,4.3l-4.3,4.3l-2.1,1.1l-2.1,2.1l-4.3,2.1l-2.1,1.1l-1.1,1.1h-2.1l-2.1,1.1h-3.2l-2.2,1.1l-1.1-1.1h-3.2l-1.1-1.1h-2.1
	l-1.1-1.1l-1.1-1.1l-3.2-3.2l-1.1-2.1l-1.1-1.1l-2.1-4.2v-2.1l-1.1-2.2l-1.1-2.1v-2.1l-1.1-5.3v-11.7l1.1-5.3l1.1-7.4l2.1-12.8
	l3.2-7.4l4.3-12.8l6.4-12.8l4.3-5.3l3.2-5.3l4.3-4.3l3.2-4.3l6.4-6.4l2.1-1.1l2.1-1.1l3.2-3.2l2.1-1.1h2.1l4.3-2.1h9.6l1.1,1.1h1.1
	l2.1,1.1l2.1,2.1l1.1,1.1l1.1,1.1l1.1,2.1l1.1,1.1l1.1,2.1v2.1L1130.7,193.8L1130.7,193.8z M1214.8,137.3
	c-1.1,9.6-2.1,20.2-4.3,29.8c1.1-30.9-8.5-54.3-35.1-56.4c-19.2-2.1-40.5,21.3-73.5,56.4l-56.4,56.4c-30.9,31.9-54.3,38.3-22.4-57.5
	c12.6-25.2,26.4-49.7,41.5-73.5c19.2-27.7,70.3-94.8,112.9-84.1C1221.2,19.2,1218,105.4,1214.8,137.3L1214.8,137.3z M2408.4,107.5
	c0-3.2-1.1-5.3-3.2-7.5c-2.1-2.1-5.3-3.2-9.6-3.2h-17v36.2h6.4v-14.9h9.6l9.6,14.9h6.4l-10.6-14.9
	C2406.3,117.1,2408.4,112.9,2408.4,107.5L2408.4,107.5z M2385,113.9v-11.7h10.6c2.2,0,4.3,0,5.3,1.1c1.1,1.1,2.2,3.2,2.2,4.3
	c0,4.3-2.2,6.4-7.5,6.4H2385z"/>
<path d="M2422.2,100.1c-2.1-5.3-6.4-9.6-11.7-12.8c-5.3-3.2-10.6-5.3-17-5.3c-5.3,0-10.6,2.1-14.9,4.3c-5.3,2.1-9.6,6.4-12.8,11.7
	c-3.2,5.3-5.3,10.6-5.3,17c0,5.3,1.1,10.6,3.2,14.9c3.2,6.4,7.4,10.6,12.8,13.8c5.3,3.2,10.6,4.3,17,4.3c5.3,0,9.6-1.1,14.9-3.2
	c5.3-3.2,9.6-7.5,12.8-12.8c3.2-5.3,5.3-10.6,5.3-17C2426.5,109.7,2424.3,105.4,2422.2,100.1L2422.2,100.1z M2418,128.8
	c-2.2,4.3-5.3,8.5-9.6,10.6c-5.3,3.2-9.6,4.3-14.9,4.3c-4.4,0-8.8-1.1-12.8-3.2c-5.3-2.1-8.5-5.3-11.7-10.6
	c-2.1-4.3-4.3-9.6-4.3-14.9c0-3.2,1.1-7.4,2.1-10.6l6.4-9.6c5.3-5.3,12.7-8.5,20.2-8.5c4.3,0,8.5,1.1,12.8,3.2
	c4.2,3.2,8.5,6.4,10.6,10.6c3.2,5.3,4.3,9.6,4.3,14.9C2421.2,120.3,2420.1,124.6,2418,128.8L2418,128.8z M2316.8,141.6
	c-16-11.7-36.2-17-60.7-17c-30.9,0-58.5,10.6-79.9,31.9c-12.8,12.8-22.3,26.6-28.8,43.6c-6.4,17.4-9.7,35.8-9.6,54.3
	c0,31.9,9.6,52.2,27.7,67.1c16,12.8,37.3,18.1,63.9,18.1c24.5,0,45.8-2.1,63.9-13.9c18.1-11.7,31.9-31.9,41.5-55.4h-53.2
	c-11.7,20.2-27.7,32-47.9,32c-12.8,0-23.4-4.3-30.9-11.7c-9.5-7.4-12.8-17-12.8-30.9c0-4.3,0-8.5,1.1-13.8h151.2
	c3.2-10.7,4.3-22.4,4.3-34.1C2346.6,179.9,2337,156.5,2316.8,141.6z M2293.4,209.7h-95.8c5.3-17,12.8-25.5,22.3-34.1
	c9.6-8.5,21.3-12.8,35.1-12.8c11.7,0,21.3,3.2,27.7,9.6c8.5,6.4,12.8,16,12.8,29.8C2295.5,205.5,2294.4,205.5,2293.4,209.7
	L2293.4,209.7z M1395.8,165c13.9,0,24.5,5.3,31.9,13.8c4.3,6.4,6.4,11.7,6.4,22.4h54.3c0-23.4-5.3-37.3-16-49
	c-7.4-8.5-18.1-14.9-31.9-20.2c-12.8-5.3-27.7-7.4-44.7-7.4c-19.2,0-36.2,3.2-51.1,10.6c-20.2,9.6-36.2,24.5-47.9,44.7
	c-13.9,21.3-20.2,45.8-20.2,71.3c0,29.8,9.5,53.2,28.8,69.2c17,14.9,40.4,22.3,70.2,22.3c53.2,0,88.4-28.8,105.4-84.1h-56.4
	c-3.1,8.9-7.8,17.2-13.8,24.5c-10.7,11.7-22.4,18.1-37.3,18.1c-12.8,0-22.4-4.3-29.8-13.8c-6.4-8.5-9.6-20.2-9.6-36.2
	c0-20.2,5.3-39.4,14.9-57.5C1360.7,174.6,1375.6,165,1395.8,165L1395.8,165z M1885.6,335.4l42.6-203.4h-53.2l-21.3,98
	c-2.2,9.6-4.3,19.2-7.5,25.6c-3.2,9.6-9.6,18.1-16,25.6c-12.8,12.8-23.5,19.2-38.4,19.2c-9.5,0-16-3.2-21.3-8.5
	c-4.3-4.3-6.4-10.6-6.4-17c0-5.3,1.1-11.7,2.1-17L1793,132h-54.3L1712,257.7c-3.2,16-5.3,28.8-5.3,37.3c0,13.9,6.4,24.5,17,34.1
	c11.7,9.6,25.6,13.9,41.5,13.9c26.6,0,49-11.7,72.4-35.1l-6.4,27.7L1885.6,335.4L1885.6,335.4L1885.6,335.4z M1674.8,141.6
	c-17-12.8-38.3-19.2-62.8-19.2c-44.7,0-77.7,18.1-99,53.2c-14.9,23.4-22.4,50.1-22.4,78.8c0,28.8,10.6,52.2,31.9,68.2
	c16,11.7,37.3,18.1,63.9,18.1c33,0,59.6-9.6,79.8-27.7c13.8-12.8,23.4-26.6,30.9-44.7c6.4-17,10.6-35.1,10.6-55.4
	C1707.8,179.9,1697.1,156.5,1674.8,141.6L1674.8,141.6z M1647.1,249.1c-5.3,11.7-10.6,23.4-18.1,33c-10.6,12.8-24.5,19.2-40.4,19.2
	c-13.8,0-24.5-4.3-31.9-13.8c-7.5-7.4-10.6-19.2-10.6-33c0-23.4,6.4-45.8,20.2-64.9c10.6-16,25.6-24.5,43.6-24.5
	c13.9,0,25.6,4.3,33,13.8c7.5,8.5,10.6,20.2,10.6,33C1653.3,224.6,1651.2,237.1,1647.1,249.1L1647.1,249.1z M2052.8,124.6
	c-26.6,0-47.9,10.6-62.8,33l5.3-25.6H1942l-57.5,272.6h54.3l20.2-93.7c7.4,8.5,14.9,16,22.3,20.2c12.8,7.4,27.7,9.6,44.7,9.6
	c25.6,0,45.8-8.5,61.8-26.6c13.9-13.9,23.4-28.8,30.9-47.9c7.4-19.2,10.6-40.5,10.6-61.8c0-27.7-8.5-49-25.5-62.8
	C2090,129.9,2073,124.6,2052.8,124.6L2052.8,124.6z M2067.7,248.1c-4.1,12.3-10.2,23.8-18.1,34.1c-9.6,12.8-22.3,19.2-36.2,19.2
	c-13.9,0-23.4-4.3-30.9-12.8c-6.4-7.4-9.6-18.1-9.6-29.8c0-11.7,2.1-23.4,5.3-36.2c4.3-12.8,8.5-23.4,14.9-33
	c10.6-17,25.6-25.6,42.6-25.6c13.8,0,23.4,5.3,29.8,14.9c6.4,8.5,8.5,19.2,8.5,31.9C2074.1,222.5,2071.9,235.3,2067.7,248.1
	L2067.7,248.1z"/>
</svg>
