<?xml version="1.0" encoding="utf-8"?>
<!-- Generator: Adobe Illustrator 22.0.1, SVG Export Plug-In . SVG Version: 6.00 Build 0)  -->
<svg version="1.1" id="Capa_1" xmlns="http://www.w3.org/2000/svg" xmlns:xlink="http://www.w3.org/1999/xlink" x="0px" y="0px"
	 viewBox="0 0 512 512" enable-background="new 0 0 512 512" xml:space="preserve">
<g>
	<path fill="#FFFFFF" d="M492.7,19.3C479.8,6.4,464.3,0,446.3,0H65.7c-18,0-33.4,6.4-46.3,19.3C6.4,32.2,0,47.7,0,65.7v380.7
		c0,18,6.4,33.4,19.3,46.3C32.2,505.6,47.7,512,65.7,512h380.7c18,0,33.4-6.4,46.3-19.3c12.9-12.9,19.3-28.3,19.3-46.3V65.7
		C512,47.7,505.6,32.2,492.7,19.3z M183.8,184.5c20.1-19.4,44.3-29.2,72.5-29.2c28.4,0,52.7,9.7,72.8,29.2
		c20.1,19.4,30.2,42.9,30.2,70.5c0,27.6-10.1,51.1-30.2,70.5c-20.1,19.4-44.4,29.2-72.8,29.2c-28.2,0-52.4-9.7-72.5-29.2
		c-20.1-19.4-30.2-42.9-30.2-70.5C153.7,227.4,163.7,203.9,183.8,184.5z M454,432.7c0,5.8-2,10.6-6,14.5c-4,3.9-8.8,5.8-14.3,5.8
		H77.3c-5.8,0-10.6-1.9-14.5-5.8c-3.9-3.9-5.8-8.7-5.8-14.5v-216h47c-4.4,14-6.7,28.6-6.7,43.7c0,42.7,15.6,79.1,46.7,109.2
		c31.1,30.1,68.6,45.2,112.3,45.2c28.9,0,55.6-6.9,80-20.7c24.4-13.8,43.8-32.5,58-56.2c14.2-23.7,21.3-49.5,21.3-77.5
		c0-15.1-2.2-29.7-6.7-43.7h45L454,432.7L454,432.7L454,432.7z M454,135c0,6.4-2.2,11.9-6.7,16.3c-4.4,4.4-9.9,6.7-16.3,6.7h-58
		c-6.4,0-11.9-2.2-16.3-6.7c-4.4-4.4-6.7-9.9-6.7-16.3V80c0-6.2,2.2-11.6,6.7-16.2c4.4-4.6,9.9-6.8,16.3-6.8h58
		c6.4,0,11.9,2.3,16.3,6.8c4.5,4.6,6.7,9.9,6.7,16.2V135z"/>
</g>
</svg>
