<?xml version="1.0" encoding="utf-8"?>
<!-- Generator: Adobe Illustrator 22.0.1, SVG Export Plug-In . SVG Version: 6.00 Build 0)  -->
<svg version="1.1" id="Claim" xmlns="http://www.w3.org/2000/svg" xmlns:xlink="http://www.w3.org/1999/xlink" x="0px" y="0px"
	 viewBox="0 0 419.3 218" enable-background="new 0 0 419.3 218" xml:space="preserve">
<path d="M209.6,181.1c-55.8,0-108.3-9.3-147.8-26.2C22,137.8,0,115,0,90.5c0-24.4,22-47.3,61.9-64.3
	C101.4,9.3,153.8,0,209.6,0c55.8,0,108.3,9.3,147.8,26.2c39.9,17.1,61.9,39.9,61.9,64.3c0,24.4-22,47.3-61.9,64.3
	C317.9,171.8,265.4,181.1,209.6,181.1z M209.6,3C95.7,3,3,42.3,3,90.5s92.7,87.5,206.6,87.5c113.9,0,206.6-39.3,206.6-87.5
	S323.6,3,209.6,3z"/>
<g>
	<path d="M341,112.4l-21.7-23.8l16.9-18.3c2.3-2.5,3.5-3.9,3.5-5.7c0-1.5-2.7-3.9-5.8-3.9c-2.6,0-5.2,1.6-8.2,4.7
		L312,80.3l-13.5-14.7c-3.1-3.4-5.4-4.8-7.9-4.8c-3.8,0-6.7,1.8-6.7,4.1c0,1.5,1.1,3,3.5,5.6l16.7,18.2l-21.7,23.6
		c-2.2,2.4-3.5,4.1-3.5,5.8c0,1.5,2.6,3.9,6,3.9c2.6,0,5-1.4,8.1-4.8L311.5,97l18.6,20.4c3.1,3.4,5.6,4.7,8.4,4.7
		c3.6,0,6.2-2.3,6.2-3.9c0-1.6-1.1-2.9-3.2-5.2L341,112.4z"/>
	<path d="M242.4,70.8c-10.7,0-18.1,7.5-18.1,20.4c0,12.3,7.4,19.9,18.1,19.9c10.6,0,18.1-7.6,18.1-19.9
		C260.5,78.4,253.2,70.8,242.4,70.8z"/>
	<path d="M360.4,65.3c0-1.6-1.4-1.8-2.6-1.8h-2.5v3.8h1.9C358.8,67.3,360.4,67.2,360.4,65.3z"/>
	<path d="M357.4,59.2c-4.8,0-8.5,3.8-8.5,8.7c0,5,3.7,8.8,8.5,8.8c4.7,0,8.4-3.8,8.4-8.8
		C365.8,63,362.1,59.2,357.4,59.2z M360.5,73.9l-3.3-5.2h-2v5.2h-1.9v-12h4.6c2.9,0,4.2,1.1,4.2,3.4c0,2.2-1.4,3.1-3.2,3.3l3.4,5.3
		H360.5z"/>
	<path d="M208.8,16.7c-96,0-173.9,32.9-173.9,73.6c0,40.6,77.8,73.6,173.9,73.6s173.9-32.9,173.9-73.6
		C382.7,49.6,304.8,16.7,208.8,16.7z M122.6,94.9c0,19.4-13,29.9-33.4,29.9c-20.4,0-33.4-10.4-33.4-29.9V67.4
		c0-7.1,2.9-10.5,8.9-10.5c6,0,8.9,3.5,8.9,10.5v25.8c0,11.5,5.4,17.3,15.7,17.3c10.3,0,15.7-5.8,15.7-17.3V67.4
		c0-7.1,2.8-10.5,8.9-10.5c6,0,8.9,3.5,8.9,10.5V94.9z M199.4,115.6c0,6.2-2.4,9.3-8,9.3c-3.7,0-6.7-1.7-10.1-5.4l-31.8-35.6v30.1
		c0,7.1-2.8,10.6-8.8,10.6c-6,0-8.8-3.5-8.8-10.6V67.4c0-6.5,2.5-9.9,8.1-9.9c3.9,0,6.5,1.7,9.3,4.8l32.5,36.4V68
		c0-7.1,2.8-10.6,8.8-10.6c6,0,8.8,3.5,8.8,10.6V115.6z M242.4,125.2c-21.9,0-36.4-13.7-36.4-34.2c0-20.5,14.8-34.2,36.4-34.2
		c21.6,0,36.5,13.6,36.5,34.2C278.9,111.4,264.3,125.2,242.4,125.2z M338.6,127c-4.3,0-8-1.9-12.1-6.3l-15-16.4l-14.9,16.3
		c-2.9,3.1-6.6,6.4-11.8,6.4c-5.9,0-11-4.1-11-8.8c0-3.7,2.5-6.5,4.8-9.1l18.7-20.2l-13.6-14.8c-2.7-3-4.9-5.5-4.9-8.9
		c0-5.2,5-9.1,11.7-9.1c4,0,7.4,1.9,11.5,6.4L312,73l10.1-10.9c4-4.3,7.9-6.3,11.9-6.3c5.6,0,10.8,4.2,10.8,8.8c0,3.8-2.3,6.4-4.8,9
		l-0.1,0.1l-13.7,14.9l19.2,21.1c2.3,2.6,4.4,5,4.4,8.5C349.7,123,344.6,127,338.6,127z M357.4,78.2c-5.6,0-10.3-4.4-10.3-10.3
		c0-5.8,4.7-10.2,10.3-10.2c5.6,0,10.3,4.4,10.3,10.2C367.7,73.8,363,78.2,357.4,78.2z"/>
</g>
<g>
	<path d="M55.7,194.9c5.8,0,9.2,4.9,9.2,11.6c0,6.8-3.4,11.6-9.2,11.6s-9.2-4.8-9.2-11.6
		C46.4,199.8,49.8,194.9,55.7,194.9z M55.7,215.2c4.4,0,6.3-4.3,6.3-8.7c0-4.5-2.1-8.8-6.3-8.7c-4.2,0-6.3,4.2-6.3,8.7
		C49.3,210.9,51.2,215.2,55.7,215.2z"/>
	<path d="M83.6,217.6h-3.4l-7.2-22.3H76l5.9,19.5H82l6.1-19.5h2.9L83.6,217.6z"/>
	<path d="M100.5,195.3H113v2.8h-9.3v6.5h8.5v2.8h-8.5v7.4h9.3v2.8h-12.5V195.3z"/>
	<path d="M125.5,195.3h4.4l9.9,18h0.1v-18h3.2v22.3h-4.1l-10.1-18.4h-0.1v18.4h-3.2V195.3z"/>
	<path d="M166.2,198.6c-1.6-0.6-2.5-0.9-4.2-0.9c-1.8,0-3.9,0.6-3.9,3c0,4.3,9.6,3.3,9.6,10.7c0,4.8-3.7,6.7-8.2,6.7
		c-1.6,0-3.1-0.4-4.6-0.9l0.3-3c1.1,0.4,3,1.1,4.6,1.1c1.8,0,4.4-1,4.4-3.6c0-5-9.6-3.6-9.6-10.6c0-4,3.1-6.1,7.2-6.1
		c1.5,0,3.2,0.3,4.8,0.8L166.2,198.6z"/>
	<path d="M195.6,195.3h5.9c4.6,0,8.4,1.6,8.4,6.7c0,5-3.9,6.7-7.9,6.7h-3.1v8.9h-3.2V195.3z M198.8,205.8h3.2
		c2,0,4.5-1,4.5-3.9c0-2.8-2.9-3.8-4.9-3.8h-2.7V205.8z"/>
	<path d="M220.6,195.3h3.2v19.5h9.3v2.8h-12.5V195.3z"/>
	<path d="M250.8,195.3h3.4l9.4,22.3h-3.5l-2.3-5.6h-10.9l-2.3,5.6h-3.4L250.8,195.3z M252.3,198.3l-4.4,11.1h8.9
		L252.3,198.3z"/>
	<path d="M273.8,195.3h4.4l9.9,18h0.1v-18h3.2v22.3h-4.1l-10.1-18.4H277v18.4h-3.2V195.3z"/>
	<path d="M304.1,195.3h12.5v2.8h-9.3v6.5h8.5v2.8h-8.5v7.4h9.3v2.8h-12.5V195.3z"/>
	<path d="M333.3,198.1h-6.9v-2.8h17.1v2.8h-6.9v19.5h-3.2V198.1z"/>
</g>
<path d="M356.5,195c3.4,0,6.2,2.7,6.2,6.2c0,3.6-2.8,6.2-6.2,6.2c-3.4,0-6.2-2.7-6.2-6.2
	C350.3,197.7,353.1,195,356.5,195z M356.5,206.5c2.9,0,5.1-2.3,5.1-5.3c0-3-2.2-5.2-5.1-5.2c-2.9,0-5.1,2.3-5.1,5.2
	C351.4,204.2,353.6,206.5,356.5,206.5z M354.1,197.6h2.8c1.7,0,2.5,0.7,2.5,2.1c0,1.3-0.8,1.9-1.9,2l2.1,3.2h-1.2l-2-3.1h-1.2v3.1
	h-1.1V197.6z M355.2,200.8h1.2c1,0,1.9,0,1.9-1.2c0-1-0.8-1.1-1.6-1.1h-1.5V200.8z"/>
</svg>
