<svg version="1.1" id="Слой_1" xmlns="http://www.w3.org/2000/svg" xmlns:xlink="http://www.w3.org/1999/xlink" x="0px" y="0px"
	 viewBox="0 0 2426.5 623.2" enable-background="new 0 0 2426.5 623.2" xml:space="preserve">
<g>
	<path d="M2392.4,41.6v-0.2c6.9-0.8,11.1-5.3,11.1-11.5c0-6.5-4.1-11.5-13-11.5h-20.3v41.1h8.3V42.6h1.5
		c3.6,0,5.1,0.4,6.7,2.1c1.7,1.6,4.2,5.2,5.6,8.1l3.3,6.7h10.2l-4.7-8.3C2397,44,2395.9,42.8,2392.4,41.6z M2378.5,36.1V24.8h7.7
		c5.6,0,8.5,2,8.5,5.6c0,2.9-1.9,5.7-7.6,5.7H2378.5z"/>
	<path d="M2387.9,0c-0.1,0-0.1,0-0.2,0c-21.4,0-38.7,17.3-38.8,38.6c0,0,0,0.1,0,0.1c0,21.4,17.3,38.7,38.7,38.8
		c0,0,0.1,0,0.1,0c21.4,0,38.7-17.2,38.8-38.6c0,0,0-0.1,0-0.1C2426.5,17.4,2409.2,0,2387.9,0z M2387.7,70
		c-17.2,0-31.1-14-31.1-31.2c0,0,0,0,0,0c0-17.1,13.8-31.1,31-31.1c0,0,0.1,0,0.1,0c17.2,0,31.2,13.9,31.2,31.1
		C2418.9,56,2404.9,70,2387.7,70z"/>
</g>
<g>
	<path d="M2279.7,5.2H2156l-144,617.8h132.5c8.2-38.9,17.8-86.8,30-124.4h88.9l40.8,124.5h117.4L2279.7,5.2z
		 M2198.8,376l18-91.9l0,0h0v0l26.7,91.9H2198.8z"/>
	<path d="M738.2,5.2H614.5L470.5,623H603c8.2-38.9,17.8-86.8,30-124.4h88.9l40.8,124.5H878L738.2,5.2z M657.3,376
		l18-89.8h0l26.7,89.8H657.3z"/>
	<polygon points="1829.5,5.3 1953.4,5.3 1953.4,623.1 1829.5,623.1 1829.5,5.3 	"/>
	<path d="M1639.4,5.1h129.3v124.2h-127.2c-104.9,0.1-160.2,114.8-160.2,184.8c0,64.4,51,184.6,151.6,184.8h8.7V331.6
		h127.1v291.6h-137.9c-175,0.2-274-184.5-274-309C1356.8,178.1,1464.5,5,1639.4,5.1L1639.4,5.1z"/>
	<path d="M1171.4,5.1h127.2v124.2h-127.2c-100.6,0.1-160.2,115-160.2,183.7c0,65.8,54,185.7,153.8,185.9h8.6V331.7
		h125v291.6h-135.8c-176.9,0.2-274-184.5-274-309C888.7,172.4,1002.3,5,1171.4,5.1L1171.4,5.1z"/>
	<path d="M282.6,5.1h128.3v124.2H282.6C175,129.5,124.5,249.5,124.5,315.2c0,63,51.3,183.6,151.7,183.7h8.7V331.7
		h126.6v291.4H274C99,623.4,0,439,0,313.1C0,178.4,107.9,5,282.6,5.1L282.6,5.1z"/>
</g>
</svg>
