<svg version="1.1" id="lay-1" xmlns="http://www.w3.org/2000/svg" xmlns:xlink="http://www.w3.org/1999/xlink" x="0px" y="0px"
	 viewBox="0 0 146 166" enable-background="new 0 0 146 166" xml:space="preserve">
<title>Ресурс 15</title>
<g id="lay-2">
	<g id="lay-2-1">
		<rect fill="#EE7423" width="146" height="166"/>
		<path fill="#FFFFFF" d="M70.4,100.7h4.7c0.9,0.1,1.6,0.9,1.6,1.8v5.3c0.1,0.9-0.7,1.7-1.6,1.8h-4.7c-0.9-0.1-1.6-0.9-1.6-1.8v-5.3
			C68.7,101.5,69.5,100.7,70.4,100.7z"/>
		<path fill="#FDFCFC" d="M56.3,83.9c-2.8,0-5-2.2-5-5v-44c0-2.8,2.2-5,5-5s5,2.2,5,5v44C61.3,81.6,59.1,83.9,56.3,83.9z"/>
		<path fill="#FDFCFC" d="M72.8,78.4c-2.8,0-5-2.2-5-5V26c0-2.8,2.2-5,5-5c2.8,0,5,2.2,5,5v47.4C77.8,76.2,75.6,78.4,72.8,78.4z"/>
		<path fill="#FDFCFC" d="M89.1,83.5c-2.8,0-5-2.2-5-5V38c0-2.8,2.2-5,5-5s5,2.2,5,5v40.5C94.1,81.3,91.9,83.5,89.1,83.5z"/>
		<path fill="#FDFCFC" d="M72.8,127.2c-6.9,0-20.3-9.5-20.3-21.1c0-1,0-1.9-0.1-2.8c-0.1-4.8-0.3-9.7,3.4-13.5
			c3.2-3.3,8.4-4.8,17-4.8c8.2,0,13.5,1.5,16.7,4.8c3.8,3.9,3.7,9,3.6,14.1c0,0.7,0,1.5,0,2.2C93.1,118.1,79.6,127.2,72.8,127.2z
			 M72.8,93.1c-7.4,0-10.2,1.3-11.2,2.3c-1.2,1.3-1.2,3.8-1.1,7.7c0,1,0.1,2,0.1,3c0,7.2,9.9,13.1,12.3,13.1c2.9,0,12.3-6,12.3-13.1
			c0-0.8,0-1.6,0-2.4c0.1-4.2,0-6.9-1.4-8.3C82.7,94.4,80,93.1,72.8,93.1z"/>
		<path fill="#FDFCFC" d="M71.9,145.8c-23.4,0-37.8-21.4-37.8-36.7V82c0-3,2.5-5.5,5.5-5.5s5.5,2.5,5.5,5.5v27.1
			c0,8.7,9.5,25.7,26.8,25.7c9.7,0,28.6-9.1,28.6-25.7V53.5c0-3,2.5-5.5,5.5-5.5s5.5,2.5,5.5,5.5v55.6
			C111.5,124.4,96.4,145.8,71.9,145.8z"/>
	</g>
</g>
</svg>
