<svg xmlns="http://www.w3.org/2000/svg" xmlns:xlink="http://www.w3.org/1999/xlink"><symbol id="icon-phone" viewBox="0 0 512.001 512.001">
<g>
	<g>
		<path d="M421.216,195.504c-5.092-26.101-17.723-49.836-36.526-68.64c-18.804-18.803-42.54-31.434-68.641-36.527    c-11.21-2.189-22.073,5.128-24.261,16.339c-2.187,11.212,5.128,22.073,16.339,24.26c36.847,7.188,65.3,35.642,72.489,72.489    c1.927,9.874,10.581,16.726,20.278,16.726c1.313,0,2.645-0.125,3.984-0.387C416.088,217.577,423.403,206.715,421.216,195.504z" fill="#FFFFFF"/>
	</g>
</g>
<g>
	<g>
		<path d="M511.422,196.929c-5.629-50.096-28.373-97.304-64.042-132.927C411.712,28.378,364.475,5.694,314.371,0.128    c-11.355-1.261-21.578,6.92-22.839,18.272c-1.261,11.353,6.919,21.578,18.272,22.84c84.961,9.438,150.966,75.36,160.512,160.31    c1.188,10.566,10.139,18.374,20.527,18.374c0.771,0,1.552-0.043,2.336-0.131C504.53,218.516,512.698,208.281,511.422,196.929z" fill="#FFFFFF"/>
	</g>
</g>
<g>
	<g>
		<path d="M432.59,312.566c-0.062-0.008-0.124-0.017-0.186-0.025c-20.013-2.639-39.751-7.557-58.619-14.596    c-23.91-8.99-51.103-3.191-69.27,14.772c-0.028,0.028-0.056,0.055-0.083,0.083l-17.148,17.148    c-42.633-26.924-78.756-63.047-105.679-105.679l17.149-17.149c0.027-0.028,0.054-0.055,0.082-0.083    c17.964-18.166,23.762-45.356,14.79-69.223c-7.057-18.914-11.974-38.653-14.614-58.666c-0.007-0.063-0.017-0.127-0.026-0.19    c-4.591-32.478-32.782-56.734-65.548-56.467H66.053c-1.943,0.002-3.912,0.091-5.853,0.267    C24.143,26.016-2.541,58.001,0.718,94.058c0.01,0.108,0.02,0.215,0.032,0.323c7.684,72.354,32.649,142.88,72.197,203.955    c35.892,56.461,84.701,105.269,141.162,141.164c60.792,39.406,130.99,64.369,203.013,72.196c0.127,0.015,0.254,0.027,0.38,0.038    c1.961,0.176,3.949,0.266,5.921,0.266c0.083,0,0.165,0,0.247,0.001c36.204-0.148,65.538-29.722,65.391-65.841v-67.233    C489.746,345.714,465.515,317.211,432.59,312.566z M447.698,378.695v67.548c0.055,13.396-10.8,24.338-24.19,24.393    c-0.715-0.004-1.425-0.027-2.135-0.086c-65.578-7.161-129.488-29.914-184.837-65.808c-0.053-0.035-0.107-0.069-0.161-0.103    c-51.429-32.68-95.885-77.137-128.565-128.565c-0.032-0.051-0.064-0.101-0.097-0.153C71.683,220.306,48.928,156.086,41.902,90.193    C40.779,76.91,50.63,65.155,63.923,63.954c0.717-0.064,1.443-0.098,2.145-0.098h67.463c0.146-0.001,0.294-0.003,0.443-0.002    c12.021,0,22.322,8.905,24.044,20.819c3.05,23.063,8.721,45.806,16.871,67.649c3.319,8.832,1.189,18.869-5.427,25.591    l-28.517,28.517c-6.583,6.582-7.956,16.753-3.354,24.847c33.837,59.508,83.177,108.847,142.685,142.685    c8.094,4.6,18.264,3.23,24.848-3.355l28.512-28.512c6.72-6.621,16.765-8.752,25.642-5.415    c21.799,8.134,44.547,13.805,67.61,16.855c12.18,1.757,21.122,12.339,20.816,24.647    C447.7,378.353,447.698,378.524,447.698,378.695z" fill="#FFFFFF"/>
	</g>
</g>
<g>
</g>
<g>
</g>
<g>
</g>
<g>
</g>
<g>
</g>
<g>
</g>
<g>
</g>
<g>
</g>
<g>
</g>
<g>
</g>
<g>
</g>
<g>
</g>
<g>
</g>
<g>
</g>
<g>
</g>
</symbol><symbol id="icon-tools" viewBox="0 0 25.5 26">
<path fill="#EF7424" d="M24.7,2.4l-1.5-1.6c-1-1-2.7-1.1-3.8-0.1l-2.7,2.4c0,0-0.1,0.1-0.1,0.1L14,7.6l-1.7,0.6
	C12.1,8.3,12,8.4,12,8.5c0,0.1,0,0.3,0.1,0.4l4.6,4.7c0.1,0.1,0.2,0.1,0.3,0.1c0,0,0.1,0,0.1,0c0.1,0,0.3-0.1,0.3-0.3l0.6-1.7
	L22.5,9c0,0,0.1-0.1,0.1-0.1l2.3-2.7C25.8,5.1,25.8,3.4,24.7,2.4z M24.2,5.6L22,8.3L17.4,11c-0.1,0.1-0.2,0.1-0.2,0.2l-0.4,1.2
	l-1-1.1l0,0l-1.5-1.6l0,0l-1-1.1l1.2-0.4c0.1,0,0.2-0.1,0.2-0.2l2.7-4.5L20,1.3c0.8-0.7,1.9-0.6,2.6,0.1L24.1,3
	C24.8,3.7,24.9,4.9,24.2,5.6z M23.5,17.8c-1.3-1.3-3.2-1.7-4.9-1.2L9.4,7.2c0.6-1.7,0.1-3.6-1.2-4.9C6.9,0.9,4.8,0.5,3.1,1.2
	C2.8,1.2,2.7,1.5,2.8,1.7c0,0.1,0.1,0.1,0.1,0.1l2.8,2.8L3.8,6.6L1.1,3.8C0.9,3.6,0.8,3.6,0.7,3.6c-0.1,0-0.3,0.1-0.3,0.3
	c-0.7,1.8-0.3,3.8,1.1,5.2c1.3,1.3,3.2,1.8,4.9,1.2l3.5,3.5l-4.3,4.4l-2.7,1.6c-0.1,0-0.1,0.1-0.2,0.2l-1.2,2.5
	c-0.1,0.2-0.1,0.4,0.1,0.5l1.5,1.6c0.1,0.1,0.3,0.2,0.5,0.1l2.5-1.2c0.1,0,0.1-0.1,0.2-0.2l1.5-2.8l4.3-4.4l3.6,3.7
	c-0.6,1.7-0.1,3.6,1.2,4.9c0.9,0.9,2.1,1.4,3.4,1.4c0.6,0,1.2-0.1,1.8-0.3c0.1-0.1,0.2-0.2,0.3-0.3c0-0.1,0-0.3-0.1-0.4l-2.8-2.8
	l1.9-1.9l2.8,2.8c0.2,0.2,0.4,0.2,0.6,0c0,0,0.1-0.1,0.1-0.2C25.3,21.2,24.9,19.1,23.5,17.8z M6.9,19.8c0,0-0.1,0.1-0.1,0.1
	l-1.5,2.7l-2.1,1.1l-1.1-1.1l1-2.1l2.7-1.5c0,0,0.1,0,0.1-0.1l4.4-4.4l0.9,0.9L6.9,19.8z M24,22l-2.6-2.6c-0.2-0.2-0.4-0.2-0.6,0
	l-2.5,2.5c-0.2,0.2-0.2,0.4,0,0.6l2.6,2.6c-1.3,0.3-2.6-0.2-3.5-1.1c-1.1-1.1-1.4-2.8-0.9-4.3c0.1-0.2,0-0.4-0.1-0.5L6.7,9.5
	C6.6,9.4,6.5,9.3,6.4,9.4c-0.1,0-0.1,0-0.2,0C4.8,10,3.1,9.6,2,8.5C1.1,7.5,0.7,6.2,1,4.9l2.6,2.6c0.2,0.2,0.4,0.2,0.6,0L6.6,5
	c0.2-0.2,0.2-0.4,0-0.6L4,1.8c1.3-0.3,2.6,0.2,3.5,1.1C8.7,4,9,5.7,8.5,7.1c-0.1,0.2,0,0.3,0.1,0.5l9.7,9.8c0.1,0.1,0.3,0.2,0.5,0.1
	c1.5-0.6,3.1-0.2,4.2,0.9C23.8,19.3,24.2,20.7,24,22z"/>
</symbol></svg>